<svg xmlns="http://www.w3.org/2000/svg"
	 viewBox="0 0 768 128"
	 width="256"
>
	<path fill="#FFFFFF" d="M356.46,40.72l4.69-2.88l6.4,3.93l-11.09,6.81l-11.28-6.74l6.57-4.01L356.46,40.72L356.46,40.72z M373.55,30.22
	L384,23.8l10.45,6.42l-6.4,3.93L384,31.67l-4.05,2.49L373.55,30.22L373.55,30.22z M406.85,37.84l4.69,2.88l4.71-2.88l6.57,4.01
	l-11.28,6.74l-11.09-6.81L406.85,37.84L406.85,37.84z M428.89,30.12l10.98-6.71l10.95,6.79l-6.72,3.98l-4.23-2.5l-4.19,2.5
	L428.89,30.12L428.89,30.12z M463.16,37.84l4.64,2.88l5.04-2.91l6.28,3.63L467.8,48.2l-10.92-6.46L463.16,37.84L463.16,37.84z
	 M485.31,30.61l10.42-6.02l10.81,6.4l-5.46,3.2l-4.96-2.9l-4.85,2.89L485.31,30.61L485.31,30.61z M518.11,37.83l5.56,3.29l6.23-3.34
	l5.72,3.06l-11.96,6.57L512.73,41L518.11,37.83L518.11,37.83z M542.21,31.19l9.39-5.03l9.41,5.24l-5.33,2.82l-4.08-2.16l-3.9,2.14
	L542.21,31.19L542.21,31.19z M572.48,37.8l6.66,3.71l8.12-3.78l4.72,2.2l-12.85,6.7l-11.55-6.1L572.48,37.8L572.48,37.8z
	 M599.1,32.23l7.97-3.71l8.16,4.02l-3.58,1.71l-4.59-2.2l-4.15,2.16L599.1,32.23L599.1,32.23z M625.79,37.75l9.22,4.54l11.27-4.6
	l3.11,1.27l-14.38,6.48l-12.59-6.03L625.79,37.75L625.79,37.75z M657.34,33.17l5.61-2.29l6.33,2.5l-2.47,0.94l-3.86-1.47l-3.16,1.42
	L657.34,33.17L657.34,33.17z M680.19,37.69l10.68,4.21l13.14-4.25l0.23,0.08v0.64l-13.38,5.11l-12.91-4.91L680.19,37.69
	L680.19,37.69z M332.32,34.17l-4.19-2.5l-4.23,2.5l-6.72-3.98l10.95-6.79l10.98,6.71L332.32,34.17L332.32,34.17z M311.12,41.74
	L300.2,48.2l-11.31-6.76l6.28-3.63l5.04,2.91l4.64-2.88L311.12,41.74L311.12,41.74z M276.72,34.17l-4.85-2.89l-4.96,2.9l-5.46-3.2
	l10.81-6.4l10.42,6.02L276.72,34.17L276.72,34.17z M255.27,41l-10.94,6.4l-11.96-6.57l5.72-3.06l6.23,3.34l5.56-3.29L255.27,41
	L255.27,41z M220.3,34.21l-3.9-2.14l-4.08,2.16l-5.33-2.82l9.41-5.24l9.39,5.03L220.3,34.21L220.3,34.21z M200.41,40.52l-11.55,6.1
	l-12.85-6.7l4.72-2.2l8.12,3.78l6.66-3.71L200.41,40.52L200.41,40.52z M165.07,34.23l-4.15-2.16l-4.59,2.2l-3.58-1.71l8.16-4.02
	l7.97,3.71L165.07,34.23L165.07,34.23z M145.58,39.41l-12.59,6.03l-14.38-6.48l3.11-1.27l11.27,4.6l9.22-4.54L145.58,39.41
	L145.58,39.41z M108.22,34.28l-3.16-1.42l-3.86,1.47l-2.47-0.94l6.33-2.5l5.61,2.29L108.22,34.28L108.22,34.28z M90.03,38.57
	l-12.91,4.91l-13.38-5.11v-0.64l0.23-0.08l13.14,4.25l10.68-4.21L90.03,38.57L90.03,38.57z M356.46,31.28L384,48.2l27.54-16.92
	l28.33,17.31l27.93-17.31l27.93,16.13l27.93-16.52l27.93,14.95l27.54-15.34l27.93,12.98l27.93-13.77l27.93,11.41l27.93-11.02
	l13.38,4.33v-0.79l-13.38-5.11l-27.93,10.62l-27.93-12.59l-27.93,13.38l-27.93-14.56L551.6,39.93l-27.93-15.34l-27.54,16.13
	L467.8,23.8l-27.93,16.52l-28.33-16.92L384,40.33l-27.54-16.92l-28.33,16.92L300.2,23.8l-28.33,16.92l-27.54-16.13L216.4,39.93
	l-27.54-14.56l-27.93,14.56l-27.93-13.38l-27.93,12.59L77.13,28.52l-13.38,5.11v0.79l13.38-4.33l27.93,11.02l27.93-11.41
	l27.93,13.77l27.93-12.98l27.54,15.34l27.93-14.95l27.93,16.52l27.93-16.13l27.93,17.31L356.46,31.28z"/>
</svg>
