<svg xmlns="http://www.w3.org/2000/svg"
	 viewBox="0 0 768 768"
	 width="48"
	 height="48"
>
	<style type="text/css">
		.container{
			width: 50%;
			max-width: 300px;
			display: block;
			animation: 5s infinite both i-animation;
			animation-delay: 1.5s;
		}
		@keyframes i-animation {
			0% {transform: translateY(-48px);}
			50% {transform: translateY(48px);}
			100% {transform: translateY(-48px);}
		}
	</style>
	<g class="container">
		<path fill="#333333" d="M474.55,164.84l43.78,43.92l-105.7,105.98V164.84H474.55L474.55,164.84z M249.57,208.75l105.7,105.98V164.84
			h-61.92L249.57,208.75L249.57,208.75z M307.06,151.12h61.92v177.18l14.96,14.96l14.96-14.96V151.12h61.92L383.95,74.1
			L307.06,151.12L307.06,151.12z M343.36,384L343.36,384l-14.96,14.96l-178.15,0v62.06L73.36,384l76.89-77.02v62.06H328.4L343.36,384
			L343.36,384z M453.22,355.32h149.48v-62.06l-43.78-43.92L453.22,355.32L453.22,355.32z M693.29,384l-76.89-77.02v62.06H439.5
			L424.54,384l14.96,14.96l176.91,0v62.06L693.29,384L693.29,384L693.29,384z M163.96,273.87V164.84h110l-43.78,43.92l125.1,125.37
			v21.2h-21.2l-125.1-125.37L163.96,273.87L163.96,273.87z M602.69,164.84H493.94l43.78,43.92l-125.1,125.37v21.2h21.2l125.1-125.37
			l43.78,43.92V164.84L602.69,164.84z M355.27,603.16V453.41l-105.7,105.98l43.78,43.92h61.92V603.16L355.27,603.16z M163.96,355.32
			v-62.06l45.02-43.92l105.7,105.98H163.96L163.96,355.32z M602.69,494.13v109.03H493.94l43.78-43.92l-125.1-125.37v-21.2h21.2
			l125.1,125.37L602.69,494.13L602.69,494.13z M602.69,412.68l0,62.06l-43.78,43.92l-105.7-105.98H602.69L602.69,412.68z
			 M518.33,559.25l-43.78,43.78h-61.92V453.27L518.33,559.25L518.33,559.25z M208.98,518.66l105.7-105.98H163.96v62.06L208.98,518.66
			L208.98,518.66z M460.83,616.88h-61.92V439.69l-14.96-14.96l-14.96,14.96v177.18h-61.92l76.89,77.02L460.83,616.88L460.83,616.88z
			 M230.18,559.25l125.1-125.37v-21.2h-21.2l-125.1,125.37l-45.02-43.92v109.03h110L230.18,559.25z"/>
	</g>
</svg>
