<svg xmlns="http://www.w3.org/2000/svg"
	 viewBox="0 0 768 768"
	 width="48"
	 height="48"
>
	<style type="text/css">
		.container{
			width: 50%;
			max-width: 300px;
			display: block;
			animation: 5s infinite both i-animation;
			animation-delay: 0.5s;
		}
		@keyframes i-animation {
			0% {transform: translateY(-48px);}
			50% {transform: translateY(48px);}
			100% {transform: translateY(-48px);}
		}
	</style>
	<g class="container">
		<circle fill="#FFFFFF" cx="384" cy="384" r="272"/>
		<path fill="#333333" d="M497.59,358.39c0,9.6-3.2,14.4-6.4,24l-4.8,1.6c-4.8,8,0,4.8-3.2,12.8c-6.4,6.4-19.2,19.2-24,19.2
			c-3.2,0,1.6-3.2,3.2-4.8c-9.6,6.4-8,9.6-20.8,12.8v-1.6c-33.6,16-81.6-16-81.6-59.2c0,3.2-1.6,1.6-1.6,3.2
			c-1.6-22.4,9.6-44.8,30.4-54.4c19.2-9.6,43.2-6.4,57.6,8c-8-9.6-24-20.8-41.6-20.8c-17.6,0-35.2,11.2-40,24
			c-9.6,6.4-9.6,22.4-14.4,25.6c-4.8,40,9.6,57.6,36.8,78.4c4.8,3.2,1.6,3.2,1.6,4.8c-9.6-4.8-17.6-9.6-24-17.6
			c3.2,4.8,8,9.6,12.8,14.4c-8-3.2-19.2-20.8-22.4-20.8c14.4,25.6,57.6,44.8,81.6,35.2c-11.2,0-24,0-36.8-4.8
			c-4.8-3.2-11.2-8-11.2-9.6c32,11.2,64,9.6,91.2-12.8c6.4-4.8,14.4-14.4,16-14.4c-3.2,4.8,0,1.6-1.6,6.4
			c6.4-11.2-3.2-4.8,6.4-19.2l3.2,4.8c-1.6-9.6,11.2-20.8,9.6-35.2c3.2-4.8,3.2,4.8,0,14.4c4.8-11.2,1.6-12.8,1.6-22.4
			c1.6,3.2,3.2,6.4,3.2,9.6c-3.2-11.2,3.2-19.2,4.8-25.6c-1.6,0-4.8,4.8-4.8-8c0-6.4,1.6-3.2,1.6-4.8c-1.6,0-4.8-4.8-6.4-12.8
			c1.6-1.6,3.2,4.8,4.8,4.8c-1.6-6.4-3.2-11.2-3.2-16c-4.8-11.2-1.6,1.6-6.4-4.8c-4.8-17.6,4.8-3.2,4.8-11.2
			c8,11.2,12.8,30.4,14.4,38.4c-1.6-9.6-4.8-17.6-8-27.2c3.2,1.6-4.8-19.2,3.2-6.4c-8-28.8-33.6-54.4-56-67.2
			c3.2,3.2,6.4,6.4,4.8,6.4c-11.2-6.4-9.6-8-11.2-9.6c-9.6-3.2-9.6,0-16,0c-17.6-9.6-20.8-8-38.4-14.4v3.2
			c-11.2-3.2-14.4,1.6-27.2,0c0,0,4.8-1.6,8-3.2c-11.2,1.6-11.2-1.6-22.4,0c3.2-1.6,6.4-3.2,8-4.8c-9.6,0-22.4,4.8-17.6,1.6
			c-14.4,6.4-41.6,16-57.6,30.4v-3.2c-6.4,8-30.4,25.6-32,35.2h-1.6c-3.2,6.4-6.4,12.8-9.6,19.2c-4.8,8-6.4,3.2-6.4,4.8
			c-9.6,19.2-14.4,35.2-17.6,48c3.2,4.8,0,25.6,1.6,43.2c1.6,88,65.6,169.6,136,188.8c9.6,3.2,25.6,3.2,38.4,3.2
			c-16-4.8-17.6-1.6-32-8c-11.2-4.8-12.8-11.2-20.8-17.6l3.2,4.8c-14.4-4.8-8-6.4-20.8-9.6l3.2-4.8c-4.8,0-12.8-8-14.4-12.8h-4.8
			c-6.4-8-9.6-12.8-9.6-17.6l-1.6,3.2c-1.6-3.2-24-28.8-12.8-24c-1.6-1.6-4.8-3.2-8-8l1.6-3.2c-4.8-6.4-9.6-16-9.6-19.2
			c3.2,3.2,4.8,4.8,6.4,4.8c-12.8-33.6-14.4-1.6-24-33.6h1.6c-1.6-3.2-3.2-4.8-3.2-8l1.6-9.6c-9.6-11.2-3.2-48-1.6-67.2
			c1.6-8,8-17.6,12.8-30.4h-3.2c6.4-11.2,36.8-44.8,49.6-43.2c6.4-8-1.6,0-3.2-1.6c14.4-14.4,19.2-11.2,28.8-12.8
			c11.2-6.4-9.6,3.2-4.8-3.2c19.2-4.8,12.8-11.2,36.8-12.8c3.2,1.6-6.4,1.6-8,4.8c16-8,48-6.4,70.4,4.8
			c25.6,11.2,52.8,46.4,54.4,78.4h1.6c0,12.8,1.6,27.2-3.2,41.6L497.59,358.39L497.59,358.39z M497.59,358.39L497.59,358.39
			L497.59,358.39L497.59,358.39L497.59,358.39z M383.99,111.99c150.4,0,272,121.6,272,272s-121.6,272-272,272s-272-121.6-272-272
			S233.59,111.99,383.99,111.99z"/>
	</g>
</svg>
