<svg xmlns="http://www.w3.org/2000/svg"
	 viewBox="0 0 768 768"
	 width="48"
	 height="48"
>
	<style type="text/css">
		.container{
			width: 50%;
			max-width: 300px;
			display: block;
			animation: 5s infinite both i-animation;
			animation-delay: 1s;
		}
		@keyframes i-animation {
			0% {transform: translateY(-48px);}
			50% {transform: translateY(48px);}
			100% {transform: translateY(-48px);}
		}
	</style>
	<g class="container">
		<circle fill="#333333" cx="384" cy="384" r="272"/>
		<path fill="#FFFFFF" d="M656,384c0,150.4-121.6,272-272,272c-150.4,0-272-121.6-272-272c0-150.4,121.6-272,272-272
			C534.4,112,656,233.6,656,384L656,384L656,384z M457.6,256c17.6,9.6,40,4.8,49.6-12.8c9.6-17.6,4.8-40-12.8-49.6
			c-17.6-9.6-40-4.8-49.6,12.8C435.2,224,440,244.8,457.6,256L457.6,256L457.6,256z M384,489.6c-16,0-30.4-3.2-44.8-9.6l-25.6,44.8
			c20.8,9.6,44.8,16,70.4,16c14.4,0,28.8-1.6,41.6-4.8c3.2-14.4,11.2-27.2,24-36.8c14.4-8,28.8-8,43.2-3.2
			c27.2-27.2,44.8-62.4,46.4-102.4H488C484.8,448,440,489.6,384,489.6L384,489.6L384,489.6z M384,278.4c56,0,100.8,41.6,105.6,96
			h51.2c-3.2-40-19.2-76.8-46.4-102.4c-14.4,4.8-28.8,4.8-43.2-3.2c-14.4-8-22.4-20.8-24-36.8c-12.8-3.2-27.2-4.8-41.6-4.8
			c-25.6,0-49.6,6.4-70.4,16l25.6,44.8C353.6,281.6,368,278.4,384,278.4L384,278.4L384,278.4z M278.4,384
			c0-35.2,17.6-67.2,44.8-86.4L296,252.8c-32,20.8-56,54.4-65.6,91.2c11.2,9.6,19.2,24,19.2,40s-8,30.4-19.2,40
			c9.6,38.4,33.6,70.4,65.6,91.2l27.2-44.8C296,451.2,278.4,419.2,278.4,384L278.4,384L278.4,384z M457.6,512
			c-17.6,9.6-24,32-12.8,49.6c9.6,17.6,32,24,49.6,12.8c17.6-9.6,24-32,12.8-49.6C497.6,508.8,475.2,502.4,457.6,512L457.6,512
			L457.6,512z M200,347.2c-19.2,0-36.8,16-36.8,36.8c0,19.2,16,36.8,36.8,36.8c19.2,0,36.8-16,36.8-36.8
			C235.2,364.8,219.2,347.2,200,347.2z"/>
	</g>
</svg>
