<svg xmlns="http://www.w3.org/2000/svg"
	 viewBox="0 0 768 768"
	 width="48"
	 height="48"
>
	<style type="text/css">
		.container{
			width: 50%;
			max-width: 300px;
			display: block;
			animation: 5s infinite both i-animation;
			animation-delay: 0.5s;
		}
		@keyframes i-animation {
			0% {transform: translateY(-48px);}
			50% {transform: translateY(48px);}
			100% {transform: translateY(-48px);}
		}
	</style>
	<g class="container">
		<path fill="#FFFFFF" d="M129.61,638.39h508.77V129.62H129.61V638.39L129.61,638.39z M302.49,531.24
			c7.51,13.33,14.34,24.59,30.77,24.59c15.71,0,25.62-6.15,25.62-30.04V363.22h47.81v163.21c0,49.5-29.02,72.04-71.39,72.04
			c-38.28,0-60.45-19.81-71.72-43.67L302.49,531.24L302.49,531.24z M471.38,527.09c10.25,16.73,23.58,29.03,47.16,29.03
			c19.81,0,32.46-9.9,32.46-23.58c0-16.39-13-22.2-34.81-31.74l-11.95-5.13c-34.5-14.7-57.42-33.11-57.42-72.04
			c0-35.86,27.32-63.15,70.02-63.15c30.4,0,52.25,10.58,68,38.28l-37.23,23.9c-8.2-14.7-17.04-20.49-30.77-20.49
			c-14,0-22.88,8.88-22.88,20.49c0,14.34,8.88,20.15,29.4,29.03l11.95,5.12c40.62,17.42,63.56,35.18,63.56,75.1
			c0,43.04-33.81,66.62-79.22,66.62c-44.4,0-73.09-21.16-87.12-48.89L471.38,527.09z"/>
	</g>
</svg>
