<svg xmlns="http://www.w3.org/2000/svg"
	 viewBox="0 0 768 768"
	 width="48"
	 height="48"
>
	<style type="text/css">
		.container{
			width: 50%;
			max-width: 300px;
			display: block;
			animation: 5s infinite both i-animation;
			animation-delay: 1s;
		}
		@keyframes i-animation {
			0% {transform: translateY(-48px);}
			50% {transform: translateY(48px);}
			100% {transform: translateY(-48px);}
		}
	</style>
	<g class="container">
		<path fill="#FFFFFF" fill-rule="evenodd" d="M711.64,384c0-86.44-146.69-156.52-327.64-156.52S56.36,297.56,56.36,384
			c0,86.44,146.69,156.52,327.64,156.52S711.64,470.44,711.64,384L711.64,384z M485.57,301.43h71.42
			c45.84,0,71.82,26.09,62.79,72.51c-3.5,18.04-11.92,33.14-25.44,45.57c-18.58,17.38-39.46,21.13-64.15,21.13l-26.03,0l-7.71,39.66
			c-0.64,3.3-3.53,5.68-6.89,5.68h-37.13c-2.09,0-4.08-0.93-5.42-2.56c-1.34-1.61-1.88-3.74-1.48-5.8l7.42-38.18
			c-1.13,0.76-2.49,1.2-3.93,1.2h-37.44c-2.09,0-4.08-0.93-5.42-2.56c-1.34-1.61-1.88-3.74-1.47-5.8l14.66-75.45
			c1.44-7.42,0.57-10.73-0.1-11.44c-0.1-0.1-2.39-2.44-13.34-2.44h-23.65l-17.88,92.01c-0.64,3.3-3.53,5.68-6.89,5.68h-36.85
			c-2.09,0-4.08-0.93-5.42-2.56c-1.34-1.61-1.88-3.74-1.47-5.8l6.16-31.7c-4.07,6.85-9.27,13.21-15.47,18.92
			c-8.13,7.61-17.33,13.12-27.32,16.36c-9.71,3.17-22.11,4.77-36.83,4.77h-26.03l-7.71,39.66c-0.64,3.3-3.53,5.68-6.89,5.68h-37.13
			c-4.41,0-7.73-4.03-6.89-8.36l33.14-170.51c0.65-3.3,3.53-5.68,6.89-5.68h71.43c23.5,0,41.1,6.5,52.3,19.32
			c5.9,6.75,9.68,14.85,11.34,24.24l16.17-83.2c0.64-3.3,3.53-5.68,6.89-5.68h36.85c4.41,0,7.73,4.03,6.89,8.36l-7.18,36.98
			c21.91,0,55.21-2.59,71.82,12.65c6.35,5.84,9.88,13.83,10.54,23.87l6-30.85C479.32,303.82,482.21,301.43,485.57,301.43
			L485.57,301.43L485.57,301.43z M503.61,406.73L503.61,406.73l13.87-71.36c14.12,0,44.28-2.58,53.67,7.81
			c4.7,5.21,5.82,14.16,3.36,26.83c-2.57,13.2-7.51,22.61-14.84,28.26C545.81,408.92,520.77,406.73,503.61,406.73L503.61,406.73z
			 M556.99,308.46L556.99,308.46c41.41,0,64.09,22.08,55.91,64.14c-3.23,16.59-10.88,30.33-23.33,41.77
			c-17.22,16.12-36.53,19.26-59.38,19.26h-31.82l-8.81,45.34h-37.14l33.15-170.51H556.99L556.99,308.46z M523.26,342.38
			L523.26,342.38c10.49,0,36.22-1.66,42.68,5.5c3.07,3.41,3.66,10.6,1.68,20.79c-2.22,11.41-6.34,19.5-12.24,24.03
			c-10.78,8.3-29.9,7.01-43.25,7.01L523.26,342.38L523.26,342.38z M390.62,263.12L390.62,263.12l-8.81,45.35
			c20.93,0,60.34-3.19,75.58,10.8c7.85,7.2,10.19,18.88,7.06,35.02l-15.42,79.35H411.6l14.66-75.45c1.67-8.59,1.06-14.43-1.84-17.56
			c-2.9-3.12-9.07-4.69-18.49-4.69h-29.45l-18.98,97.68h-36.85l33.14-170.51H390.62L390.62,263.12z M213.69,406.73L213.69,406.73
			l13.87-71.36h25.45c14.11,0,23.52,2.6,28.22,7.81c4.7,5.21,5.82,14.16,3.36,26.83c-2.57,13.2-7.51,22.61-14.84,28.26
			c-7.33,5.65-18.48,8.47-33.46,8.47H213.69L213.69,406.73z M233.34,342.38L233.34,342.38h19.67c15.7,0,21.15,3.45,23,5.5
			c3.07,3.41,3.65,10.6,1.68,20.79c-2.23,11.41-6.34,19.5-12.24,24.03c-6.04,4.65-15.86,7.01-29.17,7.01h-14.08L233.34,342.38
			L233.34,342.38z M267.07,308.46c21.49,0,37.16,5.64,47.02,16.9c9.84,11.28,12.81,27.02,8.88,47.23
			c-1.61,8.33-4.35,15.94-8.2,22.84c-3.86,6.9-8.89,13.21-15.12,18.94c-7.42,6.95-15.66,11.89-24.72,14.84
			c-9.07,2.96-20.61,4.42-34.66,4.42h-31.82l-8.81,45.34h-37.14l33.14-170.51H267.07z"/>
		<path fill="#333333" d="M384,203.16c-176.6,0-321.3,73.72-334.18,167.25C63.47,282.79,207.87,213.86,384,213.86
			s320.53,68.94,334.18,156.55C705.3,276.87,560.6,203.16,384,203.16L384,203.16L384,203.16z M49.82,397.6
			C62.7,491.13,207.4,564.84,384,564.84s321.3-73.72,334.18-167.25C704.53,485.21,560.13,554.15,384,554.15
			S63.47,485.21,49.82,397.6z"/>
	</g>
</svg>
