<svg xmlns="http://www.w3.org/2000/svg"
	 viewBox="0 0 768 768"
	 width="48"
	 height="48"
>
	<style type="text/css">
		.container{
			width: 50%;
			max-width: 300px;
			display: block;
			animation: 5s infinite both i-animation;
			animation-delay: 1.5s;
		}
		@keyframes i-animation {
			0% {transform: translateY(-48px);}
			50% {transform: translateY(48px);}
			100% {transform: translateY(-48px);}
		}
	</style>
	<g class="container">
		<path fill="#FFFFFF" fill-rule="evenodd" d="M381.92,171.34c-17.31,0.13-33.83,1.56-48.28,4.16c-42.81,7.55-50.49,23.42-50.49,52.57v38.52h101.11v12.88
			H283.15h-38c-29.41,0-55.05,17.7-63.12,51.27c-9.24,38.52-9.63,62.59,0,102.81c7.16,29.93,24.34,51.27,53.75,51.27l34.75,0v-46.2
			c0-33.31,28.89-62.86,63.12-62.86l100.98,0c28.11,0,50.49-23.16,50.49-51.4v-96.3c0-27.46-23.16-48.02-50.49-52.57
			C417.18,172.51,399.23,171.21,381.92,171.34L381.92,171.34L381.92,171.34z M327.26,202.31c10.41,0,19,8.72,19,19.26
			c0,10.67-8.59,19.26-19,19.26c-10.54,0-19-8.59-19-19.26C308.26,211.03,316.72,202.31,327.26,202.31L327.26,202.31z M497.74,279.35
			L497.74,279.35l37.87,0c29.41,0,43.2,21.99,50.49,51.27c10.15,40.73,10.54,71.18,0,102.81c-10.15,30.84-21.08,51.27-50.49,51.27
			h-50.49H384.13v12.88l100.98,0v38.52c0,29.15-24.99,43.99-50.49,51.4c-38.26,11.06-68.97,9.37-100.98,0
			c-26.68-7.94-50.49-23.94-50.49-51.4v-96.3c0-27.72,22.77-51.4,50.49-51.4l100.98,0c33.57,0,63.11-29.41,63.11-64.16V279.35
			L497.74,279.35z M441,523.22c-10.54,0-19,8.46-19,19.26c0,10.54,8.59,19.26,19,19.26c10.54,0,19-8.59,19-19.26
			C460,531.81,451.54,523.22,441,523.22L441,523.22z M384,112c149.78,0,271.2,121.42,271.2,271.2S533.78,654.4,384,654.4
			S112.8,532.98,112.8,383.2S234.22,112,384,112L384,112L384,112z M384,133.34c137.94,0,249.86,111.92,249.86,249.86
			S521.94,633.06,384,633.06S134.14,521.14,134.14,383.2S246.06,133.34,384,133.34z"/>
	</g>
</svg>
