<svg xmlns="http://www.w3.org/2000/svg"
	 viewBox="0 0 768 768"
	 width="48"
	 height="48"
>
	<style type="text/css">
		.container{
			width: 50%;
			max-width: 300px;
			display: block;
			animation: 5s infinite both i-animation;
			animation-delay: 2s;
		}
		@keyframes i-animation {
			0% {transform: translateY(-48px);}
			50% {transform: translateY(48px);}
			100% {transform: translateY(-48px);}
		}
	</style>
	<g class="container">
		<path fill="#FFFFFF" d="M179.44,129.62h409.13c27.17,0,49.82,22.65,49.82,49.82v409.13c0,27.17-22.65,49.82-49.82,49.82l-409.13,0
			c-27.17,0-49.82-22.65-49.82-49.82V179.44C129.62,150.75,152.26,129.62,179.44,129.62L179.44,129.62L179.44,129.62z M445.14,534.22
			v49.82c7.55,4.53,18.12,7.55,28.68,9.06c10.57,1.51,22.65,3.02,34.72,3.02c12.08,0,22.65-1.51,33.21-3.02
			c10.57-3.02,19.63-6.04,27.17-10.57c7.55-4.53,15.1-12.08,19.63-21.14c4.53-9.06,7.55-19.63,7.55-31.7
			c0-9.06-1.51-16.61-4.53-24.16c-3.02-7.55-6.04-13.59-12.08-18.12c-4.53-4.53-10.57-10.57-18.12-13.59
			c-7.55-4.53-15.1-7.55-24.16-12.08c-6.04-3.02-12.08-4.53-18.12-7.55c-4.53-3.02-9.06-4.53-13.59-7.55
			c-3.02-3.02-6.04-6.04-9.06-9.06c-1.51-3.02-3.02-6.04-3.02-10.57c0-3.02,1.51-6.04,3.02-9.06c1.51-3.02,4.53-4.53,7.55-7.55
			c3.02-1.51,7.55-3.02,12.08-4.53c4.53-1.51,10.57-1.51,16.61-1.51c4.53,0,9.06,0,13.59,1.51c4.53,0,9.06,1.51,13.59,3.02
			c4.53,1.51,9.06,3.02,13.59,4.53c4.53,1.51,9.06,4.53,12.08,7.55v-46.8c-7.55-3.02-16.61-4.53-24.16-6.04
			c-9.06-1.51-19.63-1.51-30.19-1.51c-12.08,0-22.65,1.51-33.21,4.53c-10.57,3.02-19.63,6.04-27.17,12.08
			c-7.55,6.04-13.59,12.08-19.63,21.14c-4.53,9.06-7.55,18.12-7.55,30.19c0,15.1,4.53,27.17,13.59,37.74
			c9.06,10.57,21.14,19.63,39.25,27.17c7.55,3.02,13.59,6.04,19.63,7.55c6.04,3.02,10.57,6.04,15.1,9.06
			c4.53,3.02,7.55,6.04,10.57,9.06c3.02,3.02,4.53,7.55,4.53,12.08c0,3.02-1.51,6.04-3.02,9.06c-1.51,3.02-4.53,4.53-7.55,7.55
			c-3.02,1.51-7.55,3.02-12.08,4.53c-4.53,1.51-10.57,1.51-16.61,1.51c-10.57,0-21.14-1.51-31.7-6.04
			c-10.57-4.53-21.14-9.06-30.19-16.61L445.14,534.22L445.14,534.22L445.14,534.22z M362.11,411.93h63.41v-40.76H247.37v40.76h63.41
			v181.16h51.33V411.93z"/>
	</g>
</svg>
