<svg xmlns="http://www.w3.org/2000/svg"
	 viewBox="0 0 768 768"
	 width="48"
	 height="48"
>
	<style type="text/css">
		.container{
		width: 50%;
		max-width: 300px;
		display: block;
		animation: 5s infinite both i-animation;
		animation-delay: 0.5s;
		}
		@keyframes i-animation {
		0% {transform: translateY(-48px);}
		50% {transform: translateY(48px);}
		100% {transform: translateY(-48px);}
		}
	</style>
	<g class="container">
		<path fill="#333333" d="M420.44,112.8v17.31l-49.71,0V140h49.71c0,14.84,0,29.67,0,44.38h-71.57v-17.05h49.71v-10.02h-49.71
			c0-14.84,0-29.67,0-44.38C372.68,112.8,396.49,112.8,420.44,112.8L420.44,112.8L420.44,112.8L420.44,112.8z M269.61,112.8h71.57
			v17.31l-49.58,0v37.09h49.71v17.31h-71.57C269.61,160.56,269.61,136.62,269.61,112.8L269.61,112.8L269.61,112.8L269.61,112.8z
			 M499.56,112.8v17.31l-49.71,0V140h49.71c0,14.84,0,29.67,0,44.38h-71.57v-17.05h49.71v-10.02h-49.71c0-14.84,0-29.67,0-44.38
			C451.8,112.8,475.61,112.8,499.56,112.8z"/>
		<path fill="#333333" d="M384,655.2l165.53-46.59l36.31-406.93H182.03l36.31,406.93L384,655.2L384,655.2L384,655.2L384,655.2z
			 M454.01,381.53l4.81-54.79H260.63l-4.29-48.41h255.32l-24.07,269.38L384,576.99l-103.72-29.15l-8.59-95h48.41l5.21,57.52
			l58.69,16.4l58.69-16.4l7.29-80.55l-180.5-2.86l-4.29-48.15L454.01,381.53z"/>
	</g>
</svg>
