<svg xmlns="http://www.w3.org/2000/svg"
	 viewBox="0 0 768 768"
	 width="48"
	 height="48"
>
	<style type="text/css">
		.container{
			width: 50%;
			max-width: 300px;
			display: block;
			animation: 5s infinite both i-animation;
			animation-delay: 1.5s;
		}
		@keyframes i-animation {
			0% {transform: translateY(-48px);}
			50% {transform: translateY(48px);}
			100% {transform: translateY(-48px);}
		}
	</style>
	<g class="container">
		<path fill="#FFFFFF" d="M384,656c-149.96,0-272-122.03-272-272c0-149.97,122.03-272,272-272c149.97,0,272,122.03,272,272
			C656,533.97,533.97,656,384,656L384,656L384,656z M574.3,359.98c0-13.31,2.09-21.14,2.09-35.5c0-22.19-8.22-29.37-26.36-29.37
			h-13.31v15.79h4.05c9.27,0,11.22,3,11.22,14.36c0,10.57-1.04,21.14-1.04,33.54c0,15.79,5.09,21.8,15.4,24.28v1.04
			c-10.31,2.35-15.4,8.48-15.4,24.28c0,12.27,1.04,22.19,1.04,33.54c0,11.62-2.35,14.75-11.22,14.75v0.26h-4.05v16.45l13.31,0
			c18.01,0,26.36-7.18,26.36-29.37c0-14.75-2.09-22.19-2.09-35.5c0-7.18,4.44-14.75,17.75-15.4v-17.75
			C578.6,374.73,574.3,367.16,574.3,359.98L574.3,359.98L574.3,359.98L574.3,359.98z M505.64,380.87
			c-10.31-4.05-19.84-6.53-19.84-13.31c0-5.09,4.05-8.22,11.62-8.22c7.57,0,14.36,3,21.8,8.48l13.7-18.01
			c-8.48-6.53-20.1-13.31-35.89-13.31c-23.23,0-38.89,13.31-38.89,32.11c0,16.71,14.75,25.32,27.02,30.02
			c10.57,4.05,20.88,7.57,20.88,14.36c0,5.09-4.05,8.48-13.31,8.48c-8.48,0-17.1-3.39-26.36-10.57l-13.7,19.84
			c10.31,8.48,25.97,14.36,38.89,14.36c27.28,0,42.03-14.36,42.03-33.15C533.57,393.14,518.96,385.17,505.64,380.87L505.64,380.87
			L505.64,380.87L505.64,380.87z M272.28,419.37c-2.35,0-5.48-2.09-5.48-8.48v-115.9l-48.55,0c-18.4,0-26.63,7.18-26.63,29.37
			c0,14.75,2.09,22.84,2.09,35.5c0,7.18-4.44,14.75-17.75,15.4v17.75c13.31,0.26,17.75,7.83,17.75,15.01
			c0,12.66-2.09,20.1-2.09,34.85c0,22.19,8.22,29.37,26.36,29.37l13.31,0v-15.79h-4.05c-8.48,0-11.22-3.39-11.22-14.75
			c0-11.22,1.04-20.88,1.04-33.54c0-15.79-5.09-21.8-15.4-24.28v-1.04c10.31-2.35,15.4-8.48,15.4-24.28
			c0-12.27-1.04-22.19-1.04-33.54c0-11.22,2.35-14.36,11.22-14.36h9.14v98.02c0,20.88,7.18,34.46,28.06,34.46
			c6.53,0,11.62-1.04,15.4-2.35l-3.39-22.19C274.37,419.37,273.32,419.37,272.28,419.37L272.28,419.37L272.28,419.37L272.28,419.37z
			 M422.89,380.87c-10.57-4.05-20.1-6.53-20.1-13.31c0-5.09,4.05-8.22,11.62-8.22c7.57,0,14.36,3,21.8,8.48l13.7-18.01
			c-8.48-6.53-20.1-13.31-35.89-13.31c-23.23,0-38.89,13.31-38.89,32.11c0,16.71,14.75,25.32,27.02,30.02
			c10.57,4.05,20.88,7.57,20.88,14.36c0,5.09-4.05,8.48-13.31,8.48c-8.48,0-17.1-3.39-26.36-10.57l-13.31,19.84
			c10.31,8.48,25.97,14.36,38.89,14.36c27.28,0,42.03-14.36,42.03-33.15C450.96,393.14,436.21,385.17,422.89,380.87L422.89,380.87
			L422.89,380.87L422.89,380.87z M322.13,336.1c-24.93,0-48.81,20.88-48.16,53.64c0,33.8,22.19,53.64,51.55,53.64
			c12.27,0,25.97-4.44,36.55-11.62l-10.31-18.01c-7.57,4.44-14.75,6.53-22.19,6.53c-13.7,0-24.28-6.53-27.02-22.19l61.87,0
			c0.26-2.35,1.04-7.18,1.04-12.66C365.86,357.64,350.85,336.1,322.13,336.1L322.13,336.1L322.13,336.1z M302.69,379.17h36.94
			c0-11.62-4.83-20.1-17.1-20.1C312.87,358.94,304.78,365.47,302.69,379.17z"/>
	</g>
</svg>
