<svg xmlns="http://www.w3.org/2000/svg"
	 viewBox="0 0 768 768"
	 width="48"
	 height="48"
>
	<style type="text/css">
		.container{
			width: 50%;
			max-width: 300px;
			display: block;
			animation: 5s infinite both i-animation;
			animation-delay: 2s;
		}
		@keyframes i-animation {
			0% {transform: translateY(-48px);}
			50% {transform: translateY(48px);}
			100% {transform: translateY(-48px);}
		}
	</style>
	<g class="container">
		<path fill="#FFFFFF" d="M384,656c-149.96,0-272-122.03-272-272c0-149.96,122.03-272,272-272c149.96,0,272,122.03,272,272
			C656,533.96,533.97,656,384,656L384,656L384,656z M259.23,351.24L259.23,351.24c-1.04,1.44-2.09,3.13-3.26,4.83
			c0.78,0.65,1.17,0.39,1.7-0.52c0.52-1.04,1.31-1.83,1.96-2.87C260.66,351.89,259.75,351.63,259.23,351.24L259.23,351.24
			L259.23,351.24z M529.27,492.2c0,0.39,0.13,0.65,0.13,1.04c0.26-0.52,0.26-0.78,0.39-1.04H529.27L529.27,492.2L529.27,492.2z
			 M529.27,493.5v-0.13V493.5L529.27,493.5L529.27,493.5z M501.86,545.97L478.5,416.24c-0.39-0.13-0.91-0.39-1.83-0.65
			c0.26,0.52,0.39,0.91,0.52,1.31c0.65-0.13,0.91-0.13,1.17-0.26c0-0.13,0-0.26,0.13-0.39L501.86,545.97L501.86,545.97L501.86,545.97
			L501.86,545.97z M477.58,387c-0.13,0.39-0.13,0.78-0.13,1.17C477.45,387.91,477.45,387.39,477.58,387L477.58,387L477.58,387
			L477.58,387z M477.71,389.74c-0.13,0-0.13,0-0.26-0.13v0.13C477.58,389.87,477.58,389.87,477.71,389.74L477.71,389.74
			L477.71,389.74L477.71,389.74z M477.45,390.79v-0.91c-0.39,0.13-0.78,0.13-1.31,0.26C476.8,390.39,477.45,390.53,477.45,390.79
			L477.45,390.79L477.45,390.79L477.45,390.79z M582.13,358.16c-0.26-5.22-0.39-10.44-0.91-15.79c-0.91-7.18-1.83-14.36-3.52-21.4
			c-1.17-5.74-3.26-11.36-5.22-16.84c-2.61-6.4-5.09-13.05-8.35-19.19c-5.22-9.92-12.14-18.79-18.4-28.06
			c-4.18-5.87-9.53-10.7-13.57-16.84c-2.22-3.52-5.61-6.4-9.01-9.14c-5.35-4.31-10.96-8.22-16.71-12.01c-4.31-3-8.61-5.74-13.18-8.35
			c-3.65-2.09-7.57-3.65-11.22-5.35c-4.31-1.96-8.48-4.44-13.31-5.35c-1.17-0.26-2.35-0.65-3.52-1.04c-3.13-1.04-6-2.22-9.14-3.26
			c-4.7-1.44-9.27-3.26-14.1-4.44c-4.7-1.17-9.53-1.96-14.36-2.74c-5.35-0.78-10.83-1.04-16.31-1.57c-3.52-0.39-7.05-0.78-10.31-0.91
			c-5.09-0.26-10.31-0.26-15.4-0.39c-2.61-0.13-5.22-0.39-7.83-0.26c-3.92,0.13-7.83,0.52-11.75,1.04
			c-3.79,0.39-7.57,1.04-11.09,1.57c-4.44,0.52-8.88,0.78-13.31,1.31c-4.18,0.52-8.48,1.31-12.66,1.96c-1.44,0.26-3,0.78-4.44,1.04
			c-3.26,0.65-6.53,0.91-9.79,1.96c-5.74,1.7-11.62,3.79-17.23,5.87c-5.22,2.22-10.31,4.44-15.27,7.18
			c-5.09,2.87-9.92,6.13-14.75,9.4c-4.57,3.13-9.14,6.26-13.57,9.79c-4.31,3.39-8.35,7.18-12.27,10.96c-2.09,2.09-3.92,4.7-5.87,7.18
			c-3.39,3.92-6.66,7.7-9.92,11.75c-2.61,3.39-5.09,6.92-7.7,10.31c-4.57,6.13-8.48,12.79-12.14,19.32
			c-1.44,2.74-2.87,5.35-4.18,8.09c-1.96,4.05-4.18,7.96-6,12.14c-1.31,2.87-2.48,5.87-3.26,9.01c-1.83,6.66-3.79,13.31-5.48,19.97
			c-1.57,5.87-1.96,12.14-2.09,18.14c-0.13,5.35,0.39,10.57,0.91,16.05c0.13,1.31-0.65,3,0.91,4.05c-0.52,1.44-0.13,2.35,0.65,2.61
			c-0.91,1.44,0.39,2.48-0.13,3.79c-0.13,0.26,0.39,0.78,0.65,1.17c0,0.39-0.13,0.91,0,1.31c0.13,1.17,0.65,2.48,0.65,3.79
			c0,0.91,0.78,1.96,1.04,3c0.13,0.39,0,1.04-0.26,1.31c-0.78,0.91-0.65,1.7,0.52,2.35c0.65,1.7,0.39,2.61,0.26,3.39
			c0.26,1.17-0.13,1.57,0,1.83c1.04,2.22,1.44,4.57,1.57,7.05c0,0.52,0.26,1.04,0.52,1.7c0.13,0,0,2.61,0,2.61
			c0.65-0.39,1.17-0.52,1.83-0.78c0.39,1.7,0.78,3.39,1.31,4.83c0.65,1.04,0.65,1.57,0.39,1.7c0.52,2.48,0.78,4.7,1.7,7.05
			c0-2.61-0.26-5.09-0.65-7.57c1.83,0.65,3.52,1.31,4.57,1.31c0.13-0.39,0.26-0.91,0.39-1.17c-0.78-0.78-1.44-1.96-2.35-2.87
			c0.26,1.04,0,1.44,0,1.83c-0.52-0.26-1.17-0.52-1.83-0.78c0.52-0.65,1.04-1.31,1.83-2.09c0-1.17-0.65-2.35-2.61-2.22
			c0.78-0.26,1.57-0.65,2.61-0.91c1.44-0.78-0.13-2.22-0.13-4.18c0.13-2.22-1.17-4.57-1.57-7.05c-0.65-3.79-0.52-9.4-0.91-13.18
			c-0.78-0.65-1.44,1.04-1.57,1.17c0.39,3.26,0.78,6.4,1.04,9.66c-0.78-2.74-1.31-5.61-1.96-8.88c-0.13,0.91-0.26,1.31-0.26,1.83
			c-0.65,0.65-0.13,1.44,0.26,2.48c-0.91-0.39-1.96-0.26-1.96-0.26v3.79c-1.31-1.31-1.7-2.48-2.35-3.39
			c-0.26-1.04-0.39-2.09-0.65-3.26c0.26-0.65,0-1.04,0-1.44c-0.13-0.91-0.26-1.96-0.39-3.26c0.13-0.13-0.13-2.09-0.13-2.09
			c1.04,0.13,1.7,0.26,2.48,0.26c-1.31-1.7-0.39-2.87,0.13-3.92c0.26-0.52,1.17-0.65,1.44-1.17c1.04-1.96,2.87-3.65,2.87-6.13
			c0-1.17,0.39-2.61,0.52-3.79c0.26-2.35,0.52-4.57,0.65-6.92c0.26-3,0-5.87,0.65-8.74c1.04-4.7,2.48-9.4,3.92-14.1
			c1.04-3.39,2.35-6.53,3.65-9.92c1.96-5.22,3.92-10.44,6.4-15.53c3.65-7.31,7.83-14.23,11.88-21.4c2.61-4.44,5.22-8.61,8.09-12.92
			c2.74-4.18,5.35-8.48,8.48-12.4c4.31-5.48,9.01-10.57,14.23-15.14c5.35-4.83,10.44-9.79,16.31-14.23
			c7.57-5.74,15.4-10.96,23.88-15.4c6.92-3.65,13.97-6.53,21.14-9.14c4.57-1.7,9.53-2.61,14.23-4.05c5.35-1.7,10.7-2.61,16.45-2.74
			c3.65-0.13,7.18-0.52,10.7-0.91c3.26-0.26,6.4-0.52,9.92-0.91c-0.39,0.52-0.52,0.78-0.65,1.04c-1.44,2.22-3.13,4.31-4.57,6.4
			c-1.17,1.7-2.61,3.65-3.79,5.35c-2.22,2.87-4.44,5.61-6.4,8.61c-3.13,4.44-5.87,9.01-9.14,13.44c-3.26,4.31-6.66,8.35-10.05,12.53
			c-4.44,5.74-8.61,11.75-13.05,17.49c-4.05,5.48-8.35,10.83-12.27,16.31c-3.52,4.83-6.53,9.92-9.92,14.88
			c-4.96,7.44-9.92,14.62-14.88,22.06c-3.92,5.61-7.83,11.22-11.88,16.84c-0.26,0.39-0.65,0.52-1.04,0.78
			c-1.04,1.7-1.04,2.74-1.44,3.52c-1.04,1.96-2.09,4.05-3.39,5.87c-0.65,1.04-1.57,1.96-2.48,3.13c-0.13-1.57,2.09-2.48,1.04-4.44
			c-0.65,1.04-1.31,1.96-1.96,3.13l-1.57,3.26c0.52,0.39,1.44,0.65,0.52,1.44c-0.39,0.65-0.78,1.44-1.17,2.22
			c0.65-0.39,1.04-0.78,1.44-1.31c0,1.44-0.78,2.74-1.44,3.92c-0.52,1.04-1.83,1.83-2.87,2.74c0.13,0.13,1.04,0.52,1.17,0.65
			c1.17-0.39,1.57-1.04,1.7-0.65c0.39-0.52,0.78-0.91,0.91-1.31c0.52-1.31,1.31-2.48,2.74-3c0.52-0.26,0.91-0.65,1.31-1.04
			c4.05-4.18,8.22-8.22,11.88-12.66c5.61-6.92,10.7-13.97,16.18-21.01c2.22-3,4.96-5.87,7.44-8.74c0.39,3.13,0.13,6,0,8.88
			c-0.39,4.96-0.65,9.92-1.04,15.01c-0.13,1.96,0,4.05-0.13,6c0,0.52-0.39,0.91-0.39,1.44c0,1.31,0.39,2.87,0.39,4.18
			c-0.39,4.96-0.91,9.79-1.31,14.75c-0.13,1.04,0.39,2.22,0.65,3.13c-0.65,7.31,0.78,14.88-0.39,22.58c0.91-1.44,1.17-2.48,1.17-3.39
			c0.13-0.78,0-1.57,0-2.61v-1.31c0.13-2.48,0.65-4.96,0.39-7.44c-0.26-2.74-0.26-5.22,0.26-7.83c0.26-1.04-0.13-2.48,0.52-3.79v1.96
			c-0.13,7.7,0.13,15.27-0.91,22.97c-0.13,0.65,0.39,1.83-1.04,1.7c-1.17,2.48,0.26,4.18-1.04,5.48c-0.26,0.26,0.26,1.44,0.39,2.35
			c-0.52,1.57-0.52,1.57,0.26,1.7c0.13,3,0.39,5.61,0.52,8.48c2.09-5.09,1.04-10.31,1.96-15.66c0.13,2.22,0.26,4.31,0.13,6.53
			c0,3.52-0.13,6.92-0.26,10.31c0,0.65-0.13,1.31-0.26,1.96c-0.39,1.83-0.52,3.79-1.17,5.48c-0.52,1.31-0.26,3.39-0.26,4.96v5.09
			c0.52,2.35-0.13,3.52,0.26,4.83c-0.39,1.31-0.52,1.7-0.39,2.22l0.39,1.96c2.74-0.26,1.44,1.7,2.61,2.87
			c-0.78,1.04-0.52,1.44-0.52,2.09c0,1.17-0.13,2.35-0.26,3.52c0,3.13-0.13,6.13-0.13,9.14c0,0.39,0.13,0.78,0.13,1.17
			c0,0.26-0.13,3.79-0.13,3.79c0.26,0.39,0,0.78-0.39,1.17c-0.13,0-0.52-17.1-0.52-17.1l-2.22,0c-0.26,8.09,0.39,15.27-1.04,22.84
			c-1.57,0.13-2.09,0.39-3.92,0.39c-4.18,0-8.35,0-12.53,0.13c-4.96,0-9.79,0.13-14.75,0.13c-2.35,0-4.96,0.26-7.44,0.26
			c-3.26,0-6.53-0.39-9.79-0.39c-4.96,0-9.79,0.39-14.75,0.52c-3.65,0.13-7.31,0.13-10.83,0.26c-2.48,0.13-4.83,0.26-7.31,0.52
			c-1.04,0.13-1.96,0.52-3.39,0.91c-0.39,0-1.31-0.13-2.09,0c-1.31,0.26-2.61,1.04-3.92,1.31c-1.96,0.39-2.61,0.91-2.35,3v1.31
			c-0.13,0.26,3-0.39,3-0.39c-0.26,0-0.39,0.78-0.78,1.44c1.04-0.39,1.7-0.65,2.48-0.91c1.96,0.91,3.79,0.39,5.35,0.78
			c5.22,1.31,10.57,1.83,15.92,2.35c3.52,0.26,6.92,0.39,10.31,0.52c4.96,0.26,9.92,0.52,14.88,0.52c4.18,0,8.22-0.39,12.4-0.39
			c5.74,0,11.62,0.26,17.36,0.39c1.17,0,2.61-0.13,3.92-0.13l9.79,0c8.74-0.26,17.49-0.39,26.23-0.65
			c4.96-0.13,10.05-0.39,15.01-0.52l15.27-0.39c5.87-0.13,11.88-0.13,17.62-0.26c4.44,0,8.74-0.13,13.18-0.26
			c4.96-0.13,10.05-0.52,15.01-0.78c2.74-0.13,5.35-0.39,8.09-0.65c3.26-0.26,6.53-0.65,9.79-0.78c4.83-0.26,9.79-0.39,14.62-0.65
			c6-0.39,12.14-0.91,18.27-1.04c5.61-0.26,11.36-0.13,17.1-0.26c4.96-0.13,9.92-0.39,15.01-0.52l8.48-0.39c0,0,5.61-0.13,8.48-0.39
			c4.83-0.26,9.66-0.78,14.49-0.91c3.13-0.13,6.13,0,9.27-0.13c4.96-0.13,10.05-0.39,15.01-0.39c1.83,0,3.92,0.26,6.26,0.39
			c-1.04,0.91-1.7,1.44-2.61,2.22c0.52,0.13,1.04,0.39,1.57,0.65c-0.78,0.52-1.44,0.65-2.09,0.65c-0.26,0.65-0.52,0.91-0.78,2.35
			l2.48,0c-0.91,0-1.7,1.17-2.74,1.96c-1.04-0.26-1.96,0-2.61,1.44c0.91,0.52,0.78,0.91,0.65,1.44c-1.57,0.52-2.87,1.04-2.09,2.87
			c-0.52,0.26-1.17,0.52-1.83,0.91c-0.65,1.04-1.83,1.31-1.57,2.87c0.52,0.13,1.04,0.39,1.44,0.52c-0.65,0.26-1.31,0.65-1.96,0.91
			c-2.35,1.44-1.31,2.22-0.78,2.87c-0.39,0.26-0.78,0.52-1.17,0.65c0.26,1.17,0.65,1.44,0.78,1.44c-0.52,0.39-1.17,0.91-1.96,1.57
			c-0.39,1.17-0.91,1.7-1.44,2.61c-0.52,0.78-0.78,1.83-1.44,2.74c-2.87,3.13-4.83,6.79-8.48,9.14c-1.3,0.91-2.61,2.22-3.79,3.39
			c-2.48,2.22-4.57,4.83-7.18,7.05c-3.39,2.87-6.79,5.35-10.44,7.96c-4.44,3.13-8.88,6.13-13.31,9.14c-2.48,1.57-5.09,2.87-7.7,4.31
			c-2.61,1.44-4.96,2.87-7.57,4.31c-1.57,1.04-3.13,2.61-4.83,3.39c-4.44,1.83-9.14,3.52-13.7,5.22c-4.44,1.83-7.7,3.52-10.96,4.7
			c-3.13,1.04-6.26,1.83-9.53,2.61c-1.04,0.26-2.35,0-3.52,0.13c-2.35,0.39-4.57,0.91-6.92,1.17c-5.87,0.78-11.88,1.31-17.75,2.22
			c-3.52,0.39-6.92,1.04-10.31,1.44c-2.48,0.13-4.96-0.13-7.44-0.13c-1.7,0-3.65,0.39-5.35,0.13c-2.87-0.39-5.61-1.04-8.48-1.57
			c-0.65-0.13-1.57-0.39-2.09-0.13c-1.04,0.52-1.96-0.26-3.13,0c-0.65,0.13-1.31-0.39-1.96-0.39c-0.52-0.13-1.17,0.13-1.83,0
			c-1.44-0.39-2.87-0.91-4.44-0.78c-1.57,0.13-3.26-0.65-4.96-1.04c-2.48-0.52-4.7-1.04-7.18-1.57c-0.91-0.26-1.7-0.65-2.74-1.17
			c-3.52,0-5.74-0.13-7.96-0.91c-1.83-0.65-3.65-1.57-5.61-1.31c-0.52,0.13-0.91-0.13-1.44-0.13c-0.39-0.52-0.78-1.57-1.17-1.57
			c-2.74,0.13-4.31-2.09-6.53-2.87c-1.17-0.39-2.09-1.7-3.39-2.22c-3-1.17-5.35-3.79-8.74-4.18c-1.04-0.13-2.09-0.65-3.39-1.04
			c0.39,0.52,0.65,0.91,1.04,1.31c-3.92-1.83-7.57-4.05-11.09-6c-0.52-0.13-0.91-0.65-1.31-0.91l-3.65-2.48
			c-1.96,0.39-2.87-0.39-3.39-0.65c-3.65-2.61-7.83-4.18-11.22-7.05c-1.44-1.17-3.26-1.96-4.31-3.52c-1.83-2.35-4.18-3.92-6.79-5.22
			c-1.96-1.04-3.92-2.35-5.74-3.52c-0.91-0.65-1.83-1.44-1.83-3c0-0.91-0.39-1.83-1.57-1.31c-0.52-0.78-1.04-1.7-1.7-1.96
			c-1.57-0.65-2.74-1.83-3.92-3c-1.17-1.04-2.09-2.61-3.65-3.13c-2.74-1.04-4.31-3.39-5.87-5.22c-3.79-4.44-7.18-9.27-10.57-13.97
			c-0.26-0.39-0.78-0.65-1.17-1.04c0.52,1.44,1.17,2.74,1.83,4.05c-1.31-0.52-2.22-1.44-3.13-2.48c-0.13,0.13,9.27,15.66,9.27,15.66
			c0.78,1.17,1.44,2.48,2.35,3.65c-1.96,0.13-3.39-0.91-4.05-2.22c-1.17-2.09-2.61-3.52-5.22-3.26c-0.26-0.91-0.52-2.09-0.65-3
			c-0.52,0-0.91,0-1.83-0.13c1.83,3,3.52,5.48,5.22,8.48c-0.65-0.39-1.04-0.65-1.31-0.78c2.48,2.61,4.18,5.74,7.31,7.44
			c0.65,3.13,4.18,4.57,4.96,7.57c-0.65-0.13-1.17-0.26-1.83-0.39c-1.04-1.31-2.22-2.74-3.52-4.18c0.26,0.91,0.65,1.7,1.17,2.48
			c1.57,1.96,3.13,4.05,4.96,5.74c0.65,0.65,1.57,0.91,1.57,2.22c1.04,0.52,1.44,0.65,1.83,0.65c0.26,0.78-0.13,2.09,1.44,1.7
			c1.04,1.96,2.09,1.96,3.65,1.3c1.7,1.7,2.74,1.83,3.92,0.78c0,0.65,0.13,1.31,0.13,1.83c0.52-0.26,0.39-0.65,0.39-1.31
			c0.65,0.52,1.04,0.78,1.31,1.04c1.31,1.83,2.61,3.65,4.44,5.09c2.61,2.22,4.83,4.44,7.31,6.4c4.7,3.92,9.92,7.18,15.14,10.05
			c6.4,3.65,12.66,7.57,19.19,10.96c7.96,4.18,16.45,7.05,25.06,9.01c3.26,0.65,6.26,1.31,9.53,2.09c2.87,0.78,5.61,2.09,8.48,2.74
			c4.31,0.91,8.74,1.7,13.05,2.61c0.91,0.13,1.83,0.26,3,0.39c1.17,0.26,2.61-0.26,3,0.13c0.65,1.04,1.17,0.52,1.96,0.39
			c0.91-0.26,1.96-0.26,3.13-0.26c3.79,0.13,7.44,0.91,11.09,0.65c0.78,0,1.96-0.65,2.74,0.65c1.17-0.52,1.83-0.52,2.35-0.65
			c0.13,1.17,0,1.17-0.26,1.31c-0.26,0.13-0.65,0.26-1.17,0.65c4.83,0.91,9.4,1.04,13.44,0c7.05,0.52,13.05-0.26,18.79-2.35
			c0.52,0.65,0.91,1.57,1.7,0.26c0.26-0.39,0.91-0.52,1.44-0.65c1.17-0.26,2.74-0.78,3.79-0.39c1.17,0.39,1.57-0.65,2.61-0.65
			c1.57,0,3.13-0.13,4.57-0.39c0.78-0.13,1.57-0.52,2.61-0.78c-1.04-0.52-2.09-0.65-3-0.65c1.57-0.78,3.13-1.44,4.57-2.09
			c-0.26,0.39-0.52,0.91-1.04,0.91l1.83,0c-0.39,0-0.91,1.17-1.57,1.96c4.83-1.17,9.27-2.35,13.57-3.39
			c-1.44-2.87,1.57-1.83,2.74-3.52c-1.31,0.39-2.74,0.78-4.05,1.04c4.57-2.22,9.27-4.31,13.83-6.26c-0.65,0.78-1.44,1.17-2.74,1.83
			c0.78,0.13,1.31,0.13,1.7,0.26c2.09,0.65,1.57-1.31,2.22-2.61c2.61,0,3.65-0.39,4.83-0.78c1.31-0.39,2.74-0.78,4.05-1.31
			c2.09-0.91,4.18-2.09,6.26-3.26c0.39-0.13,1.04,0,1.57,0c1.44-0.91,1.96-1.7,2.35-1.57c1.83,0.26,3.26-0.39,3.79-2.09
			c0.91-0.65,1.57-1.17,2.22-1.57c3-1.57,5.74-3.26,8.74-4.83c1.04,0,1.57,0,1.83-0.13c1.7-0.78,3.39-1.7,4.96-2.74
			c-0.39-0.13-1.3-0.65-1.3-0.65c1.3-0.26,1.7-0.39,2.61-0.65c3.26-3.79,7.7-6.26,10.96-9.27c1.44-0.13,1.44-0.52,1.44-0.78
			c0.52-0.65,1.04-1.44,1.7-1.96c3-2.74,6.13-4.96,8.88-7.83c3.92-3.92,7.7-7.96,11.09-12.14c3.26-3.79,6.4-7.57,9.14-11.75
			c3.79-5.74,7.05-11.75,10.31-17.75c2.48-4.31,4.57-8.61,7.05-12.92c0.26-0.39,0.78-0.91,1.17-0.91c3.65-0.39,7.31-0.65,10.7-1.04
			c0.78-0.13,1.7-0.65,2.61-1.04c-0.39-0.65-0.65-1.44-1.04-2.22c-0.52-0.78-1.31-1.44-1.83-2.35c-0.52-0.65-0.91-1.44-1.3-2.22
			c-0.39-0.65-0.78-1.17-1.17-1.83c-0.78-1.44-1.57-3-2.35-4.57c-0.13-0.39-0.39-1.04-0.26-1.44c2.48-5.22,3.39-10.83,5.61-16.18
			c2.22-5.35,3-11.49,4.05-17.23c0.91-5.48,1.44-10.96,2.09-16.58c0.39-3.92,0.91-7.7,1.04-11.62c0.78-6.13,0.52-12.01,0.39-17.75
			C582.65,368.47,582.39,363.25,582.13,358.16L582.13,358.16L582.13,358.16L582.13,358.16z M245.13,523.78L245.13,523.78
			c0.39,0.52,1.31,0.78,2.09,1.17c-1.44-1.7-3-3.39-4.44-4.96l-0.39,0.39C243.3,521.43,244.09,522.61,245.13,523.78L245.13,523.78
			L245.13,523.78z M247.22,524.96L247.22,524.96c-0.52,1.04,0.39,1.83,2.35,1.96c-0.39-0.78-0.65-1.57-1.04-2.35
			C248,524.83,247.61,524.83,247.22,524.96L247.22,524.96L247.22,524.96z M387,580.56L387,580.56c2.61-0.13,4.96-0.39,7.57-0.78
			v-0.39c-2.61,0.26-4.96,0.52-7.57,0.78V580.56L387,580.56L387,580.56z M420.81,577.03L420.81,577.03c0.65-0.13,1.17-0.39,1.96-0.39
			c-0.13-0.26-0.13-0.52-0.26-0.78c-9.01,1.17-17.88,2.48-26.89,3.65v0.39c0.13,0,0.39,0.13,0.52,0.13c2.22-0.13,4.44-0.13,6.66-0.26
			c0.65,0,1.17-0.13,1.7-0.26c0.39-0.13,0.91-0.65,1.31-0.65c1.31,0,2.74,0.13,4.05,0.26v0.39c-0.78,0.13-1.7,0.26-2.61,0.39v0.26
			c2.87-0.39,5.61-0.65,8.61-1.04c-1.31-0.78-3,0.78-3.65-1.17c0.26-0.13,0.52-0.13,0.78-0.26c0.26,1.17,1.04,0.52,1.7,0.39
			C416.89,577.69,418.98,577.43,420.81,577.03L420.81,577.03L420.81,577.03z M422.76,575.73L422.76,575.73
			c0.65,0.91,2.74,0.65,8.88-1.04C428.77,574.95,425.9,575.21,422.76,575.73L422.76,575.73L422.76,575.73z M305.82,303.99
			L305.82,303.99c3.39,0,6.53,0.13,9.66,0c5.48-0.13,10.83-0.26,16.45-0.52c4.7-0.13,9.27-0.39,13.97-0.65
			c3.92-0.26,7.83-0.78,11.75-0.78c10.83,0,21.93-0.13,32.76-1.04c8.61-0.65,17.36-1.57,25.97-1.96c6.26-0.26,12.79,0.26,19.06,0.39
			l6.92,0c-3.65-5.48-7.44-10.96-11.09-16.45c-5.09-7.57-9.92-15.01-15.01-22.58c-3.39-5.09-6.79-10.05-10.31-15.01
			c-3.13-4.31-6-8.61-9.14-12.92c-2.61-3.52-5.22-6.66-7.96-10.05c-3.65-4.57-7.31-9.27-10.83-13.83c-0.52-0.65-1.04-0.91-1.7-0.13
			c-0.78,0.78-1.7,1.57-2.48,2.61c-3.13,4.7-7.18,8.74-9.66,13.83c-0.78,1.31-1.96,2.48-3,3.79c-2.61,3.65-5.09,7.44-7.7,11.09
			l-2.48,3.65l0.39,0.39c0.39-0.39,0.91-0.78,1.31-1.17c-0.39,0.91-0.91,1.83-1.44,3.26c-0.52-1.04-0.78-1.57-1.04-1.96
			c-1.31,1.96-2.74,3.79-4.05,5.48c0.13,0,0.26,0.13,0.39,0.26c0.65-0.65,1.17-1.31,1.83-1.96c0.13,0,0.26,0.13,0.39,0.26
			c-1.57,2.22-3.39,4.18-4.96,6.4c-0.13,0-0.13-0.13-0.26-0.13c0.26-0.52,0.52-1.17,0.78-1.83c-1.83,1.83-3.65,4.05-5.22,6.13
			c-0.78,1.04-1.57,2.35-2.48,3.52c-0.13,0.13-0.13,0.13-0.26,0.13c-0.39,0.26-0.78,0.65-1.17,0.91h0.39
			c0.13,0.52,0.52,1.17,0.39,1.57c-0.65,1.17-1.44,2.09-2.35,3.26c-1.04,1.3-2.22,2.87-3.52,4.18c-0.65,0.65-0.65,2.74-2.61,1.7
			c0,0-0.39,0.26-0.52,0.52c-0.52,1.17-0.91,2.48-1.57,3.52c-0.26,0.52-0.78,1.04-1.31,1.7l0.13,0.26c-0.65,0.52-1.17,0.78-1.57,1.31
			c-1.31,1.7-2.35,3.65-3.79,5.35C314.57,292.25,310.13,298.12,305.82,303.99L305.82,303.99L305.82,303.99z M459.83,365.99
			L459.83,365.99c0-4.7-0.13-9.4-0.26-13.97c-0.13-3.26,0.13-6.4,0.13-9.53c-0.13-3.13-0.39-6-0.52-9.14c-0.13-3-0.13-6-0.13-9.01
			c0-0.39-0.26-0.78-0.39-1.04c-1.31-1.96-2.61-4.05-3.79-6c-0.65-1.04-1.3-1.44-2.61-1.44c-4.96,0.26-9.79,0.26-14.75,0.39
			l-22.97,0.39l-3.13,0c1.57,0.91,3.13,1.7,4.7,2.48c5.87,2.48,11.49,5.22,16.84,8.61c3.65,2.22,6.4,5.48,9.27,8.61
			c0.78,0.78,1.7,1.57,2.48,2.61c2.74,3.92,5.09,7.83,7.83,11.62c2.48,3.52,3.92,7.44,5.22,11.36c0.65,1.83,1.17,3.92,1.7,5.74
			c0.26,0,0.39-0.13,0.52-0.13l0-1.57H459.83L459.83,365.99z M315.35,320.83L315.35,320.83c0.52,12.92-0.26,25.58-0.91,38.37
			c2.09-3.39,4.18-6.53,6.4-9.53c1.57-2.35,3.79-4.31,5.61-6.4c2.74-3,5.48-5.61,8.09-8.74c1.96-2.35,4.18-4.44,6.53-6.13
			c2.48-1.7,4.7-3.92,7.18-5.48c1.83-1.31,4.05-2.48,6.13-3.52c-1.96-0.26-3.92-0.13-5.87,0c-4.83,0.26-9.79,0.39-14.62,0.65
			C327.75,320.18,321.61,320.57,315.35,320.83L315.35,320.83L315.35,320.83z M403.06,450.3L403.06,450.3c2.61-0.65,5.48-1.44,7.83-3
			c3.92-2.22,7.7-4.83,11.22-7.57c1.57-1.04,2.87-2.61,4.05-4.05c1.3-1.7,2.48-3.79,3.79-5.61c1.31-2.22,3.26-4.05,4.31-6.4
			c1.96-4.05,3.65-8.35,5.22-12.53c0.65-1.83,1.17-3.92,1.83-5.74c-0.13-0.13-0.13-0.13-0.26-0.13l-1.17,2.48
			c-0.13,0-0.91-0.39-1.04-0.52c0.65-1.31,1.44-2.61,1.96-3.79c1.57-3.79,3.26-7.44,3-11.62c-0.13-1.3,0.13-2.74,0.39-4.05
			c0.52-3.39,1.04-6.92,1.7-10.18c0.39-1.83-0.52-3.52-0.91-5.09l-1.96-8.88c-1.31-5.09-4.7-8.88-7.7-13.05
			c-2.48-3.52-5.35-6.66-9.14-8.88c-3.92-2.35-7.57-5.09-11.36-7.7c-2.22-1.44-4.31-2.87-6.53-4.05c-1.83-0.91-4.05-1.83-6-2.61
			c-1.57-0.52-3.26-0.91-4.96-1.04c-4.05-0.26-8.09-0.26-12.14-0.39c-0.91,0-2.09,0.13-3,0.39c-2.09,0.52-4.31,1.17-6.4,1.83
			c-0.39,0.13-0.65,0.13-1.04,0.13c-0.91,0-1.96-0.26-2.87,0.13c-4.7,1.96-9.4,4.18-14.1,6.26c-1.96,0.91-3.92,2.22-5.74,3.39
			c-0.13,0.13-0.13,0.39-0.39,0.78c1.17-0.52,2.48-1.17,3.26-1.57c0,0,0.65,0.52,0.65,0.65c-1.17,0.78-3.13,1.83-4.31,2.87
			l-0.65-0.65c0.26-0.52,0.39-1.04,0.78-1.83c-1.04,0.52-1.57,1.04-2.09,1.31c0.26,0.39,0.65,1.04,0.52,1.31
			c-0.13,0.39-0.91,0.39-1.31,0.65c-0.39,0.26-0.78,0.52-1.04,0.78c-1.44,2.35-3.79,3.79-6.13,5.09c-0.78,0.39-1.83,0.91-2.48,1.57
			c-0.91,1.17-1.44,2.74-2.48,3.92c-1.31,1.57-3,3.13-4.44,4.7c-0.39,0.52-0.91,1.04-1.44,1.44c1.3,0.91,0.65,4.18-1.57,5.48
			c0.13-1.31,1.96-2.35,0.91-4.18c-0.52,0.65-0.65,1.04-1.04,1.31c-1.17,0.91-0.91,3-2.87,3.39c-0.13,0-0.13,0.39-0.13,0.65
			c0,0.26,0.26,0.65,0.13,0.78c-0.78,0.78-0.13,2.61-1.7,2.87c-0.13,0,0,1.04,0,1.57c0,0-0.13,0.13-0.26,0.39
			c-0.26-0.26-0.39-0.39-0.65-0.78c-0.13,1.04-0.26,2.22-0.39,3.39c-0.13,0.39-0.13,1.04-0.39,1.17c-1.96,0.78-1.83,2.61-2.48,4.05
			c0.65,0.52,1.17,0.78,1.7,1.17c-0.26,0.52-0.39,0.91-0.65,1.31c-0.52,0.78-1.04,1.57-1.04,2.87c0,1.57-0.26,3.39-0.91,4.96
			c-0.26,0.78-1.44,1.3-2.22,1.83c-0.26,0.13-0.91-0.52-1.31-0.91c-0.26-0.13-0.13-0.52-0.26-0.78l-0.39,0
			c-0.26,0.65-0.52,1.17-0.52,1.83c-0.13,4.7-0.13,9.27-0.13,13.97c0.13,3.52,0.39,7.18,0.26,10.57c-0.13,6.53-0.13,12.79,0.65,19.19
			c0.78,6,0.78,12.27,1.17,18.4c0.13,1.04-0.13,1.96-0.13,3.13c0,2.61,0.13,4.96,0.13,7.57c15.4-0.26,30.41-0.52,44.38-0.78
			c-3-1.44-6.79-3.39-10.57-5.09c0,0,0.13,0.13,0.26,0.52c-2.22-0.52-4.18-1.31-5.74-2.87c-1.17-0.91-2.61-1.7-3.92-2.61
			c-1.44-0.91-3.13-1.7-4.7-2.61c0.13-0.26,0.13-0.39,0.26-0.52c1.04,0.52,2.22,1.04,3.92,1.7c-1.31-3-4.7-4.05-5.09-7.18
			c-1.57,0.78-3.92-0.65-4.57-2.74c-0.13-0.13-0.52-0.13-0.65-0.39c-1.04-1.57-2.09-3.39-3.39-4.96c-1.17-1.57-2.61-3.26-3.79-4.83
			c-0.65-0.91-1.04-1.96-1.57-3.13c0-0.39-0.39-0.65-0.52-0.91c-0.39-0.78-0.65-1.44-0.91-2.35c-1.04-2.35-2.09-4.57-3.13-6.92
			c-0.13-0.39,0.13-1.31,0.52-1.57c0.65-0.39,1.44-0.39,1.7,0.65c0.26,0.65,0.65,1.17,1.04,1.7c0.13,0,0.26-0.13,0.39-0.13
			l-2.35-8.88c0.13-0.13,0.13-0.13,0.26-0.13l2.87,6.92c0,0,0.13-0.13,0.26-0.13c0-0.52-0.13-0.91-0.13-1.31
			c1.31,1.57,2.22,3.39,3.39,4.96c0.52,0.78,1.17,1.57,1.83,2.48c0.26,0.39,0.26,0.78,0.52,1.17c0.91,1.7,1.96,3.65,3.13,5.35
			c0.52,1.04,1.17,2.35,1.7,3.39c-0.39,0.78-0.78,1.7-1.17,2.74c0.26-0.13,0.65-0.26,1.04-0.52c1.31,2.22,2.35,2.61,3,1.7
			c-1.44-0.91-2.35-2.35-2.87-3.92c2.09,1.83,4.57,3.65,6.26,5.74c2.48,3,5.61,4.83,8.88,6.4c3.26,1.57,6.53,3,9.79,4.44
			c3.79,1.7,7.7,2.22,11.62,2.61c3.52,0.26,6.79,0.39,10.31,0.39c3.92,0,7.83,0.13,11.62-0.39
			C394.31,452.52,398.75,451.35,403.06,450.3L403.06,450.3L403.06,450.3z M331.4,443.12L331.4,443.12c-1.57-2.09-3.13-4.31-4.57-6.53
			c-0.13,0.52,0,0.91,0.26,1.31l3.26,4.83c0.26,0.26,0.65,0.39,0.91,0.52L331.4,443.12L331.4,443.12L331.4,443.12z M415.06,461.53
			L415.06,461.53c15.53-0.52,31.06-1.04,46.2-1.57c-1.96-15.14-3.79-30.28-3.52-45.55c-0.26,0.39-0.52,0.91-0.78,1.44
			c-3.52,6.53-6.26,13.57-10.57,19.71c-3.79,5.35-7.96,10.18-13.57,13.7c-0.78,0.52-1.44,1.17-2.22,1.83
			C426.03,455.39,421.07,459.05,415.06,461.53L415.06,461.53L415.06,461.53z M551.19,457.48L551.19,457.48
			c0.78-1.17,0.65-1.96-0.78-2.74c-0.26-0.26-0.52-0.65-0.91-1.17c0.26,0.13,0.39,0.13,0.52,0.13c-0.78-0.65-1.96-1.44-2.87-2.61
			c-1.44-1.83-3-3.79-4.31-5.61c-2.74-3.65-5.35-7.44-8.09-11.22c-2.22-3.13-4.7-6.13-6.92-9.27c-2.74-3.52-5.35-7.05-7.96-10.57
			c-2.87-4.05-5.61-8.22-8.35-12.4c-3.65-5.48-7.18-10.96-10.7-16.58c-3-4.57-5.87-9.4-9.14-13.83c-3.79-5.09-7.83-9.92-10.83-15.66
			c-0.91-1.7-2.35-3.39-3.79-5.09l-0.78,32.11l0.26,0c0.13-0.26,0.13-0.39,0.26-0.65h0.26c0.13,1.96,0.13,4.05,0.26,6h0.13v1.31
			c-1.96-0.78,0-2.61-1.31-3.92v9.4c0,0.39-0.52,2.35,0.52,3.65l-0.26,0.26c0.52,0.65,1.04,1.17,1.44,1.7c0,0.13-0.13,0.26-0.13,0.39
			c-0.52-0.13-1.44-0.13-1.44-0.26v8.88l0.52,0c0.39,1.17,1.04,2.35,1.31,3.26c-0.65-0.26-1.31-0.52-2.22-0.78
			c0.39,2.35-0.65,4.57,1.04,6.13c0.39-0.26,0.78-0.39,0.78-0.39c-0.26-0.39-0.39-0.65-0.52-1.04c1.96,0.78,1.31,2.48,1.57,3.79
			c0.26,1.17,0.26,2.35,0.26,3.65c0,0.13-0.26,0.13-0.52,0.26c1.17,1.31,1.17,1.96-0.13,3.26c0.39,0.13,0.78,0.39,1.31,0.65
			c-0.39,0.13-0.78,0.26-0.91,0.39c0.39,1.04,0.65,1.83,1.04,2.74c0,0.39-0.26,1.17-0.13,1.31c1.44,1.04-0.26,1.83,0.26,2.87h-0.39
			l-0.78-4.05c-0.13,0.13-0.26,0.13-0.39,0.13c0.13,0.78,0.39,1.57,0.39,2.61c0,0.26-0.26,0.65-0.39,1.04c0,0.13-0.26,0.39-0.52,0.52
			c0.26,0.26,0.52,0.39,0.52,0.39c-0.26,0.39-0.52,0.78-0.78,1.31c-0.52-0.39-0.91-0.65-1.44-1.04c0,1.7,0.13,3.52,0,5.35
			c-0.13,4.05-0.52,8.09-0.52,12.14c0,1.83,0.52,3.65,0.78,5.48l0.39,0c0.13-0.26,0.26-0.65,0.39-1.04c0.26,0.39,0.52,0.65,0.65,0.91
			c0.39-0.52,0.65-0.91,0.78-1.17c0.65,0.52,1.04,1.17,1.44,1.17c5.48-0.13,10.96-0.26,16.58-0.52c2.35-0.13,4.7-0.65,7.05-0.65
			c7.05-0.13,14.1-0.13,21.14-0.13c7.31,0,14.62,0,21.93-0.13c1.17,0,3,1.04,3.79-1.04c0.13,0.52,0.13,0.91,0.26,1.17
			C550.8,458.13,551.06,457.87,551.19,457.48L551.19,457.48L551.19,457.48z M558.11,423.94L558.11,423.94c0.13-0.26,0-0.65,0-0.91
			V423.94L558.11,423.94L558.11,423.94z M562.68,364.55L562.68,364.55c-0.52,1.31,0.52,2.61,0.13,4.18
			c1.83-4.31,1.04-8.74,1.04-13.18c0-4.7-0.13-9.27-1.31-13.83c-0.52,0.39-0.78,0.52-1.04,0.78c-0.13-0.26-0.39-0.65-0.39-0.91
			c-0.13-0.52,0-1.04,0-1.57c0-0.13-0.13-0.26-0.13-0.52c-0.26,0.39-0.39,0.65-0.65,0.91c-0.13-0.39-0.13-0.91,0-1.04
			c0.78-0.78,0.39-1.31-0.13-1.83c-0.13-0.26-0.26-0.65-0.39-0.91c-0.78-2.87,0-5.87-0.78-8.74c-0.65-2.09-0.52-4.44-1.04-6.53
			c-0.65-3.26-1.44-6.4-2.35-9.53c-1.31-4.18-2.74-8.22-4.05-12.4c-0.91-2.87-1.7-5.74-3.13-8.35c-1.83-3.52-4.31-6.53-6.4-9.79
			c-0.91-1.31-1.7-2.87-2.87-4.05c-3.39-4.05-6.92-8.09-10.18-12.14c-3.79-4.57-7.44-9.14-11.22-13.57
			c-3.39-3.79-6.79-7.44-10.31-10.96c-2.35-2.61-4.31-5.35-7.57-7.18c-10.18-5.61-20.62-10.96-31.45-15.53
			c-4.83-1.96-9.66-4.18-14.62-5.74c-8.48-2.87-17.23-5.22-26.1-6.79c-4.18-0.65-8.22-1.44-12.27-1.96
			c-4.83-0.65-9.66-0.91-14.49-1.31l-6.4-0.39c-1.57-0.13-3.26-0.39-4.96-0.65c2.61,3.13,5.09,5.87,7.44,8.88
			c4.96,6.4,9.92,12.92,14.75,19.32c4.05,5.35,7.83,10.7,11.75,16.18c3.52,4.7,7.05,9.27,10.44,13.97
			c4.31,5.74,8.61,11.62,12.79,17.49c4.44,6.13,8.22,12.79,13.31,18.53c1.7,1.83,3.13,3,5.61,2.87c3.92-0.13,7.96,0,11.88,0
			c-0.13,0.13-0.26,0.39-0.39,0.52c0,0.65-0.13,1.17-0.13,1.83v2.48c0,2.87-0.26,5.48-0.26,8.22c0.13,2.87,0.39,5.74,0.65,8.74
			c0,0.39,0.13,0.65,0.26,0.91c1.04,1.57,2.22,3.26,3.26,4.7c3.13,4.44,6.26,8.88,9.27,13.44c3.52,5.48,6.53,11.22,10.05,16.71
			c1.04,1.7,2.61,3.26,3.79,4.83c3.39,4.96,6.66,9.79,10.05,14.75c3.65,5.22,6.79,10.57,10.57,15.53
			c5.09,6.53,9.66,13.44,13.83,20.62c0.65,1.31,1.44,2.74,2.48,4.05c3.52,5.22,7.05,10.31,10.44,15.53l4.44,6.53
			c0.26-0.13,0.39-0.13,0.52-0.26c0.13-0.65-0.91-1.44-0.78-2.35c0.13,0,1.31,0.13,1.44,0.13c0,0.39,0.13,0.65,0.26,1.31
			c0.13-1.17,0.26-1.96,0.52-2.87c0.26-0.91-0.39-1.7-0.39-2.61c-0.13-1.44,0.39-3.13,0.65-4.57c0.13-0.13-0.26-0.39-0.39-0.65
			l-0.39,0c0,2.87-1.17,5.22-1.17,7.96h-1.04c0.13-1.31-0.78-1.83-0.78-2.74c0.13-1.44,1.31-2.74,1.44-4.05
			c0.13-1.7,0.13-3.92,0.39-5.48c0.13,0,1.7,0.91,2.09,1.04c-0.39-2.09-1.44-4.7-1.44-6.53c0.13,0,1.83,0.91,2.09,0.91
			c0.26,1.44,0.39,2.61,0.13,4.18c0.65-0.26,0.91-0.39,1.04-0.78c0.52-2.35,1.04-4.7,1.31-7.05c0.26-2.74-0.13-5.35,0.26-7.96
			c0.52-3.52-0.26-7.31,1.17-10.57c0-0.13-0.26-0.39-0.26-0.52c0.13-1.17,0.39-2.35,0.65-3.52c0.26-0.78,0.39-1.57,0.52-2.48
			l-0.13-0.13c-0.13,0.39-0.26,0.65-0.52,1.04c-0.52-0.91-0.52-2.87-1.83-3.26v-6.92c0,0.65,1.57,1.44,1.83,1.83l1.17-0.39v-0.26
			l-0.39,0c-0.13-0.65-0.52-1.44-0.26-1.7c0.78-1.04,0-2.22-0.26-2.74c-1.17-2.35-1.83-4.31,0.78-6.26c-0.13,0-0.39-0.13-0.52-0.26
			c-0.39,0.39-1.96,0.52-2.48,0.78c0.13-1.83-0.78-3.79-0.65-5.61c0,0.39,0.91,0.26,1.04,0.65c0.26-0.52,0.13-0.91,0.26-1.31
			C561.77,363.77,562.55,364.55,562.68,364.55L562.68,364.55L562.68,364.55z M476.8,416.89L476.8,416.89L476.8,416.89
			C476.93,416.76,476.93,416.76,476.8,416.89l0.26,0.13C477.06,417.02,476.93,416.89,476.8,416.89L476.8,416.89z M498.07,549.89
			L498.07,549.89c-0.13-0.26-0.39-0.52-0.52-0.78c-1.44,0.91-3.13,1.83-4.57,2.87c0.13,0.13,0.13,0.26,0.26,0.39
			C495.07,551.84,496.51,550.93,498.07,549.89L498.07,549.89L498.07,549.89z M246.17,367.55L246.17,367.55
			c0.26,0.13,0.65,1.04,0.91,1.31c1.44-1.96,3.52-4.57,4.96-6.4c-0.13-0.13-1.17-0.39-1.3-0.52
			C249.18,363.77,247.61,365.73,246.17,367.55L246.17,367.55L246.17,367.55z M207.93,433.47L207.93,433.47
			c0.13,0,1.17-0.52,1.17-0.52c-1.04-2.35-1.7-4.83-3.26-7.05c-0.13,0-1.04,0.39-1.17,0.52
			C205.84,428.77,206.89,431.25,207.93,433.47L207.93,433.47L207.93,433.47z M242.26,368.86L242.26,368.86
			c-0.26-0.13-0.39-0.26-0.52-0.39c-0.78,1.17-2.87,3.39-3.65,4.57c0.13,0.13,1.57-0.52,1.7-0.39
			C240.69,371.47,241.48,370.16,242.26,368.86L242.26,368.86L242.26,368.86z M483.72,555.37L483.72,555.37
			c0.52,1.17,1.57,1.31,3.39,0.13c-1.04,0-2.09-0.13-3.13-0.26C483.85,555.24,483.85,555.37,483.72,555.37L483.72,555.37
			L483.72,555.37z M242.52,374.6c0.13-0.39,0.39-0.78,0.65-1.17c0.26,0,0.65-0.13,0.65-0.13c0.52-0.91,0.52-1.57,1.04-2.48
			c-0.13-0.13-0.26-0.13-0.39-0.26c-0.78,0.52-1.57,1.17-2.48,1.7c0.26,0.26,0.26,0.39,0.26,0.65c-1.04-0.13-1.44,0.39-1.96,1.83
			c-0.13,0.39-0.78,0.52-1.44,1.04c-0.13,0.26-0.26,0.91-0.52,1.57l0.13,0.13c-0.26,0.26-0.65,0.39-0.65,0.39
			c-0.78,0.78-1.7,1.44-2.61,2.22c-0.13,0.39-0.26,0.78-0.26,1.17c0.91-0.91,2.61-2.74,3.79-3.79l0.13,0.13
			c0.52-0.78,0.91-1.57,1.44-2.48c0.13,0.13,0.13,0.26,0.26,0.39c-0.39,1.04-0.78,2.22-1.17,3.39c-0.26,0.13-0.65,0.39-0.65,0.26
			c-0.52,0.39-0.91,0.91-1.44,1.31l-2.48,1.57c-1.31,1.17-2.74,2.22-4.18,3.52c-0.91,1.44-1.83,2.87-3,4.57
			c1.57-0.39,1.96,0.26,1.83,1.57c1.83,0.26,1.96-1.17,2.61-2.35c0.13-0.26,0.26-0.78,0.52-0.91c1.17-1.04,2.61-1.96,3.92-3.13
			c0.26-0.26,0.26-0.78,0.26-1.17c0-0.13-0.65-0.13-1.04-0.26c1.17-1.31,3-3.65,4.18-5.09c0.65-0.39,1.31-0.91,1.31-1.31
			c-0.13-1.44,0.78-1.83,1.83-2.48C242.65,375.12,242.52,374.73,242.52,374.6L242.52,374.6L242.52,374.6L242.52,374.6z
			 M245.26,373.04c-0.52,0.91-1.04,1.7-1.57,2.74l-0.78-0.39c-0.52,3.13-2.48,5.74-4.31,6.26c0.52,0.26,1.04,0.52,1.44,0.39
			c0.39-0.13,0.65-0.78,0.91-1.17l3.65-5.22l1.17-1.96L245.26,373.04L245.26,373.04L245.26,373.04L245.26,373.04z M200.49,432.16
			L200.49,432.16c-0.13,0.13,0.39,0.91,0.52,1.04h2.87c0-0.65-0.13-1.17-0.13-1.83h-0.39c0,0.52-0.65,0.39-0.65,0.91
			C201.8,432.29,201.15,432.16,200.49,432.16L200.49,432.16L200.49,432.16z M199.45,425.9L199.45,425.9c0-0.13,0.13-0.26,0.26-0.39
			c-0.26-0.91-0.39-1.7-0.65-2.74c-0.39,0.65-0.78,1.31-0.65,1.83C198.27,425.11,199.06,425.5,199.45,425.9L199.45,425.9
			L199.45,425.9z M202.71,417.28L202.71,417.28c-0.26,0-1.04,0.39-1.17,0.52c0.52,1.31,1.17,2.87,1.7,4.18
			c0.13-0.13,0.91-0.52,1.04-0.52C203.89,420.15,203.23,418.72,202.71,417.28L202.71,417.28L202.71,417.28z M501.86,545.97
			c-0.26,0.52-0.52,0.91-0.78,1.44c0.13,0,0.26,0.13,0.39,0.26c0.78-0.78,1.7-1.44,3-2.48C503.29,545.58,502.51,545.71,501.86,545.97
			L501.86,545.97L501.86,545.97z M336.75,261.7L336.75,261.7c-0.13,0.13-0.26,0.13-0.13,0.13c0.13,0.65,0.13,1.17,0.26,2.09
			c0.91-1.31,1.57-2.48,2.48-3.52l-0.26-0.26C338.19,260.79,337.54,261.18,336.75,261.7L336.75,261.7L336.75,261.7z M376.04,329.7
			L376.04,329.7c0,0.13-0.65,1.17-0.52,1.17c0.65-0.13,2.22-1.17,3-1.31c0.39,0,0.91,0.13,1.31,0.26c0-0.52,0-1.04,0.13-1.83
			C378.52,328.66,377.21,329.18,376.04,329.7L376.04,329.7L376.04,329.7z M476.8,443.78L476.8,443.78c-0.13,1.57-0.26,2.87-0.26,4.05
			c0,0.26,0.26,0.78,0.39,0.78c0.26,0.13,0.78-0.13,1.04-0.26c0.13-0.13,0.26-0.39,0.26-0.52c-0.39-0.26-0.78-0.39-1.17-0.65
			C479.67,445.86,477.06,445.21,476.8,443.78z"/>
	</g>
</svg>
