<svg xmlns="http://www.w3.org/2000/svg"
	 viewBox="0 0 768 768"
	 width="48"
	 height="48"
>
	<style type="text/css">
		.container{
			width: 50%;
			max-width: 300px;
			display: block;
			animation: 5s infinite both i-animation;
			animation-delay: 1s;
		}
		@keyframes i-animation {
			0% {transform: translateY(-48px);}
			50% {transform: translateY(48px);}
			100% {transform: translateY(-48px);}
		}
	</style>
	<g class="container">
		<path fill="#FFFFFF" d="M384,656c-149.96,0-272-122.03-272-272c0-149.97,122.03-272,272-272s272,122.03,272,272
			C656,533.97,533.96,656,384,656L384,656L384,656z M561.37,393.66c-14.88,0.13-27.67,3.65-38.5,8.88
			c-3.92-7.83-7.96-14.88-8.61-19.97c-0.78-6-1.7-9.66-0.78-16.71c0.91-7.18,5.09-17.36,5.09-18.14c-0.13-0.78-0.91-4.44-9.53-4.44
			c-8.48-0.13-15.92,1.57-16.71,3.92c-0.91,2.22-2.48,7.31-3.52,12.66c-1.44,7.7-17.1,35.5-25.97,49.99
			c-2.87-5.61-5.35-10.57-5.87-14.62c-0.78-6-1.7-9.66-0.78-16.71c0.91-7.18,5.09-17.36,5.09-18.14c-0.13-0.78-0.91-4.44-9.53-4.44
			c-8.48-0.13-15.92,1.57-16.71,3.92c-0.91,2.22-1.83,7.57-3.52,12.66c-1.83,5.09-22.45,51.42-27.93,63.3
			c-2.74,6.13-5.22,10.96-6.92,14.36l0,0c0,0-0.13,0.26-0.26,0.65c-1.44,2.87-2.35,4.44-2.35,4.44s0,0,0,0.13
			c-1.17,2.09-2.35,4.05-3,4.05c-0.52,0-1.31-5.61,0.13-13.18c3.13-16.05,10.44-41.11,10.44-41.9c0-0.52,1.44-4.83-4.83-7.05
			c-6-2.22-8.22,1.44-8.74,1.44c-0.52,0-0.91,1.31-0.91,1.31s6.79-28.06-12.92-28.06c-12.27,0-29.24,13.44-37.59,25.58
			c-5.22,2.87-16.58,9.01-28.58,15.66c-4.57,2.61-9.27,5.09-13.7,7.57c-0.26-0.26-0.65-0.65-0.91-1.04
			c-23.75-25.32-67.61-43.33-65.78-77.4c0.65-12.4,4.96-45.03,84.31-84.58c65.39-32.24,117.34-23.23,126.34-3.52
			c12.92,28.19-27.8,80.66-95.41,88.36c-25.71,2.87-39.29-7.05-42.68-10.83c-3.52-3.92-4.18-4.18-5.48-3.39
			c-2.22,1.17-0.78,4.7,0,6.66c1.96,5.22,10.31,14.62,24.41,19.19c12.4,4.05,42.55,6.26,79.09-7.83
			c40.85-15.79,72.83-59.78,63.43-96.71c-9.4-37.46-71.52-49.73-130.26-28.84c-34.98,12.4-72.83,31.98-99.98,57.43
			c-32.37,30.28-37.46,56.51-35.37,67.61c7.57,39.16,61.47,64.61,83.01,83.4c-1.04,0.65-2.09,1.17-3,1.57
			c-10.83,5.35-51.95,26.89-62.13,49.6c-11.62,25.71,1.83,44.25,10.83,46.73c27.67,7.7,56.12-6.13,71.52-28.98
			c15.27-22.84,13.44-52.47,6.4-66.04c-0.13-0.13-0.13-0.26-0.26-0.52c2.74-1.57,5.61-3.39,8.48-4.96c5.48-3.26,10.96-6.26,15.66-8.74
			c-2.61,7.18-4.57,15.79-5.48,28.19c-1.17,14.62,4.83,33.54,12.66,40.98c3.52,3.26,7.57,3.39,10.18,3.39
			c9.14,0,13.31-7.57,17.88-16.58c5.61-10.96,10.57-23.88,10.57-23.88s-6.26,34.59,10.83,34.59c6.26,0,12.53-8.09,15.27-12.14
			c0,0.13,0,0.13,0,0.13s0.13-0.26,0.52-0.78c0.65-1.04,1.04-1.57,1.04-1.57v-0.13c2.48-4.31,8.09-14.23,16.31-30.54
			c10.7-21.14,21.01-47.51,21.01-47.51s0.91,6.4,4.18,17.1c1.83,6.26,5.74,13.18,8.88,19.84c-2.48,3.52-4.05,5.48-4.05,5.48
			s0,0,0.13,0.13c-1.96,2.61-4.18,5.48-6.66,8.35c-8.48,10.05-18.53,21.67-19.97,24.93c-1.57,3.92-1.31,6.79,1.83,9.14
			c2.22,1.7,6.26,1.96,10.44,1.7c7.57-0.52,12.92-2.35,15.66-3.52c4.18-1.44,8.88-3.79,13.44-7.05c8.35-6.13,13.31-14.88,12.92-26.5
			c-0.26-6.4-2.35-12.79-4.83-18.66c0.78-1.04,1.44-2.22,2.22-3.26c13.05-19.19,23.23-40.2,23.23-40.2s0.91,6.4,4.18,17.1
			c1.57,5.48,4.7,11.36,7.57,17.1c-12.4,10.05-19.97,21.67-22.71,29.24c-4.83,14.1-1.04,20.49,6.13,21.93
			c3.26,0.65,7.96-0.91,11.36-2.35c4.31-1.44,9.53-3.79,14.36-7.31c8.35-6.13,16.31-14.62,15.79-26.23
			c-0.26-5.22-1.57-10.44-3.52-15.53c10.44-4.31,24.02-6.79,41.24-4.7c36.94,4.31,44.25,27.41,42.81,37.07
			c-1.44,9.66-9.14,15.01-11.75,16.58c-2.61,1.57-3.39,2.22-3.13,3.39c0.26,1.7,1.57,1.57,3.79,1.31c3-0.52,19.45-7.83,20.1-25.71
			C621.54,418.33,599.75,393.53,561.37,393.66L561.37,393.66L561.37,393.66z M276.45,489.72c12.92-14.1,18.14-31.85,12.66-51.95
			c-0.65,0.39-1.31,0.78-1.83,1.17l0,0c0,0-0.26,0.13-0.91,0.52c-3.13,1.96-5.87,3.52-7.57,4.57c-7.83,4.83-19.58,12.92-28.84,21.54
			c-15.01,14.1-18.14,33.8-10.18,38.37C247.09,508.12,264.18,503.16,276.45,489.72L276.45,489.72L276.45,489.72z M365.73,429.03
			c2.61-6.53,13.05-35.37,10.83-39.29c-1.83-3-9.14-0.52-15.79,6.92c-4.18,4.7-11.22,16.58-14.49,26.63
			c-6.66,19.97-3.79,40.07,0.91,41.37C352.55,466.1,361.42,439.47,365.73,429.03L365.73,429.03L365.73,429.03z M439.34,464.27
			c5.09-3.26,16.58-11.22,16.58-23.1c0-0.26,0-0.65,0-1.04c-2.61,3.52-5.09,6.66-7.18,9.27c-3.65,4.44-12.92,14.49-12.92,14.49
			s-1.31,1.31-0.78,1.57C435.82,465.84,437.51,465.18,439.34,464.27L439.34,464.27L439.34,464.27z M496.12,451.35
			c6.4-2.35,17.1-7.96,17.23-22.84c0.13-2.22-0.52-4.7-1.31-7.18c-6.92,6.13-10.96,12.53-12.66,16.31
			C495.07,447.3,494.81,450.43,496.12,451.35z"/>
	</g>
</svg>
