<svg xmlns="http://www.w3.org/2000/svg"
	 viewBox="0 0 768 768"
	 width="48"
	 height="48"
>
	<style type="text/css">
		.container{
			width: 50%;
			max-width: 300px;
			display: block;
			animation: 5s infinite both i-animation;
			animation-delay: 1.5s;
		}
		@keyframes i-animation {
			0% {transform: translateY(-48px);}
			50% {transform: translateY(48px);}
			100% {transform: translateY(-48px);}
		}
	</style>
	<g class="container">
		<path fill="#FFFFFF" d="M656,384c0,150.4-121.6,272-272,272c-150.4,0-272-121.6-272-272c0-150.4,121.6-272,272-272
			C534.4,112,656,233.6,656,384L656,384z M578,332.32l0,0.02c-7.16-0.84-16.46-1.75-23.62-2.18c4.5,5.61,13.1,11.14,20.04,13.73
			c-0.92,6.94-8.24,12.7-11.37,19.38c8.67-2.4,12.84-8.89,18.75-15.57c6.87,4.17,14.99,11.9,23.88,12.07
			c-3.36-7.16-6.35-13.18-12.47-18.34c5.09-3.32,13.62-6.83,17.53-11.99c-6.53-1.41-13.58-1.77-19.93-0.27
			c-4.9-5.39-5.7-14.65-8.08-21.81C579.56,314.24,578.93,324.28,578,332.32z M578,332.32L578,332.32L578,332.32L578,332.32z
			 M585.38,383.25l-0.04,0.01c-5.17-0.6-11.96-1.27-17.13-1.59c3.28,4.06,9.52,8.09,14.54,9.97c-0.63,5.02-5.96,9.23-8.23,14.06
			c6.31-1.73,9.34-6.46,13.62-11.29c4.98,2.99,10.89,8.62,17.35,8.75c-2.4-5.2-4.58-9.6-9.04-13.32c3.69-2.4,9.85-4.98,12.7-8.71
			c-4.72-1.02-9.89-1.28-14.47-0.2c-3.55-3.91-4.14-10.63-5.87-15.83C586.52,370.11,586.06,377.42,585.38,383.25z M585.38,383.25
			L585.38,383.25L585.38,383.25L585.38,383.25z M563.24,423.48l-0.03-0.02c-3.58-0.42-8.26-0.88-11.85-1.1
			c2.25,2.84,6.57,5.6,10.04,6.9c-0.44,3.47-4.12,6.36-5.68,9.71c4.35-1.22,6.44-4.48,9.41-7.82c3.47,2.1,7.53,5.97,11.99,6.05
			c-1.66-3.58-3.16-6.6-6.24-9.19c2.55-1.66,6.81-3.44,8.78-6.02c-3.28-0.71-6.83-0.89-10-0.14c-2.46-2.69-2.87-7.33-4.06-10.93
			C564.02,414.4,563.7,419.42,563.24,423.48z M563.24,423.48L563.24,423.48L563.24,423.48L563.24,423.48z M232.19,420.9l-0.09-0.52
			c1.48,10.33,6.97,20.19,12.73,28.71c2.84,4.21,5.95,8.32,9.56,11.92c3.32,3.32,7.61,6.02,11.15,8.53
			c8.34,0.44,15.06-5.72,6.64-12.7c-3.21-2.69-13.93-18.45-17.57-27.16c-3.4-8.16-10.89-20.41-2.77-27.09
			c28.05-23.36,70.45-42.95,80.46-43.92c-4.87,19.19-25.72,57.76-33.33,76.03c-2.63,6.31-4.37,13.88-3.5,20.74
			c1.07,8.23,7.27,14.7,11.15,15.32c7.9-0.44,13.25-7.38,17.94-12.25c6.5-6.75,12.03-12.99,18.49-19.78
			c6.42-6.75,12.73-13.88,18.42-20.3c3.51-3.95,12.77-13.54,18.27-13.54c-2.07,13.21-13.58,29.49-15.91,42.81
			c-2.36,13.62,10.08,30.3,23.1,18.16c11.81-11.03,23.81-21.44,35.43-32.63c4.12-3.95,3.31,0.7,4.24,4.58
			c0.92,3.95,3.33,17.25,5.2,20.85c3.43,6.57,9.41,11.24,17.01,11.37c6.9,0.11,13.8-3.06,18.64-7.86c3.59-3.58,9.75-13.26,2.92-15.8
			c-4.35-1.63-4.1-3.34-9.37-2.44c-3.28,0.55-6.88,1.4-9.63,3.38c-6.97-0.04-7.24-16.83-6.16-22c1.29-6.16,3.93-12.47,3.53-18.9
			c-0.48-7.93-9.06-13.12-11.04-13.69c-2.95-1.44-4.76,0.43-8.67,4.02c-3.28,3.03-6.89,6.28-10.15,9.37
			c-6.46,6.13-14.55,15.43-17.86,15.43c5.79-13.21,13.47-50.13-12.18-46.87c-10.67,1.37-18.01,7.16-26.42,13.47
			c-5.5,5.31-12.95,12.18-17.75,16.53c-4.5,4.07-7.05,7.64-9.41,7.64c2.51-14.03,31.96-60.09,16.79-73.08
			c-3.03-2.55-5.94-6.15-9.78-6.61c-5.35,0.67-10.63,1.96-15.8,3.6c-10.7,3.69-52.59,24.43-79.35,43.55
			c-2.5,1.81-4.07-1.59-4.39-5.5c-1.66-20.3,3.76-41.59,9.41-60.53c3.91-13.21-10.59-23.24-12.51-23.69
			c-9.42,0.41-8.37,13.77-10.19,20.52c-2.96,11.07-5.69,25.13-6.57,36.54c-0.86,11.11-0.15,21.41,1.26,32.63
			c1.1,8.75,3.62,14.54,1.32,16.87c-1.85,2.22-60.93,56.36-65.69,59.42c-4.93,3.21-1.52,11.07,1.3,15.5
			c2.99,4.66,4.39,7.07,10.59,6.24c5.83-0.78,7.68-7.71,11.07-11.48C186.79,461.49,228.5,420.9,232.19,420.9z M232.19,420.9
			L232.19,420.9L232.19,420.9L232.19,420.9z M533.71,311.58c-2.38-8.82-13.43,4.65-18.97,11.77
			c-15.32,19.71-29.27,59.79-31.52,67.17c-6.86,22.66-9.52,50.56,5.31,70.49c8.64,11.62,23.84,12.51,38.75,8.23
			c7.68-2.21,15.39-7.71,18.01-13.73c2.17-4.98,3.3-14.28-7.68-7.2c-4.24,2.75-12.03,5.76-25.98,5.54
			c-4.69-0.08-12.36-6.79-14.43-13.73c-3.63-11.29-2.09-26.39-2.09-26.39c3.17-19.49,12.22-40.6,20.15-58.31
			c3.08-6.83,12.47-23.88,15.98-29.3c0,0,4.5-7.09,2.49-14.62L533.71,311.58z"/>
	</g>
</svg>
