<svg xmlns="http://www.w3.org/2000/svg"
	 viewBox="0 0 768 768"
	 width="48"
	 height="48"
>
	<style type="text/css">
		.container{
		width: 50%;
		max-width: 300px;
		display: block;
		animation: 5s infinite both i-animation;
		animation-delay: 0.5s;
		}
		@keyframes i-animation {
		0% {transform: translateY(-48px);}
		50% {transform: translateY(48px);}
		100% {transform: translateY(-48px);}
		}
	</style>
	<g class="container">
		<path fill="#FFFFFF" d="M444.26,352.74h-63.76v-57.31h63.76V352.74L444.26,352.74L444.26,352.74z M444.26,155.85h-63.76v58.55h63.76
			V155.85L444.26,155.85z M519.68,295.43h-63.76v57.18h63.76V295.43L519.68,295.43L519.68,295.43z M368.99,225.91h-63.76v58h63.76
			V225.91L368.99,225.91z M444.26,225.91h-63.76v58h63.76V225.91L444.26,225.91z M711.08,322.3c-13.85-9.32-45.93-12.75-70.47-8.09
			c-3.15-23.17-16.04-43.33-39.63-61.43l-13.44-8.91l-8.91,13.44c-17.69,26.74-22.62,70.89-3.56,100.09
			c-8.36,4.52-24.82,10.69-46.62,10.28l-419.15,0c-8.36,48.95,5.62,112.57,42.37,156.31c35.79,42.37,89.4,63.76,159.46,63.76
			c151.78,0,264.07-69.93,316.59-196.89c20.57,0.41,65.13,0.14,88.02-43.6c1.51-2.47,6.31-12.75,8.23-16.45L711.08,322.3
			L711.08,322.3L711.08,322.3z M218.44,295.43L218.44,295.43l0.14,57.18h-63.76v-57.18H218.44L218.44,295.43z M293.72,295.43v57.18
			h-63.76v-57.18H293.72L293.72,295.43z M368.99,295.43v57.18h-63.76v-57.18H368.99L368.99,295.43z M293.72,225.91v58h-63.76v-58
			H293.72z"/>
	</g>
</svg>
