<svg xmlns="http://www.w3.org/2000/svg"
	 viewBox="0 0 768 768"
	 width="48"
	 height="48"
>
	<style type="text/css">
		.container{
			width: 50%;
			max-width: 300px;
			display: block;
			animation: 5s infinite both i-animation;
			animation-delay: 1.5s;
		}
		@keyframes i-animation {
			0% {transform: translateY(-48px);}
			50% {transform: translateY(48px);}
			100% {transform: translateY(-48px);}
		}
		.st0{fill-rule:evenodd;clip-rule:evenodd;fill:#333333;}
		.st1{fill-rule:evenodd;clip-rule:evenodd;fill:#FFFFFF;}
	</style>
	<g class="container">
		<path class="st0" d="M384,112c-150.22,0-272,121.78-272,272s121.78,272,272,272s272-121.78,272-272S534.22,112,384,112L384,112z
			 M384,142.14c133.57,0,241.86,108.28,241.86,241.86S517.57,625.86,384,625.86S142.14,517.57,142.14,384S250.43,142.14,384,142.14z"
			/>
		<path class="st1" d="M526.47,520.13c21.25-10.56,60.94-28.43,74.26,0.04c4.92,10.49,10.68,28.23,13.23,39.07
			c3.6,15.28-3.9,47.4-19.61,52.53c-13.87,4.53-30.06,4.25-46.78,0.9c-1.97-1.64-4.16-4.49-5.69-7.46
			c-11.93-0.46-23.11,0.64-32.53,5.55c0.89,8.82-5.08,10.24-10.67,12.06c-4.15,16.45,8.3,37.93,5.32,52.93
			c-2.13,10.69-15.27,12.34-24.94,14.34c-0.32,5.94,0.42,10.89,1.08,15.92c-2.21,8.14-12.12,12.78-21.51,13.91
			c-30.89,3.72-77.8,5.38-107.52-5.3c-8.29-20.34-14.82-45.08-21.73-68.3c-28.98,3.09-52.42-12.51-74.52-22.73
			c-7.65-3.55-18.24-5.5-21.09-11.59c-2.77-5.9-1.64-17.2-2.32-27.87c-1.75-27.26-3.25-53.56-10.45-81.47
			c-3.23-12.53-8.87-23.58-12.8-35.65c-3.63-11.19-9.98-25.01-11.64-36.17c-2.45-16.53,13.11-17.45,23.07-24.62
			c15.39-11.08,27.47-17.21,44.13-27.2c4.94-2.96,19.82-10.46,21.52-13.91c3.37-6.84-5.78-16.49-8.22-21.86
			c-3.87-8.48-5.88-15.69-6.44-24.06c-13.98-2.21-24.58-10.53-30.98-19.91c-10.59-15.53-17.93-44.25-8.77-66.1
			c0.72-1.72,4.3-5.1,4.83-7.75c1.04-5.2-1.96-12.12-2.15-17.66c-0.96-28.4,4.81-52.87,23.92-61.44
			c7.76-30.92,35.54-41.2,61.71-56.57c9.78-5.74,20.57-9.41,31.71-13.51c39.96-14.7,101.26-11.94,134.42,13.14
			c14.06,10.63,36.54,33.09,44.58,49.35c21.23,42.92,19.73,114.65,4.87,166.86c-2,7.01-4.89,17.31-8.94,25.73
			c-2.82,5.88-11.58,17.64-10.52,22.84c1.1,5.37,19.98,19.7,24.03,23.61c7.29,7.03,21.14,16.37,22.26,25.24
			c1.21,9.44-4.16,22.37-6.88,31.48C545.65,464.89,536.78,493.01,526.47,520.13z"/>
		<g>
			<path class="st0" d="M442.24,288.97c0,0,2.04-26.55,9.19-24.5c7.15,2.04,7.15,9.19,7.15,9.19S441.22,284.89,442.24,288.97
				L442.24,288.97z M289.86,249.56c0,0-33.28-20.14-36.78-0.87c-3.5,19.27-11.39,33.28,5.25,53.42l-11.38-3.5l-10.51-27.15
				l-3.5-26.27l20.14-21.02l22.77,1.75l13.14,10.51L289.86,249.56L289.86,249.56z M289.86,249.56L289.86,249.56L289.86,249.56
				L289.86,249.56z M508.8,127.83c0,0-25.39-0.87-26.27,21.9c0,0,0,3.5,1.75,7c0,0,20.15-22.77,32.4-10.51L508.8,127.83z
				 M508.8,127.83L508.8,127.83L508.8,127.83L508.8,127.83z M397.59,159.1c0,0-4.37-34.95-34.17-14.63
				c-19.27,13.14-17.51,31.53-14.01,35.03c3.5,3.5,2.55,10.56,5.22,5.72c2.67-4.84,1.79-20.61,11.42-24.98
				C375.68,155.86,391.47,150.96,397.59,159.1L397.59,159.1z M397.59,159.1L397.59,159.1L397.59,159.1z M397.59,159.1
				c-23.87-5.56-35.73,9.99-42.96,26.11c-6.46-1.57-3.89-10.35-2.26-14.83c4.27-11.75,21.49-27.39,35.56-25.27
				C393.98,146.03,402.17,151.57,397.59,159.1L397.59,159.1z M397.59,159.1L397.59,159.1L397.59,159.1L397.59,159.1z M513.89,186.28
				c0.38,0.02,0.76,0.03,1.13,0.04c5.39,11.21,10.06,23.07,16.87,32.97c-4.56,10.62-34.52,20.01-34.05,0.95
				c6.48-2.83,17.66-0.58,23.41-4.2C517.92,206.93,513.13,199.18,513.89,186.28L513.89,186.28z M409.81,186.58
				c5.12,9.38,6.78,19.24,14.06,26.33c3.28,3.19,9.65,7.08,6.49,15.96c-0.74,2.09-6.13,6.76-9.25,7.68
				c-11.37,3.36-37.88,0.69-28.9-13.49c9.41,0.44,22.05,6.11,29.08-0.72C415.89,213.71,406.27,196.64,409.81,186.58L409.81,186.58z
				 M409.81,186.58L409.81,186.58L409.81,186.58L409.81,186.58z M509.62,281.93L509.62,281.93c-0.68-4.31,5.19-12.09,3.56-18.57
				c-0.56-2.23-5.64-5.47-8.73-8.84c-12.56-13.7-29.77-34.17-36.61-50.17c-0.76-1.77-1.22-11.46-6.51-7.62
				c-0.64,23.63,16.93,43.2,30.03,58.99c6.4,7.71,14.11,12.11,7.01,24.08c-11.45,4.36-29.98,16.82-45.9,14.1
				c-8.45-1.44-6.54-11.03-9.58-16.24c-5.83,7.66-3.54,19.26,2.46,24.47C473.4,304.89,492.49,292.93,509.62,281.93z M509.62,281.93
				L509.62,281.93L509.62,281.93L509.62,281.93z M283.86,270.35c5.92-28.5-29.7-42.91-33.39-16.03c2.88-1.89,5.2-7.25,10.39-4.7
				c-4.55,8.9-3.46,26.23,2.74,31.85c-0.04-10.56-1.68-28.61,7.33-28.06C277.22,253.79,278.5,267.29,283.86,270.35L283.86,270.35z
				 M520.52,293.12c-7.97,15.17-19.25,31.88-42.64,32.37c-0.48-4.9-0.84-12.36,0.03-15.31C495.79,308.46,506.83,299.36,520.52,293.12
				L520.52,293.12z M408.46,302.96c14.92,7.85,42.34,8.69,62.61,8.09c1.09,4.44,1.06,9.93,1.1,15.35
				C446.11,327.7,415.29,321.25,408.46,302.96L408.46,302.96z M405.63,317.59L405.63,317.59c-13.18,0.02-2.06,7.34,0.17,10.21
				c4.62,5.94,10.04,16.07,18.48,20.56c13.3,7.06,39.73,4.11,49.31,0.21c3.55-1.44,6.4-5.41,7.72-8.77
				C451.4,340.51,415.94,343.49,405.63,317.59z M405.63,317.59L405.63,317.59L405.63,317.59L405.63,317.59z M470.18,626.79
				c-0.58,13.83,1.36,36.02,2.01,50.53c9.2,0.01,13.14-2.01,20.01-4.33c0.78-17.08-5.41-32.88-7.19-48.47
				C481.38,623.56,474.71,627.09,470.18,626.79L470.18,626.79z M326.96,548.11c6.07,55.76,14.85,102.63,30.96,152
				c35.76,10.86,78.87,11.8,110.48,2.01c-5.8-27.87-3.27-61.79-6.66-91.53c-2.56-22.35-1.25-44.84-4.76-67.65
				C418.68,534.98,364.55,541.08,326.96,548.11L326.96,548.11z M466.04,543.29c6.51-2.18,12.26-2.04,18.79-2.11
				c5.65,20.42,5.31,46.39,8.08,69.47c-8.54,1.87-14.78,2.79-23.98,4.18C467.11,590.86,465.72,567.24,466.04,543.29L466.04,543.29z
				 M512.69,539.43c-4.36-1-9.45-0.04-13.61,0.04c1.96,19.52,6.71,41.06,8.39,61.55c6.56,0.2,10.06-2.89,15.46-3.93
				C523.21,579.11,521.35,554.33,512.69,539.43L512.69,539.43z M583.32,603.97c13.67-3.32,22.27-20.07,18.45-37.27
				c-2.57-11.56-7.14-33.33-12.03-40.72c-3.61-5.47-13.42-12.63-21.24-7.62c-12.73,8.15-35.16,10.52-44.44,20.39
				c4.66,15.5,6.1,36.79,8.02,56.43c15.91,0.99,35.48-4.38,48.7,1.32c-9.23,2.99-21.22,3.01-29.2,7.37
				C558.1,607.02,573.36,606.38,583.32,603.97L583.32,603.97L583.32,603.97z M456.15,520.8c-9.6-22.59-18.33-46-32.67-64.2
				c-13.9,9.32-29.2,18.08-33.1,35C410.27,502.86,433.46,513.96,456.15,520.8L456.15,520.8z M479.83,450.85
				c-0.91,22.59-3.49,52.22-9.51,69.93c14.36-18.29,25.95-39.59,38.05-60.32C503.21,452.18,492.43,444.96,479.83,450.85
				L479.83,450.85L479.83,450.85z M452.99,441.32c6.24,0.66,11.17,9.27,20.07,8.71c-1.43,23.2-0.68,46.49-7.16,67.75
				c-12.07-22.13-19.17-48.85-34.8-67.68c1.65-1.75,3.13-3.69,4.75-5.48C442.93,447.57,447.55,440.73,452.99,441.32L452.99,441.32z
				 M435.73,418.54c-0.58,6.45,0.92,8.56,2.22,15.95C459.15,441.12,455.45,405.39,435.73,418.54L435.73,418.54z M412.22,410.82
				L412.22,410.82c5.58,3.05,8.81,6.83,17.28,7.48c-0.04,1.12-0.09,2.26-0.13,3.39c-4.64,3.05-12.13,3.01-17.22,5.57
				c7.51,0.33,13.41,2.14,18.53,4.68c-0.11,2.83-0.22,5.66-0.33,8.49c-8.5,5.82-16.27,14.49-26.29,19.95
				c-4.73,2.58-21.35,9.23-26.39,8.05c-2.85-0.66-3.11-4.2-4.25-7.53c-2.43-7.14-8.01-18.5-8.5-29.25
				c-0.62-13.57-1.99-36.32,12.64-33.52C389.36,400.39,403.08,405.83,412.22,410.82L412.22,410.82z M324.96,394.97
				c-7.58,7.7,21.27,18.19,30.45,18.76c-0.05-4.87,2.78-9.46,2.21-12.96C346.71,398.85,332.37,400.12,324.96,394.97L324.96,394.97
				L324.96,394.97z M418.36,398.58L418.36,398.58c14.21,6.33,32.28-2.58,46.63-3.86c-6.24,4.07-11.54,9.15-17.53,13.5
				c-13.28,0.66-20.52-0.92-30.28-8.54C417.34,399.06,418.32,399.34,418.36,398.58L418.36,398.58z M504.09,424.58
				c-0.41-8.55-2.66-26.14-7.94-29.22c-11.1-6.48-30.82,13.08-39.17,16.06c0.91,2.62,2.41,4.69,2.52,8.03
				c4.94-1.22,10.96-0.38,15.24,1.72c-4.95,0.55-10.44,0.52-13.72,2.88c-1.2,3.47,0.29,8.2-0.5,13.02
				c11.75,3.32,25.18,5.08,40.04,5.52C503.45,438.83,504.43,431.67,504.09,424.58L504.09,424.58L504.09,424.58z M291.5,380.63
				c2.16-0.85,20.7,22.71,20.7,21.78c13.05,9.27,29.27,16.59,44.44,23.82c0.93,6.96,3.07,15.97,6.85,28.04
				c4.16,13.32,7.6,32.13,25.2,22.53c-1.67,7.61-11.45,12.33-8.75,21.2c1.69,5.57,20.17,12.44,26.03,15.75
				c10.81,6.1,20.68,9.47,28.98,13.03c-37.74,1.04-73.18,4.1-108.06,8.85c-4.17-6.47-2.49-16.45-2.93-26.76
				c-0.48-11.19,4.17-36.43-0.23-37.99c-4.97-1.77-5.9,8.31-6.08,10.53c-0.93,11.82,5.62,36.85-0.84,50.99
				c-7.08-2-10.56-7.33-17.2-9.74c-2.6,8.19,5.39,8.59,4.57,13.79c-1.09,6.88-14.12,1.13-14.05,11.36c8.49,1.36,21.5-2.64,30.57,1.19
				c2.37,27.82,6.18,54.19,10.36,83.74c-36.09-1.87-59.46-19.81-86.06-32.25c-1.66-58.83-11.03-119.87-34.25-169.7
				C235.1,412,262.35,392.12,291.5,380.63L291.5,380.63z M488.69,383.16L488.69,383.16c3.4-4.99,12.31-9.11,16.46-15.24
				c10.24,8.25,16.43,16.01,26.25,24.84c5.33,4.78,15.81,10.5,16.87,18.23c0.59,4.31-2.05,14.88-3.03,19.72
				c-4.3,21.27-13.98,49.38-23.19,71.67c-3.35,8.1-6.55,18.23-10.98,19.98c-12.1,4.79-26.8-0.46-37.08,5.94
				c13.83-23.99,28.88-46.65,42.43-70.93c-2.06-4.82-7.12-6.87-8.6-12.23C517.35,427.17,512.97,371.39,488.69,383.16L488.69,383.16z
				 M256.66,167.82c-11.57,12.73-9.15,36.59-7.75,53.56c20.92-13.16,48.68,1.04,48.41,23.42c9.99-0.27,3.73-12.47,1.92-20.33
				c-5.9-25.68,9.94-53.59,0.72-77.08C282.05,148.74,267.34,156.06,256.66,167.82L256.66,167.82z M339.45,93.92
				c-26.2,7.42-59.77,26.46-70.53,49.99c8.34-1.21,14.12-5.41,22.34-5.93c3.11-0.2,7.18,1.3,10.75,0.42
				c7.12-1.77,13.12-17.72,18.49-23.66c5.23-5.8,11.52-8.28,15.83-13.56c2.77-1.33,6.86-1.24,7.01-5.4
				C342.15,94.49,340.89,93.52,339.45,93.92L339.45,93.92L339.45,93.92z M475.81,100.9c-27.19-15.34-73.21-26.88-102.13-12.46
				c-23.34,11.64-54.88,30.89-65.64,55.28c10.05,23.54-2.98,45.12-3.81,69.02c-0.44,12.72,5.99,23.82,6.48,37.67
				c-3.44,5.67-13.94,6.37-21.21,5.98c-2.45-12.25-6.73-26.01-19.34-27.4c-17.85-1.95-30.9,12.82-31.71,28.25
				c-0.96,18.15,13.94,48.24,35.06,46.15c8.16-0.81,10.16-8.99,19.05-8.9c4.82,9.61-7.43,12.63-8.69,19.51
				c-0.33,1.78,1.02,8.72,1.8,11.97c3.84,15.85,12.39,36.36,20.81,48.43c10.68,15.31,31.67,17.61,54.25,19.11
				c4.03-8.69,18.89-7.97,28.57-5.7c-11.6-4.59-22.39-15.73-31.33-25.59c-10.27-11.31-20.67-23.45-21.19-38.23
				c19.4,26.92,35.43,50.43,70.72,62.27c26.7,8.95,57.88-4.1,78.39-18.51c8.51-5.99,13.59-15.49,19.64-24.18
				c22.64-32.56,33.2-79.05,30.88-124.1c-0.96-18.58-0.91-37.1-7.15-49.6c-6.52-13.07-28.55-24.76-41.45-12.94
				c-2.39-12.71,10.73-20.57,26.14-16C502.96,126.76,491.43,109.72,475.81,100.9L475.81,100.9L475.81,100.9z M526.47,520.13
				L526.47,520.13c10.31-27.12,19.18-55.23,28.27-85.65c2.72-9.11,8.09-22.03,6.88-31.48c-1.12-8.87-14.97-18.21-22.26-25.24
				c-4.05-3.9-22.93-18.24-24.03-23.61c-1.06-5.19,7.7-16.96,10.52-22.84c4.04-8.42,6.94-18.72,8.94-25.73
				c14.85-52.21,16.36-123.94-4.87-166.86c-8.04-16.26-30.52-38.71-44.58-49.35c-33.16-25.08-94.46-27.85-134.42-13.14
				c-11.14,4.1-21.92,7.77-31.71,13.51c-26.17,15.37-53.95,25.65-61.71,56.57c-19.12,8.56-24.89,33.04-23.92,61.44
				c0.19,5.54,3.19,12.46,2.15,17.66c-0.53,2.64-4.11,6.03-4.83,7.75c-9.16,21.85-1.82,50.58,8.77,66.1c6.4,9.38,17,17.7,30.98,19.91
				c0.55,8.37,2.57,15.58,6.44,24.06c2.45,5.37,11.59,15.02,8.22,21.86c-1.69,3.45-16.58,10.95-21.52,13.91
				c-16.67,10-28.75,16.13-44.13,27.2c-9.96,7.16-25.52,8.08-23.07,24.62c1.66,11.16,8,24.98,11.64,36.17
				c3.93,12.07,9.56,23.12,12.8,35.65c7.2,27.91,8.7,54.21,10.45,81.47c0.69,10.67-0.45,21.97,2.32,27.87
				c2.86,6.09,13.44,8.04,21.09,11.59c22.1,10.22,45.54,25.82,74.52,22.73c6.91,23.23,13.44,47.96,21.73,68.3
				c29.72,10.69,76.62,9.02,107.52,5.3c9.39-1.14,19.3-5.77,21.51-13.91c-0.66-5.02-1.4-9.98-1.08-15.92
				c9.66-2,22.81-3.65,24.94-14.34c2.98-15-9.47-36.48-5.32-52.93c5.6-1.82,11.56-3.23,10.67-12.06c9.43-4.91,20.6-6.01,32.53-5.55
				c1.53,2.97,3.72,5.83,5.69,7.46c16.71,3.36,32.9,3.63,46.78-0.9c15.71-5.13,23.2-37.25,19.61-52.53
				c-2.55-10.83-8.31-28.57-13.23-39.07C587.41,491.7,547.72,509.56,526.47,520.13z M526.47,520.13L526.47,520.13L526.47,520.13
				L526.47,520.13z M384.72,309.58c1.15-1.53,7.49-3.86,16.36,0.4c0,0-10.51,1.75-9.63,19.27l-4.38-0.88
				C387.06,328.38,382.54,312.5,384.72,309.58L384.72,309.58z M384.72,309.58L384.72,309.58L384.72,309.58L384.72,309.58z
				 M572.49,534.99c-13.55,2.71-23.08,15.89-36.3,15.04C543.46,539.78,556.19,535.46,572.49,534.99L572.49,534.99z M578.47,556.2
				c-11.05,1.17-24.02,2.96-35.23,2.03C548.55,550.13,568.99,552.92,578.47,556.2L578.47,556.2z M582.3,574.48
				c-12.42,0.27-27.85,0.02-39.65-0.97C549.63,566.02,574.25,570.73,582.3,574.48L582.3,574.48z M462.49,460.18
				c0,2.66-2.16,4.82-4.82,4.82c-2.66,0-4.82-2.16-4.82-4.82c0-2.66,2.16-4.82,4.82-4.82C460.33,455.36,462.49,457.52,462.49,460.18
				L462.49,460.18z M467.3,482.51c0-2.66-2.16-4.82-4.82-4.82c-2.66,0-4.82,2.16-4.82,4.82c0,2.66,2.16,4.82,4.82,4.82
				C465.15,487.33,467.3,485.17,467.3,482.51z"/>
		</g>
		<path class="st0" d="M465.33,541.47c-0.34,25.21,1.13,50.07,3.05,75.31c9.68-1.45,16.25-2.42,25.24-4.39
			c-2.92-24.3-2.56-51.64-8.51-73.13C478.24,539.32,472.19,539.17,465.33,541.47z"/>
		<path class="st0" d="M538.49,489.31c-0.73,2.17-1.31,3.88-1.74,5.14c-0.44,1.29-1.04,3-1.77,5.1l-1.41-0.49l-1.41-0.49
			c0.45-1.28,1.03-2.98,1.76-5.09c0.74-2.14,1.32-3.86,1.74-5.12l1.42,0.47l0.25,0.08L538.49,489.31L538.49,489.31z M327.96,647.02
			l-0.2-0.67l0.21-0.06l-0.16-1.73l0.62-0.06l1.84-0.2l0.55,1.87l-1.29,0.38l-0.15,0.04l-0.12,0.04l0.08,0.78l-1.27,0.12l-0.05-0.54
			L327.96,647.02L327.96,647.02z M496.37,383.31c3.4,0.71,6.16,3.43,8.32,7.37c2.28,4.16,3.86,9.64,4.8,15.58
			c2.17,13.84,0.82,30.04-3.48,38.16l-0.12,1.09c0.9,3.29,2.9,5.36,4.89,7.43c1.3,1.35,2.59,2.69,3.45,4.33
			c-7.26,12.97-15.04,25.62-22.81,38.27c-6.41,10.43-12.83,20.87-19.16,31.85l2.09,2.02c5.17-3.22,11.75-3.29,18.5-3.36
			c6.15-0.07,12.44-0.13,18.28-2.44c4.26-1.68,7.2-9.16,10.07-16.47c0.59-1.51,1.19-3.02,1.72-4.3c4.9-11.86,9.93-25.36,14.22-38.6
			c3.78-11.69,6.99-23.2,9.02-33.22c0.12-0.6,0.39-1.84,0.69-3.21c1.18-5.43,2.87-13.2,2.35-16.97c-0.88-6.44-7.32-11.33-12.81-15.5
			c-1.67-1.27-3.25-2.47-4.52-3.6l0,0c-4.11-3.69-7.56-7.18-10.94-10.59c-4.73-4.78-9.33-9.43-15.33-14.26l-1.26-1.02l-0.91,1.34
			c-2.04,3.01-5.45,5.61-8.68,8.07c-3.08,2.35-6.02,4.58-7.76,7.14l-0.7,1.03l1.63,1.63l0.96-0.46
			C491.71,383.22,494.2,382.86,496.37,383.31L496.37,383.31z M248.45,401.77c13.56-8.79,27.72-16.67,42.37-22.45
			c2.41-0.95,11.3,9.5,17.22,16.47c1.5,1.76,2.45,3.26,3.07,4.2l1.78,1.26c11.55,8.2,25.68,14.9,39.32,21.37l5.55,2.63l0.11,0.81
			c0.46,3.42,1.21,7.35,2.32,11.93c1.11,4.57,2.58,9.8,4.46,15.82c0.37,1.2,0.77,2.54,1.18,3.91c1.4,4.72,2.87,9.7,4.96,13.54
			c3.18,5.83,8,9.02,16.88,4.18l2.89-1.57l-0.71,3.21c-0.73,3.33-2.77,6.03-4.8,8.7c-2.7,3.56-5.38,7.1-3.97,11.71
			c1.05,3.47,11.13,8.14,18.58,11.59c2.74,1.27,5.15,2.38,6.71,3.26c7.92,4.47,15.34,7.46,22,10.14c2.36,0.95,4.63,1.87,6.79,2.79
			l-0.54,2.87c-18.75,0.51-36.99,1.54-54.93,3.03c-17.93,1.49-35.45,3.44-52.79,5.8l-0.94,0.13l-0.52-0.8
			c-3.29-5.1-3.2-11.92-3.11-19.4c0.03-2.62,0.07-5.32-0.05-8.06c-0.18-4.13,0.31-9.98,0.81-15.9c0.83-9.94,1.68-20.07-0.04-20.69
			c-1.36-0.48-2.3,1.02-2.92,2.83c-0.82,2.4-1.08,5.33-1.16,6.39c-0.31,3.91,0.24,9.4,0.84,15.45c1.2,12.04,2.61,26.29-1.81,35.96
			l-0.53,1.17l-1.23-0.35c-4.02-1.14-6.88-3.23-9.74-5.31c-1.89-1.38-3.77-2.76-5.97-3.79c-0.36,2.78,1.05,4.29,2.35,5.68
			c1.6,1.72,3.09,3.32,2.63,6.25c-0.65,4.11-4.01,4.76-7.56,5.44c-2.8,0.54-5.76,1.11-6.35,4.36c2.95,0.26,6.45,0,10.08-0.28
			c6.61-0.5,13.64-1.04,19.42,1.4l0.84,0.35l0.08,0.9c2.25,26.39,5.79,51.41,9.71,79.09l0.88,6.22l-1.81-0.09
			c-27.71-1.44-47.9-12.2-67.75-22.77c-6.21-3.31-12.38-6.6-18.72-9.56l-0.84-0.39l-0.03-0.92c-0.88-31.12-3.92-62.86-10.04-93.2
			c-5.4-26.74-13.19-52.41-24.01-75.63l-0.5-1.08l0.95-0.73C222.01,420.21,234.92,410.54,248.45,401.77z"/>
	</g>
</svg>
