<svg xmlns="http://www.w3.org/2000/svg"
	 viewBox="0 0 768 768"
	 width="48"
	 height="48"
>
	<style type="text/css">
		.container{
			width: 50%;
			max-width: 300px;
			display: block;
			animation: 5s infinite both i-animation;
			animation-delay: 2s;
		}
		@keyframes i-animation {
			0% {transform: translateY(-48px);}
			50% {transform: translateY(48px);}
			100% {transform: translateY(-48px);}
		}
	</style>
	<g class="container">
		<path fill="#333333" d="M384,112c150.4,0,272,121.6,272,272S534.4,656,384,656S112,534.4,112,384S233.6,112,384,112L384,112z
			 M384,215.05c-15.89,0-27.25,8.03-32.24,22.9l0,0l-0.18,0.57c-0.85,2.43-2.56,4.48-4.81,5.76L204.59,325.2l-0.57,0.34
			c-10.29,6.4-10.06,21.64,0.65,27.66l57.89,32.52c0.91,0.51,1.65,1.27,2.13,2.2c1.37,2.62,0.35,5.86-2.27,7.23l-57.2,29.86
			c-11.27,5.88-11.57,21.91-0.53,28.22l170.87,97.6c4.93,2.82,10.98,2.82,15.92,0.01l171.85-98.01c11.03-6.29,10.76-22.29-0.48-28.2
			l-56.59-29.79c-0.92-0.49-1.68-1.23-2.19-2.14c-1.44-2.59-0.51-5.85,2.08-7.29l57.13-31.78l0.58-0.34
			c10.38-6.32,10.26-21.62-0.45-27.7L478,277.09l-0.64-0.34c-4.74-2.42-10.4-2.33-15.08,0.27l-61.16,33.94
			c-2.02,1.12-4.35,1.56-6.64,1.25l0,0l-1.5-0.19l0,0l-1.35-0.13c-0.85-0.07-1.61-0.11-2.27-0.11c-17.73,0-32.13,12.01-32.13,26.8
			c0,14.79,14.4,26.8,32.13,26.8c17.73,0,32.13-12.01,32.13-26.8l0,0l0.02-0.39c0.13-1.17,0.81-2.22,1.86-2.8l41.36-22.96
			c3.26-1.81,7.23-1.79,10.48,0.05l39.17,22.25c0.85,0.49,1.56,1.2,2.04,2.06c1.44,2.59,0.51,5.85-2.08,7.29l-125.55,69.84
			c-3.25,1.81-7.2,1.8-10.45-0.02l-124.88-70.16c-0.85-0.48-1.55-1.18-2.03-2.02c-1.46-2.57-0.56-5.85,2.01-7.31l115.2-65.57
			c2.25-1.28,4.89-1.7,7.43-1.19c3.27,0.67,5.92,1,7.94,1c17.73,0,32.13-12.01,32.13-26.8C416.13,227.06,401.01,215.05,384,215.05
			L384,215.05z M463.33,412.45l-70.21,40.4l-0.64,0.35c-4.77,2.46-10.48,2.37-15.19-0.28l-69.99-39.49
			c-3.15-1.78-6.98-1.84-10.18-0.16l-40.34,21.11c-2.62,1.37-3.63,4.61-2.27,7.23c0.47,0.91,1.2,1.67,2.09,2.18l123.26,70.58
			c3.28,1.88,7.31,1.88,10.59,0l124.32-71.08c2.56-1.47,3.46-4.74,2-7.31c-0.5-0.89-1.25-1.61-2.15-2.09l-40.99-21.63
			C470.39,410.56,466.51,410.63,463.33,412.45z"/>
	</g>
</svg>
