<svg xmlns="http://www.w3.org/2000/svg"
	 viewBox="0 0 768 768"
	 width="48"
	 height="48"
>
	<style type="text/css">
		.container{
			width: 50%;
			max-width: 300px;
			display: block;
			animation: 5s infinite both i-animation;
			animation-delay: 1s;
		}
		@keyframes i-animation {
			0% {transform: translateY(-48px);}
			50% {transform: translateY(48px);}
			100% {transform: translateY(-48px);}
		}
	</style>
	<g class="container">
		<path fill="#FFFFFF" fill-rule="evenodd" d="M523.94,197.04c-5.07,0.14-3.66,2.39-14.64,5.21c-11.12,2.68-24.64,1.13-36.46,6.05
			c-31.25,13.09-36.32,63.78-73.63,83.49c-24.5,13.8-49.42,17.04-71.66,23.93c-17.88,7.18-29,11.97-42.1,23.23
			c-10.14,8.73-12.67,17.32-23.23,28.3c-10.84,14.64-51.67,1.69-62.23,19.99c5.49,3.66,8.73,4.65,18.44,3.24
			c-1.97,3.8-14.78,8.87-12.53,14.5c0,0,30.97,5.63,57.16-10.14c12.25-4.93,23.65-15.49,42.52-18.02c24.5-3.24,52.09,5.21,81.8,7.46
			c-6.19,12.11-12.39,19.29-19.15,29.28c-2.11,2.25,1.83,4.22,9.01,2.96c12.95-3.24,22.24-6.62,31.54-13.09
			c12.11-8.31,17.32-16.05,27.59-28.16c8.87,14.22,40.27,17.32,46.6,5.07c-11.97-5.07-14.5-31.4-10.42-42.8
			c4.79-10.84,8.31-26.19,12.25-40.41c3.52-12.81,5.63-32.38,9.85-42.38c5.07-12.53,14.78-16.33,22.1-22.95
			c7.32-6.62,14.64-12.11,14.36-27.31C530.98,199.57,528.45,196.89,523.94,197.04L523.94,197.04L523.94,197.04L523.94,197.04z
			 M209.14,402.44L209.14,402.44c-2.39-3.24,13.8-7.46,12.95-14.5c-7.46-0.84-11.69,0.99-18.16-1.97c0.7-1.27,1.83-2.39,3.1-3.24
			c11.83-8.17,45.19-1.97,54.2-10.7c5.49-5.49,9.15-11.12,12.95-16.61c3.66-5.35,7.46-10.56,13.09-15.2
			c2.11-1.69,5.49-4.65,7.88-6.34c9.71-6.76,20.84-11.54,32.8-15.63c16.19-5.63,32.66-7.6,49.84-14.22
			c10.7-4.08,20.84-7.88,30.27-15.06c2.25-1.69,5.63-4.51,7.6-6.48c30.69-30.27,32.66-71.52,74.76-75.74
			c5.07-0.56,9.29-0.42,13.09-0.42c4.36-0.14,8.31-0.7,12.53-2.96c1.27,4.22,3.24,6.19,11.54,6.9c-1.27,10.7-8.31,16.47-16.33,22.1
			c-7.04,4.93-14.78,9.71-19.71,17.32c-5.07,7.88-13.09,30.83-20.98,57.44c-6.76,23.09-14.64,38.72-31.4,52.51
			c-2.11-4.93,2.39-7.88,0.42-12.39c-2.39,6.9-7.74,16.75-10.84,22.95c-10.56,20.13-27.88,36.32-53.92,40.83
			c12.39-16.75,24.64-35.06,26.19-63.92c-5.49,1.13-5.91,16.05-14.92,21.54c-5.77,0.56-13.8-0.7-21.68-1.69
			c-23.79-2.82-47.87-3.94-70.25,3.24c-15.2,4.93-32.52,19.99-45.47,25.62C233.5,402.44,228.29,403.01,209.14,402.44L209.14,402.44
			L209.14,402.44z M453.41,453.97v53.78l-6.76,0v-9.29c-6.19,7.32-13.23,11.12-21.12,11.12c-7.88,0-14.64-2.82-20.13-8.45
			c-5.35-5.63-8.17-12.39-8.17-20.13c0-7.88,2.67-14.5,8.17-20.13c5.49-5.63,11.97-8.45,19.71-8.45c8.73,0,15.91,3.8,21.4,11.26
			v-9.86L453.41,453.97L453.41,453.97L453.41,453.97L453.41,453.97z M447.07,481.14c0-6.19-2.11-11.26-6.19-15.49
			c-4.08-4.22-9.15-6.34-15.21-6.34c-5.91,0-10.98,2.25-15.06,6.62c-4.08,4.36-6.19,9.43-6.19,15.49c0,5.91,2.11,11.12,6.34,15.49
			c4.22,4.36,9.15,6.48,15.06,6.48c5.91,0,10.98-2.11,15.06-6.34C444.96,492.69,447.07,487.48,447.07,481.14L447.07,481.14z
			 M447.07,481.14L447.07,481.14L447.07,481.14L447.07,481.14L447.07,481.14z M467.2,507.75v-72.79h15.06
			c10.28,0,17.88,0.84,22.67,2.39c4.93,1.55,9.01,3.94,12.53,7.18c3.52,3.24,6.19,7.18,8.17,11.97c1.83,4.79,2.82,10.28,2.82,16.61
			c0,6.34-1.55,12.25-4.51,17.88c-2.96,5.49-6.9,9.71-11.97,12.53c-5.07,2.82-12.25,4.22-21.68,4.22H467.2L467.2,507.75L467.2,507.75
			z M474.24,500.85h8.45c8.73,0,15.21-0.42,19.01-1.27c3.94-0.85,7.46-2.53,10.42-5.21c2.96-2.67,5.21-5.77,6.76-9.57
			c1.55-3.66,2.39-8.02,2.39-12.81c0-4.79-0.84-9.29-2.68-13.23c-1.69-4.08-4.22-7.46-7.6-10c-3.38-2.68-7.18-4.36-11.83-5.21
			c-4.51-0.99-11.12-1.41-19.71-1.41h-5.21V500.85L474.24,500.85L474.24,500.85z M376.82,438.91c0-1.55,0.56-2.96,1.69-4.08
			c1.13-1.13,2.53-1.69,4.08-1.69c1.69,0,2.96,0.56,4.08,1.69c1.13,1.13,1.69,2.39,1.69,4.08c0,1.55-0.56,2.96-1.69,4.08
			c-1.13,1.13-2.39,1.69-4.08,1.69c-1.55,0-2.96-0.56-4.08-1.69C377.38,441.72,376.82,440.46,376.82,438.91L376.82,438.91
			L376.82,438.91L376.82,438.91z M379.07,453.97h7.04v53.78l-7.04,0V453.97L379.07,453.97L379.07,453.97z M187.46,507.75l10.28-72.79
			h1.13l29.57,59.69l29.42-59.69h1.13l10.42,72.79h-7.18l-7.04-52.09l-25.76,52.09h-1.83l-26.05-52.51l-7.04,52.51H187.46
			L187.46,507.75z M187.46,507.75L187.46,507.75L187.46,507.75L187.46,507.75L187.46,507.75z M332.61,453.97v53.78l-6.76,0v-9.29
			c-6.19,7.32-13.23,11.12-21.12,11.12s-14.64-2.82-20.13-8.45c-5.35-5.63-8.17-12.39-8.17-20.13c0-7.88,2.68-14.5,8.17-20.13
			c5.49-5.63,11.97-8.45,19.71-8.45c8.73,0,15.91,3.8,21.4,11.26v-9.86L332.61,453.97L332.61,453.97L332.61,453.97L332.61,453.97z
			 M326.14,481.14c0-6.19-2.11-11.26-6.19-15.49c-4.08-4.22-9.15-6.34-15.21-6.34c-5.91,0-10.98,2.25-15.06,6.62
			c-4.08,4.36-6.19,9.43-6.19,15.49c0,5.91,2.11,11.12,6.34,15.49c4.22,4.36,9.15,6.48,15.06,6.48c5.91,0,10.98-2.11,15.06-6.34
			C324.02,492.69,326.14,487.48,326.14,481.14L326.14,481.14z M326.14,481.14L326.14,481.14L326.14,481.14L326.14,481.14
			L326.14,481.14z M344.44,453.97h7.04v7.74c1.83-3.24,3.66-5.49,5.49-7.04c1.83-1.55,3.8-2.25,5.91-2.25c2.25,0,4.51,0.56,6.76,1.83
			l-3.66,5.91c-0.99-0.56-2.11-0.85-3.1-0.85c-2.11,0-4.08,1.13-6.05,3.24c-1.83,2.11-3.24,4.93-4.08,8.45
			c-0.84,3.38-1.27,9.57-1.27,18.58v18.3h-7.04V453.97L344.44,453.97L344.44,453.97z M536.89,434.96h14.36
			c7.6,0,13.38,1.55,17.32,4.65c3.94,3.1,5.91,7.46,5.91,13.23c0,3.24-0.84,6.05-2.39,8.87c-1.55,2.67-3.8,4.79-6.9,6.34
			c5.07,1.69,8.73,4.08,11.4,7.32c2.68,3.24,3.94,7.04,3.94,11.54c0,6.05-2.25,10.98-6.62,15.06c-4.36,3.94-10.14,5.91-17.04,5.91
			h-19.99V434.96L536.89,434.96L536.89,434.96z M544.07,442.15v23.37h4.22c6.34,0,11.12-0.99,14.22-3.1c3.1-1.97,4.65-5.21,4.65-9.57
			c0-7.18-4.93-10.7-14.64-10.7H544.07L544.07,442.15L544.07,442.15z M544.07,472.7v28.02h9.01c5.21,0,9.01-0.56,11.4-1.55
			c2.53-1.13,4.51-2.67,6.05-4.93c1.55-2.25,2.39-4.51,2.39-6.76c0-2.25-0.42-4.36-1.27-6.05c-0.85-1.69-2.25-3.38-3.94-4.65
			c-1.69-1.41-3.8-2.39-6.19-3.1c-2.39-0.7-6.9-0.99-13.38-0.99L544.07,472.7L544.07,472.7L544.07,472.7z M384,112
			c150.22,0,272,121.78,272,272c0,150.22-121.78,272-272,272c-150.22,0-272-121.78-272-272C112,233.78,233.78,112,384,112L384,112
			L384,112z M477.34,224.07c1.55-6.9,6.9-10,16.19-9.29C495.78,225.05,483.25,229.13,477.34,224.07L477.34,224.07L477.34,224.07z
			 M518.31,211.96c-1.55,3.38-4.65,7.6-4.65,16.05c0,1.41-1.13,2.39-1.13,0.14c0.14-8.31,2.25-11.83,4.65-16.61
			C518.17,209.85,518.87,210.55,518.31,211.96L518.31,211.96L518.31,211.96L518.31,211.96z M516.48,210.69
			c-1.83,3.1-6.34,9.01-7.18,17.46c-0.14,1.41-1.27,2.39-1.13,0.14c0.84-8.17,4.36-13.37,7.18-17.88
			C516.62,208.58,517.18,209.42,516.48,210.69L516.48,210.69L516.48,210.69L516.48,210.69z M514.51,209
			c-2.11,2.96-9.01,10-10.56,18.3c-0.28,1.41-1.55,2.25-1.13,0c1.55-8.17,7.46-14.5,10.56-18.72
			C514.93,206.89,515.35,207.74,514.51,209L514.51,209L514.51,209z M514.51,207.17c-2.53,2.68-10.84,11.54-13.38,19.57
			c-0.42,1.41-1.83,1.97-1.13-0.14c2.67-7.88,9.85-16.33,13.52-20.13C515.21,205.06,515.49,206.05,514.51,207.17z"/>
	</g>
</svg>
