<svg xmlns="http://www.w3.org/2000/svg"
	 viewBox="0 0 768 768"
	 width="48"
	 height="48"
>
	<style type="text/css">
		.container{
			width: 50%;
			max-width: 300px;
			display: block;
			animation: 5s infinite both i-animation;
			animation-delay: 0.5s;
		}
		@keyframes i-animation {
			0% {transform: translateY(-48px);}
			50% {transform: translateY(48px);}
			100% {transform: translateY(-48px);}
		}
	</style>
	<g class="container">
		<path fill="#FFFFFF" fill-rule="evenodd" d="M384,112c150.17,0,272,121.83,272,272S534.17,656,384,656c-150.17,0-272-121.83-272-272S233.83,112,384,112
			L384,112L384,112z M606.7,415.59c0,6.94,5.53,11.62,11.62,11.62c6.09,0,11.62-4.68,11.62-11.62c0-6.94-5.53-11.62-11.62-11.62
			C612.22,403.98,606.7,408.65,606.7,415.59L606.7,415.59L606.7,415.59z M627.52,415.59c0-5.24-4.11-9.21-9.07-9.21
			c-5.1,0-9.07,3.97-9.07,9.21c0,5.24,3.97,9.21,9.07,9.21C623.42,424.94,627.52,420.98,627.52,415.59L627.52,415.59L627.52,415.59z
			 M621.57,422.25h2.55l-3.83-5.81c2.13-0.28,3.68-1.27,3.68-3.68c0-2.69-1.7-3.83-4.96-3.83h-5.24v13.32h2.27v-5.67h2.12
			L621.57,422.25L621.57,422.25L621.57,422.25z M616.05,414.6h2.41c1.7,0,3.12-0.14,3.12-1.98c0-1.56-1.56-1.84-2.97-1.84h-2.55
			V414.6L616.05,414.6L616.05,414.6z M489.4,230.15c-1.98,0-3.4,0.28-4.96,0.57c0,0.14,0,0.14,0,0.28c0.14,0,0.14,0,0.28,0
			c0.99,1.98,2.69,3.26,3.83,4.96c0.99,1.98,1.84,3.82,2.83,5.81c0.14-0.14,0.14-0.14,0.28-0.28c1.7-1.28,2.55-3.12,2.55-6.09
			c-0.71-0.71-0.85-1.7-1.42-2.55C491.81,231.85,490.39,231.14,489.4,230.15L489.4,230.15L489.4,230.15z M613.22,335.83
			c-9.78-0.28-17.14,0.71-23.52,3.26c-1.84,0.71-4.68,0.85-4.96,3.12c0.99,0.99,1.13,2.55,1.98,3.83c1.56,2.41,4.11,5.81,6.37,7.51
			c2.55,1.84,5.1,3.97,7.79,5.52c4.82,2.97,10.06,4.53,14.73,7.51c2.69,1.7,5.38,3.83,8.07,5.81c1.28,0.99,2.13,2.41,3.83,3.12
			c0-0.14,0-0.14,0-0.28c-0.85-1.13-1.13-2.69-1.98-3.83c-1.13-1.13-2.41-2.41-3.54-3.54c-3.54-4.68-7.93-8.78-12.75-12.18
			c-3.83-2.69-12.33-6.38-13.88-10.77c-0.14-0.14-0.14-0.14-0.28-0.28c2.69-0.28,5.81-1.28,8.36-1.98c4.11-1.13,7.93-0.85,12.18-1.98
			c1.98-0.57,3.83-1.13,5.81-1.7c0-0.42,0-0.71,0-1.13c-2.13-2.27-3.68-5.24-6.09-7.23c-6.23-5.24-13.03-10.62-19.98-15.02
			c-3.83-2.41-8.64-3.97-12.75-6.09c-1.42-0.71-3.83-0.99-4.68-2.27c-2.13-2.69-3.26-6.23-4.96-9.49
			c-3.54-6.66-6.94-14.02-9.92-21.11c-2.13-4.82-3.54-9.49-6.09-13.88c-12.61-20.68-26.07-33.15-47.17-45.48
			c-4.53-2.55-9.78-3.68-15.58-4.96c-3.12-0.14-6.09-0.42-9.21-0.57c-1.84-0.71-3.83-3.12-5.52-4.11
			c-6.94-4.39-24.79-13.88-29.89-1.42c-3.26,7.93,4.82,15.72,7.79,19.69c1.98,2.83,4.68,5.95,6.09,9.21
			c0.99,2.13,1.13,4.11,1.98,6.37c1.98,5.38,3.82,11.33,6.37,16.29c1.28,2.55,2.83,5.24,4.39,7.51c0.99,1.42,2.83,1.98,3.12,4.11
			c-1.7,2.41-1.84,6.09-2.83,9.21c-4.39,13.6-2.69,30.6,3.54,40.8c1.98,3.12,6.52,9.78,12.75,7.23c5.52-2.27,4.25-9.21,5.81-15.3
			c0.42-1.42,0.14-2.41,0.85-3.26c0,0.14,0,0.14,0,0.28c1.7,3.26,3.26,6.66,4.96,9.92c3.68,5.95,10.2,12.18,15.87,16.29
			c2.83,2.13,5.1,5.95,8.92,7.23c0-0.14,0-0.14,0-0.28c-0.14,0-0.14,0-0.28,0c-0.71-1.13-1.84-1.56-2.83-2.55
			c-2.13-2.13-4.53-4.82-6.38-7.23c-5.1-6.8-9.49-14.31-13.6-22.24c-1.98-3.68-3.68-7.79-5.24-11.62c-0.57-1.42-0.57-3.68-1.98-4.39
			c-1.84,2.83-4.39,5.1-5.81,8.36c-2.27,5.24-2.55,11.62-3.26,18.28c-0.43,0.14-0.28,0-0.57,0.28c-3.83-0.99-5.24-4.96-6.66-8.36
			c-3.68-8.64-4.25-22.53-1.13-32.44c0.85-2.55,4.53-10.62,3.12-13.03c-0.71-2.41-3.12-3.68-4.39-5.52c-1.7-2.27-3.26-5.24-4.39-7.79
			c-2.97-6.66-4.39-14.31-7.51-21.11c-1.56-3.26-3.97-6.52-6.09-9.49c-2.27-3.26-4.82-5.52-6.66-9.49c-0.57-1.42-1.56-3.54-0.57-4.96
			c0.28-0.99,0.71-1.42,1.7-1.7c1.56-1.27,6.09,0.42,7.79,1.13c4.39,1.84,8.22,3.54,11.9,6.09c1.84,1.13,3.68,3.54,5.81,4.11
			c0.85,0,1.7,0,2.55,0c3.97,0.85,8.22,0.28,11.9,1.42c6.38,1.98,12.18,4.96,17.43,8.36c16.01,10.06,29.04,24.51,37.97,41.51
			c1.42,2.69,2.13,5.38,3.26,8.36c2.55,5.95,5.81,11.9,8.36,17.71c2.55,5.81,4.96,11.62,8.64,16.29c1.84,2.55,9.21,3.82,12.47,5.24
			c2.27,0.99,6.09,1.98,8.36,3.26c4.25,2.55,8.22,5.53,12.18,8.36C606.84,330.17,612.93,333.28,613.22,335.83L613.22,335.83
			L613.22,335.83z M440.24,408.65c0,8.78,4.96,14.02,15.02,16.86c3.4,0.85,6.37,1.27,9.35,1.27h17l12.75-0.85l12.61,11.47h18.42
			l-15.58-14.17c6.52-2.69,9.49-6.8,9.49-14.59v-37.68c0-9.63-6.66-15.44-19.98-17.28c-1.56-0.14-2.83-0.28-4.39-0.28l-30.03,0
			c-1.42,0-2.83,0.14-4.25,0.28c-13.32,1.84-19.98,7.65-19.98,17.28v37.68H440.24L440.24,408.65z M457.24,407.8
			c0,0.57,0.14,0.99,0.28,1.7c0.85,4.39,5.1,6.8,11.33,6.8h14.45l-13.17-11.9h18.42l11.47,10.48c2.13-1.13,3.54-2.83,3.97-5.1
			c0.14-0.57,0.14-0.99,0.14-1.56V372.1c0-0.42,0-0.85-0.14-1.42c-0.85-4.11-5.1-6.38-11.19-6.38h-23.94
			c-7.08,0-11.62,3.12-11.62,7.79V407.8L457.24,407.8L457.24,407.8z M528.92,408.08c0,10.91,8.07,17,24.37,18.13
			c1.56,0.14,3.12,0.14,4.53,0.14h41.51v-10.62l-41.65,0c-9.35,0-12.75-2.41-12.75-7.93v-54.68h-15.87v54.97H528.92L528.92,408.08z
			 M359.63,426.5h45.62c5.38,0,10.48-1.13,14.59-3.12c6.8-3.12,10.2-7.37,10.2-13.03v-11.62c0-4.53-3.83-8.78-11.33-11.76
			c-3.97-1.56-8.78-2.41-13.6-2.41l-19.27,0c-6.37,0-9.49-1.98-10.2-6.23c-0.14-0.57-0.14-0.85-0.14-1.42v-7.23
			c0-0.42,0-0.85,0.14-1.27c0.71-3.26,2.41-4.11,8.07-4.68c0.42,0,1.13-0.14,1.56-0.14l45.33,0v-10.62h-44.48
			c-6.37,0-9.77,0.42-12.75,1.27c-9.49,2.97-13.6,7.65-13.6,15.72v9.21c0,7.08,8.07,13.18,21.68,14.59c1.56,0.14,3.12,0.14,4.53,0.14
			l16.43,0c0.57,0,1.28,0,1.7,0.14c5.1,0.42,7.23,1.27,8.64,3.12c0.85,0.85,1.27,1.84,1.27,2.83v9.21c0,1.13-0.71,2.55-2.27,3.82
			c-1.42,1.27-3.68,1.98-6.66,2.27c-0.57,0-1.13,0.14-1.7,0.14h-43.77V426.5L359.63,426.5L359.63,426.5z M271.94,375.5
			c0.28,0.28,0,34.85,0,35.56c0.14,7.93,10.06,14.73,25.78,14.88h33.72v4.11c0,1.7,1.28,6.8-9.07,7.79c-0.14,0-50.01,0-50.15,0v10.62
			h50.01c7.93-0.28,25.22-3.26,25.08-17c0-0.28,0.14-56.24,0-56.24h-15.73v41.08c-0.28,0-30.03,0-34.43,0
			c-8.64-0.14-9.49-4.53-9.35-6.37V375.5H271.94L271.94,375.5L271.94,375.5z M148.83,426.5h15.87v-62.62l24.51,54.54
			c2.83,6.66,6.8,8.93,14.59,8.93s11.62-2.27,14.45-8.93l24.51-54.54v62.62h15.87v-62.48c0-6.09-2.41-9.07-7.51-10.62
			c-12.04-3.83-20.12-0.57-23.8,7.65l-24.08,53.83l-23.37-53.83c-3.54-8.07-11.76-11.33-23.8-7.65c-5.1,1.56-7.51,4.53-7.51,10.62
			v62.48H148.83z"/>
	</g>
</svg>
