<svg xmlns="http://www.w3.org/2000/svg"
	 viewBox="0 0 768 768"
	 width="48"
	 height="48"
>
	<style type="text/css">
		.container{
			width: 50%;
			max-width: 300px;
			display: block;
			animation: 5s infinite both i-animation;
			animation-delay: 1.5s;
		}
		@keyframes i-animation {
			0% {transform: translateY(-48px);}
			50% {transform: translateY(48px);}
			100% {transform: translateY(-48px);}
		}
	</style>
	<g class="container">
		<path fill="#FFFFFF" fill-rule="evenodd" d="M384,112c-150.23,0-272,121.77-272,272c0,150.23,121.77,272,272,272s272-121.77,272-272
			C656,233.77,534.23,112,384,112L384,112L384,112z M413.76,221.24l0.39-0.13c0.65-0.13,1.83-0.39,3.65-0.91
			c0.91-0.26,2.09-0.52,3.65-0.78c1.96-0.39,3.26-0.78,3.65-0.78c9.92-1.96,22.97-3.52,37.72-2.87c11.36,0.52,23.36,2.22,35.37,6
			c10.7,3.39,21.41,8.48,31.85,15.66c9.14,6.4,17.88,14.49,25.84,24.54c4.7,6,7.96,13.18,10.05,21.27
			c1.96,7.44,2.74,16.05,2.61,25.32c-0.13,7.7-0.91,15.92-2.22,24.54c-1.31,8.48-3.39,17.49-5.87,26.76
			c-2.22,8.22-4.96,16.58-8.09,25.06c-3,8.22-6.13,16.05-9.66,23.75c1.96,0.65,3.79,1.31,5.61,2.22c3.52,1.7,6.66,3.79,9.4,6.26
			c3,2.61,5.35,5.61,7.31,8.88c1.96,3.39,3.39,6.92,4.31,10.7c0.91,3.79,1.17,7.57,0.91,11.49c-0.13,2.09-0.52,4.18-1.04,6.53
			c-0.52,2.35-1.17,4.44-1.96,6.26c-0.65,1.44-1.44,3-2.48,4.83c-0.91,1.57-1.83,3-3,4.57c-1.96,2.61-4.18,5.22-6.66,7.57
			c-2.35,2.22-5.09,4.44-8.22,6.79c-2.61,1.83-5.35,3.65-8.09,5.35c-2.87,1.7-5.74,3.26-8.61,4.57c-2.61,1.17-5.61,2.35-8.74,3.39
			c-3.26,1.04-6.53,1.96-9.53,2.61c-2.74,0.65-6,1.17-9.53,1.57l-1.3,0.13c-0.52,4.18-0.91,7.18-1.17,9.14
			c-0.52,4.31-0.91,7.18-1.04,8.09c-0.65,4.44-1.04,7.18-1.04,7.83c-0.26,1.83-0.65,3.79-0.91,5.74c-0.65,3.79-1.44,7.57-2.48,11.22
			c-1.04,3.79-2.35,7.31-3.65,10.7c-1.7,3.79-3.52,7.44-5.87,10.96c-2.35,3.52-4.83,6.79-7.7,9.79c-2.87,3-6,5.61-9.4,8.09
			c-3.26,2.35-6.92,4.44-10.83,6.4c-3.65,1.7-7.31,3.13-10.96,4.44c-3.79,1.17-7.7,2.22-11.88,3.13c-6,1.31-11.75,1.83-17.23,1.96
			c-5.61,0-10.7-0.52-15.53-1.7c-5.35-1.17-10.18-3-14.62-5.22c-4.31-2.22-8.22-4.83-11.75-7.83c-3.39-2.87-6.13-5.74-8.48-8.61
			c-2.48-3-4.44-6-6.13-8.74c-1.57-2.61-2.74-4.96-3.79-7.31c-0.91-2.09-1.83-4.05-2.48-5.87c-1.04-2.48-1.96-5.61-2.61-9.01
			c-0.65-3.13-1.31-6.53-1.7-10.31c-0.52-3.92-0.91-7.44-1.17-10.57c-0.13-2.09-0.39-4.57-0.52-7.57c-2.61,0-4.96-0.13-7.05-0.26
			c-2.61-0.26-5.48-0.65-8.35-1.17c-3-0.52-5.09-1.04-6.79-1.44c-1.96-0.52-4.18-1.17-6.53-2.09c-1.96-0.78-4.05-1.7-6.4-2.87
			l-0.52-0.26c-0.52,0.26-1.04,0.39-1.57,0.65c-5.61,1.96-11.22,2.87-16.84,2.87c-5.74,0-11.49-1.04-16.97-3
			c-4.83-1.7-9.4-4.05-13.44-7.05c-4.18-3-8.09-6.53-11.75-10.44c-2.22-2.48-4.44-5.35-6.66-8.48c-2.22-3.13-4.31-6.4-6.26-9.79
			c-1.96-3.39-3.79-6.92-5.48-10.31c-1.57-3.13-3.26-7.05-5.22-11.62c-3.52-8.48-6.79-17.36-9.66-26.23
			c-3.13-9.79-6.13-20.23-8.74-30.54c-3.26-12.66-5.87-24.41-7.7-34.33c-2.35-12.27-3.65-22.19-4.05-27.67
			c-1.7-34.2,5.22-58.73,17.1-76.09c15.27-22.32,38.11-32.5,62-35.89c15.01-2.22,30.41-1.31,43.98,0.91
			c10.18,1.57,19.32,3.79,26.5,5.87c1.17-0.52,2.35-1.04,3.52-1.44c3-1.17,6.26-2.22,10.05-3.26c4.96-1.31,10.05-2.35,15.14-3
			c4.83-0.52,10.05-0.78,15.92-0.78c3.13,0,5.74,0.13,7.96,0.26c2.22,0.13,4.83,0.39,7.83,0.78c2.09,0.26,3.65,0.52,4.96,0.65
			L413.76,221.24L413.76,221.24z M366.64,449.78L366.64,449.78c1.7-1.83,2.87-2.48,3.78-2.74c0.91-0.13,2.09,0.26,3,0.65l0.26,0.13
			c0.39,0.13,0.78,0.39,1.17,0.65c1.57,1.17,2.87,3,3.65,5.09c0.65,1.96,0.78,3.92,0.13,5.61c-0.13,0.39-0.26,0.78-0.52,1.04
			c-6.66,9.4-14.88,13.31-22.58,14.62c-7.96,1.31-15.27,0-19.71-1.17c-2.22-0.52-4.7-1.57-6.4-2.74c1.3-0.65,3.52-1.31,6.79-1.96
			c18.01-3.65,19.84-6,25.58-13.31C363.12,453.96,364.68,452,366.64,449.78L366.64,449.78z M414.93,263.53
			c30.93,8.35,49.47,31.19,58.99,48.42c2.87,5.35,4.96,10.05,6.26,13.7l0.26,0.78c-26.76-2.74-37.46,6.53-39.68,20.62
			c-3.13,19.71,12.92,48.55,21.01,63.17c1.96,3.39,3.39,6,3.92,7.18c3.26,7.7,7.18,12.79,10.44,16.71c1.04,1.31,1.83,2.35,2.48,3.26
			c-6.13,1.7-15.01,4.96-14.1,22.97c-0.39,5.09-2.09,19.97-3.92,34.72c-1.57,12.01-3.13,24.02-4.31,30.8
			c-1.57,9.4-4.18,16.18-8.88,21.01c-4.57,4.83-11.62,7.96-21.93,10.18c-11.88,2.48-19.32,0-24.15-4.05
			c-4.96-4.18-7.57-10.31-9.14-14.49c-1.57-3.92-2.74-14.49-3.39-28.45c-0.78-15.53-0.78-34.98-0.26-54.3c0-0.52,0-1.04-0.13-1.44
			c-0.13-1.44-0.52-2.74-1.04-4.05c-1.44-3.79-3.92-7.31-7.05-9.53c-0.91-0.65-1.96-1.17-3-1.7l-0.26-0.13
			c-1.96-0.78-4.31-1.7-7.31-1.44c-0.65,0-1.31,0.13-1.96,0.39c0.91-3.65,2.48-7.83,4.18-12.4l0.65-1.96
			c0.78-1.96,1.83-4.31,2.87-6.66c5.87-13.18,13.44-30.02,5.09-69.17c-2.35-10.96-8.48-16.71-16.18-19.06
			c-4.96-1.57-10.44-1.57-15.79-0.78c-5.09,0.78-10.31,2.35-15.01,4.31c-3,1.17-5.87,2.74-8.35,4.18
			c1.83-22.84,11.75-77.27,66.43-76.35c2.35,0,4.57,0.13,6.79,0.39c-2.09,1.7-0.65,2.61,2.35,3
			C400.84,265.49,404.62,266.14,414.93,263.53L414.93,263.53L414.93,263.53z M484.63,429.81L484.63,429.81
			c-0.39-0.52-0.78-0.91-1.17-1.44l-0.52-0.65c9.79-16.05,7.83-31.45,6.13-45.94c-0.65-5.74-1.31-11.22-1.17-16.31
			c0.13-5.35,0.91-10.05,1.57-14.62c0.78-5.74,1.7-11.22,1.44-18.01c0.13-0.13,0.13-0.39,0.13-0.52c0.26-1.57-0.39-5.22-1.96-9.79
			c-1.44-4.05-3.79-9.4-6.92-15.14c-8.88-16.18-25.19-36.81-50.9-48.16c0.52-0.13,0.91-0.13,1.44-0.26
			c21.54-4.18,63.43-6.53,90.58,28.19c6.79,8.61,5.48,32.5-2.61,61.74C513.73,374.34,501.47,403.32,484.63,429.81L484.63,429.81z
			 M342.23,269.14c-28.06,27.54-26.89,76.88-26.89,77.53c0,1.17,0.13,2.74,0.26,4.83c0.39,7.7,1.31,22.45-1.04,39.02
			c-0.52,4.18-0.65,8.22-0.26,12.14c1.04,10.96,5.61,20.88,12.53,28.32c1.31,1.44,2.74,2.74,4.18,4.05
			c-4.57,4.96-14.62,15.79-25.45,28.84c-3,3.65-5.87,5.74-8.48,6.79c-4.83,1.7-9.79-0.91-14.62-6.26
			c-5.87-6.53-11.36-16.58-16.31-28.45c-15.92-37.59-26.23-91.49-26.89-104.68C234.56,240.69,316.91,260.79,342.23,269.14
			L342.23,269.14L342.23,269.14z M324.74,346.54L324.74,346.54c0.13-0.13,5.35-2.61,12.27-5.61c3.92-1.57,8.35-3,12.79-3.65
			c4.18-0.52,8.22-0.52,11.62,0.52c4.57,1.44,8.22,4.96,9.79,12.01c7.83,36.15,0.91,51.42-4.44,63.3c-1.17,2.48-2.22,4.7-3.13,7.31
			l-0.65,1.96c-1.7,4.83-3.39,9.27-4.44,13.44c-1.44,0-2.87,0-4.31-0.26c-7.96-1.17-15.01-5.09-20.49-11.09
			c-5.48-6-9.14-13.97-10.05-22.84c-0.26-3.26-0.26-6.53,0.26-9.92c2.48-17.49,1.57-32.89,1.04-40.85
			C324.87,348.76,324.74,347.32,324.74,346.54L324.74,346.54L324.74,346.54z M481.5,336.1L481.5,336.1c0,4.7-0.65,9.01-1.44,13.44
			c-0.78,4.7-1.57,9.53-1.7,15.66c-0.26,5.87,0.39,11.75,1.17,17.75c1.44,11.75,2.87,24.02-2.74,36.15c-0.91-1.57-1.7-3.39-2.48-5.22
			c-0.65-1.7-2.22-4.57-4.31-8.22c-7.57-13.7-22.58-40.72-19.97-57.17C451.48,339.23,459.83,333.36,481.5,336.1L481.5,336.1z
			 M526.13,448.48L526.13,448.48l0.39-0.26c-3,2.87-7.83,6-13.57,8.74c-5.61,2.61-14.36,4.31-22.58,4.83
			c-4.57,0.26-9.01,0.13-12.4-0.52c-2.22-0.39-3.65-0.91-4.05-1.31c-0.52-11.22,4.57-12.66,7.96-13.57c0.78-0.26,1.57-0.39,2.35-0.65
			C489.59,449.78,501.2,453.57,526.13,448.48L526.13,448.48z M350.85,345.89L350.85,345.89L350.85,345.89
			c0.26-1.57,3.65-2.35,7.57-1.7c3.92,0.52,7.05,2.22,6.79,3.79c-0.13,1.57-3.65,4.7-7.57,4.18
			C353.72,351.63,350.59,347.46,350.85,345.89L350.85,345.89z M471.97,342.76c0.26,1.57-2.87,5.61-6.79,6.13
			c-3.92,0.65-7.31-2.61-7.57-4.18c-0.26-1.57,2.87-3.26,6.79-3.79C468.31,340.41,471.71,341.19,471.97,342.76L471.97,342.76
			L471.97,342.76z M357.63,445.74v-0.52c-1.57,0-3.13-0.13-4.57-0.39c-4.96-0.65-9.79-2.35-14.1-4.7
			c-3.92,4.18-14.62,15.66-25.97,29.5c-4.18,4.96-8.35,8.09-12.66,9.66c-9.01,3.26-17.36-0.52-24.8-8.88
			c-6.53-7.31-12.66-18.27-18.01-31.06c-16.31-38.63-27.02-94.23-27.67-107.81c-5.61-111.98,103.76-75.83,121.12-69.31
			c10.31-7.05,23.62-11.49,40.85-11.22c8.48,0.13,16.31,1.17,23.49,3c1.44-0.39,2.87-0.91,4.57-1.44c2.61-0.78,6.53-1.83,11.22-2.74
			c23.49-4.57,69.44-7.05,99.72,31.59c8.48,10.96,7.83,37.98-1.04,69.96c-7.57,27.54-21.14,59.25-39.81,87.58
			c2.22,2.09,9.66,5.22,34.33,0.13c4.83-1.04,8.22-0.78,10.31,0.26c2.87,1.31,4.05,3.65,3.92,6.53c-0.13,1.83-0.91,3.65-2.35,5.61
			c-3.13,4.31-10.44,9.92-19.32,14.1c-6.66,3.13-16.71,5.09-25.97,5.61c-5.48,0.26-10.7,0.13-14.75-0.78c-1.04-0.26-2.09-0.52-3-0.78
			c-0.78,7.05-1.96,16.84-3.13,26.5c-1.57,12.4-3.26,24.54-4.44,31.32c-1.96,11.35-5.22,19.58-11.36,25.97
			c-6,6.26-14.49,10.31-26.76,12.92c-15.27,3.26-25.32-0.26-32.11-6c-6.66-5.61-9.92-13.05-11.88-18.14
			c-1.96-4.96-3.26-16.58-4.05-31.59c-0.52-10.83-0.65-23.75-0.65-37.07c-6.92,6.26-14.49,9.27-21.8,10.57
			c-9.53,1.7-18.27,0-23.49-1.31c-3.79-0.91-8.61-3.13-11.36-5.74c-1.7-1.57-2.74-3.39-3.13-5.35c-0.39-2.48,0.39-4.83,2.61-6.92
			c2.09-1.96,6.13-3.79,12.66-5.22c14.49-3,15.79-4.7,19.97-9.92C355.29,448.74,356.2,447.43,357.63,445.74L357.63,445.74
			L357.63,445.74z M414.54,237.17c0.13,0,0.13,0,0.13,0c1.57-0.52,3.65-1.04,6.26-1.7c2.22-0.52,4.57-1.04,6.53-1.44
			c15.79-3.13,40.59-5.35,65.52,2.61c17.62,5.61,35.37,16.18,49.99,34.85c6.53,8.35,9.66,21.27,9.4,36.81
			c-0.13,13.57-2.74,29.89-7.57,47.38c-4.18,15.27-10.05,31.58-17.36,47.64c-3.13,6.79-6.53,13.7-10.31,20.62
			c1.17-0.13,2.35-0.39,3.52-0.65c3.52-0.65,6.79-1.04,9.66-0.91c4.18,0.13,7.83,1.04,10.96,2.48c4.44,2.22,7.83,5.22,10.05,9.01
			c2.35,4.05,3.26,8.48,3,13.18c-0.13,2.61-0.78,5.35-1.83,7.83c-0.78,1.96-1.96,4.05-3.52,6.13c-2.48,3.65-6.53,7.44-11.35,10.96
			c-4.05,3-9.01,6-14.1,8.35c-4.31,1.96-9.53,3.65-15.01,4.83c-5.35,1.17-11.09,1.96-16.84,2.22c-1.57,0-3.13,0.13-4.57,0.13
			l-1.31,10.83c-1.04,7.7-1.83,14.49-2.48,18.93c-0.78,5.48-1.44,10.05-1.96,13.05c-1.17,6.79-2.87,12.92-5.22,18.4
			c-2.61,6-6,11.36-10.44,15.92c-4.44,4.44-9.53,8.09-15.79,11.09c-5.61,2.74-12.01,4.83-19.32,6.4c-10.05,2.09-18.66,1.96-26.1,0.26
			c-8.09-1.83-14.49-5.35-19.71-9.79c-4.96-4.31-8.61-9.01-11.22-13.44c-2.35-4.18-4.05-7.96-5.22-11.09
			c-1.44-3.65-2.61-9.01-3.39-15.53c-0.78-6-1.31-13.18-1.7-21.27c-0.13-3.52-0.26-7.57-0.39-11.88c-1.04,0.26-2.09,0.52-3.13,0.65
			c-6.4,1.04-12.27,1.04-17.49,0.65c-4.96-0.52-9.4-1.44-12.66-2.22c-2.87-0.78-6.4-1.96-9.66-3.65c-2.35-1.17-4.7-2.61-6.66-4.18
			c-2.48,1.44-4.96,2.74-7.57,3.65c-7.96,2.87-15.79,2.74-23.36,0c-6.92-2.48-13.18-7.05-18.79-13.31
			c-3.92-4.31-7.57-9.53-11.09-15.53c-3.39-6-6.66-12.79-9.79-20.1c-7.05-16.71-13.05-36.28-17.75-54.56
			c-6.79-26.1-10.83-49.99-11.22-58.73c-3.39-67.48,29.37-90.58,65.78-95.8c26.76-3.92,54.95,3.26,69.57,7.96
			c4.96-2.61,10.31-4.83,16.31-6.4c7.96-2.09,16.84-3.26,26.63-3.13c4.83,0.13,9.53,0.52,13.97,1.04
			C408.93,236.12,411.8,236.65,414.54,237.17z"/>
	</g>
</svg>
