<svg xmlns="http://www.w3.org/2000/svg"
	 viewBox="0 0 768 768"
	 width="48"
	 height="48"
>
	<style type="text/css">
		.container{
			width: 50%;
			max-width: 300px;
			display: block;
			animation: 5s infinite both i-animation;
			animation-delay: 2s;
		}
		@keyframes i-animation {
			0% {transform: translateY(-48px);}
			50% {transform: translateY(48px);}
			100% {transform: translateY(-48px);}
		}
	</style>
	<g class="container">
		<path fill="#FFFFFF" fill-rule="evenodd" d="M384,112c150.23,0,272,121.77,272,272c0,150.23-121.77,272-272,272c-150.23,0-272-121.77-272-272
			C112,233.77,233.77,112,384,112L384,112L384,112z M277.89,260.14c-8.88-7.96-19.58-4.7-30.15,4.7c-1.57,1.44-3.13,3-4.7,4.57
			c-18.14,19.19-34.98,54.82-40.2,81.97c2.09,4.18,3.65,9.4,4.7,13.44c0.26,1.04,0.52,1.96,0.65,2.87c0.52,1.96,0.65,3.26,0.65,3.26
			s-0.13-0.65-0.78-2.61c-0.13-0.39-0.26-0.78-0.39-1.31c-0.13-0.26-0.13-0.39-0.26-0.65c-1.17-2.74-4.44-8.48-5.87-11.09
			c-1.17,3.65-2.35,7.05-3.26,10.05c4.18,7.57,6.66,20.62,6.66,20.62s-0.26-0.78-1.31-3.79c-0.91-2.61-5.48-10.7-6.66-12.53
			c-1.83,6.92-2.61,11.62-1.96,12.66c1.31,2.22,2.48,6,3.65,10.18c2.48,9.4,4.18,21.01,4.18,21.01s0,0.78,0.13,1.96
			c-0.39,7.96-0.13,16.18,0.52,23.62c0.78,9.79,2.35,18.27,4.31,22.84l1.31-0.78c-2.87-8.88-4.05-20.62-3.52-34.07
			c0.78-20.62,5.48-45.42,14.23-71.39c14.75-39.16,35.37-70.48,54.17-85.49c-17.1,15.53-40.33,65.52-47.25,84.05
			c-7.83,20.75-13.31,40.2-16.58,58.86c5.74-17.49,24.28-25.06,24.28-25.06s9.14-11.22,19.71-27.15c-6.4,1.44-16.84,3.92-20.23,5.35
			c-5.22,2.22-6.53,2.87-6.53,2.87s16.71-10.18,31.06-14.75C278.02,323.44,299.55,279.46,277.89,260.14L277.89,260.14L277.89,260.14
			L277.89,260.14z M281.41,358.68c-6.26,0-11.36,1.83-15.27,5.61c-3.92,3.65-5.87,8.61-5.87,14.49c0,3.13,0.52,5.87,1.44,8.48
			c0.91,2.61,2.48,4.96,4.57,7.18c2.09,2.22,6.13,5.09,12.14,8.88c7.44,4.57,12.27,8.22,14.62,11.09c2.35,2.87,3.52,5.87,3.52,9.01
			c0,4.18-1.44,7.57-4.18,10.05c-2.87,2.48-6.66,3.79-11.36,3.79c-4.96,0-9.27-1.7-13.05-5.22c-3.79-3.52-5.61-8.09-5.61-13.83
			l-2.35,0v21.01h2.35c0.65-1.96,1.7-3,3-3c0.65,0,2.09,0.39,4.31,1.17c5.48,1.96,9.92,2.87,13.44,2.87
			c6.13,0,11.22-2.09,15.66-6.53c4.31-4.31,6.53-9.53,6.53-15.66c0-4.7-1.44-8.88-4.31-12.66c-2.87-3.65-8.35-7.96-16.58-12.79
			c-7.05-4.31-11.62-7.7-13.83-10.44c-2.09-2.74-3.26-5.61-3.26-8.88c0-3.52,1.31-6.4,3.92-8.48c2.61-2.09,5.87-3.13,10.18-3.13
			c4.7,0,8.61,1.44,11.75,4.18c3.13,2.87,4.96,6.79,5.48,11.75h2.35v-18.14h-2.09c-0.26,0.91-0.52,1.57-0.78,1.83
			c-0.26,0.26-0.65,0.39-1.31,0.39c-0.78,0-2.09-0.26-4.05-0.91C288.59,359.33,284.81,358.68,281.41,358.68L281.41,358.68
			L281.41,358.68L281.41,358.68z M357.11,358.68c-7.7,0-14.62,1.83-20.88,5.35c-6.26,3.65-11.22,8.61-14.88,15.01
			c-3.65,6.4-5.48,13.18-5.48,20.36c0,9.66,3.13,18.27,9.53,25.84c6.4,7.57,14.1,12.27,22.97,14.1c2.09,1.04,4.96,3.79,8.74,8.22
			c4.31,4.96,7.96,8.61,10.83,10.7c3,2.09,6.13,3.65,9.53,4.7c3.39,1.04,7.05,1.57,11.09,1.57c4.83,0,9.14-0.78,12.92-2.61
			l-0.91-2.09c-2.22,0.78-4.57,1.17-7.05,1.17c-3.39,0-6.79-1.04-10.18-3.39c-3.39-2.22-7.7-6.53-12.66-12.79
			c-2.35-3-4.05-4.96-4.96-5.61c9.66-1.96,17.75-6.66,23.88-14.1c6.26-7.57,9.4-16.18,9.4-25.71c0-11.49-4.05-21.01-12.14-28.84
			C378.91,362.6,368.86,358.68,357.11,358.68L357.11,358.68L357.11,358.68z M404.36,358.68l0.13,2.48c5.09,0,7.96,1.44,8.61,4.57
			c0.26,1.04,0.39,3.13,0.39,5.87v54.82c0,4.05-0.65,6.66-1.7,7.83c-1.17,1.17-3,1.83-5.74,2.09l-0.13,2.48h50.77l1.31-12.4h-2.35
			c-0.65,3.39-2.22,5.87-4.57,7.18c-2.48,1.44-6.66,2.09-12.92,2.09h-4.83c-5.61,0-8.74-1.96-9.66-6c-0.13-0.78-0.26-1.7-0.26-2.61
			l0.26-55.47c0-4.05,0.52-6.79,1.57-8.22c1.04-1.31,3-2.09,5.87-2.22l-0.13-2.48H404.36L404.36,358.68L404.36,358.68z
			 M357.9,361.68L357.9,361.68c-9.14,0-16.45,3.39-21.93,10.31c-5.48,6.92-8.22,16.05-8.22,27.54c0,11.22,2.74,20.23,8.09,27.28
			c5.35,7.05,12.53,10.44,21.14,10.44c9.01,0,16.31-3.39,21.8-10.18c5.48-6.79,8.22-15.79,8.22-27.02c0-11.88-2.74-21.27-8.09-28.06
			C373.56,365.08,366.51,361.68,357.9,361.68L357.9,361.68L357.9,361.68z M474.58,373.43c-1.17,0-2.22,0.39-2.87,1.31
			c-0.78,0.78-0.91,1.83-0.65,3.13c0.26,1.17,0.91,2.22,1.96,3.13c1.04,0.91,2.22,1.3,3.39,1.3c1.17,0,2.09-0.52,2.74-1.3
			c0.65-0.91,0.91-1.96,0.65-3.13c-0.26-1.17-0.91-2.22-1.96-3.13C476.93,373.82,475.75,373.43,474.58,373.43L474.58,373.43
			L474.58,373.43L474.58,373.43z M507.99,381.78c-2.09,8.09-6.66,12.4-13.7,13.18l0.13,2.35l8.22,0l-0.13,27.41
			c0,4.7,0.13,7.83,0.52,9.4c0.78,3.79,3.26,5.74,7.44,5.74c6,0,12.27-3.65,18.93-10.96l-1.96-1.7c-4.7,4.83-9.01,7.18-12.66,7.18
			c-2.22,0-3.65-1.31-4.18-3.92c-0.13-0.65-0.26-1.31-0.26-2.22l0.13-31.06H523l-0.13-3.65H510.6v-11.75H507.99L507.99,381.78
			L507.99,381.78L507.99,381.78z M556.28,392.22c-6.92,0-12.66,3.39-17.1,10.18c-4.44,6.79-5.74,14.23-4.05,22.45
			c1.04,4.83,3,8.48,6.13,11.22c3.13,2.61,7.05,3.92,11.75,3.92c4.31,0,10.44-1.04,13.05-3.39c2.61-2.22,4.96-5.87,7.05-10.83
			l-1.7-1.83c-3.52,6.4-10.57,9.66-15.79,9.66c-7.31,0-11.75-4.05-13.44-12.01c-0.26-1.04-0.39-2.09-0.52-3.26
			c8.61-1.44,15.27-3.79,19.71-7.31c4.44-3.52,8.88-7.18,8.09-11.22c-0.52-2.35-1.7-4.18-3.52-5.61
			C563.85,392.88,559.02,392.22,556.28,392.22L556.28,392.22L556.28,392.22L556.28,392.22z M479.93,392.48l-15.01,3.39v2.74
			l5.22-0.65c2.48,0,4.05,1.17,4.44,3.39c0.13,0.78,0.26,1.83,0.26,3.13l-0.13,24.54c0,3.39-0.39,5.35-1.17,6s-2.74,0.91-6,0.91
			l-0.13,2.35h23.88v-2.35c-3.26,0-5.48-0.26-6.4-0.78c-0.91-0.52-1.57-1.44-1.83-2.87c-0.26-1.04-0.26-2.74-0.26-5.22l0.13-34.72
			L479.93,392.48L479.93,392.48L479.93,392.48L479.93,392.48z M552.37,397.05c-3.26,0-6,1.96-8.09,5.87
			c-2.09,3.92-2.87,8.22-2.61,13.05c13.05-2.48,18.79-7.05,17.49-13.57c-0.26-1.31-1.17-2.61-2.48-3.65
			C555.24,397.57,553.8,397.05,552.37,397.05z"/>
	</g>
</svg>
