<svg xmlns="http://www.w3.org/2000/svg"
	 viewBox="0 0 768 768"
	 width="48"
	 height="48"
>
	<style type="text/css">
		.container{
			width: 50%;
			max-width: 300px;
			display: block;
			animation: 5s infinite both i-animation;
			animation-delay: 0.5s;
		}
		@keyframes i-animation {
			0% {transform: translateY(-48px);}
			50% {transform: translateY(48px);}
			100% {transform: translateY(-48px);}
		}
	</style>
	<g class="container">
		<path fill="#333333" fill-rule="evenodd" d="M326.18,491.49h63.18c41.33,0,63.31-16.56,63.31-47.82c0-31.13-22.52-47.15-65.96-47.15l-60.67,0v94.97H326.18
			L326.18,491.49z M326.18,276.25v86.1h51.39c39.74,0,61.59-16.03,61.59-44.51c0-26.76-18.81-41.59-52.06-41.59H326.18L326.18,276.25
			L326.18,276.25z M398.77,528.05v-0.13H280.35V239.56l117.89,0c52.32,0,86.76,28.35,86.76,71.92c0,30.6-23.05,58.02-52.59,62.78
			v1.59c40.13,4.5,67.16,32.19,67.16,70.6C499.57,497.32,461.69,528.05,398.77,528.05L398.77,528.05z M135.31,196.11
			c-1.19-34.57,25.7-66.49,62.12-66.49h373.13c36.43,0,63.31,31.92,62.12,66.49c-1.19,33.25,0.4,76.3,11.13,111.4
			c10.86,35.23,29.14,57.49,59.21,60.27v32.45c-30.07,2.91-48.35,25.17-59.21,60.27c-10.86,35.1-12.32,78.15-11.13,111.4
			c1.19,34.57-25.7,66.49-62.12,66.49H197.43c-36.43,0-63.31-31.92-62.12-66.49c1.19-33.25-0.4-76.3-11.13-111.4
			c-10.86-35.23-29.27-57.49-59.21-60.27v-32.45c30.07-2.91,48.35-25.17,59.21-60.27C135.05,272.4,136.5,229.36,135.31,196.11
			L135.31,196.11z"/>
	</g>
</svg>
