<svg xmlns="http://www.w3.org/2000/svg"
	 viewBox="0 0 768 768"
	 width="48"
	 height="48"
>
<style type="text/css">
	.container{
		width: 50%;
		max-width: 300px;
		display: block;
		animation: 5s infinite both i-animation;
		animation-delay: 1s;
	}
	@keyframes i-animation {
		0% {transform: translateY(-48px);}
		50% {transform: translateY(48px);}
		100% {transform: translateY(-48px);}
	}
</style>
<g class="container">
	<path fill="#FFFFFF" d="M550.09,548.13c0.56-0.57,1.09-1.18,1.58-1.82l0.03-0.03c1.61-2.08,3.05-4.3,4.36-6.61v0l0.11-0.19v0
		l0.21-0.38v0l0.1-0.19v0l0.1-0.19v0l0.2-0.38v0l0.1-0.19v0l0.1-0.19l0,0l0.1-0.19v0l0.1-0.19v0l0.1-0.19l0,0l0.1-0.19v0l0.1-0.19v0
		l0.1-0.19l0,0l0.1-0.19l0,0l0,0l0.19-0.39l0,0l0,0l0.09-0.19l0,0l0.09-0.19l0,0l0.09-0.19l0,0l0.09-0.19v0l0.09-0.2v0l0.09-0.2l0,0
		l0.09-0.2l0,0l0.09-0.2l0,0l0.09-0.2l0,0l0.09-0.2l0,0l0.09-0.2l0,0l0.09-0.2l0,0l0.09-0.2l0,0l0.09-0.2l0,0
		c0.12-0.27,0.24-0.55,0.36-0.82l0,0l0.27-0.62l0,0l0.17-0.41l0,0l0.26-0.63l0,0l0.08-0.21l0,0l0.08-0.21l0,0
		c0.2-0.49,0.39-0.98,0.58-1.47l0,0c1.04-2.68,1.99-5.42,2.88-8.18h0l0.01,0c0.13-0.39,0.25-0.79,0.38-1.18h0l0.28-0.89l0,0
		l0.09-0.3l0,0l0.09-0.3l0,0l0.09-0.3l0,0l0.09-0.3l0,0l0.09-0.3l0,0l0.27-0.89l0,0l0.18-0.6l0,0l0.18-0.6l0,0l0.18-0.6l0,0
		l0.09-0.3l0,0l0.09-0.3l0,0l0.09-0.3l0,0l0.17-0.6l0,0l0.09-0.3l0,0l0.08-0.3l0,0l0.08-0.3l0,0l0.08-0.3l0,0l0.08-0.3l0,0l0.08-0.3
		l0,0l0.08-0.3l0,0l0.08-0.3l0,0l0.08-0.3l0,0l0.08-0.3l0,0l0.08-0.3l0,0l0.08-0.3l0,0l0.08-0.3l0,0l0.08-0.3l0,0l0.08-0.3l0,0
		l0.08-0.3l0,0l0.08-0.31v0l0.08-0.3v0l0.08-0.31l0,0l0.08-0.31l0,0l0.08-0.31l0,0l0.08-0.31v0l0.08-0.31v0l0.08-0.31v0l0.08-0.31
		l0,0l0.08-0.31l0,0l0.08-0.31l0,0l0.08-0.31l0,0l0.08-0.31l0,0l0.08-0.31l0,0l0.08-0.31l0,0l0.08-0.31v0l0.07-0.31v0l0.07-0.31v0
		l0.07-0.31v0l0.07-0.31v0l0.07-0.31v0l0.07-0.31v0l0.07-0.31v0l0.07-0.31v0l0.07-0.31v0l0.07-0.31v0l0.07-0.31l0,0l0.07-0.31l0,0
		l0.07-0.31l0,0l0.07-0.31v0l0.07-0.31v0l0.07-0.31l0,0l0.07-0.31v0l0.07-0.31v0l0.07-0.31l0,0l0.07-0.31l0,0l0.07-0.31l0,0
		l0.07-0.31v0l0.07-0.31l0,0l0.07-0.31l0,0l0.07-0.31v0l0.07-0.31l0,0l0.07-0.31l0,0l0.06-0.31l0,0l0.06-0.31v0l0.06-0.31v0
		l0.06-0.31v0l0.06-0.31l0,0l0.06-0.31l0,0l0.06-0.31l0,0l0.06-0.31l0,0l0.06-0.31l0,0l0.06-0.31l0,0l0.06-0.31h0l0.06-0.31l0,0
		l0.06-0.31h0l0.06-0.31h0l0.06-0.31h0l0.06-0.31l0,0l0.12-0.62l0,0l0.06-0.31l0,0l0.06-0.31h0l0.06-0.31h0l0.23-1.24h0l0.06-0.31
		l0,0l0.06-0.31h0l0.06-0.31l0,0l0.16-0.93h0l0.05-0.31h0c0.09-0.51,0.18-1.03,0.27-1.54h0l0.05-0.31h0l0.26-1.54v-0.03
		c1.49-8.89,3.09-17.74,4.96-26.39c0.62-2.87,1.28-5.74,1.97-8.62l0.1-0.41l0,0l0.1-0.41l0,0l0.1-0.41l0,0l0.1-0.41l0,0l0.1-0.41
		l0,0l0.1-0.41l0,0l0.1-0.41l0,0c0.14-0.55,0.28-1.09,0.42-1.64l0,0c0.14-0.55,0.28-1.09,0.43-1.64l0,0
		c1.01-3.83,2.1-7.66,3.29-11.49l0.08-0.25c0.12-0.33,0.23-0.66,0.34-1h0c0.1-0.29,0.19-0.58,0.29-0.87h0l0.06-0.18l0,0l0.15-0.46
		l0,0l0.13-0.41c0.95-2.94,1.91-5.88,3.38-8.78l-0.14-0.29c-0.41-3.5-0.93-6.95-1.5-10.36c-0.62-3.65-1.26-7.1-1.91-10.52v-0.03
		c-2.59-14.15-5.25-28.53-8.27-44.22c-2.83-14.68-5.77-29.35-8.92-43.98l-0.01,0c-2.37-10.88-4.83-21.73-7.53-32.39
		c-2.69-10.63-5.65-21.16-9.01-31.51l-0.58-1.57c-2.55-6.95-5.14-13.99-8.81-19.92c-1.2-1.71-2.44-3.36-3.75-4.73
		c-0.81-0.84-1.66-1.6-2.57-2.23c-1.03-0.01-2.06,0-3.08,0.01l-0.09,0.1l-0.08,0.08l-0.01,0.01l-0.09,0.1l-0.01,0.01
		c-1.9,1.94-3.67,3.92-4.79,6.03l-0.08,0.11c-1.99,3.57-3.72,7.3-5.27,11.13h0c-0.21,0.52-0.42,1.05-0.63,1.57h0
		c-0.14,0.35-0.27,0.7-0.41,1.06v0l-0.2,0.53v0c-0.13,0.35-0.27,0.71-0.4,1.06v0l-0.2,0.53l0,0l-0.19,0.53l0,0l-0.19,0.53l0,0
		l-0.19,0.54v0l-0.19,0.54l0,0l-0.19,0.54v0l-0.19,0.54l0,0l-0.18,0.54l0,0l-0.18,0.54l0,0l-0.18,0.54l0,0l-0.18,0.54l0,0
		l-0.18,0.54l0,0l-0.18,0.54l0,0l-0.18,0.54l0,0l-0.18,0.54l0,0l-0.18,0.54l0,0l-0.17,0.54l0,0l-0.17,0.54l0,0l-0.17,0.54l0,0
		l-0.17,0.54l0,0l-0.17,0.55l0,0l-0.17,0.55l0,0l-0.17,0.55l0,0l-0.17,0.55l0,0l-0.17,0.55l0,0l-0.17,0.55l0,0l-0.17,0.55l0,0
		l-0.17,0.55l0,0l-0.17,0.55l0,0l-0.17,0.55l0,0l-0.17,0.55l0,0l-0.17,0.55l0,0l-0.17,0.55l0,0l-0.17,0.55l0,0l-0.43,1.42l0.01,0v0
		l-0.23,0.8v0l-0.23,0.8v0l-0.23,0.8v0l-0.22,0.8v0l-0.22,0.8v0l-0.22,0.8v0l-0.22,0.8v0l-0.22,0.8v0l-0.22,0.8v0l-0.22,0.81v0
		l-0.22,0.81v0l-0.22,0.81v0l-0.22,0.81v0l-0.21,0.81v0l-0.21,0.81v0l-0.21,0.81v0l-0.21,0.81v0l-0.21,0.81v0l-0.21,0.81v0
		l-0.21,0.81v0l-0.21,0.81v0l-0.21,0.81v0l-0.21,0.81v0l-0.21,0.81v0l-0.2,0.81v0l-0.2,0.81v0l-0.2,0.81v0l-0.2,0.81v0l-0.2,0.81v0
		l-0.2,0.81v0l-0.2,0.81v0l-0.2,0.81v0l-0.2,0.81v0l-0.2,0.81v0l-0.2,0.81v0l-0.2,0.81v0l-0.19,0.81v0l-0.19,0.81v0l-0.19,0.81v0
		l-0.19,0.81v0l-0.19,0.81v0l-0.19,0.81v0l-0.19,0.81v0l-0.19,0.81v0l-0.19,0.81v0l-0.19,0.81v0l-0.19,0.81v0l-0.19,0.81v0
		l-0.19,0.81v0l-0.18,0.81v0l-0.18,0.81v0l-0.18,0.81v0l-0.18,0.82v0l-0.18,0.82v0l-0.18,0.82v0l-0.18,0.82v0l-0.18,0.82v0
		l-0.18,0.82v0l-0.18,0.82v0l-0.18,0.82v0l-0.18,0.82v0l-0.18,0.82v0l-0.18,0.82v0l-0.18,0.82v0l-0.17,0.79l-0.01,0.05l-0.16,0.74
		l-0.02,0.09l-0.15,0.69l-0.03,0.14l-0.14,0.65l-0.04,0.19l-0.13,0.6l-0.05,0.23l-0.12,0.55l-0.06,0.28l-0.11,0.51l-0.07,0.32
		l-0.1,0.46l-0.08,0.37l-0.09,0.41l-0.09,0.42l-0.08,0.37l-0.1,0.46l-0.07,0.32l-0.11,0.51l-0.06,0.27l-0.11,0.55l-0.05,0.23
		l-0.12,0.6l-0.04,0.18l-0.13,0.65l-0.03,0.14l-0.14,0.69l-0.02,0.09l-0.15,0.74l-0.01,0.04l-0.16,0.78l0,0l-0.16,0.78l-0.01,0.05
		l-0.15,0.73l-0.02,0.09l-0.14,0.69l-0.03,0.14l-0.13,0.64l-0.04,0.19l-0.12,0.59l-0.05,0.23l-0.11,0.55l-0.06,0.28l-0.1,0.5
		l-0.07,0.32l-0.09,0.46l-0.07,0.37l-0.08,0.41l-0.15,0.78l-0.09,0.46l-0.06,0.32l-0.1,0.51l-0.05,0.27l-0.11,0.55l-0.04,0.23
		l-0.12,0.6l-0.04,0.18l-0.13,0.64l-0.03,0.13l-0.13,0.69l-0.02,0.09l-0.14,0.73l-0.01,0.04l-0.15,0.78l0,0l-0.15,0.77l-0.01,0.05
		l-0.14,0.73l-0.02,0.1l-0.13,0.68l-0.03,0.14l-0.12,0.63l-0.04,0.19l-0.11,0.59l-0.04,0.23l-0.1,0.54l-0.05,0.28l-0.1,0.5
		l-0.06,0.32l-0.09,0.45l-0.07,0.37l-0.08,0.4l-0.08,0.41l-0.07,0.36l-0.09,0.46l-0.06,0.31l-0.1,0.51l-0.05,0.27l-0.1,0.55
		l-0.04,0.22l-0.11,0.6l-0.03,0.18l-0.12,0.64l-0.02,0.13l-0.13,0.69l-0.02,0.09l-0.14,0.73l-0.01,0.04l-0.15,0.77l0,0.01
		l-0.14,0.77l-0.01,0.05l-0.14,0.72l-0.02,0.1l-0.13,0.67l-0.03,0.14l-0.12,0.63l-0.04,0.19l-0.11,0.58l-0.04,0.23l-0.1,0.54
		l-0.05,0.28l-0.09,0.49l-0.06,0.32l-0.08,0.45l-0.07,0.37l-0.07,0.4l-0.08,0.41l-0.07,0.36v0c0.36,0.84,0.6,1.74,0.7,2.67
		c1.18,6.33,2.35,12.67,3.52,19.02c7.9,42.82,15.83,85.74,27.22,127.92l-0.02,0l1.02,3.35l0.01,0c-0.15-0.5-0.47-1.58,0,0
		c3.48,11.53,6.99,23.19,12.81,33.43l0.36,0.53v0.03c1.92,2.85,4.25,6.32,6.37,6.86c1.27-0.66,2.5-1.44,3.66-2.33
		c0.38-0.29,0.74-0.59,1.1-0.9l0,0l0.25-0.22l0,0l0.12-0.11l0,0l0.06-0.05l0,0l0.06-0.05l0,0l0.06-0.05l0,0l0.06-0.06l0,0l0.06-0.06
		l0,0l0.06-0.06l0,0l0.12-0.11l0,0l0.06-0.06l0,0l0.12-0.12l0,0L550.09,548.13L550.09,548.13L550.09,548.13z M326.98,552.16
		c4.13-4.43,6.75-10.8,9.22-16.81l0.37-0.89l-0.01,0l0,0l0,0c1.78-4.66,3.4-9.38,4.91-14.13l0,0l0.12-0.37l0,0l0.12-0.37l0,0
		l0.12-0.37l0,0l0.23-0.75l0,0l0.12-0.37l0,0l0.12-0.37l0,0l0.12-0.37l0,0l0.11-0.38l0,0l0.11-0.37l0,0l0.11-0.38l0,0l0.11-0.38l0,0
		l0.11-0.38l0,0l0.11-0.38l0,0l0.11-0.38l0,0l0.11-0.38l0,0l0.11-0.38l0,0l0.11-0.38l0,0l0.11-0.38l0,0l0.11-0.38l0,0l0.11-0.38l0,0
		l0.11-0.38l0,0l0.11-0.38l0,0l0.11-0.38l0,0l0.11-0.38l0,0l0.11-0.38l0,0l0.11-0.4l0,0l0.11-0.4l0,0l0.11-0.4l0,0l0.11-0.4l0,0
		l0.11-0.4l0,0l0.11-0.4l0,0l0.11-0.39l0,0l0.11-0.39l0,0l0.01-0.05l0.2-0.74v0l0.11-0.39l0,0l0.11-0.39v0l0.11-0.39v0l0.32-1.17v0
		l0.11-0.39l0,0l0.31-1.17v0l0.1-0.39v0l0.1-0.39v0c0.24-0.91,0.48-1.81,0.71-2.71v0c1.17-4.5,2.27-8.92,3.35-13.32
		c6.96-28.85,12.62-58.41,18.26-87.92l0.3-1.55c-0.49-1.27-0.63-2.68-0.77-4.09c0-0.01,0,0,0,0l0.02,0l-0.1-0.5
		c-1.99-10.94-4.22-22.8-6.68-35.54c-2.41-12.49-4.75-24.27-7.01-35.36l-0.01,0l-0.11-0.5c-5.58-26-11.17-52.07-19.27-77.14
		c-1.18-3.24-2.44-6.46-3.81-9.66c-1.34-3.13-2.77-6.2-4.35-9.18l-0.19-0.42c-0.88-1.96-2.13-3.76-3.64-5.35
		c-1.22-1.28-2.64-2.42-4.18-3.38c-0.8,0-1.59,0-2.39,0.01c-0.58,0.52-1.13,1.05-1.63,1.57c-0.87,0.9-1.64,1.86-2.25,2.9l-0.08,0.14
		c-2.19,3.59-4.05,7.45-5.72,11.45c-1.72,4.12-3.23,8.39-4.68,12.67l-0.01-0.01c-4.17,13.09-7.71,26.37-10.91,39.76
		c-3.14,13.12-6.07,26.88-8.97,40.7l0.02,0c-0.4,2.01-1.49,7.26-2.59,12.55c-0.88,4.21-1.76,8.46-2.63,12.83l-0.01,0.04l-0.06,0.31
		l0,0.01c-0.46,2.36-0.93,4.75-1.38,7.2l0.35,2.6c0.8,5.99,2.09,12.46,3.37,18.94c0.79,3.96,1.57,7.93,2.31,12.14
		c0.56,2.84,1.82,9.34,3.07,15.83c3,15.5,6.01,31.01,9.29,46.42l0.01,0l0.45,2.04c5.61,25.65,11.23,51.36,20.18,75.79l0,0
		c1.37,3.46,2.75,6.91,4.3,10.1c1.43,2.95,3.02,5.72,4.87,8.17C325.16,550.43,326.13,551.5,326.98,552.16L326.98,552.16z
		 M132.05,493.73c0.16-0.64,0.33-1.28,0.49-1.93h0l0.12-0.48h0l0.24-0.97h0c0.96-3.86,1.9-7.74,2.81-11.63
		c2.3-9.82,4.38-19.32,6.37-28.68v0l0.2-0.95v0l0.1-0.48h0l0.2-0.95l-0.02,0l0.02-0.11l0,0l0.02-0.12l0,0l0.02-0.12l0,0l0.02-0.12
		l0,0l0.02-0.12l0-0.01l0.03-0.12l0-0.01l0.03-0.13l0-0.01l0.03-0.13l0-0.01l0.03-0.13l0-0.01l0.03-0.13l0-0.01l0.03-0.13l0-0.01
		l0.03-0.14l0-0.01l0.03-0.14l0-0.01l0.03-0.14l0.03-0.16l0-0.01l0.03-0.15l0-0.01l0.1-0.48l0-0.02l0.07-0.32l0-0.02l0.03-0.16
		l0-0.02l0.07-0.34l0-0.02l0.15-0.72l0-0.02l0.04-0.17l0-0.02l0.04-0.17l0-0.02l0.04-0.17l0-0.02l0.04-0.18l0-0.02l0.08-0.37l0-0.02
		l0.08-0.38l0-0.02l0.08-0.39l0-0.02l0.26-1.23l0-0.02l0.04-0.19l0-0.02l0.18-0.84l0-0.02l0.13-0.63l0-0.02l0.04-0.2l0-0.02
		l0.18-0.86l0-0.02l0.04-0.2l0-0.02l0.04-0.2l0-0.02l0.04-0.2l0-0.02l0.14-0.64l0-0.02l0.04-0.2l0-0.02l0.15-0.73l0.03-0.16
		l0.04-0.2l0.15-0.7l0.01-0.03l0.08-0.36l0.01-0.06l0.06-0.3l0.03-0.15l0.04-0.21l0.05-0.24l0.03-0.12l0.07-0.33l0.01-0.03
		l0.15-0.73l0.03-0.14l0.05-0.22l0.14-0.68l0.01-0.04l0.18-0.86l0.05-0.23l0.05-0.22l0.03-0.14l0.07-0.36l0.08-0.36l0.01-0.04
		l0.14-0.69l0.04-0.22l0.03-0.15l0.06-0.3l0.01-0.06l0.07-0.36l0.01-0.03l0.07-0.33l0.15-0.73l0.06-0.3l0.01-0.07l0.07-0.36l0-0.02
		l0.07-0.34l0.02-0.11l0.05-0.25l0.04-0.2l0.03-0.16l0.06-0.29l0.01-0.07l0.07-0.36l0-0.01l0.07-0.35l0.02-0.1l0.05-0.26l0.04-0.19
		l0.03-0.17l0.06-0.28l0.02-0.08l0.07-0.36l0-0.01l0.07-0.36l0.02-0.1l0.05-0.27l0.04-0.18l0.03-0.18l0.05-0.27l0.02-0.09l0.07-0.36
		v0l0.07-0.36l0.02-0.09l0.05-0.28l0.03-0.18l0.03-0.19l0.05-0.27l0.02-0.1l0.07-0.35l0-0.01l0.07-0.36l0.01-0.08l0.05-0.28
		l0.03-0.17l0.03-0.19l0.05-0.26l0.02-0.11l0.06-0.35l0-0.02l0.06-0.36l0.01-0.07l0.05-0.29l0.03-0.16l0.04-0.2l0.04-0.25l0.02-0.11
		l0.06-0.34l0-0.02l0.06-0.36l0.01-0.06l0.05-0.3l0.03-0.15l0.04-0.21c-1.21-1.45-2.57-2.75-4.05-3.89
		c-1.81-1.39-3.77-2.52-5.86-3.38l-0.22-0.08c-1.43-0.65-3.52-0.79-5.6-0.92c-1-0.07-2-0.13-3.2-0.27H58.24
		c2.13,2.23,4.07,4.59,5.86,7.03c2.71,3.69,5.11,7.64,7.28,11.71l0.06,0.06c3.38,6.51,6.24,13.31,8.72,20.27
		c2.42,6.78,4.47,13.73,6.31,20.72v0.03c2.72,10.43,4.52,20.52,6.33,30.61c3.05,17.07,6.1,34.14,12.85,49.68
		c0.84,1.36,0.55,0.87,0.7,1.13c1.31,2.18,2.66,4.4,4.12,5.86c0.35-0.35,0.69-0.7,1-1.06c0.25-0.28,0.5-0.57,0.74-0.86l0,0
		c0.12-0.15,0.24-0.3,0.35-0.45l0,0l0.05-0.06l0,0l0.1-0.13l0.05-0.06l0,0l0.05-0.06l0,0l0.05-0.07l0,0l0.05-0.07l0,0l0.05-0.07l0,0
		l0.05-0.07l0,0l0.09-0.13l0,0l0.05-0.07l0,0l0.05-0.07l0,0l0.05-0.07l0,0l0.09-0.14l0,0l0.05-0.07l0,0l0.05-0.07l0,0l0.09-0.14l0,0
		l0.04-0.07l0,0l0.09-0.14l0,0c0.06-0.09,0.12-0.19,0.17-0.28l0,0l0.04-0.07v0l0.04-0.07v0l0.04-0.07v0l0.04-0.07v0l0.04-0.07l0,0
		l0.04-0.07v0l0.04-0.07l0.04-0.07v0l0.04-0.07l0,0l0.04-0.07l0.04-0.07l0,0l0.04-0.07v0l0.04-0.07v0l0.04-0.07l0.04-0.07l0.04-0.07
		h0.03l0.14-0.26l0.14-0.26l0.13-0.26v0l0.13-0.26l0.13-0.26l0.13-0.26l0.13-0.26l0.13-0.26l0.13-0.26l0.13-0.26l0.13-0.27h0
		l0.13-0.27l0.13-0.27l0.13-0.27v0l0.25-0.53l0.25-0.54v0l0.12-0.27l0.12-0.27l0.12-0.27v0l0.12-0.27l0.12-0.27v0l0.12-0.27
		l0.12-0.27l0.12-0.27l0.12-0.27l0.12-0.27l0.23-0.55v0l0.12-0.27l0.12-0.27l0.12-0.27v0l0.11-0.28h0c0.11-0.28,0.23-0.55,0.34-0.83
		h0l0.11-0.28h0l0.11-0.28v0l0.11-0.28v0l0.11-0.28v0l0.11-0.28l0.22-0.56h0l0.11-0.28v0l0.11-0.28v0l0.32-0.84h0l0.11-0.28v0
		l0.11-0.28l0.11-0.28l0.31-0.85v0l0.21-0.57h0l0.1-0.28v0l0.1-0.28l0.1-0.28v0l0.1-0.28v0l0.1-0.28v0l0.2-0.57v0l0.1-0.3v0l0.1-0.3
		v0l0.1-0.3l0.1-0.3v0l0.1-0.3v0l0.1-0.29v0l0.1-0.3v0l0.2-0.59v0l0.1-0.29l0.2-0.59v0c0.2-0.59,0.39-1.18,0.58-1.76v0l0.1-0.29
		l0.19-0.59h0l0.28-0.88l0.09-0.29h0l0.09-0.29h0l0.09-0.29h0l0.09-0.29h0l0.09-0.29h0l0.09-0.29h0l0.09-0.29h0l0.09-0.29h0
		l0.09-0.29h0l0.09-0.29h0l0.09-0.29h0l0.09-0.29h0l0.09-0.29h0l0.18-0.58l0,0l0.09-0.29h0l0.09-0.29l0,0l0.09-0.29h0l0.09-0.29h0
		l0.09-0.29h0l0.09-0.29h0l0.17-0.58h0l0.09-0.29l0,0l0.09-0.29l0,0l0.09-0.29h0l0.09-0.29l0,0l0.09-0.29l0.09-0.29h0l0.09-0.29
		l0.09-0.29l0.08-0.29h0l0.08-0.29h0l0.08-0.29l0,0l0.08-0.29h0l0.08-0.29l0.08-0.29h0l0.08-0.29l0.08-0.29l0.08-0.29l-0.01,0
		l0.13-0.48l0.13-0.48l0.13-0.48l0.13-0.48l0.13-0.48l0.13-0.48l0.13-0.48h0l0.13-0.48l0.13-0.48l0.13-0.48l0.13-0.48l0.13-0.48h0
		l0.13-0.48l0.13-0.48l0.13-0.48h0l0.13-0.48l0.13-0.48h0l0.13-0.48l0.13-0.48h0l0.13-0.48l0.13-0.48h0l0.13-0.48l0.13-0.48h0
		l0.13-0.48h0l0.13-0.48h0l0.12-0.48h0l0.12-0.48h0l0.12-0.48h0l0.12-0.48h0l0.12-0.48h0l0.12-0.48h0l0.12-0.48h0L132.05,493.73
		L132.05,493.73L132.05,493.73z M368.69,392.33c0.04,0.14-0.02-0.05-0.03-0.08l0.02,0L368.69,392.33L368.69,392.33z M524.68,511.54
		L524.68,511.54C524.76,511.78,524.79,511.89,524.68,511.54z"/>
	<path fill="#FFFFFF" d="M164.58,408.88l-0.07,0.47v0l-0.07,0.47v0l-0.07,0.47h0l-0.07,0.47l0,0l-0.07,0.47l0,0l-0.07,0.47v0
		l-0.07,0.47l0,0l-0.07,0.47l0,0l-0.07,0.47l0,0l-0.08,0.47l-0.08,0.46l0,0l-0.08,0.46l0,0l-0.08,0.46l0,0l-0.08,0.46l0,0
		l-0.08,0.46l0,0l-0.08,0.46l0,0l-0.08,0.46l0,0l-0.08,0.46l0,0l-0.08,0.46l0,0l-0.08,0.46l0,0.01l-0.08,0.46l0,0.01l-0.08,0.46
		l0,0.01l-0.08,0.46l0,0.01l-0.08,0.46l0,0.01l-0.09,0.46l0,0.01l-0.15,0.82l-0.02,0.11l0,0.01l-0.09,0.46l0,0.01l-0.09,0.46l0,0.01
		l-0.09,0.46l0,0.01l-0.09,0.46l0,0.01l-0.09,0.46l0,0.01l-0.09,0.46l0,0.01l-0.09,0.46l0,0.01l-0.09,0.46l0,0.01l-0.09,0.46l0,0.01
		l-0.09,0.45l0,0.01l-0.09,0.45l0,0.01l-0.09,0.45l0,0.01l-0.18,0.92l0,0.01l-0.09,0.45l0,0.01l-0.09,0.45l0,0.01l-0.09,0.45l0,0.01
		l-0.09,0.45l0,0.01l-0.19,0.92l0,0.01l-0.09,0.45l0,0.01l-0.09,0.45l0,0.01l-0.29,1.38l0,0.02l-0.09,0.45l0,0.02l-0.09,0.45l0,0.02
		l-0.19,0.91l0,0.02l-0.09,0.45l0,0.02l-0.09,0.45l0,0.02l-0.09,0.45l0,0.02l-0.19,0.91l0,0.02l-0.09,0.45l0,0.02l-0.09,0.45l0,0.02
		l-0.09,0.45l0,0.02l-0.06,0.28l0,0.02l-0.06,0.28l0,0.02l-0.03,0.13l0,0.02l-0.03,0.13l0,0.02l-0.03,0.13l0,0.02l-0.06,0.28l0,0.02
		l-0.03,0.13l0,0.02l-0.03,0.14l0,0.01l-0.03,0.14l0,0.01l-0.09,0.41l-0.01,0.03l0,0.01l-0.03,0.14l0,0.01l-0.03,0.14l0,0.01
		l-0.03,0.14l0,0.01l-0.03,0.15l0,0.01l-0.03,0.15l0,0.01l-0.03,0.15l0,0.01l-0.03,0.15l0,0.01l-0.03,0.15l0,0.01l-0.03,0.15l0,0.01
		l-0.03,0.16l0,0.01l-0.03,0.16l0,0.01l-0.03,0.16l0,0l-0.03,0.16l0,0l-0.03,0.16l0,0l-0.03,0.17l0,0l-0.04,0.17l0,0l-0.04,0.17l0,0
		l-0.04,0.17v0l-0.04,0.18l0,0l-0.04,0.18l-0.04,0.18v0l-0.04,0.18l0,0l-0.04,0.18l0,0l-0.04,0.19l0,0l-0.04,0.19l0,0l-0.04,0.19
		l0,0l-0.04,0.19l0,0l-0.04,0.19l0,0l-0.04,0.19l0,0l-0.04,0.2l0,0l-0.04,0.2l0,0l-0.04,0.2l0,0l-0.04,0.2l0,0l-0.04,0.2l0,0
		l-0.04,0.21l0,0l-0.04,0.21l0,0l-0.04,0.21l0,0l-0.04,0.22l0,0l-0.04,0.22l0,0l-0.04,0.22l0,0l-0.05,0.22l0,0l-0.05,0.23l0,0
		l-0.05,0.23l0,0l-0.05,0.24l0,0l-0.05,0.24l0,0l-0.05,0.24l0,0l-0.05,0.25l0,0l-0.05,0.25v0l-0.05,0.25l-0.03,0.06l-0.11,0.5h0
		l-0.11,0.5l0,0l-0.11,0.5h0l-0.11,0.5l0,0l-0.11,0.5l0,0l-0.21,1l0,0c-2.02,9.52-4.08,18.9-6.2,27.94
		c-0.77,3.26-1.55,6.53-2.36,9.8h0l-0.36,1.47h0l-0.24,0.98h0l-0.12,0.49h0l-0.12,0.49h0c-0.16,0.65-0.33,1.31-0.5,1.96h0
		l-0.13,0.49h0l-0.13,0.49h0l-0.13,0.49h0l-0.13,0.49h0l-0.13,0.49h0l-0.13,0.49h0l-0.13,0.49h0l-0.13,0.49h0l-0.13,0.49l-0.13,0.49
		h0l-0.13,0.49l-0.13,0.49l-0.13,0.49l-0.13,0.49h0l-0.13,0.49l-0.13,0.49l-0.13,0.49l-0.13,0.49l-0.13,0.49h0l-0.13,0.49
		l-0.13,0.49l-0.13,0.49l-0.13,0.49l-0.13,0.49l-0.13,0.49l-0.14,0.49l-0.14,0.49l-0.14,0.49l-0.14,0.49l-0.14,0.49l-0.14,0.49
		l-0.14,0.49l-0.14,0.49l-0.03,0.06l-0.09,0.31l-0.09,0.31v0l-0.09,0.31h0l-0.09,0.31l-0.09,0.31l-0.09,0.31l-0.09,0.31l-0.09,0.31
		h0l-0.09,0.31l-0.09,0.31v0l-0.09,0.31l0,0l-0.09,0.31v0l-0.09,0.31v0l-0.09,0.31h0l-0.09,0.31l-0.09,0.31v0l-0.09,0.31h0
		l-0.09,0.31l-0.09,0.31v0l-0.09,0.31l0,0l-0.09,0.31h0l-0.09,0.31l-0.09,0.31v0l-0.09,0.31l0,0l-0.09,0.31v0l-0.09,0.31l0,0
		l-0.09,0.31l0,0l-0.09,0.31l0,0l-0.09,0.31l0,0l-0.09,0.31v0l-0.09,0.31l0,0l-0.09,0.31l0,0l-0.09,0.31v0l-0.1,0.31l0,0l-0.1,0.31
		l0,0l-0.1,0.31l0,0l-0.1,0.31v0l-0.1,0.3l0,0l-0.1,0.3l0,0l-0.1,0.3l0,0l-0.1,0.3l0,0l-0.1,0.3v0l-0.1,0.3v0l-0.1,0.3l0,0l-0.1,0.3
		l-0.1,0.3l0,0l-0.1,0.3h0l-0.1,0.3l-0.1,0.3l-0.1,0.3h0l-0.1,0.3h0l-0.1,0.3l-0.1,0.3l-0.1,0.3l-0.1,0.3h0l-0.1,0.3h0l-0.1,0.3
		l-0.1,0.3v0l-0.1,0.3v0l-0.1,0.3v0l-0.1,0.3v0l-0.1,0.3v0l-0.1,0.29v0l-0.1,0.29v0l-0.11,0.31v0l-0.11,0.31v0l-0.11,0.31v0
		l-0.11,0.31v0l-0.11,0.31v0l-0.11,0.31v0l-0.11,0.31v0l-0.11,0.3v0l-0.11,0.31v0l-0.11,0.31v0l-0.11,0.3v0l-0.11,0.3v0l-0.12,0.3v0
		l-0.12,0.3v0l-0.12,0.3l0,0l-0.12,0.3v0l-0.12,0.3v0l-0.12,0.3v0l-0.12,0.3v0l-0.12,0.3v0l-0.12,0.3v0l-0.12,0.3l0,0l-0.12,0.3v0
		l-0.12,0.3v0l-0.12,0.3l0,0l-0.12,0.3v0l-0.12,0.3l0,0l-0.12,0.3v0l-0.13,0.3v0l-0.13,0.3v0l-0.13,0.3v0l-0.13,0.3v0l-0.13,0.3v0
		l-0.13,0.3v0l-0.13,0.3v0l-0.13,0.3l0,0l-0.13,0.3v0l-0.13,0.3v0l-0.13,0.3l0,0l-0.13,0.3l0,0l-0.13,0.3l0,0l-0.14,0.3l0,0
		l-0.14,0.3l0,0l-0.14,0.3v0l-0.14,0.3v0l-0.14,0.3l0,0l-0.14,0.3l0,0l-0.14,0.3v0l-0.14,0.3l0,0l-0.14,0.3v0l-0.14,0.3l0,0
		l-0.14,0.3l0,0l-0.14,0.3l0,0l-0.15,0.3v0l-0.15,0.3v0l-0.15,0.3l0,0l-0.15,0.3l-0.15,0.3l-0.15,0.3v0l-0.15,0.3l-0.15,0.3
		l-0.15,0.3l-0.15,0.3l-0.16,0.3l0.02,0.01l-0.19,0.36l-0.02,0.05c0.58,0.01,1.16,0.02,1.75,0.03l82.78,0.01l-0.24-0.26
		c-0.01,0-0.01-0.01-0.01-0.01c0.07-0.06,0,0,0,0c0,0,0.1-0.08,0.6-0.53c4.46-4.06,7.19-10.49,9.82-16.7v-0.03l0.55-1.29l0,0
		c3.38-8.86,6.14-17.72,8.57-26.57c2.32-8.42,4.6-17.94,6.87-27.52l0.01,0c4.58-19.93,8.72-40.01,12.61-60.18
		c3.54-18.34,6.93-37.15,10.28-56.12l-0.04-0.02l0.82-4.58c1.02-5.7,2.31-12.08,3.64-18.56l0.06-0.27l0.87-4.25
		c0.89-4.34,1.77-8.65,2.86-14.26l0.03-0.11c2.84-13.53,5.73-27.12,9.09-41.15c3.29-13.75,6.94-27.41,11.23-40.9l0.03-0.14
		c1.54-4.54,3.15-9.09,5.01-13.56c1.48-3.56,3.13-7.07,5.02-10.48h-79.16c-0.66,0-0.46-0.02-1.58-0.05
		c-0.74-0.02-1.48-0.03-2.16,0.01c-1.04,0.58-1.99,1.37-2.87,2.29c-1.28,1.35-2.39,2.96-3.37,4.63l0.02,0.01
		c-2,3.49-3.69,7.13-5.21,10.87c-1.63,4-2.99,7.89-4.28,11.75l0.01,0c-2.78,8.49-5.17,16.95-7.35,25.38
		c-2.09,8.08-4.19,16.95-6.29,25.94l-0.01,0c-2.54,11.21-4.94,22.36-7.23,33.48c-2.19,10.65-4.43,21.97-6.68,33.71l-0.01,0
		c-1.23,6.86-2.19,11.77-3.15,16.68C167.86,389.68,165.96,399.39,164.58,408.88L164.58,408.88L164.58,408.88z M617.44,405.45
		c-2.73,1.21-5.22,3.05-7.23,5.3l-1.02-0.39l0.72,0.72c-1.22,1.22-2.31,3.04-3.38,4.91l0.34,0.34l-3.25,4.51l-0.18,0.26l-0.11,0.14
		c-1.69,2.35-2.74,5.59-3.79,8.82c-0.34,1.04-0.67,2.07-1.03,3.11c-1.45,4.68-2.77,9.46-3.97,14.3l0,0c-0.88,3.53-1.7,7.1-2.48,10.7
		c-1.87,8.65-3.43,17.23-4.85,25.72h0l0,0c-0.13,0.77-0.26,1.54-0.39,2.31h0c-0.09,0.55-0.19,1.1-0.29,1.65h0l-0.17,0.99h0
		l-0.12,0.66h0l-0.06,0.33h0l-0.06,0.33h0l-0.06,0.33h0l-0.12,0.66h0l-0.06,0.33h0l-0.06,0.33h0l-0.06,0.33h0l-0.06,0.33h0
		l-0.06,0.33h0l-0.06,0.33h0l-0.06,0.33h0l-0.06,0.33h0l-0.06,0.33h0l-0.06,0.33h0l-0.06,0.33h0l-0.06,0.32l0,0l-0.06,0.32h0
		l-0.07,0.32l0,0l-0.07,0.32h0l-0.07,0.32l-0.07,0.32h0l-0.07,0.32h0l-0.07,0.32v0l-0.07,0.32l0,0l-0.07,0.32v0l-0.07,0.32l0,0
		l-0.07,0.32l0,0l-0.07,0.32l0,0l-0.07,0.32l0,0l-0.07,0.32v0l-0.07,0.32v0l-0.07,0.32l0,0l-0.07,0.32l0,0l-0.07,0.32v0l-0.07,0.32
		v0l-0.07,0.32v0l-0.07,0.32l0,0l-0.07,0.32l0,0l-0.07,0.32v0l-0.07,0.32v0l-0.07,0.32v0l-0.07,0.32v0l-0.07,0.32l0,0l-0.07,0.32v0
		l-0.07,0.32v0l-0.07,0.32v0l-0.08,0.32v0l-0.08,0.32v0l-0.08,0.32v0l-0.08,0.32v0l-0.08,0.32l0,0l-0.08,0.32l0,0l-0.08,0.32l0,0
		l-0.08,0.32v0l-0.08,0.32v0l-0.08,0.32v0l-0.08,0.32v0l-0.08,0.32l0,0l-0.08,0.32l0,0l-0.08,0.32l0,0l-0.08,0.32v0l-0.08,0.32l0,0
		l-0.08,0.32l0,0l-0.08,0.32l0,0l-0.08,0.32l0,0l-0.08,0.32l0,0l-0.08,0.32l0,0l-0.08,0.32l0,0l-0.08,0.32l0,0l-0.08,0.32l0,0
		l-0.09,0.32l0,0l-0.09,0.32l0,0l-0.09,0.32l0,0l-0.09,0.32l0,0l-0.09,0.32l0,0l-0.09,0.32l0,0l-0.09,0.32l0,0l-0.09,0.32l0,0
		l-0.09,0.32l0,0l-0.09,0.32l0,0l-0.09,0.32l0,0l-0.09,0.32l0,0l-0.09,0.32l0,0l-0.09,0.32l0,0l-0.09,0.32l0,0l-0.09,0.32l0,0
		l-0.09,0.32l0,0l-0.28,0.96l0,0c-0.25,0.86-0.51,1.71-0.77,2.57l0,0c-0.39,1.28-0.79,2.57-1.21,3.86v0.03
		c-0.59,1.83-1.21,3.66-1.87,5.48l0,0c-0.11,0.32-0.23,0.63-0.34,0.95h0c-0.15,0.4-0.29,0.79-0.44,1.19l0,0
		c-0.12,0.32-0.24,0.63-0.36,0.95l0,0l-0.27,0.71l0,0l-0.09,0.24l0,0l-0.28,0.71l0,0l-0.19,0.47l0,0l-0.19,0.47l0,0l-0.19,0.47l0,0
		l-0.1,0.23l0,0l-0.2,0.47l0,0l-0.1,0.23l0,0l-0.2,0.47l0,0c-0.13,0.31-0.27,0.62-0.41,0.93l0,0l-0.1,0.23l0,0l-0.1,0.23l0,0
		l-0.11,0.23l0,0l-0.11,0.23l0,0l-0.11,0.23l0,0l-0.09,0.2l-0.02,0.04l-0.08,0.16l-0.04,0.08l-0.06,0.12l-0.05,0.11l-0.04,0.09
		l-0.07,0.15l-0.02,0.05l-0.09,0.19l-0.01,0.01l-0.1,0.2l-0.01,0.03l-0.08,0.17l-0.03,0.06l-0.07,0.13l-0.1,0.2l-0.07,0.14
		l-0.03,0.06l-0.1,0.2l-0.1,0.2l-0.01,0.01l-0.09,0.18l-0.2,0.39l-0.06,0.13l-0.04,0.07c-1.58,3.08-3.35,6.07-5.39,8.95
		c7.11,0,14.22,0.01,21.33,0.01c18.99,0.02,38.01,0.05,57.04-0.14c3.48-3.08,6.33-6.79,8.7-10.84c2.89-4.94,5.1-10.44,6.88-15.96
		l0.03-0.06c3.57-10.7,4.73-22.28,5.89-33.85c0.6-5.99,1.2-11.97,2.04-17.47l0,0c1.35-9.02,2.84-18.17,5.21-27.34
		c2.41-9.33,5.68-18.4,10.54-26.88c3.16-5.53,7.25-10.53,12.02-14.85c0.58-0.52,1.17-1.03,1.76-1.53l-2.07-0.03l-68.38,0
		C622.8,403.71,620.01,404.31,617.44,405.45L617.44,405.45z M428.92,218.53c-1.66,2.05-3.08,4.63-4.38,7.09l0.01,0.01
		c-7,14.53-11.17,30.57-15.31,46.46l-0.76,2.92c-4.73,19.52-9.01,39.49-13.04,59.72c-3.68,18.49-6.96,36.14-10.09,53.47l0.09,0.02
		l-2.38,12.42c-5.63,29.43-11.27,58.91-18.42,88.52c-0.89,3.66-1.79,7.3-2.7,10.88v0c-0.3,1.19-0.61,2.38-0.92,3.56l0,0l-0.1,0.39
		l0,0l-0.21,0.78l0,0l-0.21,0.78l0,0l-0.1,0.39l0,0l-0.31,1.17l0,0l-0.1,0.39l0,0l-0.21,0.77l0,0l-0.1,0.39l0,0l-0.21,0.77l0,0
		l-0.1,0.38l0,0l-0.1,0.38l0,0l-0.11,0.38l0,0l-0.11,0.38l0,0l-0.11,0.38l0,0l-0.11,0.38l0,0l-0.11,0.38l0,0l-0.11,0.38l0,0
		l-0.11,0.38l0,0l-0.11,0.38l0,0l-0.11,0.38l0,0l-0.11,0.38l0,0l-0.11,0.37l0,0l-0.11,0.39l0,0l-0.11,0.39l0,0l-0.11,0.39l0,0
		l-0.11,0.39l0,0l-0.11,0.39l0,0l-0.12,0.39l0,0l-0.23,0.79l0,0l-0.12,0.39l0,0l-0.12,0.39l0,0l-0.12,0.39l0,0l-0.12,0.39l0,0
		l-0.12,0.39l0,0l-0.12,0.39l0,0l-0.12,0.39l0,0l-0.12,0.39l0,0l-0.24,0.79l0,0l-0.12,0.39l0,0l-0.37,1.18l0,0l-0.12,0.39l0,0
		c-1.69,5.38-3.51,10.73-5.54,16.03l-0.08,0.17l-0.44,1.07c-1.64,3.98-3.32,8.08-5.48,11.99c9.51-0.01,19.02,0.01,28.54,0.02
		c18.36,0.03,36.72,0.06,55.07-0.07c0.91-0.64,1.75-1.49,2.52-2.45c1.34-1.65,2.52-3.64,3.63-5.56l-0.01-0.01
		c2.47-4.6,4.53-9.46,6.35-14.44c1.96-5.34,3.55-10.44,5.08-15.47l-0.01,0c2.53-8.58,4.76-17.1,6.83-25.61
		c1.95-8.04,3.93-16.88,5.92-25.96l0.01,0c3.72-17.45,7.18-34.75,10.45-51.94c2.92-15.39,5.77-31.12,8.57-47.08l-0.04-0.02l0.74-4
		l0.18-1.05l0.03-0.08l0,0v0l0.16-0.84v0l0.16-0.84v0l0.16-0.84v0l0.16-0.84v0l0.16-0.84v0l0.16-0.84v0l0.16-0.84v0l0.16-0.84v0
		l0.16-0.84v0l0.16-0.84v0l0.16-0.84v0l0.16-0.84v0l0.16-0.84v0l0.16-0.84v0l0.16-0.84v0l0.16-0.84v0l0.16-0.84v0l0.16-0.84v0
		l0.16-0.84v0l0.16-0.84v0l0.16-0.84v0l0.16-0.84v0l0.16-0.84v0l0.16-0.83v0l0.16-0.83v0l0.16-0.83v0l0.16-0.83v0l0.16-0.83v0
		l0.16-0.83v0l0.16-0.83v0l0.16-0.83v0l0.16-0.83v0l0.16-0.83v0l0.16-0.83v0l0.16-0.83v0l0.16-0.83v0l0.16-0.83v0l0.16-0.83v0
		l0.16-0.83v0l0.16-0.83v0l0.16-0.83v0l0.17-0.83v0l0.17-0.83v0l0.17-0.83v0l0.17-0.82v0l0.17-0.82v0l0.17-0.82v0l0.17-0.82v0
		l0.17-0.82v0l0.17-0.82v0l0.17-0.82v0l0.17-0.82v0l0.17-0.82v0l0.17-0.82v0l0.17-0.82v0l0.17-0.82v0l0.17-0.82v0l0.17-0.82v0
		l0.17-0.82v0l0.17-0.82v0l0.17-0.81v0l0.17-0.81v0l0.17-0.81v0l0.17-0.81v0l0.18-0.83v0l0.18-0.83v0l0.18-0.83v0l0.18-0.83v0
		l0.18-0.83v0l0.18-0.83v0l0.18-0.83v0l0.18-0.83v0l0.18-0.83v0l0.18-0.83v0l0.19-0.83v0l0.19-0.83v0l0.19-0.83v0l0.19-0.83v0
		l0.19-0.83v0l0.19-0.83v0l0.19-0.83v0l0.19-0.83v0l0.19-0.83v0l0.19-0.83v0l0.19-0.83v0l0.19-0.83v0l0.19-0.83v0l0.19-0.83v0
		l0.2-0.83v0l0.2-0.83v0l0.2-0.83v0l0.2-0.83v0l0.2-0.83v0l0.2-0.83v0l0.2-0.83v0l0.2-0.83v0l0.2-0.83v0l0.2-0.82v0l0.2-0.82v0
		l0.2-0.82v0l0.21-0.82v0l0.21-0.82v0l0.21-0.82v0l0.21-0.82v0l0.21-0.82v0l0.21-0.82v0l0.21-0.82v0l0.21-0.82v0l0.21-0.82v0
		l0.21-0.82v0l0.21-0.82v0l0.22-0.82v0l0.22-0.82v0l0.22-0.82v0l0.22-0.82v0l0.22-0.82v0l0.22-0.82v0l0.22-0.82v0l0.22-0.82v0
		l0.22-0.82v0l0.22-0.82v0l0.23-0.82v0l0.23-0.82v0l0.23-0.82v0l0.23-0.82v0l0.23-0.82v0l0.23-0.82v0l0.23-0.82v0l0.06-0.14v0
		l0.47-1.56l0,0l0.17-0.57l0-0.01l0.17-0.57l0-0.01l0.17-0.56l0.16-0.52l0.02-0.05l0.01-0.03l0.17-0.55l0.01-0.03l0.17-0.54
		l0.01-0.04l0.16-0.54l0.01-0.04l0.16-0.53l0.02-0.05l0.16-0.52l0.02-0.06l0.16-0.52l0.02-0.06l0.16-0.51l0.36-1.15l0.03-0.08
		l0.15-0.49l0.03-0.09l0.15-0.48l0.03-0.1l0.15-0.48l0.16-0.5l0.02-0.08l0.03-0.11l0.15-0.46l0.04-0.12l0.15-0.46l0.04-0.12
		l0.15-0.45l0.04-0.13l0.15-0.44l0.04-0.13l0.14-0.44l0.19-0.57l0.05-0.15l0.14-0.42l0.37-1.08l0.02-0.06l0.06-0.17l0.14-0.4
		l0.01-0.02l0.18-0.51l0.02-0.07l0.15-0.43l0.04-0.12l0.07-0.19l0.14-0.38l0.07-0.19l0.13-0.38l0.07-0.2l0.13-0.37l0.07-0.2
		l0.13-0.36l0.08-0.21l0.05-0.13l0.14-0.39l0.05-0.13l0.18-0.48l0.01-0.02l0.13-0.34l0.09-0.23l0.03-0.09
		c1.97-5.17,4.21-10.25,6.92-15.18c-5.39,0-2-0.01,0.01-0.01l0.01-0.01l-9.92-0.01c-24.3-0.02-48.61-0.03-72.92,0.09
		C431.27,216.01,430.03,217.16,428.92,218.53L428.92,218.53z M212.4,552.8l-0.77-0.02h-0.23l-0.24-0.26
		c0.09,0.04,0.7,0.15,1.18,0.23L212.4,552.8L212.4,552.8z M212.45,552.76c0.47,0.08,0.73,0.13,0.04,0.04L212.45,552.76z"/>
</g>
</svg>
