<svg xmlns="http://www.w3.org/2000/svg"
	 viewBox="0 0 768 768"
	 width="48"
	 height="48"
>
	<style type="text/css">
		.container{
			width: 50%;
			max-width: 300px;
			display: block;
			animation: 5s infinite both i-animation;
			animation-delay: 2s;
		}
		@keyframes i-animation {
			0% {transform: translateY(-48px);}
			50% {transform: translateY(48px);}
			100% {transform: translateY(-48px);}
		}
	</style>
	<g class="container">
		<path fill="#FFFFFF" d="M384,656c-149.97,0-272-122.03-272-272s122.03-272,272-272c149.96,0,272,122.03,272,272S533.96,656,384,656
			L384,656L384,656z M384,257.79c-56.12,0-91.1,28.06-105.2,84.18c21.01-28.06,45.55-38.5,73.61-31.59
			c16.05,4.05,27.41,15.66,40.07,28.45c20.62,20.88,44.51,45.16,96.58,45.16c56.12,0,91.1-28.06,105.2-84.18
			c-21.01,28.06-45.55,38.5-73.61,31.59c-16.05-4.05-27.41-15.66-40.07-28.45C459.96,282.07,436.08,257.79,384,257.79L384,257.79
			L384,257.79z M278.8,384c-56.12,0-91.1,28.06-105.2,84.18c21.01-28.06,45.55-38.5,73.61-31.59c16.05,4.05,27.41,15.66,40.07,28.45
			c20.62,20.88,44.51,45.16,96.58,45.16c56.12,0,91.1-28.06,105.2-84.18c-21.01,28.06-45.55,38.5-73.61,31.59
			c-16.05-4.05-27.41-15.66-40.07-28.45C354.76,408.28,331.01,384,278.8,384z"/>
	</g>
</svg>
