<svg xmlns="http://www.w3.org/2000/svg"
	 viewBox="0 0 768 768"
	 width="256"
	 height="256"
>
<style type="text/css">
	@keyframes dash {
		to {
			stroke-dashoffset: 0;
		}
		0%{fill:none;}
		95%{fill:none;}
		100%{fill:#666666;}
	}
	@keyframes battery-animation{
		  0%{fill:#FF7D7D;}
		 10%{fill:#FF7D7D;}
		 20%{fill:#FF9E75;}
		 30%{fill:#FF9E75;}
		 40%{fill:#FFC587;}
		 50%{fill:#FFDA73;}
		 60%{fill:#FFD331;}
		 70%{fill:#E1E80E;}
		 80%{fill:#B3FF00;}
		 90%{fill:#7BFF00;}
		100%{fill:#00FF00;}
	}
	.st1{
		stroke-dasharray: 6000;
		stroke-dashoffset: 3000;
		animation: dash 2s linear forwards;
	}
</style>
<g>
	<polygon fill="#666666" class="st1" stroke="#666666" stroke-width="10" points="513.2,704 665.8,704 665.8,704 704,704 704,64 64,64 64,704 450,704 415.8,650.7 117.3,650.7
		117.3,117.3 650.7,117.3 650.7,650.7 607.8,650.7 436.7,384 573.6,170.7 444.8,170.7 307.9,384"/>
	<polygon class="st1" points="255.4,170.7 279.4,170.7 279.4,597.3 171.1,597.3 171.1,170.7 195.1,170.7 195.1,182.7 183.1,182.7
		183.1,585.3 267.4,585.3 267.4,182.7 255.4,182.7 "/>
	<g fill="#00FF00">
		<rect style="display:block;animation:2.2s linear battery-animation;animation-delay:0.2s;" x="195.1" y="547.2" width="60.2" height="26.1"/>
		<rect style="display:block;animation:2.2s linear battery-animation;animation-delay:0.4s;" x="195.1" y="508" width="60.2" height="26.1"/>
		<rect style="display:block;animation:2.2s linear battery-animation;animation-delay:0.6s;" x="195.1" y="468.9" width="60.2" height="26.1"/>
		<rect style="display:block;animation:2.2s linear battery-animation;animation-delay:0.8s;" x="195.1" y="429.7" width="60.2" height="26.1"/>
		<rect style="display:block;animation:2.2s linear battery-animation;animation-delay:1s;" x="195.1" y="390.5" width="60.2" height="26.1"/>
		<rect style="display:block;animation:2.2s linear battery-animation;animation-delay:1.2s;" x="195.1" y="351.4" width="60.2" height="26.1"/>
		<rect style="display:block;animation:2.2s linear battery-animation;animation-delay:1.4s;" x="195.1" y="312.2" width="60.2" height="26.1"/>
		<rect style="display:block;animation:2.2s linear battery-animation;animation-delay:1.6s;" x="195.1" y="273" width="60.2" height="26.1"/>
		<rect style="display:block;animation:2.2s linear battery-animation;animation-delay:1.8s;" x="195.1" y="233.8" width="60.2" height="26.1"/>
		<rect style="display:block;animation:2.2s linear battery-animation;animation-delay:2s;" x="195.1" y="194.7" width="60.2" height="26.1"/>
		<path style="display:block;animation:2.2s linear battery-animation;animation-delay:2.2s;" d="M215.4,158.7h19.6c4.6,0,8.3,3.7,8.3,8.3v15.7h-36.2V167C207.1,162.4,210.9,158.7,215.4,158.7z"/>
	</g>
</g>
</svg>
