<svg xmlns="http://www.w3.org/2000/svg" viewBox="0 0 768 133.5">
<style type="text/css">
	.st0{fill:#666666;}
	.st1{fill:#FF6600;}
</style>
<g>
	<polygon class="st0" points="44.4,29.7 48.6,29.7 48.6,103.8 29.8,103.8 29.8,29.7 34,29.7 34,31.8 31.9,31.8 31.9,101.7 
		46.5,101.7 46.5,31.8 44.4,31.8"/>
	<g>
		<rect x="34" y="95.1" class="st1" width="10.5" height="4.5"/>
		<rect x="34" y="88.3" class="st1" width="10.5" height="4.5"/>
		<rect x="34" y="81.5" class="st1" width="10.5" height="4.5"/>
		<rect x="34" y="74.7" class="st1" width="10.5" height="4.5"/>
		<rect x="34" y="67.9" class="st1" width="10.5" height="4.5"/>
		<rect x="34" y="61.1" class="st1" width="10.5" height="4.5"/>
		<rect x="34" y="54.3" class="st1" width="10.5" height="4.5"/>
		<rect x="34" y="47.5" class="st1" width="10.5" height="4.5"/>
		<rect x="34" y="40.7" class="st1" width="10.5" height="4.5"/>
		<rect x="34" y="33.9" class="st1" width="10.5" height="4.5"/>
		<path class="st1" d="M37.5,27.6h3.4c0.8,0,1.4,0.6,1.4,1.4v2.7h-6.3v-2.7C36.1,28.3,36.7,27.6,37.5,27.6z"/>
	</g>
	<polygon class="st0" points="50.7,65.5 50.7,67.3 81.4,103.7 101.2,103.7 69.6,66.4 99.6,29.8 79.7,29.8"/>
	<path class="st0" d="M158.1,83.3c-3.6,4.4-8.8,6.5-15.4,6.5c-6.7,0-11.8-2.2-15.4-6.5c-3.6-4.4-5.5-9.9-5.5-16.6
		c0-6.7,1.8-12.2,5.5-16.6c3.6-4.4,8.7-6.5,15.4-6.5c6.6,0,11.8,2.1,15.4,6.5c3.6,4.4,5.4,9.9,5.4,16.6
		C163.6,73.4,161.8,79,158.1,83.3L158.1,83.3L158.1,83.3z M170.6,39c-6.9-6.8-16.2-10.2-28-10.2c-11.8,0-21.1,3.4-27.9,10.2
		c-6.9,6.8-10.4,16-10.4,27.7c0,11.6,3.4,20.8,10.4,27.6c6.8,6.9,16.2,10.3,27.9,10.3c11.8,0,21.1-3.4,28-10.3
		c6.9-6.8,10.4-16,10.4-27.6C181,55.1,177.6,45.9,170.6,39z"/>
	<path class="st0" d="M240.2,54.1c0,7-4.2,10.2-12.9,10.2h-15V43.8h15C236,43.8,240.2,47.2,240.2,54.1L240.2,54.1L240.2,54.1z
		 M227.8,78.2l16.3,25.4h18.8L244.5,75l1.4-0.4c1.8-0.7,4.5-2.8,7.1-5.7c2.6-2.9,4.7-8.7,4.7-15.1c0-16.3-9.2-23.9-30.3-23.9
		l-31.7,0v73.8h16.6V78.2H227.8z"/>
	<polygon class="st0" points="334.4,103.6 334.4,89.7 290.5,89.7 290.5,72.5 327.6,72.5 327.6,59 290.5,59 290.5,43.8 334.4,43.8 
		334.4,29.8 273.9,29.8 273.9,103.6"/>
	<path class="st0" d="M409.6,51.1c0-7.1-2.7-12.6-8.1-16.5c-5.4-3.8-13.1-5.7-23-5.7c-9.7,0-17.4,2-22.9,5.8
		c-5.5,3.9-8.2,9.2-8.2,15.9c0,3.9,0.9,7.3,2.7,10.1c1.7,2.8,4,5,6.8,6.5c2.8,1.5,5.9,2.8,9.3,3.8c6.8,2.1,14,2.9,19.6,4.2
		c5.6,1.2,9.5,3.4,9.5,6.9c0,6-5.3,9-16.1,9c-10.4,0-16.3-2.6-16.3-9.8v-3l-17.4,0V81c0,15.4,12.1,23.7,33.7,23.7
		c10.5,0,18.7-2,24.6-6c5.9-4,8.9-9.5,8.9-16.6c0-4-0.9-7.4-2.6-10.3c-1.7-2.8-4-4.9-6.8-6.4c-2.8-1.4-5.9-2.6-9.3-3.5
		c-6.8-1.8-14-2.6-19.6-3.9c-5.6-1.2-9.5-3.5-9.5-7.4c0-2.7,1.3-4.7,3.9-6.1c2.5-1.4,5.8-2,9.8-2c9,0,13.7,3.2,13.7,8.7V53h17.4
		L409.6,51.1L409.6,51.1z"/>
	<polygon class="st0" points="495.3,103.7 495.3,29.8 478.7,29.8 478.7,57.9 443,57.9 443,29.8 426.4,29.8 426.4,103.7 443,103.7 
		443,72.4 478.7,72.4 478.7,103.7"/>
	<polygon class="st0" points="557.9,29.8 528.9,65.5 528.9,29.8 512.3,29.8 512.3,103.7 528.9,103.7 528.9,67.3 559.6,103.7 
		579.4,103.7 547.8,66.4 577.8,29.8"/>
	<path class="st0" d="M636.3,83.3c-3.6,4.4-8.8,6.5-15.4,6.5c-6.7,0-11.8-2.2-15.4-6.5c-3.6-4.4-5.5-9.9-5.5-16.6
		c0-6.7,1.8-12.2,5.5-16.6c3.6-4.4,8.7-6.5,15.4-6.5c6.6,0,11.8,2.1,15.4,6.5c3.6,4.4,5.4,9.9,5.4,16.6
		C641.8,73.4,640,79,636.3,83.3L636.3,83.3L636.3,83.3z M648.8,39c-6.9-6.8-16.2-10.2-28-10.2c-11.8,0-21.1,3.4-27.9,10.2
		c-6.9,6.8-10.4,16-10.4,27.7c0,11.6,3.4,20.8,10.4,27.6c6.8,6.9,16.2,10.3,27.9,10.3c11.8,0,21.1-3.4,28-10.3
		c6.9-6.8,10.4-16,10.4-27.6C659.2,55.1,655.7,45.9,648.8,39z"/>
	<polygon class="st0" points="720.7,29.8 701.8,87 700.3,87 681.4,29.8 663.9,29.8 689.5,103.7 712.5,103.7 738.2,29.8"/>
	<path class="st0" d="M748.5,2.7h-3.6V16h-3.1V2.7h-3.6V0h10.3V2.7L748.5,2.7z M749.1,16l3-16h2.3l4.2,10.2L763.1,0h2.3l2.7,16h-3.2
		l-1.4-9.9l-4.3,9.9H758l-4.1-9.9l-1.6,9.9H749.1z"/>
</g>
</svg>
