<svg xmlns="http://www.w3.org/2000/svg" viewBox="0 0 3072 337.5"><style>@keyframes text-animated{0%,90%,to{transform:translateY(0)}95%{transform:translateY(-64px)}}.st0{fill:#666}</style><g style="display:block;animation:6s linear infinite both text-animated;transform-origin:50% 50%;animation-delay:5s"><path class="st0" d="M17.2 222.4c-8.1 0-10.7 2.7-10.7 7.4-2-1.2-4.1-4.3-4.1-6.9 0-3.6 4.2-7.5 10.9-7.5h2c-2.2-2.2-3-5.2-3-8.6 0-4.2 4.1-7.9 10.3-7.9 3.7 0 6.1 2.9 6.1 5.9 0 2.2-1.1 4.7-2.6 5.5.7-2.1-.8-4.4-3-4.4-2.3 0-3.5 1.5-3.5 3.2 0 2.9 2.6 5.1 6.1 5.1 4.5 0 7.8-4 7.8-9.8 0-6.6-5.9-12-11.7-12-11.5 0-15.8 10.6-13.4 19.5-4.2-2.6-6.2-6.3-6.2-11.8 0-5.9 3.1-12 10.4-12-3.3-.9-2.5-8.3-10.4-10.4 2.3-2.2 6-2.4 8.4-.1.4-1.7 2.9-3.3 6.6-3.3 5 0 9 2.7 9 5.5 0 1.9-1 3-2.2 3.9-.7-1.1-2.1-1.7-3.3-1.7-1.8 0-3.4 1.2-3.4 2.6 0 3.6 5.1 4.8 10.5 4.8 0-3.2 3.1-7.7 8.2-7.7-6.8 6.7-1.8 15.9 2.4 22.6 4.2-6.8 9.2-15.9 2.4-22.6 5.1 0 8.2 4.5 8.2 7.7 5.4 0 10.5-1.3 10.5-4.8 0-1.4-1.5-2.6-3.4-2.6-1.2 0-2.6.6-3.3 1.7-1.2-.9-2.2-2-2.2-3.9 0-2.8 4-5.5 9-5.5 3.7 0 6.2 1.6 6.6 3.3 2.4-2.3 6.1-2.2 8.4.1-7.9 2.1-7.1 9.6-10.4 10.4 7.3 0 10.4 6.1 10.4 12 0 5.5-2 9.3-6.2 11.8 2.4-8.9-2-19.5-13.5-19.5-5.8 0-11.7 5.4-11.7 12 0 5.8 3.3 9.8 7.8 9.8 3.5 0 6.1-2.2 6.1-5.1 0-1.6-1.2-3.2-3.5-3.2-2.2 0-3.7 2.3-3 4.4-1.5-.9-2.6-3.3-2.6-5.5 0-3.1 2.5-5.9 6.1-5.9 6.2 0 10.3 3.7 10.3 7.9 0 3.5-.9 6.5-3 8.6h2c6.7 0 10.9 3.8 10.9 7.5 0 2.6-2.1 5.8-4.1 6.9 0-4.7-2.6-7.4-10.7-7.4-8 0-13.8-3.6-18.4-10.4-.3 3.4 1.1 6 4 7.9-1.5 1.1-3.4 1.1-5.1-.1 1.6 3 1 5.6-1.7 8.3-2.7-2.7-3.3-5.3-1.7-8.3-1.7 1.2-3.6 1.1-5.1.1 2.9-1.9 4.3-4.5 4-7.9-4.5 6.8-10.3 10.4-18.3 10.4zm0-96.2c-8.1 0-10.7-2.7-10.7-7.4-2 1.2-4.1 4.3-4.1 6.9 0 3.6 4.2 7.5 10.9 7.5h2c-2.2 2.2-3 5.2-3 8.6 0 4.2 4.1 7.9 10.3 7.9 3.7 0 6.1-2.9 6.1-5.9 0-2.2-1.1-4.7-2.6-5.5.7 2.1-.8 4.4-3 4.4-2.3 0-3.5-1.5-3.5-3.2 0-2.9 2.6-5.1 6.1-5.1 4.5 0 7.8 4 7.8 9.8 0 6.6-5.9 12-11.7 12-11.5 0-15.9-10.6-13.5-19.5-4.2 2.6-6.2 6.3-6.2 11.8 0 5.9 3.1 12 10.4 12-3.3.9-2.5 8.3-10.4 10.4 2.3 2.2 6 2.4 8.4.1.4 1.7 2.9 3.3 6.6 3.3 5 0 9-2.7 9-5.5 0-1.9-1-3-2.2-3.9-.7 1.1-2.1 1.7-3.3 1.7-1.8 0-3.4-1.2-3.4-2.6 0-3.6 5.1-4.8 10.5-4.8 0 3.2 3.1 7.7 8.2 7.7-6.8-6.7-1.8-15.9 2.4-22.6 4.2 6.8 9.2 15.9 2.4 22.6 5.1 0 8.2-4.5 8.2-7.7 5.4 0 10.5 1.3 10.5 4.8 0 1.4-1.5 2.6-3.4 2.6-1.2 0-2.6-.6-3.3-1.7-1.2.9-2.2 2-2.2 3.9 0 2.8 4 5.5 9 5.5 3.7 0 6.2-1.6 6.6-3.3 2.4 2.3 6.1 2.2 8.4-.1-7.9-2.1-7.1-9.6-10.4-10.4 7.3 0 10.4-6.1 10.4-12 0-5.5-2-9.3-6.2-11.8 2.4 8.9-2 19.5-13.5 19.5-5.8 0-11.7-5.4-11.7-12 0-5.8 3.3-9.8 7.8-9.8 3.5 0 6.1 2.2 6.1 5.1 0 1.6-1.2 3.2-3.5 3.2-2.2 0-3.7-2.3-3-4.4-1.5.9-2.6 3.3-2.6 5.5 0 3.1 2.5 5.9 6.1 5.9 6.2 0 10.3-3.7 10.3-7.9 0-3.5-.9-6.5-3-8.6h2c6.7 0 10.9-3.8 10.9-7.5 0-2.6-2.1-5.8-4.1-6.9 0 4.7-2.6 7.4-10.7 7.4-8 0-13.8 3.6-18.4 10.4-.3-3.4 1.1-6 4-7.9-1.5-1.1-3.4-1.1-5.1.1 1.6-3 1-5.6-1.7-8.3-2.7 2.7-3.3 5.3-1.7 8.3-1.7-1.2-3.6-1.1-5.1-.1 2.9 1.9 4.3 4.5 4 7.9-4.4-6.7-10.2-10.4-18.2-10.4zm0-110.9c-8.1 0-10.7-2.7-10.7-7.4-2 1.2-4.1 4.3-4.1 6.9 0 3.6 4.2 7.5 10.9 7.5h2c-2.2 2.2-3 5.2-3 8.6 0 4.2 4.1 7.9 10.3 7.9 3.7 0 6.1-2.9 6.1-5.9 0-2.2-1.1-4.7-2.6-5.5.7 2.1-.8 4.4-3 4.4-2.3 0-3.5-1.5-3.5-3.2 0-2.9 2.6-5.1 6.1-5.1 4.5 0 7.8 4 7.8 9.8 0 6.6-5.9 12-11.7 12C10.3 45.3 6 34.7 8.4 25.8c-4.2 2.6-6.2 6.3-6.2 11.8 0 5.9 3.1 12 10.4 12-3.3.9-2.5 8.4-10.4 10.5 2.3 2.2 6 2.4 8.4.1.4 1.7 2.9 3.3 6.6 3.3 5 0 9-2.7 9-5.5 0-1.9-1-3-2.2-3.9-.7 1.1-2.1 1.7-3.3 1.7-1.8 0-3.4-1.2-3.4-2.6 0-3.6 5.1-4.8 10.5-4.8 0 3.2 3.1 7.7 8.2 7.7-6.8-6.7-1.8-15.9 2.4-22.6 4.2 6.8 9.2 15.9 2.4 22.6 5.1 0 8.2-4.5 8.2-7.7 5.4 0 10.5 1.3 10.5 4.8 0 1.4-1.5 2.6-3.4 2.6-1.2 0-2.6-.6-3.3-1.7-1.2.9-2.2 2-2.2 3.9 0 2.8 4 5.5 9 5.5 3.7 0 6.2-1.6 6.6-3.3 2.4 2.3 6.1 2.2 8.4-.1-7.9-2.1-7.1-9.6-10.4-10.4 7.3 0 10.4-6.1 10.4-12 0-5.5-2-9.3-6.2-11.8 2.4 8.9-2 19.5-13.5 19.5-5.8 0-11.7-5.4-11.7-12 0-5.8 3.3-9.8 7.8-9.8 3.5 0 6.1 2.2 6.1 5.1 0 1.6-1.2 3.2-3.5 3.2-2.2 0-3.7-2.3-3-4.4-1.6.7-2.6 3.2-2.6 5.4 0 3.1 2.5 5.9 6.1 5.9 6.2 0 10.3-3.7 10.3-7.9 0-3.5-.9-6.5-3-8.6h2c6.7 0 10.9-3.8 10.9-7.5 0-2.6-2.1-5.8-4.1-6.9 0 4.7-2.6 7.4-10.7 7.4-8 0-13.8 3.6-18.4 10.4-.3-3.4 1.1-6 4-7.9-1.5-1.1-3.4-1.1-5.1.1 1.6-3 1-5.6-1.7-8.3-2.7 2.7-3.3 5.3-1.7 8.3-1.7-1.2-3.6-1.1-5.1-.1 2.9 1.9 4.3 4.5 4 7.9-4.5-6.8-10.3-10.4-18.3-10.4zm0 221.9c-8.1 0-10.7-2.7-10.7-7.4-2 1.2-4.1 4.3-4.1 6.9 0 3.6 4.2 7.5 10.9 7.5h2c-2.2 2.2-3 5.2-3 8.6 0 4.2 4.1 7.9 10.3 7.9 3.7 0 6.1-2.9 6.1-5.9 0-2.2-1.1-4.7-2.6-5.5.7 2.1-.8 4.4-3 4.4-2.3 0-3.5-1.5-3.5-3.2 0-2.9 2.6-5.1 6.1-5.1 4.5 0 7.8 4 7.8 9.8 0 6.6-5.9 12-11.7 12-11.5 0-15.9-10.6-13.5-19.5-4.2 2.6-6.2 6.3-6.2 11.8 0 5.9 3.1 12 10.4 12-3.3.9-2.5 8.3-10.4 10.4 2.3 2.2 6 2.4 8.4.1.4 1.7 2.9 3.3 6.6 3.3 5 0 9-2.7 9-5.5 0-1.9-1-3-2.2-3.9-.7 1.1-2.1 1.7-3.3 1.7-1.8 0-3.4-1.2-3.4-2.6 0-3.6 5.1-4.8 10.5-4.8 0 3.2 3.1 7.7 8.2 7.7-6.8-6.7-1.8-15.9 2.4-22.6 4.2 6.8 9.2 15.9 2.4 22.6 5.1 0 8.2-4.5 8.2-7.7 5.4 0 10.5 1.3 10.5 4.8 0 1.4-1.5 2.6-3.4 2.6-1.2 0-2.6-.6-3.3-1.7-1.2.9-2.2 2-2.2 3.9 0 2.8 4 5.5 9 5.5 3.7 0 6.2-1.6 6.6-3.3 2.4 2.3 6.1 2.2 8.4-.1-7.9-2.1-7.1-9.6-10.4-10.4 7.3 0 10.4-6.1 10.4-12 0-5.5-2-9.3-6.2-11.8 2.4 8.9-2 19.5-13.5 19.5-5.8 0-11.7-5.4-11.7-12 0-5.8 3.3-9.8 7.8-9.8 3.5 0 6.1 2.2 6.1 5.1 0 1.6-1.2 3.2-3.5 3.2-2.2 0-3.7-2.3-3-4.4-1.5.9-2.6 3.3-2.6 5.5 0 3.1 2.5 5.9 6.1 5.9 6.2 0 10.3-3.7 10.3-7.9 0-3.5-.9-6.5-3-8.6h2c6.7 0 10.9-3.8 10.9-7.5 0-2.6-2.1-5.8-4.1-6.9 0 4.7-2.6 7.4-10.7 7.4-8 0-13.8 3.6-18.4 10.4-.3-3.4 1.1-6 4-7.9-1.5-1.1-3.4-1.1-5.1.1 1.6-3 1-5.6-1.7-8.3-2.7 2.7-3.3 5.3-1.7 8.3-1.7-1.2-3.6-1.1-5.1-.1 2.9 1.9 4.3 4.5 4 7.9-4.4-6.8-10.2-10.4-18.2-10.4zm33.4 84.1zm-27 8.3c-6.9 0-11.2-4.2-11.2-10.7 0-6.1 4.3-9.5 9.8-9.5 3.7 0 6.5 3.3 6.5 6.4 0 2.2-1.1 4.7-2.6 5.5.7-2.1-.8-4.4-3-4.4-2.3 0-3.5 1.5-3.5 3.2 0 2.9 2.6 5.1 6.1 5.1 4.5 0 7.8-4 7.8-9.8 0-6.6-5.9-12-11.7-12-11.5 0-14.8 7.9-19.7 26.3v-18.6c0-5.9 3.1-12 10.4-12-3.3-.9-2.5-8.3-10.4-10.4 2.3-2.2 6-2.4 8.4-.1.4-1.7 2.9-3.3 6.6-3.3 5 0 9 2.7 9 5.5 0 1.9-1 3-2.2 3.9-.7-1.1-2.1-1.7-3.3-1.7-1.8 0-3.4 1.2-3.4 2.6 0 3.6 5.1 4.8 10.5 4.8 0-3.2 3.1-7.7 8.2-7.7-6.9 6.8-1.8 15.9 2.4 22.6 4.1-6.6 9.3-15.9 2.4-22.6 5.1 0 8.2 4.5 8.2 7.7 5.4 0 10.5-1.3 10.5-4.8 0-1.4-1.5-2.6-3.4-2.6-1.2 0-2.6.6-3.3 1.7-1.2-.9-2.2-2-2.2-3.9 0-2.8 4-5.5 9-5.5 3.7 0 6.2 1.6 6.6 3.3 2.4-2.3 6.1-2.2 8.4.1-7.9 2.1-7.1 9.6-10.4 10.4 7.3 0 10.4 6.1 10.4 12v18.6c-3.1-11.7-6.5-26.3-19.7-26.3-5.8 0-11.7 5.4-11.7 12 0 5.8 3.3 9.8 7.8 9.8 3 0 6.1-1.8 6.1-5.1 0-2-1.6-3.1-3.5-3.2-1.7 0-3.1 1.4-3.2 3.1 0 .4 0 .9.2 1.3-1.7-1-2.5-3.4-2.6-5.3-.1-3.5 3.1-6.6 6.5-6.6 5.6 0 9.8 3.4 9.8 9.5 0 6.5-4.4 10.7-11.2 10.7-4.2 0-9.2-2.5-12-6.6-.2 3-2.7 4-2.7 6.6 0-2.5-2.5-3.6-2.7-6.6-2.5 3.8-7.2 6.6-12 6.6zm-6.4-218.1c-8.1 0-10.7 2.7-10.7 7.4-2-1.2-4.1-4.3-4.1-6.9 0-3.6 4.2-7.5 10.9-7.5h2c-2.2-2.2-3-5.2-3-8.6 0-4.2 4.1-7.9 10.3-7.9 3.7 0 6.1 2.9 6.1 5.9 0 2.2-1.1 4.7-2.6 5.5.7-2.1-.8-4.4-3-4.4-2.3 0-3.5 1.5-3.5 3.2 0 2.9 2.6 5.1 6.1 5.1 4.5 0 7.8-4 7.8-9.8 0-6.6-5.9-12-11.7-12C10.3 81.4 6 92 8.4 100.9c-4.2-2.6-6.2-6.3-6.2-11.8 0-5.9 3.1-12 10.4-12-3.3-.9-2.5-8.3-10.4-10.4 2.3-2.2 6-2.4 8.4-.1.4-1.7 2.9-3.3 6.6-3.3 5 0 9 2.7 9 5.5 0 1.9-1 3-2.2 3.9-.7-1.1-2.1-1.7-3.3-1.7-1.8 0-3.4 1.2-3.4 2.6 0 3.6 5.1 4.8 10.5 4.8 0-3.2 3.1-7.7 8.2-7.7-6.8 6.7-1.8 15.9 2.4 22.6 4.2-6.8 9.2-15.9 2.4-22.6 5.1 0 8.2 4.5 8.2 7.7 5.4 0 10.5-1.3 10.5-4.8 0-1.4-1.5-2.6-3.4-2.6-1.2 0-2.6.6-3.3 1.7-1.2-.9-2.2-2-2.2-3.9 0-2.8 4-5.5 9-5.5 3.7 0 6.2 1.6 6.6 3.3 2.4-2.3 6.1-2.2 8.4.1-7.9 2.1-7.1 9.6-10.4 10.4 7.3 0 10.4 6.1 10.4 12 0 5.5-2 9.3-6.2 11.8 2.4-8.9-2-19.5-13.5-19.5-5.8 0-11.7 5.4-11.7 12 0 5.8 3.3 9.8 7.8 9.8 3.5 0 6.1-2.2 6.1-5.1 0-1.6-1.2-3.2-3.5-3.2-2.2 0-3.7 2.3-3 4.4-1.6-.8-2.6-3.2-2.6-5.4 0-3.1 2.5-5.9 6.1-5.9 6.2 0 10.3 3.7 10.3 7.9 0 3.5-.9 6.5-3 8.6h2c6.7 0 10.9 3.8 10.9 7.5 0 2.6-2.1 5.8-4.1 6.9 0-4.7-2.6-7.4-10.7-7.4-8 0-13.8-3.6-18.4-10.4-.3 3.4 1.1 6 4 7.9-1.5 1.1-3.4 1.1-5.1-.1 1.6 3 1 5.6-1.7 8.3-2.7-2.7-3.3-5.3-1.7-8.3-1.7 1.2-3.6 1.1-5.1.1 2.9-1.9 4.3-4.5 4-7.9-4.5 6.8-10.3 10.4-18.3 10.4zM74.6 163.4v7.6l133.8 158.6h86.4L157 167.4 287.6 7.9h-86.4z"/></g><path class="st0" d="M542.7 241.1c-15.9 19-38.4 28.4-67.2 28.4-29 0-51.2-9.4-67.1-28.4-15.9-19-24-43.1-24-72.4 0-29.3 8-53.2 24-72.2 15.9-19 38.1-28.3 67.1-28.3 28.8 0 51.2 9.3 67.2 28.3 15.9 19 23.7 43 23.7 72.2 0 29.2-7.8 53.4-23.7 72.4zm54.5-193c-30-29.6-70.6-44.3-121.8-44.3s-91.8 14.8-121.6 44.3c-30.1 29.8-45.1 69.8-45.1 120.6 0 50.7 15 90.8 45.1 120.3 29.8 29.9 70.4 44.7 121.6 44.7 51.2 0 91.8-14.8 121.8-44.7 30.1-29.6 45.1-69.6 45.1-120.3 0-50.8-15-90.8-45.1-120.6z" style="display:block;animation:6s linear infinite both text-animated;transform-origin:50% 50%;animation-delay:5.1s"/><path class="st0" d="M900.4 113.5c0 30.6-18.2 44.3-56.1 44.3H779V69h65.3c37.5-.2 56.1 14.6 56.1 44.5zm-54.3 105.3L917 329.6h81.7l-79.9-124.9 6.1-1.8c7.9-2.9 19.5-12.1 30.9-24.9 11.5-12.8 20.5-37.7 20.5-65.8C976.3 41.3 936.2 8 844.4 8H706.5v321.7H779V218.8h67.1z" style="display:block;animation:6s linear infinite both text-animated;transform-origin:50% 50%;animation-delay:5.2s"/><path class="st0" style="display:block;animation:6s linear infinite both text-animated;transform-origin:50% 50%;animation-delay:5.4s" d="M1310.6 329.5v-60.9h-191.2V194h161.4v-58.8h-161.4V69h191.2V7.9h-263.7v321.6z"/><path class="st0" d="M1638.3 100.6c0-31.1-11.9-55.1-35.5-71.9-23.5-16.5-56.9-24.9-100.2-24.9-42.4 0-75.6 8.6-99.6 25.4-24.1 17.1-35.9 40.1-35.9 69.2 0 16.9 3.8 31.7 11.7 44 7.6 12.3 17.5 21.9 29.8 28.3 12.3 6.5 25.7 12.1 40.6 16.5 29.6 9 60.8 12.8 85.3 18.2 24.5 5.4 41.3 14.9 41.3 30.2 0 26.1-23.3 39.3-70.2 39.3-45.5 0-70.9-11.3-70.9-42.9v-12.9h-75.8v11.6c0 67.2 52.5 103.1 146.7 103.1 45.6 0 81.5-8.8 107.2-26 25.8-17.3 38.8-41.4 38.8-72.5 0-17.5-3.8-32.4-11.5-44.7-7.6-12.3-17.5-21.4-29.8-27.7-12.3-6.3-25.7-11.4-40.6-15.4-29.8-8-61-11.4-85.3-17-24.5-5.4-41.5-15.4-41.5-32.4 0-11.6 5.6-20.4 16.8-26.4 11-6 25.4-8.9 42.9-8.9 39.2 0 59.8 14 59.8 38v8.3h75.8v-8.5z" style="display:block;animation:6s linear infinite both text-animated;transform-origin:50% 50%;animation-delay:5.5s"/><path class="st0" style="display:block;animation:6s linear infinite both text-animated;transform-origin:50% 50%;animation-delay:5.6s" d="M2011.8 329.6V7.9h-72.4v122.2h-155.5V7.9h-72.5v321.7h72.5v-136h155.5v136z"/><path class="st0" style="display:block;animation:6s linear infinite both text-animated;transform-origin:50% 50%;animation-delay:5.7s" d="M2284.5 7.9 2158 163.4V7.9h-72.5v321.7h72.5V171l133.7 158.6h86.4l-137.8-162.2L2370.9 7.9z"/><path class="st0" d="M2626 241.1c-15.9 19-38.4 28.4-67.2 28.4-29 0-51.2-9.4-67.1-28.4-15.9-19-24-43.1-24-72.4 0-29.3 8-53.2 24-72.2 15.9-19 38.1-28.3 67.1-28.3 28.8 0 51.2 9.3 67.2 28.3 15.9 19 23.7 43 23.7 72.2.1 29.2-7.7 53.4-23.7 72.4zm54.5-193c-30-29.6-70.6-44.3-121.8-44.3s-91.8 14.8-121.6 44.3c-30.1 29.8-45.1 69.8-45.1 120.6 0 50.7 15 90.8 45.1 120.3 29.8 29.9 70.4 44.7 121.6 44.7 51.2 0 91.8-14.8 121.8-44.7 30.1-29.6 45.1-69.6 45.1-120.3 0-50.8-15-90.8-45.1-120.6z" style="display:block;animation:6s linear infinite both text-animated;transform-origin:50% 50%;animation-delay:5.8s"/><path class="st0" style="display:block;animation:6s linear infinite both text-animated;transform-origin:50% 50%;animation-delay:5.9s" d="M2993.6 7.9 2911.2 257h-6.5L2822.6 7.9h-76.3l111.5 321.7h100.3L3069.8 7.9z"/></svg>