<svg xmlns="http://www.w3.org/2000/svg"
	 viewBox="0 0 768 768"
	 width="128"
	 height="128"
>
<style type="text/css">
	@keyframes text-animated{
		0%{scale:0;}
		50%{scale:0;}
		100%{scale:1;}
	}
	@keyframes dash {
		to {
			stroke-dashoffset: 0;
		}
		0%{fill:none;}
		95%{fill:none;}
		100%{fill:#666666;}
	}
	.st0{
		fill:#14C5E0;
		display:block;
		animation:2s linear 1 both text-animated;
		transform-origin:25% 50%;
	}
	.st1{
		stroke-dasharray: 6000;
		stroke-dashoffset: 3000;
		animation: dash 2s linear forwards;
	}
</style>
<g>
	<path class="st0" d="M193.3,369.8c-12.1,0-16,5.2-16,14.2c-3-2.2-6.1-8.3-6.1-13.3c0-6.9,6.3-14.3,16.3-14.3c1,0,2,0,3.1,0
		c-3.2-4.1-4.5-10-4.5-16.6c0-8,6.2-15.2,15.5-15.2c5.5,0,9.2,5.5,9.2,11.4c0,4.2-1.6,8.9-3.9,10.6c1.1-4-1.3-8.5-4.5-8.5
		c-3.5,0-5.3,2.9-5.3,6.1c0,5.6,3.9,9.8,9.1,9.8c6.7,0,11.7-7.7,11.7-18.9c0-12.7-8.8-23.1-17.5-23.1c-17.3,0-23.9,20.4-20.2,37.5
		c-6.3-4.9-9.3-12.1-9.3-22.7c0-11.3,4.6-23,15.6-23c-5-1.7-3.7-16.1-15.6-20.1c3.4-4.3,9.1-4.6,12.6-0.1c0.6-3.2,4.4-6.3,9.9-6.3
		c7.4,0,13.5,5.2,13.5,10.5c0,3.6-1.5,5.7-3.2,7.4c-1.1-2.1-3.2-3.2-5-3.2c-2.8,0-5.1,2.3-5.1,5.1c0,6.9,7.6,9.3,15.7,9.3
		c0-6.2,4.7-14.8,12.3-14.8c-10.2,12.9-2.7,30.5,3.6,43.5c6.4-13,13.9-30.6,3.6-43.5c7.7,0,12.3,8.6,12.3,14.8
		c8.1,0,15.7-2.4,15.7-9.3c0-2.8-2.3-5.1-5.1-5.1c-1.8,0-3.9,1.1-5,3.2c-1.7-1.7-3.2-3.8-3.2-7.4c0-5.3,6-10.5,13.5-10.5
		c5.5,0,9.3,3,9.9,6.3c3.5-4.5,9.2-4.2,12.6,0.1c-11.9,4-10.7,18.4-15.6,20.1c11,0,15.6,11.7,15.6,23c0,10.6-3.1,17.8-9.3,22.7
		c3.6-17.1-2.9-37.5-20.2-37.5c-8.7,0-17.5,10.5-17.5,23.1c0,11.2,4.9,18.9,11.7,18.9c5.2,0,9.1-4.3,9.1-9.8c0-3.2-1.8-6.1-5.3-6.1
		c-3.3,0-5.6,4.5-4.5,8.5c-2.3-1.7-3.9-6.4-3.9-10.6c0-5.9,3.7-11.4,9.2-11.4c9.3,0,15.5,7.2,15.5,15.2c0,6.7-1.3,12.5-4.5,16.6
		c1,0,2,0,3.1,0c10.1,0,16.3,7.4,16.3,14.3c0,5.1-3.1,11.1-6.1,13.3c0-9-3.9-14.2-16-14.2c-12,0-20.7-7-27.6-20
		c-0.4,6.6,1.6,11.6,6,15.2c-2.2,2-5.1,2.2-7.6-0.1c2.4,5.7,1.5,10.7-2.5,16c-4-5.2-4.9-10.3-2.5-16c-2.5,2.3-5.4,2.2-7.6,0.1
		c4.4-3.6,6.4-8.6,6-15.2C214,362.9,205.3,369.8,193.3,369.8L193.3,369.8z M193.3,184.8c-12.1,0-16-5.2-16-14.2
		c-3,2.2-6.1,8.3-6.1,13.3c0,6.9,6.3,14.3,16.3,14.3c1,0,2,0,3.1,0c-3.2,4.1-4.5,10-4.5,16.6c0,8,6.2,15.2,15.5,15.2
		c5.5,0,9.2-5.5,9.2-11.4c0-4.2-1.6-8.9-3.9-10.6c1.1,4-1.3,8.5-4.5,8.5c-3.5,0-5.3-2.9-5.3-6.1c0-5.6,3.9-9.8,9.1-9.8
		c6.7,0,11.7,7.7,11.7,18.9c0,12.7-8.8,23.1-17.5,23.1c-17.3,0-23.9-20.4-20.2-37.5c-6.3,4.9-9.3,12.1-9.3,22.7
		c0,11.3,4.6,23,15.6,23c-5,1.7-3.7,16.1-15.6,20.1c3.4,4.3,9.1,4.6,12.6,0.1c0.6,3.2,4.4,6.3,9.9,6.3c7.4,0,13.5-5.2,13.5-10.5
		c0-3.6-1.5-5.7-3.2-7.4c-1.1,2.1-3.2,3.2-5,3.2c-2.8,0-5.1-2.3-5.1-5.1c0-6.9,7.6-9.3,15.7-9.3c0,6.2,4.7,14.8,12.3,14.8
		c-10.2-12.9-2.7-30.5,3.6-43.5c6.4,13,13.9,30.6,3.6,43.5c7.7,0,12.3-8.6,12.3-14.8c8.1,0,15.7,2.4,15.7,9.3c0,2.8-2.3,5.1-5.1,5.1
		c-1.8,0-3.9-1.1-5-3.2c-1.7,1.7-3.2,3.8-3.2,7.4c0,5.3,6,10.5,13.5,10.5c5.5,0,9.3-3,9.9-6.3c3.5,4.5,9.2,4.2,12.6-0.1
		c-11.9-4-10.7-18.4-15.6-20.1c11,0,15.6-11.7,15.6-23c0-10.6-3.1-17.8-9.3-22.7c3.6,17.1-2.9,37.5-20.2,37.5
		c-8.7,0-17.5-10.5-17.5-23.1c0-11.2,4.9-18.9,11.7-18.9c5.2,0,9.1,4.3,9.1,9.8c0,3.2-1.8,6.1-5.3,6.1c-3.3,0-5.6-4.5-4.5-8.5
		c-2.3,1.7-3.9,6.4-3.9,10.6c0,5.9,3.7,11.4,9.2,11.4c9.3,0,15.5-7.2,15.5-15.2c0-6.7-1.3-12.5-4.5-16.6c1,0,2,0,3.1,0
		c10.1,0,16.3-7.4,16.3-14.3c0-5.1-3.1-11.1-6.1-13.3c0,9-3.9,14.2-16,14.2c-12,0-20.7,7-27.6,20c-0.4-6.6,1.6-11.6,6-15.2
		c-2.2-2-5.1-2.2-7.6,0.1c2.4-5.7,1.5-10.7-2.5-16c-4,5.2-4.9,10.3-2.5,16c-2.5-2.3-5.4-2.2-7.6-0.1c4.4,3.6,6.4,8.6,6,15.2
		C214,191.8,205.3,184.8,193.3,184.8L193.3,184.8z M193.3,398.2c-12.1,0-16-5.2-16-14.2c-3,2.2-6.1,8.3-6.1,13.3
		c0,6.9,6.3,14.3,16.3,14.3c1,0,2,0,3.1,0c-3.2,4.1-4.5,10-4.5,16.6c0,8,6.2,15.2,15.5,15.2c5.5,0,9.2-5.5,9.2-11.4
		c0-4.2-1.6-8.9-3.9-10.6c1.1,4-1.3,8.5-4.5,8.5c-3.5,0-5.3-2.9-5.3-6.1c0-5.6,3.9-9.8,9.1-9.8c6.7,0,11.7,7.7,11.7,18.9
		c0,12.7-8.8,23.1-17.5,23.1c-17.3,0-23.9-20.4-20.2-37.5c-6.3,4.9-9.3,12.1-9.3,22.7c0,11.3,4.6,23,15.6,23
		c-5,1.7-3.7,16.1-15.6,20.1c3.4,4.3,9.1,4.6,12.6,0.1c0.6,3.2,4.4,6.3,9.9,6.3c7.4,0,13.5-5.2,13.5-10.5c0-3.6-1.5-5.7-3.2-7.4
		c-1.1,2.1-3.2,3.2-5,3.2c-2.8,0-5.1-2.3-5.1-5.1c0-6.9,7.6-9.3,15.7-9.3c0,6.2,4.7,14.8,12.3,14.8c-10.2-12.9-2.7-30.5,3.6-43.5
		c6.4,13,13.9,30.6,3.6,43.5c7.7,0,12.3-8.6,12.3-14.8c8.1,0,15.7,2.4,15.7,9.3c0,2.8-2.3,5.1-5.1,5.1c-1.8,0-3.9-1.1-5-3.2
		c-1.7,1.7-3.2,3.8-3.2,7.4c0,5.3,6,10.5,13.5,10.5c5.5,0,9.3-3,9.9-6.3c3.5,4.5,9.2,4.2,12.6-0.1c-11.9-4-10.7-18.4-15.6-20.1
		c11,0,15.6-11.7,15.6-23c0-10.6-3.1-17.8-9.3-22.7c3.6,17.1-2.9,37.5-20.2,37.5c-8.7,0-17.5-10.5-17.5-23.1
		c0-11.2,4.9-18.9,11.7-18.9c5.2,0,9.1,4.3,9.1,9.8c0,3.2-1.8,6.1-5.3,6.1c-3.3,0-5.6-4.5-4.5-8.5c-2.3,1.7-3.9,6.4-3.9,10.6
		c0,5.9,3.7,11.4,9.2,11.4c9.3,0,15.5-7.2,15.5-15.2c0-6.7-1.3-12.5-4.5-16.6c1,0,2,0,3.1,0c10.1,0,16.3-7.4,16.3-14.3
		c0-5.1-3.1-11.1-6.1-13.3c0,9-3.9,14.2-16,14.2c-12,0-20.7,7-27.6,20c-0.4-6.6,1.6-11.6,6-15.2c-2.2-2-5.1-2.2-7.6,0.1
		c2.4-5.7,1.5-10.7-2.5-16c-4,5.2-4.9,10.3-2.5,16c-2.5-2.3-5.4-2.2-7.6-0.1c4.4,3.6,6.4,8.6,6,15.2
		C214,405.1,205.3,398.2,193.3,398.2L193.3,398.2z M193.3,583.2c-12.1,0-16,5.2-16,14.2c-3-2.2-6.1-8.3-6.1-13.3
		c0-6.9,6.3-14.3,16.3-14.3c1,0,2,0,3.1,0c-3.2-4.1-4.5-10-4.5-16.6c0-8,6.2-15.2,15.5-15.2c5.5,0,9.2,5.5,9.2,11.4
		c0,4.2-1.6,8.9-3.9,10.6c1.1-4-1.3-8.5-4.5-8.5c-3.5,0-5.3,2.9-5.3,6.1c0,5.6,3.9,9.8,9.1,9.8c6.7,0,11.7-7.7,11.7-18.9
		c0-12.7-8.8-23.1-17.5-23.1c-17.3,0-23.9,20.4-20.2,37.5c-6.3-4.9-9.3-12.1-9.3-22.7c0-11.3,4.6-23,15.6-23
		c-5-1.7-3.7-16.1-15.6-20.1c3.4-4.3,9.1-4.6,12.6-0.1c0.6-3.2,4.4-6.3,9.9-6.3c7.4,0,13.5,5.2,13.5,10.5c0,3.6-1.5,5.7-3.2,7.4
		c-1.1-2.1-3.2-3.2-5-3.2c-2.8,0-5.1,2.3-5.1,5.1c0,6.9,7.6,9.3,15.7,9.3c0-6.2,4.7-14.8,12.3-14.8c-10.2,12.9-2.7,30.5,3.6,43.5
		c6.4-13,13.9-30.6,3.6-43.5c7.7,0,12.3,8.6,12.3,14.8c8.1,0,15.7-2.4,15.7-9.3c0-2.8-2.3-5.1-5.1-5.1c-1.8,0-3.9,1.1-5,3.2
		c-1.7-1.7-3.2-3.8-3.2-7.4c0-5.3,6-10.5,13.5-10.5c5.5,0,9.3,3,9.9,6.3c3.5-4.5,9.2-4.2,12.6,0.1c-11.9,4-10.7,18.4-15.6,20.1
		c11,0,15.6,11.7,15.6,23c0,10.6-3.1,17.8-9.3,22.7c3.6-17.1-2.9-37.5-20.2-37.5c-8.7,0-17.5,10.5-17.5,23.1
		c0,11.2,4.9,18.9,11.7,18.9c5.2,0,9.1-4.3,9.1-9.8c0-3.2-1.8-6.1-5.3-6.1c-3.3,0-5.6,4.5-4.5,8.5c-2.3-1.7-3.9-6.4-3.9-10.6
		c0-5.9,3.7-11.4,9.2-11.4c9.3,0,15.5,7.2,15.5,15.2c0,6.7-1.3,12.5-4.5,16.6c1,0,2,0,3.1,0c10.1,0,16.3,7.4,16.3,14.3
		c0,5.1-3.1,11.1-6.1,13.3c0-9-3.9-14.2-16-14.2c-12,0-20.7-7-27.6-20c-0.4,6.6,1.6,11.6,6,15.2c-2.2,2-5.1,2.2-7.6-0.1
		c2.4,5.7,1.5,10.7-2.5,16c-4-5.2-4.9-10.3-2.5-16c-2.5,2.3-5.4,2.2-7.6,0.1c4.4-3.6,6.4-8.6,6-15.2
		C214,576.2,205.3,583.2,193.3,583.2z"/>
	<polygon fill="none" class="st1" stroke="#666666" stroke-width="10" points="513.2,704 665.8,704 665.8,704 704,704 704,64 64,64 64,704 450,704 415.8,650.7 117.3,650.7
		117.3,117.3 650.7,117.3 650.7,650.7 607.8,650.7 436.7,384 573.6,170.7 444.8,170.7 307.9,384 	"/>
</g>
</svg>
