<svg xmlns="http://www.w3.org/2000/svg"
     viewBox="0 0 3072 337.5"
     width="256">
    <style type="text/css">
        @keyframes text-animated{
        0%{transform: translateY(0px);}
        90%{transform: translateY(0px);}
        95%{transform: translateY(-64px);}
        100%{transform: translateY(0px);}
        }
        .st0{fill:#666666;}
    </style>
    <g>
        <g style="display:block;animation:6s linear infinite both text-animated; transform-origin:50% 50%; animation-delay:5s;">
            <path class="st0" d="M17.2,222.4c-8.1,0-10.7,2.7-10.7,7.4c-2-1.2-4.1-4.3-4.1-6.9c0-3.6,4.2-7.5,10.9-7.5c0.7,0,1.4,0,2,0
            c-2.2-2.2-3-5.2-3-8.6c0-4.2,4.1-7.9,10.3-7.9c3.7,0,6.1,2.9,6.1,5.9c0,2.2-1.1,4.7-2.6,5.5c0.7-2.1-0.8-4.4-3-4.4
            c-2.3,0-3.5,1.5-3.5,3.2c0,2.9,2.6,5.1,6.1,5.1c4.5,0,7.8-4,7.8-9.8c0-6.6-5.9-12-11.7-12C10.3,192.4,6,203,8.4,211.9
            c-4.2-2.6-6.2-6.3-6.2-11.8c0-5.9,3.1-12,10.4-12c-3.3-0.9-2.5-8.3-10.4-10.4c2.3-2.2,6-2.4,8.4-0.1c0.4-1.7,2.9-3.3,6.6-3.3
            c5,0,9,2.7,9,5.5c0,1.9-1,3-2.2,3.9c-0.7-1.1-2.1-1.7-3.3-1.7c-1.8,0-3.4,1.2-3.4,2.6c0,3.6,5.1,4.8,10.5,4.8
            c0-3.2,3.1-7.7,8.2-7.7c-6.8,6.7-1.8,15.9,2.4,22.6c4.2-6.8,9.2-15.9,2.4-22.6c5.1,0,8.2,4.5,8.2,7.7c5.4,0,10.5-1.3,10.5-4.8
            c0-1.4-1.5-2.6-3.4-2.6c-1.2,0-2.6,0.6-3.3,1.7c-1.2-0.9-2.2-2-2.2-3.9c0-2.8,4-5.5,9-5.5c3.7,0,6.2,1.6,6.6,3.3
            c2.4-2.3,6.1-2.2,8.4,0.1c-7.9,2.1-7.1,9.6-10.4,10.4c7.3,0,10.4,6.1,10.4,12c0,5.5-2,9.3-6.2,11.8c2.4-8.9-2-19.5-13.5-19.5
            c-5.8,0-11.7,5.4-11.7,12c0,5.8,3.3,9.8,7.8,9.8c3.5,0,6.1-2.2,6.1-5.1c0-1.6-1.2-3.2-3.5-3.2c-2.2,0-3.7,2.3-3,4.4
            c-1.5-0.9-2.6-3.3-2.6-5.5c0-3.1,2.5-5.9,6.1-5.9c6.2,0,10.3,3.7,10.3,7.9c0,3.5-0.9,6.5-3,8.6c0.7,0,1.4,0,2,0
            c6.7,0,10.9,3.8,10.9,7.5c0,2.6-2.1,5.8-4.1,6.9c0-4.7-2.6-7.4-10.7-7.4c-8,0-13.8-3.6-18.4-10.4c-0.3,3.4,1.1,6,4,7.9
            c-1.5,1.1-3.4,1.1-5.1-0.1c1.6,3,1,5.6-1.7,8.3c-2.7-2.7-3.3-5.3-1.7-8.3c-1.7,1.2-3.6,1.1-5.1,0.1c2.9-1.9,4.3-4.5,4-7.9
            C31,218.8,25.2,222.4,17.2,222.4L17.2,222.4z M17.2,126.2c-8.1,0-10.7-2.7-10.7-7.4c-2,1.2-4.1,4.3-4.1,6.9c0,3.6,4.2,7.5,10.9,7.5
            c0.7,0,1.4,0,2,0c-2.2,2.2-3,5.2-3,8.6c0,4.2,4.1,7.9,10.3,7.9c3.7,0,6.1-2.9,6.1-5.9c0-2.2-1.1-4.7-2.6-5.5c0.7,2.1-0.8,4.4-3,4.4
            c-2.3,0-3.5-1.5-3.5-3.2c0-2.9,2.6-5.1,6.1-5.1c4.5,0,7.8,4,7.8,9.8c0,6.6-5.9,12-11.7,12c-11.5,0-15.9-10.6-13.5-19.5
            c-4.2,2.6-6.2,6.3-6.2,11.8c0,5.9,3.1,12,10.4,12c-3.3,0.9-2.5,8.3-10.4,10.4c2.3,2.2,6,2.4,8.4,0.1c0.4,1.7,2.9,3.3,6.6,3.3
            c5,0,9-2.7,9-5.5c0-1.9-1-3-2.2-3.9c-0.7,1.1-2.1,1.7-3.3,1.7c-1.8,0-3.4-1.2-3.4-2.6c0-3.6,5.1-4.8,10.5-4.8
            c0,3.2,3.1,7.7,8.2,7.7c-6.8-6.7-1.8-15.9,2.4-22.6c4.2,6.8,9.2,15.9,2.4,22.6c5.1,0,8.2-4.5,8.2-7.7c5.4,0,10.5,1.3,10.5,4.8
            c0,1.4-1.5,2.6-3.4,2.6c-1.2,0-2.6-0.6-3.3-1.7c-1.2,0.9-2.2,2-2.2,3.9c0,2.8,4,5.5,9,5.5c3.7,0,6.2-1.6,6.6-3.3
            c2.4,2.3,6.1,2.2,8.4-0.1c-7.9-2.1-7.1-9.6-10.4-10.4c7.3,0,10.4-6.1,10.4-12c0-5.5-2-9.3-6.2-11.8c2.4,8.9-2,19.5-13.5,19.5
            c-5.8,0-11.7-5.4-11.7-12c0-5.8,3.3-9.8,7.8-9.8c3.5,0,6.1,2.2,6.1,5.1c0,1.6-1.2,3.2-3.5,3.2c-2.2,0-3.7-2.3-3-4.4
            c-1.5,0.9-2.6,3.3-2.6,5.5c0,3.1,2.5,5.9,6.1,5.9c6.2,0,10.3-3.7,10.3-7.9c0-3.5-0.9-6.5-3-8.6c0.7,0,1.4,0,2,0
            c6.7,0,10.9-3.8,10.9-7.5c0-2.6-2.1-5.8-4.1-6.9c0,4.7-2.6,7.4-10.7,7.4c-8,0-13.8,3.6-18.4,10.4c-0.3-3.4,1.1-6,4-7.9
            c-1.5-1.1-3.4-1.1-5.1,0.1c1.6-3,1-5.6-1.7-8.3c-2.7,2.7-3.3,5.3-1.7,8.3c-1.7-1.2-3.6-1.1-5.1-0.1c2.9,1.9,4.3,4.5,4,7.9
            C31,129.9,25.2,126.2,17.2,126.2L17.2,126.2z M17.2,15.3c-8.1,0-10.7-2.7-10.7-7.4c-2,1.2-4.1,4.3-4.1,6.9c0,3.6,4.2,7.5,10.9,7.5
            c0.7,0,1.4,0,2,0c-2.2,2.2-3,5.2-3,8.6c0,4.2,4.1,7.9,10.3,7.9c3.7,0,6.1-2.9,6.1-5.9c0-2.2-1.1-4.7-2.6-5.5c0.7,2.1-0.8,4.4-3,4.4
            c-2.3,0-3.5-1.5-3.5-3.2c0-2.9,2.6-5.1,6.1-5.1c4.5,0,7.8,4,7.8,9.8c0,6.6-5.9,12-11.7,12C10.3,45.3,6,34.7,8.4,25.8
            c-4.2,2.6-6.2,6.3-6.2,11.8c0,5.9,3.1,12,10.4,12C9.3,50.5,10.1,58,2.2,60.1c2.3,2.2,6,2.4,8.4,0.1c0.4,1.7,2.9,3.3,6.6,3.3
            c5,0,9-2.7,9-5.5c0-1.9-1-3-2.2-3.9c-0.7,1.1-2.1,1.7-3.3,1.7c-1.8,0-3.4-1.2-3.4-2.6c0-3.6,5.1-4.8,10.5-4.8
            c0,3.2,3.1,7.7,8.2,7.7c-6.8-6.7-1.8-15.9,2.4-22.6c4.2,6.8,9.2,15.9,2.4,22.6c5.1,0,8.2-4.5,8.2-7.7c5.4,0,10.5,1.3,10.5,4.8
            c0,1.4-1.5,2.6-3.4,2.6c-1.2,0-2.6-0.6-3.3-1.7c-1.2,0.9-2.2,2-2.2,3.9c0,2.8,4,5.5,9,5.5c3.7,0,6.2-1.6,6.6-3.3
            c2.4,2.3,6.1,2.2,8.4-0.1c-7.9-2.1-7.1-9.6-10.4-10.4c7.3,0,10.4-6.1,10.4-12c0-5.5-2-9.3-6.2-11.8c2.4,8.9-2,19.5-13.5,19.5
            c-5.8,0-11.7-5.4-11.7-12c0-5.8,3.3-9.8,7.8-9.8c3.5,0,6.1,2.2,6.1,5.1c0,1.6-1.2,3.2-3.5,3.2c-2.2,0-3.7-2.3-3-4.4
            C49,28.2,48,30.7,48,32.9c0,3.1,2.5,5.9,6.1,5.9c6.2,0,10.3-3.7,10.3-7.9c0-3.5-0.9-6.5-3-8.6c0.7,0,1.4,0,2,0
            c6.7,0,10.9-3.8,10.9-7.5c0-2.6-2.1-5.8-4.1-6.9c0,4.7-2.6,7.4-10.7,7.4c-8,0-13.8,3.6-18.4,10.4c-0.3-3.4,1.1-6,4-7.9
            c-1.5-1.1-3.4-1.1-5.1,0.1c1.6-3,1-5.6-1.7-8.3c-2.7,2.7-3.3,5.3-1.7,8.3c-1.7-1.2-3.6-1.1-5.1-0.1c2.9,1.9,4.3,4.5,4,7.9
            C31,18.9,25.2,15.3,17.2,15.3L17.2,15.3z M17.2,237.2c-8.1,0-10.7-2.7-10.7-7.4c-2,1.2-4.1,4.3-4.1,6.9c0,3.6,4.2,7.5,10.9,7.5
            c0.7,0,1.4,0,2,0c-2.2,2.2-3,5.2-3,8.6c0,4.2,4.1,7.9,10.3,7.9c3.7,0,6.1-2.9,6.1-5.9c0-2.2-1.1-4.7-2.6-5.5c0.7,2.1-0.8,4.4-3,4.4
            c-2.3,0-3.5-1.5-3.5-3.2c0-2.9,2.6-5.1,6.1-5.1c4.5,0,7.8,4,7.8,9.8c0,6.6-5.9,12-11.7,12c-11.5,0-15.9-10.6-13.5-19.5
            c-4.2,2.6-6.2,6.3-6.2,11.8c0,5.9,3.1,12,10.4,12c-3.3,0.9-2.5,8.3-10.4,10.4c2.3,2.2,6,2.4,8.4,0.1c0.4,1.7,2.9,3.3,6.6,3.3
            c5,0,9-2.7,9-5.5c0-1.9-1-3-2.2-3.9c-0.7,1.1-2.1,1.7-3.3,1.7c-1.8,0-3.4-1.2-3.4-2.6c0-3.6,5.1-4.8,10.5-4.8
            c0,3.2,3.1,7.7,8.2,7.7c-6.8-6.7-1.8-15.9,2.4-22.6c4.2,6.8,9.2,15.9,2.4,22.6c5.1,0,8.2-4.5,8.2-7.7c5.4,0,10.5,1.3,10.5,4.8
            c0,1.4-1.5,2.6-3.4,2.6c-1.2,0-2.6-0.6-3.3-1.7c-1.2,0.9-2.2,2-2.2,3.9c0,2.8,4,5.5,9,5.5c3.7,0,6.2-1.6,6.6-3.3
            c2.4,2.3,6.1,2.2,8.4-0.1c-7.9-2.1-7.1-9.6-10.4-10.4c7.3,0,10.4-6.1,10.4-12c0-5.5-2-9.3-6.2-11.8c2.4,8.9-2,19.5-13.5,19.5
            c-5.8,0-11.7-5.4-11.7-12c0-5.8,3.3-9.8,7.8-9.8c3.5,0,6.1,2.2,6.1,5.1c0,1.6-1.2,3.2-3.5,3.2c-2.2,0-3.7-2.3-3-4.4
            c-1.5,0.9-2.6,3.3-2.6,5.5c0,3.1,2.5,5.9,6.1,5.9c6.2,0,10.3-3.7,10.3-7.9c0-3.5-0.9-6.5-3-8.6c0.7,0,1.4,0,2,0
            c6.7,0,10.9-3.8,10.9-7.5c0-2.6-2.1-5.8-4.1-6.9c0,4.7-2.6,7.4-10.7,7.4c-8,0-13.8,3.6-18.4,10.4c-0.3-3.4,1.1-6,4-7.9
            c-1.5-1.1-3.4-1.1-5.1,0.1c1.6-3,1-5.6-1.7-8.3c-2.7,2.7-3.3,5.3-1.7,8.3c-1.7-1.2-3.6-1.1-5.1-0.1c2.9,1.9,4.3,4.5,4,7.9
            C31,240.8,25.2,237.2,17.2,237.2L17.2,237.2z M50.6,321.3L50.6,321.3L50.6,321.3L50.6,321.3z M23.6,329.6
            c-6.9,0-11.2-4.2-11.2-10.7c0-6.1,4.3-9.5,9.8-9.5c3.7,0,6.5,3.3,6.5,6.4c0,2.2-1.1,4.7-2.6,5.5c0.7-2.1-0.8-4.4-3-4.4
            c-2.3,0-3.5,1.5-3.5,3.2c0,2.9,2.6,5.1,6.1,5.1c4.5,0,7.8-4,7.8-9.8c0-6.6-5.9-12-11.7-12c-11.5,0-14.8,7.9-19.7,26.3
            c0-12.1,0-13,0-18.6c0-5.9,3.1-12,10.4-12c-3.3-0.9-2.5-8.3-10.4-10.4c2.3-2.2,6-2.4,8.4-0.1c0.4-1.7,2.9-3.3,6.6-3.3
            c5,0,9,2.7,9,5.5c0,1.9-1,3-2.2,3.9c-0.7-1.1-2.1-1.7-3.3-1.7c-1.8,0-3.4,1.2-3.4,2.6c0,3.6,5.1,4.8,10.5,4.8
            c0-3.2,3.1-7.7,8.2-7.7c-6.9,6.8-1.8,15.9,2.4,22.6c4.1-6.6,9.3-15.9,2.4-22.6c5.1,0,8.2,4.5,8.2,7.7c5.4,0,10.5-1.3,10.5-4.8
            c0-1.4-1.5-2.6-3.4-2.6c-1.2,0-2.6,0.6-3.3,1.7c-1.2-0.9-2.2-2-2.2-3.9c0-2.8,4-5.5,9-5.5c3.7,0,6.2,1.6,6.6,3.3
            c2.4-2.3,6.1-2.2,8.4,0.1c-7.9,2.1-7.1,9.6-10.4,10.4c7.3,0,10.4,6.1,10.4,12c0,5.5,0,6,0,18.6c-3.1-11.7-6.5-26.3-19.7-26.3
            c-5.8,0-11.7,5.4-11.7,12c0,5.8,3.3,9.8,7.8,9.8c3,0,6.1-1.8,6.1-5.1c0-2-1.6-3.1-3.5-3.2l0,0c-1.7,0-3.1,1.4-3.2,3.1
            c0,0.4,0,0.9,0.2,1.3l0,0c-1.7-1-2.5-3.4-2.6-5.3l0,0c-0.1-3.5,3.1-6.6,6.5-6.6c5.6,0,9.8,3.4,9.8,9.5c0,6.5-4.4,10.7-11.2,10.7
            c-4.2,0-9.2-2.5-12-6.6l0,0l0,0l0,0c-0.2,3-2.7,4-2.7,6.6c0-2.5-2.5-3.6-2.7-6.6C33.1,326.8,28.4,329.6,23.6,329.6L23.6,329.6z
             M17.2,111.5c-8.1,0-10.7,2.7-10.7,7.4c-2-1.2-4.1-4.3-4.1-6.9c0-3.6,4.2-7.5,10.9-7.5c0.7,0,1.4,0,2,0c-2.2-2.2-3-5.2-3-8.6
            c0-4.2,4.1-7.9,10.3-7.9c3.7,0,6.1,2.9,6.1,5.9c0,2.2-1.1,4.7-2.6,5.5c0.7-2.1-0.8-4.4-3-4.4c-2.3,0-3.5,1.5-3.5,3.2
            c0,2.9,2.6,5.1,6.1,5.1c4.5,0,7.8-4,7.8-9.8c0-6.6-5.9-12-11.7-12C10.3,81.4,6,92,8.4,100.9c-4.2-2.6-6.2-6.3-6.2-11.8
            c0-5.9,3.1-12,10.4-12c-3.3-0.9-2.5-8.3-10.4-10.4c2.3-2.2,6-2.4,8.4-0.1c0.4-1.7,2.9-3.3,6.6-3.3c5,0,9,2.7,9,5.5
            c0,1.9-1,3-2.2,3.9c-0.7-1.1-2.1-1.7-3.3-1.7c-1.8,0-3.4,1.2-3.4,2.6c0,3.6,5.1,4.8,10.5,4.8c0-3.2,3.1-7.7,8.2-7.7
            c-6.8,6.7-1.8,15.9,2.4,22.6c4.2-6.8,9.2-15.9,2.4-22.6c5.1,0,8.2,4.5,8.2,7.7c5.4,0,10.5-1.3,10.5-4.8c0-1.4-1.5-2.6-3.4-2.6
            c-1.2,0-2.6,0.6-3.3,1.7c-1.2-0.9-2.2-2-2.2-3.9c0-2.8,4-5.5,9-5.5c3.7,0,6.2,1.6,6.6,3.3c2.4-2.3,6.1-2.2,8.4,0.1
            c-7.9,2.1-7.1,9.6-10.4,10.4c7.3,0,10.4,6.1,10.4,12c0,5.5-2,9.3-6.2,11.8c2.4-8.9-2-19.5-13.5-19.5c-5.8,0-11.7,5.4-11.7,12
            c0,5.8,3.3,9.8,7.8,9.8c3.5,0,6.1-2.2,6.1-5.1c0-1.6-1.2-3.2-3.5-3.2c-2.2,0-3.7,2.3-3,4.4C49,98.5,48,96.1,48,93.9
            c0-3.1,2.5-5.9,6.1-5.9c6.2,0,10.3,3.7,10.3,7.9c0,3.5-0.9,6.5-3,8.6c0.7,0,1.4,0,2,0c6.7,0,10.9,3.8,10.9,7.5
            c0,2.6-2.1,5.8-4.1,6.9c0-4.7-2.6-7.4-10.7-7.4c-8,0-13.8-3.6-18.4-10.4c-0.3,3.4,1.1,6,4,7.9c-1.5,1.1-3.4,1.1-5.1-0.1
            c1.6,3,1,5.6-1.7,8.3c-2.7-2.7-3.3-5.3-1.7-8.3c-1.7,1.2-3.6,1.1-5.1,0.1c2.9-1.9,4.3-4.5,4-7.9C31,107.9,25.2,111.5,17.2,111.5z"
            />
            <polygon class="st0"
                     points="74.6,163.4 74.6,171 208.4,329.6 294.8,329.6 157,167.4 287.6,7.9 201.2,7.9 	"/>
        </g>
        <path class="st0" d="M542.7,241.1c-15.9,19-38.4,28.4-67.2,28.4c-29,0-51.2-9.4-67.1-28.4c-15.9-19-24-43.1-24-72.4
		c0-29.3,8-53.2,24-72.2c15.9-19,38.1-28.3,67.1-28.3c28.8,0,51.2,9.3,67.2,28.3c15.9,19,23.7,43,23.7,72.2
		C566.4,197.9,558.6,222.1,542.7,241.1L542.7,241.1z M597.2,48.1c-30-29.6-70.6-44.3-121.8-44.3c-51.2,0-91.8,14.8-121.6,44.3
		c-30.1,29.8-45.1,69.8-45.1,120.6c0,50.7,15,90.8,45.1,120.3c29.8,29.9,70.4,44.7,121.6,44.7c51.2,0,91.8-14.8,121.8-44.7
		c30.1-29.6,45.1-69.6,45.1-120.3C642.3,117.9,627.3,77.9,597.2,48.1z"
              style="display:block;animation:6s linear infinite both text-animated; transform-origin:50% 50%; animation-delay:5.1s;"/>
        <path class="st0" d="M900.4,113.5c0,30.6-18.2,44.3-56.1,44.3H779V69h65.3C881.8,68.8,900.4,83.6,900.4,113.5L900.4,113.5z
		 M846.1,218.8L917,329.6h81.7l-79.9-124.9l6.1-1.8c7.9-2.9,19.5-12.1,30.9-24.9c11.5-12.8,20.5-37.7,20.5-65.8
		c0-70.9-40.1-104.2-131.9-104.2H706.5v321.7H779V218.8H846.1z"
              style="display:block;animation:6s linear infinite both text-animated; transform-origin:50% 50%; animation-delay:5.2s;"/>
        <polygon class="st0" points="1310.6,329.5 1310.6,268.6 1119.4,268.6 1119.4,194 1280.8,194 1280.8,135.2 1119.4,135.2 1119.4,69
		1310.6,69 1310.6,7.9 1046.9,7.9 1046.9,329.5"
                 style="display:block;animation:6s linear infinite both text-animated; transform-origin:50% 50%; animation-delay:5.4s;"/>
        <path class="st0" d="M1638.3,100.6c0-31.1-11.9-55.1-35.5-71.9c-23.5-16.5-56.9-24.9-100.2-24.9c-42.4,0-75.6,8.6-99.6,25.4
		c-24.1,17.1-35.9,40.1-35.9,69.2c0,16.9,3.8,31.7,11.7,44c7.6,12.3,17.5,21.9,29.8,28.3c12.3,6.5,25.7,12.1,40.6,16.5
		c29.6,9,60.8,12.8,85.3,18.2c24.5,5.4,41.3,14.9,41.3,30.2c0,26.1-23.3,39.3-70.2,39.3c-45.5,0-70.9-11.3-70.9-42.9v-12.9h-75.8
		v11.6c0,67.2,52.5,103.1,146.7,103.1c45.6,0,81.5-8.8,107.2-26c25.8-17.3,38.8-41.4,38.8-72.5c0-17.5-3.8-32.4-11.5-44.7
		c-7.6-12.3-17.5-21.4-29.8-27.7c-12.3-6.3-25.7-11.4-40.6-15.4c-29.8-8-61-11.4-85.3-17c-24.5-5.4-41.5-15.4-41.5-32.4
		c0-11.6,5.6-20.4,16.8-26.4c11-6,25.4-8.9,42.9-8.9c39.2,0,59.8,14,59.8,38v8.3h75.8V100.6z"
              style="display:block;animation:6s linear infinite both text-animated; transform-origin:50% 50%; animation-delay:5.5s;"/>
        <polygon class="st0" points="2011.8,329.6 2011.8,7.9 1939.4,7.9 1939.4,130.1 1783.9,130.1 1783.9,7.9 1711.4,7.9 1711.4,329.6
		1783.9,329.6 1783.9,193.6 1939.4,193.6 1939.4,329.6"
                 style="display:block;animation:6s linear infinite both text-animated; transform-origin:50% 50%; animation-delay:5.6s;"/>
        <polygon class="st0" points="2284.5,7.9 2158,163.4 2158,7.9 2085.5,7.9 2085.5,329.6 2158,329.6 2158,171 2291.7,329.6
		2378.1,329.6 2240.3,167.4 2370.9,7.9"
                 style="display:block;animation:6s linear infinite both text-animated; transform-origin:50% 50%; animation-delay:5.7s;"/>
        <path class="st0" d="M2626,241.1c-15.9,19-38.4,28.4-67.2,28.4c-29,0-51.2-9.4-67.1-28.4c-15.9-19-24-43.1-24-72.4
		c0-29.3,8-53.2,24-72.2c15.9-19,38.1-28.3,67.1-28.3c28.8,0,51.2,9.3,67.2,28.3c15.9,19,23.7,43,23.7,72.2
		C2649.8,197.9,2642,222.1,2626,241.1L2626,241.1z M2680.5,48.1c-30-29.6-70.6-44.3-121.8-44.3c-51.2,0-91.8,14.8-121.6,44.3
		c-30.1,29.8-45.1,69.8-45.1,120.6c0,50.7,15,90.8,45.1,120.3c29.8,29.9,70.4,44.7,121.6,44.7c51.2,0,91.8-14.8,121.8-44.7
		c30.1-29.6,45.1-69.6,45.1-120.3C2725.6,117.9,2710.6,77.9,2680.5,48.1z"
              style="display:block;animation:6s linear infinite both text-animated; transform-origin:50% 50%; animation-delay:5.8s;"/>
        <polygon class="st0"
                 points="2993.6,7.9 2911.2,257 2904.7,257 2822.6,7.9 2746.3,7.9 2857.8,329.6 2958.1,329.6 3069.8,7.9"
                 style="display:block;animation:6s linear infinite both text-animated; transform-origin:50% 50%; animation-delay:5.9s;"/>
    </g>
</svg>
