<svg xmlns="http://www.w3.org/2000/svg"
	 viewBox="0 0 48 48">
	<style type="text/css">
		.st0{fill-rule:evenodd;clip-rule:evenodd;fill:#FFFFFF;}
		.st1{fill-rule:evenodd;clip-rule:evenodd;fill:#666666;}
	</style>
	<g>
		<ellipse transform="matrix(0.1602 -0.9871 0.9871 0.1602 -3.5343 43.8462)" class="st0" cx="24" cy="24" rx="17" ry="17"/>
		<g>
			<path class="st1" d="M31.1,22.4c0,0.6-0.2,0.9-0.4,1.5L30.4,24c-0.3,0.5,0,0.3-0.2,0.8C29.8,25.2,29,26,28.7,26
				c-0.2,0,0.1-0.2,0.2-0.3c-0.6,0.4-0.5,0.6-1.3,0.8l0-0.1c-2.1,1-5.1-1-5.1-3.7c0,0.2-0.1,0.1-0.1,0.2c-0.1-1.4,0.6-2.8,1.9-3.4
				c1.2-0.6,2.7-0.4,3.6,0.5c-0.5-0.6-1.5-1.3-2.6-1.3c-1.1,0-2.2,0.7-2.5,1.5c-0.6,0.4-0.6,1.4-0.9,1.6c-0.3,2.5,0.6,3.6,2.3,4.9
				c0.3,0.2,0.1,0.2,0.1,0.3c-0.6-0.3-1.1-0.6-1.5-1.1c0.2,0.3,0.5,0.6,0.8,0.9c-0.5-0.2-1.2-1.3-1.4-1.3c0.9,1.6,3.6,2.8,5.1,2.2
				c-0.7,0-1.5,0-2.3-0.3c-0.3-0.2-0.7-0.5-0.7-0.6c2,0.7,4,0.6,5.7-0.8c0.4-0.3,0.9-0.9,1-0.9c-0.2,0.3,0,0.1-0.1,0.4
				c0.4-0.7-0.2-0.3,0.4-1.2l0.2,0.3c-0.1-0.6,0.7-1.3,0.6-2.2c0.2-0.3,0.2,0.3,0,0.9c0.3-0.7,0.1-0.8,0.1-1.4
				c0.1,0.2,0.2,0.4,0.2,0.6c-0.2-0.7,0.2-1.2,0.3-1.6c-0.1,0-0.3,0.3-0.3-0.5c0-0.4,0.1-0.2,0.1-0.3c-0.1,0-0.3-0.3-0.4-0.8
				c0.1-0.1,0.2,0.3,0.3,0.3c-0.1-0.4-0.2-0.7-0.2-1c-0.3-0.7-0.1,0.1-0.4-0.3c-0.3-1.1,0.3-0.2,0.3-0.7c0.5,0.7,0.8,1.9,0.9,2.4
				c-0.1-0.6-0.3-1.1-0.5-1.7c0.2,0.1-0.3-1.2,0.2-0.4c-0.5-1.8-2.1-3.4-3.5-4.2c0.2,0.2,0.4,0.4,0.3,0.4c-0.7-0.4-0.6-0.5-0.7-0.6
				c-0.6-0.2-0.6,0-1,0c-1.1-0.6-1.3-0.5-2.4-0.9l0,0.2c-0.7-0.2-0.9,0.1-1.7,0c0,0,0.3-0.1,0.5-0.2c-0.7,0.1-0.7-0.1-1.4,0
				c0.2-0.1,0.4-0.2,0.5-0.3c-0.6,0-1.4,0.3-1.1,0.1c-0.9,0.4-2.6,1-3.6,1.9l0-0.2c-0.4,0.5-1.9,1.6-2,2.2l-0.1,0
				c-0.2,0.4-0.4,0.8-0.6,1.2c-0.3,0.5-0.4,0.2-0.4,0.3c-0.6,1.2-0.9,2.2-1.1,3c0.2,0.3,0,1.6,0.1,2.7C14.6,29,18.6,34.1,23,35.3
				c0.6,0.2,1.6,0.2,2.4,0.2c-1-0.3-1.1-0.1-2-0.5c-0.7-0.3-0.8-0.7-1.3-1.1l0.2,0.3c-0.9-0.3-0.5-0.4-1.3-0.6l0.2-0.3
				c-0.3,0-0.8-0.5-0.9-0.8l-0.3,0c-0.4-0.5-0.6-0.8-0.6-1.1l-0.1,0.2c-0.1-0.2-1.5-1.8-0.8-1.5c-0.1-0.1-0.3-0.2-0.5-0.5l0.1-0.2
				c-0.3-0.4-0.6-1-0.6-1.2c0.2,0.2,0.3,0.3,0.4,0.3c-0.8-2.1-0.9-0.1-1.5-2.1l0.1,0c-0.1-0.2-0.2-0.3-0.2-0.5l0.1-0.6
				c-0.6-0.7-0.2-3-0.1-4.2c0.1-0.5,0.5-1.1,0.8-1.9l-0.2,0c0.4-0.7,2.3-2.8,3.1-2.7c0.4-0.5-0.1,0-0.2-0.1c0.9-0.9,1.2-0.7,1.8-0.8
				c0.7-0.4-0.6,0.2-0.3-0.2c1.2-0.3,0.8-0.7,2.3-0.8c0.2,0.1-0.4,0.1-0.5,0.3c1-0.5,3-0.4,4.4,0.3c1.6,0.7,3.3,2.9,3.4,4.9l0.1,0
				c0,0.8,0.1,1.7-0.2,2.6L31.1,22.4L31.1,22.4z M31.1,22.4L31.1,22.4L31.1,22.4L31.1,22.4z M24,7c9.4,0,17,7.6,17,17s-7.6,17-17,17
				S7,33.4,7,24S14.6,7,24,7z"/>
		</g>
	</g>
</svg>
