<svg xmlns="http://www.w3.org/2000/svg"
	 viewBox="0 0 768 768"
	 width="48"
	 height="48"
>
	<style type="text/css">
		.container{
			width: 50%;
			max-width: 300px;
			display: block;
			animation: 5s infinite both i-animation;
			animation-delay: 2s;
		}
		@keyframes i-animation {
			0% {transform: translateY(-48px);}
			50% {transform: translateY(48px);}
			100% {transform: translateY(-48px);}
		}
	</style>
	<g class="container">
		<path fill="#FFFFFF" fill-rule="evenodd" d="M394.86,100.98v91.73l149.45,86.81l79.77-46.38L394.86,100.98L394.86,100.98z M373.14,550.23V390.28
			l-138.59-79.49v158.93v0L373.14,550.23L373.14,550.23z M533.45,310.79l-138.59,79.49v159.95l138.59-80.51V310.79L533.45,310.79z
			 M565.88,292.05l68.95-40.09v264.07l-79.65-46.31V298.34l10.83-6.21L565.88,292.05L565.88,292.05z M212.83,298.34L202,292.13
			l0.13-0.07l-68.95-40.09v264.07l79.65-46.31V298.34L212.83,298.34z M245.38,291.99L384,211.46l138.62,80.52l-96.12,55.13
			L384,371.49l-27-15.48L245.38,291.99L245.38,291.99z M223.69,488.48l149.45,86.81v12.62v79.11L143.92,534.86L223.69,488.48
			L223.69,488.48z M394.86,575.29l149.45-86.81l79.77,46.38L394.86,667.02v-79.11V575.29L394.86,575.29z M373.14,192.71
			l-149.45,86.81l-79.77-46.38l229.22-132.16V192.71L373.14,192.71z M519.88,334.21v127.73l-111.44,64.73V398.13L519.88,334.21
			L519.88,334.21z M272.49,291.9L384,227.13l111.51,64.78L384,355.86L272.49,291.9L272.49,291.9z M359.56,526.68l-111.44-64.73
			V334.21l111.44,63.91V526.68z"/>
	</g>
</svg>
