<svg xmlns="http://www.w3.org/2000/svg"
	 viewBox="0 0 48 48"
	 width="48"
	 height="48"
>
	<style type="text/css">
		.container{
			width: 50%;
			max-width: 300px;
			display: block;
			animation: 5s infinite both i-animation;
			animation-delay: 0.5s;
		}
		@keyframes i-animation {
			0% {transform: translateY(-5px);}
			50% {transform: translateY(5px);}
			100% {transform: translateY(-5px);}
		}
		.st0{fill-rule:evenodd;clip-rule:evenodd;fill:#666666;}
		.st1{fill-rule:evenodd;clip-rule:evenodd;fill:#765AF8;}
		.st2{fill-rule:evenodd;clip-rule:evenodd;fill:#FF0000;}
		.st3{fill-rule:evenodd;clip-rule:evenodd;fill:#FF6600;}
		.st4{fill-rule:evenodd;clip-rule:evenodd;fill:#FFFFFF;}
		.st5{fill-rule:evenodd;clip-rule:evenodd;fill:#000000;}
	</style>
	<g class="container">
		<g>
			<defs>
				<linearGradient id="ps1" x1="100%" y1="0%" x2="40%" y2="100%">
					<stop offset="30%" style="stop-color:rgb(255,49,140);stop-opacity:1" />
					<stop offset="80%" style="stop-color:rgb(118,90,248);stop-opacity:1" />
				</linearGradient>
			</defs>
			<polygon points="26.2,14.4 24.6,9.6 12.8,7 7,13.6 10.3,33 20.6,32.9 20.6,27.1 20.4,20.4 25.1,22.8" fill="url(#ps1)"/>
		</g>
		<g>
			<defs>
				<linearGradient id="ps2" x1="50%" y1="0%" x2="60%" y2="100%">
					<stop offset="50%" style="stop-color:rgb(179,69,241);stop-opacity:1" />
					<stop offset="70%" style="stop-color:rgb(118,90,248);stop-opacity:1" />
				</linearGradient>
			</defs>
			<polygon points="17.7,26.9 18.4,18.9 28,9.1 36.6,10.6 41,21.6 36.4,26.2 28.8,25 24.2,29.9" fill="url(#ps2)"/>
		</g>
		<g>
			<defs>
				<linearGradient id="ps3" x1="30%" y1="0%" x2="70%" y2="100%">
					<stop offset="50%" style="stop-color:rgb(179,69,241);stop-opacity:1" />
					<stop offset="80%" style="stop-color:rgb(118,90,248);stop-opacity:1" />
				</linearGradient>
			</defs>
			<polygon points="28,9.1 14.2,21.3 16.9,37 28.3,41 41,33.4" fill="url(#ps3)"/>
		</g>
		<g>
			<rect x="13.5" y="13.5" class="st4" width="20.9" height="20.9"/>
			<path class="st5" d="M13.5,34.5h20.9V13.5H13.5V34.5L13.5,34.5z M15.5,31.9v-1.3h7.9v1.3H15.5L15.5,31.9z M22.8,23.7l1.1-1.4
				c0.8,0.6,1.6,1.1,2.6,1.1c0.6,0,1.3-0.2,1.3-0.9c0-0.5-0.3-0.7-1.7-1.1c-1.7-0.4-2.9-0.9-2.9-2.7c0-1.8,1.4-2.7,3.1-2.7
				c1.3,0,2.4,0.4,3.2,1.1l-1,1.5c-0.8-0.5-1.6-0.9-2.3-0.9c-0.7,0-1.1,0.3-1.1,0.8c0,0.9,1.2,1,1.9,1.2c1.7,0.5,2.8,1.1,2.8,2.6
				c0,1.9-1.4,2.8-3.2,2.8C25.2,25.1,23.9,24.6,22.8,23.7L22.8,23.7z M15.4,16.2H19c2.1,0,3.3,1.2,3.3,3c0,2.1-1.6,3.1-3.5,3.1l-1.5,0
				V25h-1.9V16.2L15.4,16.2z M18.9,20.6h-1.5v-2.7h1.5c0.9,0,1.6,0.4,1.6,1.4C20.4,20,19.8,20.6,18.9,20.6z"/>
		</g>
	</g>
</svg>
