<svg xmlns="http://www.w3.org/2000/svg"
	 viewBox="0 0 768 768"
	 width="48"
	 height="48"
>
	<style type="text/css">
		.container{
			width: 50%;
			max-width: 300px;
			display: block;
			animation: 5s infinite both i-animation;
			animation-delay: 0.5s;
		}
		@keyframes i-animation {
			0% {transform: translateY(-48px);}
			50% {transform: translateY(48px);}
			100% {transform: translateY(-48px);}
		}
	</style>
	<g class="container">
		<path fill="#333333" fill-rule="evenodd" d="M364.8,379.2l17.6-22.4c12.8,9.6,25.6,17.6,41.6,17.6c12.8,0,20.8-4.8,20.8-12.8c0-12.8-17.6-16-27.2-19.2
			c-27.2-6.4-46.4-14.4-46.4-43.2s22.4-43.2,49.6-43.2c20.8,0,38.4,6.4,51.2,17.6l-16,24c-12.8-8-25.6-14.4-36.8-14.4
			c-11.2,0-17.6,4.8-17.6,12.8c0,14.4,19.2,16,30.4,19.2c27.2,8,44.8,17.6,44.8,41.6c0,30.4-22.4,44.8-51.2,44.8
			C403.2,401.6,382.4,393.6,364.8,379.2L364.8,379.2L364.8,379.2z M246.4,259.2H304c33.6,0,52.8,19.2,52.8,48
			c0,33.6-25.6,49.6-56,49.6h-24l0,43.2h-30.4V259.2L246.4,259.2L246.4,259.2z M302.4,329.6c14.4,0,24-8,24-22.4s-9.6-20.8-25.6-20.8
			h-24v43.2H302.4L302.4,329.6L302.4,329.6z M248,510.4h126.4v-20.8H248V510.4L248,510.4L248,510.4z M224,544h320V224H224V544
			L224,544L224,544z M404.8,184l-9.6-30.4L204.8,112L112,217.6L164.8,528h44.8l0-320H560v352h-8H264l4.8,32l182.4,64L656,534.4
			l-65.6-123.2l65.6-65.6l-70.4-176l-137.6-24L404.8,184z"/>
	</g>
</svg>
