<svg xmlns="http://www.w3.org/2000/svg"
	 viewBox="0 0 48 48"
	 width="48"
	 height="48"
>
	<style type="text/css">
		.container{
			width: 50%;
			max-width: 300px;
			display: block;
			animation: 5s infinite both i-animation;
			animation-delay: 1.5s;
		}
		@keyframes i-animation {
			0% {transform: translateY(-5px);}
			50% {transform: translateY(5px);}
			100% {transform: translateY(-5px);}
		}
		.st0{fill-rule:evenodd;clip-rule:evenodd;fill:#FFFFFF;}
		.st1{fill-rule:evenodd;clip-rule:evenodd;fill:#0065A9;}
		.st2{fill-rule:evenodd;clip-rule:evenodd;fill:#007ACC;}
		.st3{fill-rule:evenodd;clip-rule:evenodd;fill:#1F9CF0;}
	</style>
	<g class="container">
		<g>
			<path class="st0" d="M32.8,40.7l7-3.4c0.7-0.4,1.2-1.1,1.2-1.9V12.6c0-0.8-0.5-1.6-1.2-1.9l-7-3.4C32,6.9,31,7.1,30.4,7.7L17,19.9
				l-5.8-4.4c-0.5-0.4-1.3-0.4-1.8,0.1l-1.9,1.7c-0.6,0.6-0.6,1.5,0,2.1l5.1,4.6l-5.1,4.6c-0.6,0.6-0.6,1.5,0,2.1l1.9,1.7
				c0.5,0.5,1.3,0.5,1.8,0.1l5.8-4.4l13.4,12.2C31,40.9,32,41.1,32.8,40.7L32.8,40.7z M32.5,16.3v15.4L22.3,24L32.5,16.3z"/>
			<g>
				<path class="st1" d="M39.8,10.7l-7-3.4C32,6.9,31,7.1,30.4,7.7L7.5,28.6c-0.6,0.6-0.6,1.5,0,2.1l1.9,1.7c0.5,0.5,1.3,0.5,1.8,0.1
					l27.6-20.9c0.9-0.7,2.3,0,2.3,1.1v-0.1C41,11.8,40.5,11,39.8,10.7z"/>
				<path class="st2" d="M39.8,37.3l-7,3.4c-0.8,0.4-1.8,0.2-2.4-0.4L7.5,19.4c-0.6-0.6-0.6-1.5,0-2.1l1.9-1.7
					c0.5-0.5,1.3-0.5,1.8-0.1l27.6,20.9c0.9,0.7,2.3,0,2.3-1.1v0.1C41,36.2,40.5,37,39.8,37.3z"/>
				<path class="st3" d="M32.8,40.7c-0.8,0.4-1.8,0.2-2.4-0.4c0.8,0.8,2.1,0.2,2.1-0.9V8.6c0-1.1-1.3-1.7-2.1-0.9
					C31,7.1,32,6.9,32.8,7.3l7,3.4c0.7,0.4,1.2,1.1,1.2,1.9v22.8c0,0.8-0.5,1.6-1.2,1.9L32.8,40.7z"/>
			</g>
		</g>
	</g>
</svg>
