<svg xmlns="http://www.w3.org/2000/svg"
	 viewBox="0 0 768 768"
	 width="48"
	 height="48"
>
	<style type="text/css">
		.container{
			width: 50%;
			max-width: 300px;
			display: block;
			animation: 5s infinite both i-animation;
			animation-delay: 1s;
		}
		@keyframes i-animation {
			0% {transform: translateY(-48px);}
			50% {transform: translateY(48px);}
			100% {transform: translateY(-48px);}
		}
	</style>
	<g class="container">
		<g>
			<defs>
				<linearGradient id="ws1" x1="0%" y1="0%" x2="80%" y2="100%">
					<stop offset="30%" style="stop-color:rgb(0,205,215);stop-opacity:1" />
					<stop offset="80%" style="stop-color:rgb(32,134,215);stop-opacity:1" />
				</linearGradient>
			</defs>
			<polygon points="184.8,603.2 111.2,169.6 247.2,113.6 333.6,164.8 412,121.6 437.6,131.2 516,552 503.2,560
								485.6,656" fill="url(#ws1)"/>
		</g>
		<g>
			<defs>
				<linearGradient id="ws2" x1="0%" y1="0%" x2="80%" y2="100%">
					<stop offset="30%" style="stop-color:rgb(255,240,69);stop-opacity:1" />
					<stop offset="60%" style="stop-color:rgb(0,205,215);stop-opacity:1" />
					<stop offset="100%" style="stop-color:rgb(31,136,215);stop-opacity:1" />
				</linearGradient>
			</defs>
			<polygon points="594.4,358.4 655.2,296 584.8,123.2 458.4,112 349.6,216" fill="url(#ws2)" />
		</g>
		<g>
			<polygon fill="#00D2DC" points="655.2,468.8 412,614.4 325.6,552 551.2,275.2 "/>
		</g>
		<g>
			<rect fill="#000000" x="215.2" y="216" width="334.4" height="334.4"/>
			<path fill="#FFFFFF" d="M247.2,510.4h126.4v-20.8H247.2V510.4L247.2,510.4L247.2,510.4z M412,379.2l17.6-22.4
					c12.8,9.6,25.6,17.6,41.6,17.6c12.8,0,19.2-4.8,19.2-12.8l0,0c0-8-4.8-11.2-27.2-17.6c-27.2-6.4-44.8-14.4-44.8-43.2l0,0
					c0-25.6,20.8-41.6,48-41.6c20.8,0,36.8,6.4,51.2,17.6l-16,24c-12.8-8-24-14.4-35.2-14.4c-11.2,0-17.6,4.8-17.6,12.8l0,0
					c0,9.6,6.4,12.8,28.8,19.2c27.2,8,43.2,17.6,43.2,41.6l0,0c0,27.2-20.8,43.2-51.2,43.2C448.8,401.6,428,393.6,412,379.2
					L412,379.2z M412,379.2L412,379.2L412,379.2L412,379.2L412,379.2z M384.8,259.2l-20.8,80l-24-80h-24l-24,80l-20.8-80h-32
					l40,139.2h25.6l24-80l22.4,80h25.6l40-139.2H384.8z"/>
		</g>
	</g>
</svg>
