<svg xmlns="http://www.w3.org/2000/svg"
	 viewBox="0 0 768 768"
	 width="48"
	 height="48"
>
	<style type="text/css">
		.container{
			width: 50%;
			max-width: 300px;
			display: block;
			animation: 5s infinite both i-animation;
			animation-delay: 1s;
		}
		@keyframes i-animation {
			0% {transform: translateY(-48px);}
			50% {transform: translateY(48px);}
			100% {transform: translateY(-48px);}
		}
		.st0{fill: none;}
		.st1{fill: #333333;}
	</style>
	<g class="container">
		<rect y="0" class="st0" width="768" height="768"/>
		<path class="st1" d="M224.8,542.4h318.4V225.6H224.8V542.4L224.8,542.4L224.8,542.4z M184.8,603.2l-73.6-433.6l136-56l86.4,51.2
			l78.4-43.2l25.6,9.6l20.8-19.2l128,11.2l25.6,65.6l0,0L655.2,296L596,358.4l59.2,110.4l-96,57.6l0-318.4h-352v352l296,0L484,656
			L184.8,603.2L184.8,603.2L184.8,603.2z M247.2,510.4v-20.8h126.4v20.8H247.2L247.2,510.4L247.2,510.4z M412,379.2l17.6-22.4
			c12.8,9.6,25.6,17.6,41.6,17.6c12.8,0,19.2-4.8,19.2-12.8l0,0c0-8-4.8-11.2-27.2-17.6c-27.2-6.4-44.8-14.4-44.8-43.2l0,0
			c0-25.6,20.8-41.6,48-41.6c20.8,0,36.8,6.4,51.2,17.6l-16,24c-12.8-8-24-14.4-35.2-14.4c-11.2,0-17.6,4.8-17.6,12.8l0,0
			c0,9.6,6.4,12.8,28.8,19.2c27.2,8,43.2,17.6,43.2,41.6l0,0c0,27.2-20.8,43.2-51.2,43.2C448.8,401.6,428,393.6,412,379.2
			L412,379.2z M412,379.2L412,379.2L412,379.2L412,379.2L412,379.2z M384.8,259.2h32l-40,139.2h-25.6l-22.4-80l-24,80h-25.6
			l-40-139.2h32l20.8,80l24-80h24l24,80L384.8,259.2z"/>
	</g>
</svg>
