<svg xmlns="http://www.w3.org/2000/svg"
	 viewBox="0 0 768 768"
	 width="48"
	 height="48"
>
	<style type="text/css">
		.container{
			width: 50%;
			max-width: 300px;
			display: block;
			animation: 5s infinite both i-animation;
			animation-delay: 1s;
		}
		@keyframes i-animation {
			0% {transform: translateY(-48px);}
			50% {transform: translateY(48px);}
			100% {transform: translateY(-48px);}
		}

		.ws-grayscale {
			opacity: 1;
		}

		.ws-color {
			opacity: 0;
		}

		.st0{fill: none;}
		.st1{fill: #FFFFFF;}
		svg:hover .ws-grayscale {opacity: 0}
		svg:hover .ws-color {opacity: 1}
	</style>
	<g class="container">
		<g class="ws-grayscale">
			<rect y="0" class="st0" width="768" height="768"/>
			<path class="st1" d="M224.8,542.4h318.4V225.6H224.8V542.4L224.8,542.4L224.8,542.4z M184.8,603.2l-73.6-433.6l136-56l86.4,51.2
			l78.4-43.2l25.6,9.6l20.8-19.2l128,11.2l25.6,65.6l0,0L655.2,296L596,358.4l59.2,110.4l-96,57.6l0-318.4h-352v352l296,0L484,656
			L184.8,603.2L184.8,603.2L184.8,603.2z M247.2,510.4v-20.8h126.4v20.8H247.2L247.2,510.4L247.2,510.4z M412,379.2l17.6-22.4
			c12.8,9.6,25.6,17.6,41.6,17.6c12.8,0,19.2-4.8,19.2-12.8l0,0c0-8-4.8-11.2-27.2-17.6c-27.2-6.4-44.8-14.4-44.8-43.2l0,0
			c0-25.6,20.8-41.6,48-41.6c20.8,0,36.8,6.4,51.2,17.6l-16,24c-12.8-8-24-14.4-35.2-14.4c-11.2,0-17.6,4.8-17.6,12.8l0,0
			c0,9.6,6.4,12.8,28.8,19.2c27.2,8,43.2,17.6,43.2,41.6l0,0c0,27.2-20.8,43.2-51.2,43.2C448.8,401.6,428,393.6,412,379.2
			L412,379.2z M412,379.2L412,379.2L412,379.2L412,379.2L412,379.2z M384.8,259.2h32l-40,139.2h-25.6l-22.4-80l-24,80h-25.6
			l-40-139.2h32l20.8,80l24-80h24l24,80L384.8,259.2z"/>
		</g>

		<g class="ws-color">
			<g>
				<defs>
					<linearGradient id='ws1' x1='0%' y1='0%' x2='80%' y2='100%'>
						<stop offset='30%' class='lg1'/>
						<stop offset='80%' class='lg2'/>
					</linearGradient>
				</defs>
				<polygon points="232.5,551.4 176.2,219.7 280.2,176.8 346.3,216 406.3,183 425.9,190.3 485.9,512.3 476.1,518.4
					462.6,591.8" fill="url(#ws1)"/>
			</g>
			<g>
				<defs>
					<linearGradient id='ws2' x1='0%' y1='0%' x2='80%' y2='100%'>
						<stop offset='30%' class='lg3'/>
						<stop offset='60%' class='lg4'/>
						<stop offset='100%' class='lg5'/>
					</linearGradient>
				</defs>
				<polygon points="545.9,364.1 592.4,316.4 538.5,184.2 441.8,175.6 358.6,255.2" fill="url(#ws2)"/>
			</g>
			<polygon class="st2" points="592.4,448.6 406.3,560 340.2,512.3 512.8,300.5"/>
			<rect class="st3" x="268" y="267.4" width="231.4" height="231.4"/>
			<path class="st4" d="M255.7,511h255.9V255.2H255.7V511L255.7,511z M280.2,480.4L280.2,480.4v-15.9h96.7v15.9H280.2L280.2,480.4z
				 M406.3,380l13.5-17.1c9.8,7.3,19.6,13.5,31.8,13.5c9.8,0,14.7-3.7,14.7-9.8l0,0c0-6.1-3.7-8.6-20.8-13.5
				c-20.8-4.9-34.3-11-34.3-33.1l0,0c0-19.6,15.9-31.8,36.7-31.8c15.9,0,28.2,4.9,39.2,13.5l-12.2,18.4c-9.8-6.1-18.4-11-26.9-11
				c-8.6,0-13.5,3.7-13.5,9.8l0,0c0,7.3,4.9,9.8,22,14.7c20.8,6.1,33.1,13.5,33.1,31.8l0,0c0,20.8-15.9,33.1-39.2,33.1
				C434.5,397.2,418.6,391.1,406.3,380L406.3,380z M406.3,380L406.3,380L406.3,380L406.3,380L406.3,380z M385.5,288.2H410l-30.6,106.5
				h-19.6l-17.1-61.2l-18.4,61.2h-19.6l-30.6-106.5h24.5l15.9,61.2l18.4-61.2h18.4l18.4,61.2L385.5,288.2z"/>
		</g>
	</g>
</svg>
