<svg xmlns="http://www.w3.org/2000/svg"
	 viewBox="0 0 48 48"
	 width="48"
	 height="48"
>
	<style type="text/css">
		.container{
			width: 50%;
			max-width: 300px;
			display: block;
			animation: 5s infinite both i-animation;
			animation-delay: 1s;
		}
		@keyframes i-animation {
			0% {transform: translateY(-5px);}
			50% {transform: translateY(5px);}
			100% {transform: translateY(-5px);}
		}
		.st3{fill-rule:evenodd;clip-rule:evenodd;fill:#00D2DC;}
		.st4{fill-rule:evenodd;clip-rule:evenodd;}
		.st5{fill-rule:evenodd;clip-rule:evenodd;fill:#FFFFFF;}
		.st10{fill-rule:evenodd;clip-rule:evenodd;fill:#35A0A6;}
		.st11{fill-rule:evenodd;clip-rule:evenodd;fill:#FFF045;}
		.st12{fill-rule:evenodd;clip-rule:evenodd;fill:#00D2DC;}
		.st13{fill-rule:evenodd;clip-rule:evenodd;fill:#FFFFFF;}
		.st14{fill-rule:evenodd;clip-rule:evenodd;}
		.lg1 {stop-color: rgb(0, 205, 215);stop-opacity: 1;}
		.lg2 {stop-color: rgb(32, 134, 215);stop-opacity: 1;}
		.lg3 {stop-color: rgb(255, 240, 69);stop-opacity: 1;}
		.lg4 {stop-color: rgb(0, 205, 215);stop-opacity: 1;}
		.lg5 {stop-color: rgb(31, 136, 215);stop-opacity: 1;}
	</style>
	<g class="container">
		<g>
			<defs>
				<linearGradient id="ws1" x1="0%" y1="0%" x2="80%" y2="100%">
					<stop offset="30%" style="stop-color:rgb(0,205,215);stop-opacity:1" />
					<stop offset="80%" style="stop-color:rgb(32,134,215);stop-opacity:1" />
				</linearGradient>
			</defs>
			<polygon points="11.6,37.7 7,10.6 15.5,7.1 20.9,10.3 25.8,7.6 27.4,8.2 32.3,34.5 31.5,35 30.4,41" fill="url(#ws1)"/>
		</g>
		<g>
			<defs>
				<linearGradient id="ws2" x1="0%" y1="0%" x2="80%" y2="100%">
					<stop offset="30%" style="stop-color:rgb(255,240,69);stop-opacity:1" />
					<stop offset="60%" style="stop-color:rgb(0,205,215);stop-opacity:1" />
					<stop offset="100%" style="stop-color:rgb(31,136,215);stop-opacity:1" />
				</linearGradient>
			</defs>
			<polygon points="37.2,22.4 41,18.5 36.6,7.7 28.7,7 21.9,13.5" fill="url(#ws2)" />
		</g>
		<polygon class="st3" points="41,29.3 25.8,38.4 20.4,34.5 34.5,17.2 "/>
		<g>
			<rect x="13.5" y="13.5" class="st4" width="20.9" height="20.9"/>
			<path class="st5" d="M15.5,31.9h7.9v-1.3h-7.9V31.9L15.5,31.9z M25.8,23.7l1.1-1.4c0.8,0.6,1.6,1.1,2.6,1.1c0.8,0,1.2-0.3,1.2-0.8
				v0c0-0.5-0.3-0.7-1.7-1.1c-1.7-0.4-2.8-0.9-2.8-2.7v0c0-1.6,1.3-2.6,3-2.6c1.3,0,2.3,0.4,3.2,1.1l-1,1.5c-0.8-0.5-1.5-0.9-2.2-0.9
				c-0.7,0-1.1,0.3-1.1,0.8v0c0,0.6,0.4,0.8,1.8,1.2c1.7,0.5,2.7,1.1,2.7,2.6v0c0,1.7-1.3,2.7-3.2,2.7C28.1,25.1,26.8,24.6,25.8,23.7
				L25.8,23.7z M25.8,23.7L25.8,23.7L25.8,23.7L25.8,23.7z M24.1,16.2l-1.3,5l-1.5-5h-1.5l-1.5,5l-1.3-5h-2l2.5,8.7h1.6l1.5-5l1.4,5
				h1.6l2.5-8.7H24.1z"/>
		</g>
	</g>
</svg>
