<svg xmlns="http://www.w3.org/2000/svg"
	 viewBox="0 0 768 768"
	 width="48"
	 height="48"
>
	<style type="text/css">
		.container{
			width: 50%;
			max-width: 300px;
			display: block;
			animation: 5s infinite both i-animation;
			animation-delay: 0.5s;
		}
			@keyframes i-animation {
			0% {transform: translateY(-48px);}
			50% {transform: translateY(48px);}
			100% {transform: translateY(-48px);}
		}
	</style>
	<g class="container">
		<path fill="#FFFFFF" d="M645.75,359.77L408.23,122.26c-13.68-13.68-35.86-13.68-49.55,0l-49.32,49.33l62.56,62.56
			c14.54-4.91,31.21-1.62,42.8,9.98c11.66,11.66,14.92,28.48,9.89,43.07l60.3,60.3c14.59-5.03,31.42-1.78,43.07,9.89
			c16.28,16.28,16.28,42.66,0,58.95c-16.29,16.29-42.67,16.29-58.97,0c-12.24-12.26-15.27-30.25-9.06-45.34l-56.24-56.24v147.99
			c3.97,1.96,7.72,4.58,11.02,7.89c16.28,16.28,16.28,42.66,0,58.96c-16.28,16.27-42.68,16.27-58.95,0
			c-16.28-16.31-16.28-42.68,0-58.96c4.03-4.02,8.68-7.06,13.66-9.1V312.18c-4.97-2.04-9.62-5.05-13.66-9.1
			c-12.33-12.33-15.3-30.43-8.97-45.58l-61.67-61.68L122.26,358.67c-13.68,13.69-13.68,35.88,0,49.56l237.53,237.51
			c13.68,13.68,35.85,13.68,49.55,0l236.41-236.41C659.43,395.65,659.43,373.45,645.75,359.77z"/>
	</g>
</svg>
