<svg xmlns="http://www.w3.org/2000/svg"
	 viewBox="0 0 768 768"
	 width="48"
	 height="48"
>
	<style type="text/css">
		.container{
			width: 50%;
			max-width: 300px;
			display: block;
			animation: 5s infinite both i-animation;
			animation-delay: 1.5s;
		}
		@keyframes i-animation {
			0% {transform: translateY(-48px);}
			50% {transform: translateY(48px);}
			100% {transform: translateY(-48px);}
		}
	</style>
	<g class="container">
		<path fill="#FFFFFF" d="M337.5,174.27l-111.9,64.6c-3.14-3.31-6.8-6.24-10.95-8.65c-23.2-13.34-52.93-5.42-66.26,17.78
			c-13.34,23.2-5.42,52.93,17.78,66.26c4.14,2.38,8.49,4.08,12.92,5.14v129.22c-4.38,1.06-8.68,2.75-12.78,5.11
			c-23.2,13.47-31.12,43.06-17.78,66.26c13.34,23.2,42.93,31.12,66.26,17.78c4.11-2.39,7.73-5.28,10.85-8.55l111.84,64.57
			c-1.28,4.35-1.96,8.95-1.96,13.72c0,26.81,21.67,48.48,48.48,48.48c26.81,0,48.48-21.81,48.48-48.48c0-5.34-0.86-10.48-2.45-15.28
			l111.18-64.19c3.36,3.77,7.37,7.08,11.99,9.73c23.2,13.34,52.93,5.42,66.26-17.78c13.48-23.2,5.56-52.79-17.78-66.26
			c-4.1-2.36-8.4-4.05-12.78-5.11V319.4c4.43-1.06,8.78-2.76,12.92-5.14c23.2-13.47,31.12-43.06,17.78-66.26
			c-13.48-23.2-43.06-31.12-66.26-17.78c-4.17,2.42-7.85,5.37-11,8.71l-111.87-64.59c1.3-4.39,2.01-9.04,2.01-13.86
			c0-26.81-21.67-48.48-48.48-48.48c-26.81,0-48.48,21.67-48.48,48.48C335.52,165.27,336.21,169.9,337.5,174.27L337.5,174.27z
			 M384,208.96c4.7,0,9.25-0.67,13.54-1.91l146.41,253.58c-3.28,3.12-6.17,6.76-8.54,10.88c-2.36,4.1-4.05,8.4-5.11,12.78H237.69
			c-1.06-4.38-2.75-8.68-5.11-12.78c-2.38-4.1-5.26-7.71-8.52-10.82l146.44-253.63C374.78,208.3,379.31,208.96,384,208.96L384,208.96
			z M350.51,195.56L204.07,449.2c-0.63-0.18-1.27-0.35-1.91-0.51v-129.4c12.34-3.07,23.46-10.94,30.28-22.81
			c6.82-11.86,8.08-25.38,4.59-37.58l112.1-64.72C349.58,194.65,350.04,195.11,350.51,195.56L350.51,195.56z M418.82,194.24
			l112.13,64.74c-3.47,12.17-2.2,25.67,4.61,37.5c6.82,11.87,17.94,19.74,30.28,22.81v129.38c-0.63,0.15-1.25,0.32-1.88,0.5
			L417.52,195.53C417.96,195.11,418.4,194.68,418.82,194.24L418.82,194.24z M349.07,573.87l-111.95-64.63
			c0.18-0.62,0.35-1.25,0.5-1.88h292.73c0.26,1.07,0.56,2.13,0.89,3.18l-111.4,64.32c-8.86-9.72-21.63-15.82-35.85-15.82
			C370.27,559.04,357.89,564.72,349.07,573.87z"/>
	</g>
</svg>
