<svg xmlns="http://www.w3.org/2000/svg"
	 viewBox="0 0 768 768"
	 width="48"
	 height="48"
>
	<style type="text/css">
		.container{
			width: 50%;
			max-width: 300px;
			display: block;
			animation: 5s infinite both i-animation;
			animation-delay: 1s;
		}
		@keyframes i-animation {
			0% {transform: translateY(-48px);}
			50% {transform: translateY(48px);}
			100% {transform: translateY(-48px);}
		}
	</style>
	<g class="container">
		<path fill="#FFFFFF" d="M633.46,532.24c-15.26,7.82-55.16,24.84-96.04,42.45c-43.03,18.39-87.05,37.36-101.52,44.99
			c-0.78,0.39-1.76,0.78-2.54,1.17c-18.19,9.19-33.45,13.89-48.71,14.67c-16.82,0.78-31.49-3.33-48.32-11.15
			c-9.39-4.5-50.86-21.71-93.7-39.51c-45.19-18.78-91.74-37.95-107.78-45.77c-9.19-4.3-16.43-8.61-21.91-13.11
			c-11.35-9.19-17.21-20.15-17.21-33.06v-51.64c0-1.17,0-2.35,0.2-3.33c0.39-4.69,1.37-9,3.33-13.11
			c-2.35-4.89-3.52-10.37-3.52-16.04v-51.64c0-0.98,0-2.15,0.2-3.13c0.39-5.28,1.76-10.37,4.11-14.87c-2.74-5.48-4.3-11.35-4.3-17.6
			v-52.23c0-0.98,0-2.15,0.2-3.13c0.78-11.74,6.46-21.71,17.21-29.93c0.98-0.78,1.76-1.37,2.74-1.96
			c5.48-3.72,12.13-7.24,20.15-10.37l6.46-2.54c38.34-15.06,169.79-66.51,202.26-78.24c18.97-6.85,32.47-10.37,46.56-10.76
			c15.06-0.39,27.78,2.54,44.99,9c13.3,4.89,55.94,21.71,98.39,38.34c41.27,16.24,82.35,32.28,95.85,37.36
			c9.39,3.52,17.02,7.04,23.08,11.35c13.11,9.19,19.17,20.73,18.58,35.41v49.29c0,6.46-1.37,12.52-4.3,18
			c3.13,5.87,4.69,12.52,4.3,20.15v49.29c0,5.87-1.17,11.35-3.52,16.43c2.74,5.48,3.91,11.74,3.52,18.58v49.29
			c0,12.13-4.89,22.69-15.45,32.28c-5.09,4.69-11.93,9.19-20.73,13.89C635.22,531.46,634.44,531.85,633.46,532.24L633.46,532.24
			L633.46,532.24z M505.14,279.91v-41.27l-0.39-0.2l-59.27,23.47l52.62,20.73L505.14,279.91L505.14,279.91L505.14,279.91z
			 M496.54,289.88L496.54,289.88l1.37,0.59c26.21-10.56,52.62-20.93,79.03-31.3l-72.38-28.56c-26.41,10.37-52.62,20.93-79.03,31.3
			L496.54,289.88L496.54,289.88z M394.23,341.72l36.19-53.21l-120.1,18.39L394.23,341.72L394.23,341.72L394.23,341.72z M342.4,262.69
			c0-13.69-28.75-24.84-64.16-24.84s-64.16,11.15-64.16,24.84c0,13.69,28.75,24.84,64.16,24.84S342.4,276.38,342.4,262.69
			L342.4,262.69L342.4,262.69z M451.94,224.35L451.94,224.35l-34.62-12.91l9.19-22.1l-34.23,11.15l-36.19-14.08l11.54,21.32
			l-38.73,13.89l51.84,4.7l16.24,26.99l9.98-24.26L451.94,224.35L451.94,224.35z M622.9,327.24L622.9,327.24L622.9,327.24
			c14.08-7.43,20.15-13.11,20.34-18.39v-51.64c-0.39,4.89-7.04,10.37-20.34,17.41c-27.78,14.48-170.96,73.35-201.48,89.2
			c-30.52,16.04-47.53,15.84-71.59,4.3c-24.06-11.54-176.64-73.16-204.02-86.26c-13.69-6.45-20.73-11.93-20.93-17.21v52.42
			c0,5.28,7.24,10.76,20.93,17.41c27.58,13.11,179.96,74.72,204.02,86.26c24.06,11.35,41.08,11.54,71.59-4.3
			C451.94,400.6,595.32,341.72,622.9,327.24L622.9,327.24z M622.9,415.86L622.9,415.86c14.08-7.24,20.34-13.11,20.34-18.19v-51.64
			c-0.2,4.89-6.85,10.37-20.34,17.41c-27.58,14.48-170.96,73.35-201.48,89.2c-30.52,15.84-47.53,15.65-71.59,4.3
			c-24.06-11.54-176.44-73.16-204.02-86.26c-13.69-6.46-20.73-12.13-20.93-17.21v52.42c0,5.28,7.24,10.76,20.93,17.41
			c27.39,13.11,179.96,74.72,204.02,86.26c24.06,11.54,41.08,11.74,71.59-4.3C451.94,489.01,595.12,430.13,622.9,415.86L622.9,415.86
			L622.9,415.86z M622.9,501.14L622.9,501.14c14.08-7.43,20.34-13.11,20.34-18.19v-51.64c-0.2,4.89-6.85,10.37-20.34,17.41
			c-27.58,14.48-170.96,73.35-201.48,89.2c-30.52,15.84-47.53,15.84-71.59,4.3c-24.06-11.54-176.44-73.16-204.02-86.26
			c-13.69-6.46-20.73-12.13-20.93-17.21v52.42c0,5.28,7.24,10.76,20.93,17.41c27.39,13.11,179.96,74.72,204.02,86.26
			c24.06,11.54,41.08,11.74,71.59-4.3C451.94,574.49,595.12,515.62,622.9,501.14z"/>
	</g>
</svg>
