<svg xmlns="http://www.w3.org/2000/svg"
	 viewBox="0 0 768 768"
	 width="48"
	 height="48"
>
	<style type="text/css">
		.container{
			width: 50%;
			max-width: 300px;
			display: block;
			animation: 5s infinite both i-animation;
			animation-delay: 1s;
		}
		@keyframes i-animation {
			0% {transform: translateY(-48px);}
			50% {transform: translateY(48px);}
			100% {transform: translateY(-48px);}
		}
	</style>
	<g class="container">
		<path fill="#333333" d="M384,112c148.66,0.26,267.95,118.51,271.74,264.56c4.05,156.88-123.73,282.83-278.13,279.31
			c-144.35-3.26-259.08-118.38-265.47-259.34C105.08,240.43,229.99,111.87,384,112L384,112L384,112L384,112z M283.76,302.43
			L283.76,302.43c-0.52,0.39-0.52,1.17-0.78,1.7c0,1.17,0,2.22-0.26,3.26v7.44c0.39,1.17,0.26,2.22,0.39,3.39
			c0.65,1.44-0.39,3.26,1.31,4.57c1.96,6.79,4.18,13.44,7.83,19.45c1.17,1.96,0.91,2.87-0.78,4.44
			c-8.61,7.96-16.31,16.58-22.32,26.76c-10.7,18.14-14.62,38.11-14.62,58.86c0,1.96-0.52,3.26-1.83,4.7
			c-13.84,15.14-21.27,32.37-17.88,53.25c1.7,10.57,4.83,20.62,11.09,29.5c1.44,1.96,2.09,3.79,1.96,6.13
			c-0.39,9.14,3.26,16.58,11.09,21.27c13.18,7.96,27.41,10.83,42.55,7.44c2.61-0.65,5.22-2.74,7.44-2.35
			c2.35,0.39,4.44,3.13,6.66,4.57c8.61,5.22,18.27,6.53,28.06,6c23.62-1.04,47.25-2.48,70.74-5.74c7.7-1.04,15.14-3,21.54-7.83
			c1.31-1.04,2.87-1.7,4.44-2.22c23.75-7.83,46.46-18.01,67.22-31.85c12.53-8.22,25.84-15.01,40.72-18.27
			c8.09-1.83,14.1-7.18,17.75-14.75c9.27-19.19-4.96-40.59-27.02-40.72c-14.88-0.13-28.58,4.57-41.77,11.09
			c-9.4,4.7-17.75,10.7-27.02,15.53c-1.17,0.65-2.22,1.57-3.79,1.44v-2.22c1.17-31.59-9.14-59.12-30.15-82.62
			c-1.31-1.44-1.04-2.35-0.13-3.65c7.83-11.36,14.23-23.36,18.79-36.28c7.83-22.06,9.4-44.64,6.92-67.74
			c-1.17-11.09-3.39-21.93-8.09-32.11c-4.05-8.74-11.62-12.79-21.01-10.7c-2.61,0.52-3.39-0.26-4.44-2.35
			c-3.13-6.4-6.26-12.79-10.7-18.53c-3.92-5.09-9.14-7.83-15.53-8.09c-10.05-0.52-16.97,4.83-22.84,12.14
			c-4.44,5.48-7.7,11.75-10.44,18.27c-1.17,2.74-2.61,3.79-5.48,4.05c-17.75,1.96-33.02,9.4-45.68,22.06
			c-3.52,3.65-7.57,6.4-12.27,7.96c-6.66,2.22-11.22,6.79-14.49,12.92C288.2,288.98,285.59,295.64,283.76,302.43z"/>
		<path fill="#333333" d="M450.69,470.4c0,5.48-1.31,10.83-1.96,16.18c-0.52,4.7-0.13,5.22,4.7,4.44c10.7-1.83,20.36-6.4,29.76-11.62
			c10.05-5.74,19.45-12.14,30.15-16.45c8.22-3.26,16.71-5.48,25.71-5.48c7.83,0,13.18,4.18,14.1,10.83
			c0.91,6.13-2.48,12.14-8.74,13.44c-17.75,3.79-33.02,12.53-47.9,22.19c-19.97,12.92-41.77,22.19-64.35,29.37
			c-0.78,0.26-1.96,0.39-2.48,0.91c-5.35,5.61-12.4,6.66-19.58,7.57c-19.97,2.61-40.2,3.79-60.43,4.96
			c-5.87,0.39-11.62,0.52-17.49-0.52c-9.27-1.83-13.18-5.35-14.62-12.92c-1.31-6.79,1.96-13.31,8.74-17.75
			c0.78-0.52,1.44-0.91,2.61-1.7c-3.65-2.22-6.66-4.96-9.01-8.22c-1.17-1.57-1.7-0.52-2.09,0.78c-1.17,4.31-2.22,8.61-3.39,12.92
			c-0.78,2.87-1.7,5.61-2.87,8.35c-3.39,7.96-9.79,11.75-18.01,12.53c-8.48,0.78-16.58-1.17-24.15-4.83
			c-5.22-2.61-6.79-6.4-5.09-12.14c0.91-3,2.61-5.61,4.7-8.88c-7.18,1.44-10.31-2.74-12.79-7.83c-5.61-11.09-7.44-22.71-5.22-34.85
			c1.83-9.66,7.44-17.49,14.23-24.28c3.92-3.92,5.22-7.83,5.09-13.44c-0.91-32.24,11.36-58.86,36.41-79.35
			c2.22-1.83,4.44-3.79,6.66-5.35c1.44-1.04,1.57-1.7,0.39-3.13c-6.53-8.09-11.49-16.97-13.83-27.28
			c-2.61-11.62,1.31-21.67,7.18-31.32c0.78-1.31,2.09-1.96,3.52-2.48c7.31-2.61,13.44-6.66,19.06-12.14
			c12.53-12.66,28.19-18.4,45.94-17.62c2.22,0.13,3.26-0.52,3.92-2.61c2.61-7.83,6-15.27,10.44-22.19c1.7-2.61,3.52-5.09,5.87-7.05
			c4.44-3.65,8.09-3.13,11.09,1.7c5.48,8.74,9.66,18.14,13.97,27.54c1.04,2.35,1.96,3.26,4.44,1.57c2.87-1.83,6.13-3.13,9.4-4.31
			c2.61-0.91,4.18-0.26,5.35,2.48c3.26,7.96,5.09,16.45,6.13,25.06c0.26,2.35,0.78,4.7,0.52,7.05c-0.13,5.22,0.13,10.31,0.13,15.53
			c0,2.35-0.78,4.7-0.13,7.05c-0.52,14.1-4.31,27.54-9.79,40.46c-5.09,12.14-12.53,22.84-19.97,33.67
			c-2.87,4.18-2.87,4.18,0.91,7.57c18.53,16.71,28.84,37.72,32.24,62.13c0.13,0.91,0.13,1.96,0.13,3c-0.78,2.22,0.13,4.44,0.13,6.66
			C450.83,463.88,450.17,467.14,450.69,470.4L450.69,470.4z"/>
	</g>
</svg>
