<svg xmlns="http://www.w3.org/2000/svg"
	 viewBox="0 0 768 768"
	 width="48"
	 height="48"
>
	<style type="text/css">
		.container{
			width: 50%;
			max-width: 300px;
			display: block;
			animation: 5s infinite both i-animation;
			animation-delay: 1s;
		}
		@keyframes i-animation {
			0% {transform: translateY(-48px);}
			50% {transform: translateY(48px);}
			100% {transform: translateY(-48px);}
		}
	</style>
	<g class="container">
		<path fill="#FFFFFF" d="M361.67,112.15c-1.13,0.14-4.96,0.57-8.22,0.71c-77.22,7.08-149.76,48.74-195.52,112.78
			c-25.5,35.7-41.94,76.08-48.03,118.87c-2.27,14.88-2.41,19.41-2.41,39.53c0,20.26,0.28,24.65,2.41,39.53
			c14.88,102.15,87.42,188.02,186.03,219.89c17.57,5.67,36.27,9.63,57.38,11.9c8.22,0.85,43.92,0.85,52.14,0
			c36.55-3.97,67.58-13.18,98.05-28.62c4.68-2.41,5.67-2.98,4.96-3.54c-0.42-0.28-20.4-27.06-44.35-59.37l-43.5-58.66l-54.55-80.62
			c-29.9-44.35-54.69-80.62-54.97-80.62c-0.14-0.14-0.42,35.85-0.57,79.63c-0.14,76.65-0.14,79.77-1.13,81.61
			c-1.42,2.55-2.41,3.68-4.68,4.82c-1.7,0.85-3.26,0.99-11.19,0.99h-9.21l-2.41-1.56c-1.56-0.99-2.83-2.27-3.54-3.97l-1.13-2.41
			l0.14-106.69l0.14-106.69l1.56-2.13c0.85-1.13,2.69-2.55,3.97-3.26c2.27-1.13,2.98-1.13,12.18-1.13c10.77,0,12.61,0.42,15.44,3.54
			c0.85,0.85,30.32,45.34,65.6,98.9c35.28,53.56,83.59,126.67,107.4,162.65l43.07,65.17l2.27-1.42
			c19.41-12.47,39.67-30.46,55.97-49.02c34.43-39.53,56.67-87.7,64.04-139.13c2.27-14.88,2.41-19.41,2.41-39.53
			c0-20.26-0.28-24.65-2.41-39.53c-14.88-102.15-87.42-188.01-186.03-219.89c-17.43-5.67-35.85-9.49-56.67-11.76
			C401.34,112.29,366.21,111.72,361.67,112.15L361.67,112.15L361.67,112.15L361.67,112.15L361.67,112.15z M473.04,276.64
			c2.55,1.27,4.68,3.68,5.38,6.38c0.42,1.42,0.57,31.03,0.42,97.62l-0.14,95.64l-16.86-25.79l-17-25.79v-69.42
			c0-44.91,0.14-70.28,0.57-71.41c0.85-2.98,2.69-5.24,5.24-6.66c2.27-1.13,2.98-1.13,11.33-1.13
			C469.92,275.65,471.34,275.79,473.04,276.64L473.04,276.64z"/>
		<path fill="#333333" d="M524.33,614.56c-1.84,1.13-2.41,1.98-0.85,1.13c1.13-0.71,3.12-2.13,2.83-2.27
			C526.17,613.42,525.32,613.85,524.33,614.56L524.33,614.56L524.33,614.56L524.33,614.56L524.33,614.56z M520.64,616.97
			c1.13-0.85,1.42-0.99,1.42-0.57c0,0.14-0.57,0.57-1.13,0.85C519.79,617.67,519.79,617.67,520.64,616.97L520.64,616.97
			L520.64,616.97L520.64,616.97z M518.09,618.52c-0.99,0.71-0.99,0.85,0.14,0.14c0.57-0.28,1.13-0.71,1.13-0.85
			C519.37,617.53,519.22,617.67,518.09,618.52L518.09,618.52L518.09,618.52L518.09,618.52z M515.4,620.08
			c-0.99,0.71-0.99,0.85,0.14,0.14c0.57-0.28,1.13-0.71,1.13-0.85C516.82,619.09,516.39,619.23,515.4,620.08L515.4,620.08
			L515.4,620.08L515.4,620.08z M511.29,622.21c-1.98,1.13-1.84,1.56,0.14,0.57c0.85-0.57,1.56-0.99,1.56-1.13
			C512.99,621.36,512.99,621.36,511.29,622.21L511.29,622.21z"/>
	</g>
</svg>
