<svg xmlns="http://www.w3.org/2000/svg"
	 viewBox="0 0 768 768"
	 width="48"
	 height="48"
>
	<style type="text/css">
		.container{
			width: 50%;
			max-width: 300px;
			display: block;
			animation: 5s infinite both i-animation;
			animation-delay: 0.5s;
		}
		@keyframes i-animation {
			0% {transform: translateY(-48px);}
			50% {transform: translateY(48px);}
			100% {transform: translateY(-48px);}
		}
	</style>
	<g class="container">
		<path fill="#333333" fill-rule="evenodd" d="M269.97,412.93c-6.76,16.12-12.45,31.65-17.19,46.82c15.41,3.44,31.77,6.4,49.08,8.53
			c-5.69-8.77-11.14-17.9-16.6-27.26C279.92,431.66,274.71,422.3,269.97,412.93L269.97,412.93L269.97,412.93L269.97,412.93z
			 M498.03,354.97c6.76-16.12,12.45-31.65,17.19-46.82c-15.41-3.44-31.77-6.4-49.08-8.53c5.69,8.77,11.14,17.9,16.6,27.26
			C488.08,336.36,493.17,345.72,498.03,354.97L498.03,354.97L498.03,354.97L498.03,354.97z M415.89,270.69
			c-10.55-13.87-21.22-26.67-31.89-38.29c-10.67,11.62-21.46,24.42-31.89,38.29c10.43-0.47,21.1-0.71,31.89-0.71
			C394.79,269.98,405.46,270.33,415.89,270.69L415.89,270.69L415.89,270.69L415.89,270.69z M252.78,308.26
			c4.74,15.05,10.43,30.82,17.19,46.82c4.86-9.36,9.96-18.61,15.41-27.98c5.45-9.36,11.02-18.49,16.6-27.26
			C284.66,301.86,268.19,304.71,252.78,308.26L252.78,308.26L252.78,308.26L252.78,308.26z M352.11,497.22
			c10.55,13.87,21.22,26.67,31.89,38.29c10.67-11.62,21.46-24.42,31.89-38.29c-10.43,0.47-21.1,0.71-31.89,0.71
			C373.21,498.05,362.54,497.69,352.11,497.22L352.11,497.22L352.11,497.22L352.11,497.22z M384,294.63
			c17.31,0,34.14,0.59,50.5,1.9c9.25,13.51,18.26,27.74,26.91,42.79c8.65,14.94,16.48,29.99,23.59,44.69
			c-7.11,14.82-14.94,29.63-23.59,44.69c-8.65,14.94-17.66,29.28-26.91,42.79c-16.36,1.19-33.19,1.9-50.5,1.9
			c-17.31,0-34.14-0.59-50.5-1.9c-9.25-13.51-18.26-27.74-26.91-42.79c-8.65-14.94-16.48-29.99-23.59-44.69
			c7.11-14.82,14.94-29.63,23.59-44.69c8.65-14.94,17.66-29.28,26.91-42.79C349.86,295.34,366.69,294.63,384,294.63L384,294.63
			L384,294.63L384,294.63z M515.22,459.76c-4.74-15.05-10.43-30.82-17.19-46.82c-4.86,9.36-9.96,18.61-15.41,27.98
			c-5.45,9.36-11.02,18.49-16.6,27.26C483.34,466.16,499.81,463.2,515.22,459.76L515.22,459.76L515.22,459.76L515.22,459.76z
			 M360.41,176.57c7.82,6.28,15.65,13.39,23.59,20.86c7.94-7.71,15.77-14.7,23.59-20.86c43.86-35.56,85.7-49.08,114.86-32.36
			c29.16,16.83,38.29,59.74,29.4,115.69c-1.54,9.84-3.67,20.15-6.4,30.82c10.55,3.08,20.63,6.4,29.99,9.96
			c52.87,20.27,85.47,49.67,85.47,83.33c0,33.67-32.6,63.06-85.47,83.33c-9.36,3.56-19.32,6.88-29.99,9.96
			c2.61,10.67,4.86,20.98,6.4,30.82c8.77,55.83-0.36,98.74-29.4,115.69c-29.16,16.83-71.01,3.32-114.86-32.36
			c-7.82-6.28-15.65-13.28-23.59-20.86c-7.94,7.71-15.77,14.7-23.59,20.86c-43.86,35.56-85.7,49.08-114.86,32.36
			c-29.16-16.83-38.29-59.74-29.4-115.69c1.54-9.84,3.67-20.15,6.4-30.82c-10.55-3.08-20.63-6.4-29.99-9.96
			c-52.75-20.27-85.47-49.67-85.47-83.45c0-33.78,32.6-63.06,85.47-83.33c9.36-3.56,19.32-6.88,29.99-9.96
			c-2.61-10.67-4.86-20.98-6.4-30.82c-8.77-55.83,0.36-98.74,29.4-115.69C274.71,127.37,316.55,141.01,360.41,176.57L360.41,176.57
			L360.41,176.57L360.41,176.57z M366.81,553.05c-7.35,7.11-14.7,13.51-21.81,19.44c-35.8,28.92-67.69,41.25-87.13,30.11
			c-19.44-11.26-24.77-45.04-17.54-90.45c1.42-9.13,3.44-18.73,5.81-28.57c22.64,5.22,47.53,9.13,73.73,11.62
			C335.16,516.42,350.93,535.98,366.81,553.05L366.81,553.05L366.81,553.05L366.81,553.05z M401.07,553.05
			c15.88-17.07,31.65-36.51,46.94-58.08c26.2-2.49,51.09-6.52,73.73-11.62c2.49,9.96,4.39,19.44,5.81,28.57
			c7.23,45.4,1.9,79.18-17.54,90.45c-19.44,11.26-51.45-1.07-87.13-30.11C415.77,566.68,408.54,560.16,401.07,553.05L401.07,553.05
			L401.07,553.05L401.07,553.05z M512.26,383.89c11.02-23.94,20.03-47.42,26.79-69.7c9.84,2.85,19.08,5.93,27.74,9.25
			c43.03,16.48,69.58,37.93,69.58,60.46c0,22.52-26.55,43.86-69.58,60.46c-8.65,3.32-17.9,6.4-27.74,9.25
			C532.06,431.43,523.16,407.96,512.26,383.89L512.26,383.89L512.26,383.89L512.26,383.89z M384,334.22
			c-27.5,0-49.79,22.29-49.79,49.79c0,27.5,22.29,49.79,49.79,49.79c27.5,0,49.79-22.29,49.79-49.79
			C433.79,356.51,411.5,334.22,384,334.22L384,334.22L384,334.22L384,334.22z M401.07,214.97c7.35-7.11,14.7-13.51,21.81-19.44
			c35.8-28.92,67.69-41.25,87.13-30.11c19.44,11.26,24.78,45.04,17.54,90.45c-1.42,9.13-3.44,18.61-5.81,28.57
			c-22.64-5.22-47.53-9.13-73.73-11.62C432.84,251.48,417.07,232.04,401.07,214.97L401.07,214.97L401.07,214.97L401.07,214.97z
			 M366.81,214.97c-15.88,17.07-31.65,36.51-46.94,58.08c-26.2,2.49-51.09,6.52-73.73,11.62c-2.49-9.96-4.39-19.44-5.81-28.57
			c-7.23-45.4-1.9-79.18,17.54-90.45c19.44-11.26,51.45,1.07,87.13,30.11C352.23,201.34,359.46,207.86,366.81,214.97L366.81,214.97
			L366.81,214.97L366.81,214.97z M255.74,383.89c-11.02,24.06-20.03,47.42-26.79,69.7c-9.84-2.85-19.08-5.93-27.74-9.25
			c-43.03-16.48-69.58-37.93-69.58-60.46c0-22.52,26.55-43.86,69.58-60.46c8.65-3.32,17.9-6.4,27.74-9.25
			C235.83,336.6,244.83,360.07,255.74,383.89z"/>
	</g>
</svg>
