<svg xmlns="http://www.w3.org/2000/svg"
	 viewBox="0 0 768 768"
	 width="48"
	 height="48"
>
	<style type="text/css">
		.container{
			width: 50%;
			max-width: 300px;
			display: block;
			animation: 5s infinite both i-animation;
			animation-delay: 1s;
		}
		@keyframes i-animation {
			0% {transform: translateY(-48px);}
			50% {transform: translateY(48px);}
			100% {transform: translateY(-48px);}
		}
	</style>
	<g class="container">
		<path fill="#FFFFFF" fill-rule="evenodd" d="M372.8,488l116.8-67.2l-46.4-27.2l-116.8,67.2L372.8,488L372.8,488L372.8,488z M502.4,348.8V400L456,372.8V320
			L502.4,348.8L502.4,348.8L502.4,348.8z M513.6,273.6l-46.4,27.2l46.4,27.2l46.4-27.2L513.6,273.6L513.6,273.6L513.6,273.6z
			 M361.6,414.4l-46.4,27.2V308.8l46.4-27.2V414.4L361.6,414.4L361.6,414.4z M257.6,260.8L304,288l46.4-27.2L304,235.2L257.6,260.8
			L257.6,260.8L257.6,260.8z M244.8,281.6l46.4,27.2v153.6c0,1.6,0,4.8,1.6,6.4c1.6,1.6,3.2,3.2,4.8,4.8l64,36.8v52.8L244.8,496
			V281.6L244.8,281.6L244.8,281.6z M502.4,441.6v52.8l-116.8,67.2v-52.8L502.4,441.6L502.4,441.6L502.4,441.6z M574.4,321.6v52.8
			l-48,25.6v-52.8L574.4,321.6L574.4,321.6L574.4,321.6z M595.2,300.8v80c0,4.8-1.6,8-6.4,9.6l-64,36.8v73.6c0,4.8-1.6,8-6.4,9.6
			l-140.8,80c-3.2,1.6-8,1.6-11.2,0l-140.8-80c-3.2-1.6-6.4-6.4-6.4-9.6v-240c0-4.8,1.6-8,6.4-9.6l70.4-40c3.2-1.6,8-1.6,11.2,0
			l70.4,40c3.2,1.6,6.4,6.4,6.4,9.6l0,139.2l46.4-27.2v-73.6c0-4.8,1.6-8,6.4-9.6l70.4-40c3.2-1.6,8-1.6,11.2,0l70.4,40
			C593.6,292.8,595.2,296,595.2,300.8L595.2,300.8L595.2,300.8z M384,112c150.4,0,272,121.6,272,272S534.4,656,384,656
			S112,534.4,112,384S233.6,112,384,112z"/>
	</g>
</svg>
