<svg xmlns="http://www.w3.org/2000/svg"
	 viewBox="0 0 768 768"
	 width="48"
	 height="48"
>
	<style type="text/css">
		.container{
			width: 50%;
			max-width: 300px;
			display: block;
			animation: 5s infinite both i-animation;
			animation-delay: 1s;
		}
		@keyframes i-animation {
			0% {transform: translateY(-5px);}
			50% {transform: translateY(5px);}
			100% {transform: translateY(-5px);}
		}
		.st0{fill:#FF0000;}
		.st1{fill:#FFFFFF;}
	</style>
	<g class="container">
		<ellipse transform="matrix(0.7071 -0.7071 0.7071 0.7071 -159.0581 383.9999)" class="st0" cx="384" cy="384" rx="208.4" ry="208.4"/>
		<path class="st1" d="M384,192c106.2,0,192,85.8,192,192s-85.8,192-192,192s-192-85.8-192-192C192,277.8,277.8,192,384,192L384,192
			z M533.1,325.3L533.1,325.3c0-3.4-1.1-5.6-4.5-7.9l-49.7-28.2c-2.3-1.1-5.6-1.1-7.9,0l-49.7,28.2c-3.4,1.1-4.5,3.4-4.5,6.8v52
			L384,395.3l0-98.3c0-2.3-2.3-5.6-4.5-6.8L329.8,262c-2.3-1.1-5.6-1.1-7.9,0l-49.7,28.2c-3.4,1.1-4.5,3.4-4.5,6.8v169.4
			c0,2.3,2.3,5.6,4.5,6.8l99.4,56.5c2.3,1.1,5.6,1.1,7.9,0l99.4-56.5c3.4-1.1,4.5-3.4,4.5-6.8v-52l45.2-26c3.4-1.1,4.5-3.4,4.5-6.8
			V325.3z"/>
		<path class="st1" d="M518.4,340v37.3l-33.9,18.1V358L518.4,340L518.4,340L518.4,340z M467.6,424.7v37.3l-82.4,47.4v-37.3
			L467.6,424.7L467.6,424.7L467.6,424.7z M285.7,311.7l32.8,19.2v108.4c0,1.1,0,3.4,1.1,4.5s2.3,2.3,3.4,3.4l45.2,26v37.3
			l-82.4-47.4V311.7L285.7,311.7L285.7,311.7z M294.8,297l32.8,19.2l32.8-19.2L327.5,279L294.8,297L294.8,297L294.8,297z
			 M368.2,405.5L368.2,405.5v-93.7l-32.8,19.2v93.7L368.2,405.5L368.2,405.5z M475.5,306.1l-32.8,19.2l32.8,19.2l32.8-19.2
			L475.5,306.1L475.5,306.1L475.5,306.1z M467.6,359.2v36.1l-32.8-19.2v-37.3L467.6,359.2L467.6,359.2L467.6,359.2z M376.1,457.4
			l82.4-47.4l-32.8-19.2l-82.4,47.4L376.1,457.4L376.1,457.4z"/>
	</g>
</svg>
