<svg xmlns="http://www.w3.org/2000/svg"
	 viewBox="0 0 768 768"
	 width="48"
	 height="48"
>
	<style type="text/css">
		.container{
			width: 50%;
			max-width: 300px;
			display: block;
			animation: 5s infinite both i-animation;
			animation-delay: 2s;
		}
		@keyframes i-animation {
			0% {transform: translateY(-5px);}
			50% {transform: translateY(5px);}
			100% {transform: translateY(-5px);}
		}
		.st0{fill:#FFFFFF;}
		.st1{fill:#719E40;}
		.st2{fill:#9ED457;}
		.st3{fill:#415E22;}
	</style>
	<g class="container">
		<ellipse transform="matrix(0.7071 -0.7071 0.7071 0.7071 -159.058 384)" class="st0" cx="384" cy="384" rx="208.4" ry="208.4"/>
		<path class="st1" d="M461.6,427.8c-0.3,0-0.5,0-0.8,0.1c-0.5,0.2-0.9,0.4-1.2,0.7c-0.1,0.1-0.2,0.3-0.2,0.4l0,0l2,6.2l2.3-6.3
			c0-0.1-0.1-0.2-0.2-0.3c-0.3-0.3-0.7-0.5-1.1-0.7C462.2,427.8,461.9,427.8,461.6,427.8z"/>
		<path class="st2" d="M384,192c106,0,192,86,192,192s-86,192-192,192s-192-86-192-192S278,192,384,192L384,192z M449,395.9v-2.3h4.9
			c6.7,0,12.7-2.7,17.1-7.1c4.4-4.4,7.1-10.4,7.1-17.1v-63.5c0-6.7-2.7-12.7-7.1-17.1c-4.4-4.4-10.4-7.1-17.1-7.1h-21.2
			c-1.7,0-3.3,0.1-4.9,0.3c-5.7-5.2-12.2-9.3-19.4-12.2c-7.5-3.1-15.7-4.7-24.3-4.7c-17.9,0-34.1,7.3-45.9,19.1
			c-11,11-18.1,25.9-19,42.5c-9.5,0.3-16.1,2-20.7,5.8c-5.3,4.4-7.5,11.2-7.5,21.2v29.4c0,0.9-0.4,1.7-0.9,2.2
			c-0.6,0.6-1.4,0.9-2.2,0.9c-0.9,0-1.7-0.4-2.2-0.9c-0.6-0.6-0.9-1.4-0.9-2.2v-14.7c0-2.3-0.9-4.3-2.4-5.8c-1.5-1.5-3.6-2.4-5.8-2.4
			h-8.5c-2.3,0-4.3,0.9-5.8,2.4c-1.5,1.5-2.4,3.6-2.4,5.8v22.1c0,5.6,2.3,10.6,5.9,14.3c3.7,3.7,8.7,5.9,14.3,5.9h15.9
			c5.6,0,10.6-2.3,14.3-5.9c3.7-3.7,5.9-8.7,5.9-14.3v-31.7c0-2.2,0.4-3.7,1.2-4.5c0.4-0.4,1-0.7,1.8-0.9v125.6
			c0,6.5,2.7,12.5,7,16.8c4.3,4.3,10.3,7,16.8,7h10.8c4.9,0,9.4-2,12.6-5.2c3.2-3.2,5.2-7.7,5.2-12.6v-18.8c0-3,1.2-5.7,3.2-7.7
			c2-2,4.7-3.2,7.7-3.2c3,0,5.7,1.2,7.7,3.2c2,2,3.2,4.7,3.2,7.7v18.8c0,4.9,2,9.4,5.2,12.6c3.2,3.2,7.7,5.2,12.6,5.2h13.9
			c6.5,0,12.5-2.7,16.8-7c4.3-4.3,7-10.3,7-16.8v-77.7c3.6,1.5,6,3.3,7.5,5.9c1.9,3.4,2.5,8.4,2.6,15.7c-1.2,0.4-2.2,1.1-3.1,2
			c-1,1.1-1.7,2.4-1.7,3.9c0,0.5,0.1,1.1,0.3,1.6l3.6,11.1c0.3,1,1.1,1.6,2,1.9c0.4,0.1,0.9,0.2,1.3,0.2c0.4,0,0.9-0.1,1.3-0.2h0
			c0.9-0.3,1.6-0.9,1.9-1.9l0,0l4.1-11c0.2-0.6,0.3-1.2,0.3-1.8c0-1.4-0.6-2.8-1.6-3.8c-0.8-0.9-1.9-1.6-3.1-2.1l-0.1,0
			c-0.1-8.2-0.9-13.9-3.3-18.2C458.6,400.5,454.8,397.9,449,395.9z"/>
		<path class="st3" d="M446.6,299.5c-1.9,0-3.5-1.6-3.5-3.5c0-1.9,1.6-3.5,3.5-3.5h2.2c5.1,0,9.7,2.1,13,5.4c3.3,3.3,5.4,7.9,5.4,13
			c0,1.9-1.6,3.5-3.5,3.5c-1.9,0-3.5-1.6-3.5-3.5c0-3.2-1.3-6-3.4-8.1c-2.1-2.1-4.9-3.4-8.1-3.4H446.6L446.6,299.5z M449,395.9v-2.3
			h4.9c6.7,0,12.7-2.7,17.1-7.1c4.4-4.4,7.1-10.4,7.1-17.1v-63.5c0-6.7-2.7-12.7-7.1-17.1c-4.4-4.4-10.4-7.1-17.1-7.1h-21.2
			c-1.7,0-3.3,0.1-4.9,0.3c-5.7-5.2-12.2-9.3-19.4-12.2c-7.5-3.1-15.7-4.7-24.3-4.7c-17.9,0-34.1,7.3-45.9,19.1
			c-11,11-18.1,25.9-19,42.5c-9.5,0.3-16.1,2-20.7,5.8c-5.3,4.4-7.5,11.2-7.5,21.2v29.4c0,0.9-0.4,1.7-0.9,2.2
			c-0.6,0.6-1.4,0.9-2.2,0.9c-0.9,0-1.7-0.4-2.2-0.9c-0.6-0.6-0.9-1.4-0.9-2.2v-14.7c0-2.3-0.9-4.3-2.4-5.8c-1.5-1.5-3.6-2.4-5.8-2.4
			h-8.5c-2.3,0-4.3,0.9-5.8,2.4c-1.5,1.5-2.4,3.6-2.4,5.8v22.1c0,5.6,2.3,10.6,5.9,14.3c3.7,3.7,8.7,5.9,14.3,5.9h15.9
			c5.6,0,10.6-2.3,14.3-5.9c3.7-3.7,5.9-8.7,5.9-14.3v-31.7c0-2.2,0.4-3.7,1.2-4.5c0.4-0.4,1-0.7,1.8-0.9v125.6
			c0,6.5,2.7,12.5,7,16.8c4.3,4.3,10.3,7,16.8,7h10.8c4.9,0,9.4-2,12.6-5.2c3.2-3.2,5.2-7.7,5.2-12.6v-18.8c0-3,1.2-5.7,3.2-7.7
			c2-2,4.7-3.2,7.7-3.2c3,0,5.7,1.2,7.7,3.2c2,2,3.2,4.7,3.2,7.7v18.8c0,4.9,2,9.4,5.2,12.6c3.2,3.2,7.7,5.2,12.6,5.2h13.9
			c6.5,0,12.5-2.7,16.8-7c4.3-4.3,7-10.3,7-16.8v-77.7c3.6,1.5,6,3.3,7.5,5.9c1.9,3.4,2.5,8.4,2.6,15.7c-1.2,0.4-2.2,1.1-3.1,2
			c-1,1.1-1.7,2.4-1.7,3.9c0,0.5,0.1,1.1,0.3,1.6l3.6,11.1c0.3,1,1.1,1.6,2,1.9c0.4,0.1,0.9,0.2,1.3,0.2c0.4,0,0.9-0.1,1.3-0.2h0
			c0.9-0.3,1.6-0.9,1.9-1.9l0,0l4.1-11c0.2-0.6,0.3-1.2,0.3-1.8c0-1.4-0.6-2.8-1.6-3.8c-0.8-0.9-1.9-1.6-3.1-2.1l-0.1,0
			c-0.1-8.2-0.9-13.9-3.3-18.2C458.6,400.5,454.8,397.9,449,395.9L449,395.9z M419.3,284.1c-4.1-3.2-8.7-5.8-13.6-7.8
			c-6.7-2.7-14-4.2-21.7-4.2c-15.9,0-30.4,6.5-41,17c-10.5,10.5-17,25-17,41v3.5h-3.5c-9.7,0-16,1.2-19.7,4.3
			c-3.5,2.9-4.9,8-4.9,15.9v29.4c0,2.8-1.1,5.3-3,7.2c-1.8,1.8-4.4,3-7.2,3c-2.8,0-5.3-1.1-7.2-3c-1.8-1.8-3-4.4-3-7.2v-14.7
			c0-0.4-0.1-0.7-0.4-0.9c-0.2-0.2-0.6-0.4-0.9-0.4h-8.5c-0.4,0-0.7,0.1-0.9,0.4c-0.2,0.2-0.4,0.6-0.4,0.9v22.1c0,3.7,1.5,7,3.9,9.4
			c2.4,2.4,5.7,3.9,9.4,3.9h15.9c3.7,0,7-1.5,9.4-3.9c2.4-2.4,3.9-5.7,3.9-9.4v-31.7c0-4.2,1.1-7.3,3.5-9.5c2.3-2.1,5.6-3.1,10-3.1
			h3.5v132.9c0,4.6,1.9,8.8,5,11.9c3.1,3.1,7.3,5,11.9,5h10.8c3,0,5.7-1.2,7.7-3.2c2-2,3.2-4.7,3.2-7.7v-18.8c0-4.9,2-9.4,5.2-12.6
			c3.2-3.2,7.7-5.2,12.6-5.2c4.9,0,9.4,2,12.6,5.2c3.2,3.2,5.2,7.7,5.2,12.6v18.8c0,3,1.2,5.7,3.2,7.7c2,2,4.7,3.2,7.7,3.2h13.9
			c4.6,0,8.8-1.9,11.9-5c3.1-3.1,5-7.3,5-11.9v-85.6h-9.4c-10.9,0-20.7-4.4-27.9-11.6c-7.2-7.2-11.6-17-11.6-27.9
			c0-1.9,1.6-3.5,3.5-3.5c1.9,0,3.5,1.6,3.5,3.5c0,8.9,3.7,17.1,9.6,23c5.9,5.9,14,9.6,23,9.6h21.2c4.7,0,9-1.9,12.2-5.1
			c3.1-3.1,5.1-7.4,5.1-12.2v-63.5c0-4.7-1.9-9-5.1-12.2c-3.1-3.1-7.4-5.1-12.2-5.1h-21.2c-8.9,0-17.1,3.7-23,9.6
			c-5.9,5.9-9.6,14-9.6,23c0,1.9-1.6,3.5-3.5,3.5c-1.9,0-3.5-1.6-3.5-3.5c0-10.9,4.4-20.7,11.6-27.9
			C408.8,289.3,413.7,286,419.3,284.1L419.3,284.1z M461.6,427.8c0.3,0,0.6,0.1,0.9,0.2c0.4,0.2,0.8,0.4,1.1,0.7
			c0.1,0.1,0.2,0.2,0.2,0.3l-2.3,6.3l-2-6.2l0,0c0-0.1,0.1-0.2,0.2-0.4c0.3-0.3,0.7-0.5,1.2-0.7C461.1,427.8,461.4,427.8,461.6,427.8
			L461.6,427.8z M354.2,315.7c3.9,0,7.1,3.2,7.1,7.1c0,3.9-3.2,7.1-7.1,7.1c-3.9,0-7.1-3.2-7.1-7.1
			C347.2,318.9,350.3,315.7,354.2,315.7z"/>
	</g>
</svg>
