<svg xmlns="http://www.w3.org/2000/svg"
	 viewBox="0 0 768 768"
	 width="48"
	 height="48"
>
	<style type="text/css">
		.container{
			width: 50%;
			max-width: 300px;
			display: block;
			animation: 5s infinite both i-animation;
			animation-delay: 2s;
		}
		@keyframes i-animation {
			0% {transform: translateY(-48px);}
			50% {transform: translateY(48px);}
			100% {transform: translateY(-48px);}
		}
	</style>
	<g class="container">
		<path fill="#FFFFFF" fill-rule="evenodd" d="M384,112c150.4,0,272,121.6,272,272S534.4,656,384,656S112,534.4,112,384S233.6,112,384,112L384,112z
			 M345.11,294.86c-5.09,0-9.14,4.18-9.27,9.27c0,5.09,4.18,9.27,9.27,9.27c5.09,0,9.27-4.18,9.27-9.27
			C354.37,299.03,350.2,294.86,345.11,294.86L345.11,294.86z M485.28,441.17L485.28,441.17c-0.26,0-0.65,0-0.91,0.26
			c-0.65,0.26-1.17,0.52-1.57,0.91c-0.13,0.26-0.26,0.39-0.26,0.52l0,0l2.61,8.09l3-8.22c0-0.13-0.13-0.26-0.26-0.39
			c-0.39-0.39-0.91-0.65-1.44-0.91C486.07,441.3,485.67,441.17,485.28,441.17L485.28,441.17z M468.84,399.53v-3h6.4
			c8.74,0,16.58-3.52,22.32-9.27c5.74-5.74,9.27-13.57,9.27-22.32v-82.88c0-8.74-3.52-16.58-9.27-22.32
			c-5.74-5.74-13.57-9.27-22.32-9.27h-27.67c-2.22,0-4.31,0.13-6.4,0.39c-7.44-6.79-15.92-12.14-25.32-15.92
			c-9.79-4.05-20.49-6.13-31.72-6.13c-23.36,0-44.51,9.53-59.91,24.93c-14.36,14.36-23.62,33.8-24.8,55.47
			c-12.4,0.39-21.01,2.61-27.02,7.57c-6.92,5.74-9.79,14.62-9.79,27.67v38.37c0,1.17-0.52,2.22-1.17,2.87
			c-0.78,0.78-1.83,1.17-2.87,1.17c-1.17,0-2.22-0.52-2.87-1.17c-0.78-0.78-1.17-1.83-1.17-2.87v-19.19c0-3-1.18-5.61-3.13-7.57
			c-1.96-1.96-4.7-3.13-7.57-3.13h-11.09c-3,0-5.61,1.17-7.57,3.13c-1.96,1.96-3.13,4.7-3.13,7.57v28.84c0,7.31,3,13.83,7.7,18.66
			c4.83,4.83,11.36,7.7,18.66,7.7h20.75c7.31,0,13.83-3,18.66-7.7c4.83-4.83,7.7-11.36,7.7-18.66v-41.37c0-2.87,0.52-4.83,1.57-5.87
			c0.52-0.52,1.31-0.91,2.35-1.17v163.93c0,8.48,3.52,16.32,9.14,21.93c5.61,5.61,13.44,9.14,21.93,9.14h14.1
			c6.4,0,12.27-2.61,16.45-6.79c4.18-4.18,6.79-10.05,6.79-16.45v-24.54c0-3.92,1.57-7.44,4.18-10.05c2.61-2.61,6.13-4.18,10.05-4.18
			c3.92,0,7.44,1.57,10.05,4.18c2.61,2.61,4.18,6.13,4.18,10.05v24.54c0,6.4,2.61,12.27,6.79,16.45c4.18,4.18,10.05,6.79,16.45,6.79
			h18.14c8.48,0,16.32-3.52,21.93-9.14c5.61-5.61,9.14-13.44,9.14-21.93V406.58c4.7,1.96,7.83,4.31,9.79,7.7
			c2.48,4.44,3.26,10.96,3.39,20.49c-1.57,0.52-2.87,1.44-4.05,2.61c-1.31,1.44-2.22,3.13-2.22,5.09c0,0.65,0.13,1.44,0.39,2.09
			l4.7,14.49c0.39,1.31,1.44,2.09,2.61,2.48c0.52,0.13,1.17,0.26,1.7,0.26c0.52,0,1.17-0.13,1.7-0.26l0,0
			c1.17-0.39,2.09-1.18,2.48-2.48l0,0l5.35-14.36c0.26-0.78,0.39-1.57,0.39-2.35c0-1.83-0.78-3.65-2.09-4.96
			c-1.04-1.17-2.48-2.09-4.05-2.74h-0.13c-0.13-10.7-1.17-18.14-4.31-23.75C481.37,405.54,476.41,402.14,468.84,399.53L468.84,399.53
			L468.84,399.53z M465.71,276.71l2.74-0.13c4.18,0,7.83-1.3,10.57,1.44c2.74,2.74,1.42,7.2,1.42,11.38c0,2.48,2.09,4.57,4.57,4.57
			s4.57-2.09,4.57-4.57c0-6.66,0.28-13.47-4.03-17.78c-4.31-4.31-10.31-4.05-16.97-4.05l-2.87,0c-2.48,0-4.57,2.09-4.57,4.57
			C461.14,274.62,463.23,276.71,465.71,276.71L465.71,276.71z M485.28,441.17c-0.39,0-0.65,0-1.04,0.13
			c-0.65,0.26-1.17,0.52-1.57,0.91c-0.13,0.13-0.26,0.39-0.26,0.52l0,0l2.61,8.09l3-8.22c0-0.13-0.13-0.26-0.26-0.39
			c-0.39-0.39-0.91-0.65-1.44-0.91C486.07,441.17,485.67,441.17,485.28,441.17L485.28,441.17z M422.4,252.79
			c-0.84-0.53-1.7-1.04-2.57-1.54c-2.86-1.64-5.84-3.09-8.92-4.34l0-0.01c-4.21-1.7-8.61-3.01-13.18-3.89c-4.42-0.85-9-1.3-13.73-1.3
			c-9.68,0-18.94,1.94-27.39,5.44c-8.81,3.65-16.78,9-23.48,15.64l0.01,0.01c-6.65,6.65-12,14.57-15.64,23.37
			c-3.51,8.46-5.44,17.75-5.44,27.49v8.3l-8.32,0v0.01c-6.1,0-11.08,0.36-15.03,1.2c-3.62,0.77-6.35,1.91-8.28,3.53l-0.01,0.01
			c-1.69,1.4-2.9,3.42-3.71,6.11c-0.92,3.05-1.32,6.95-1.32,11.75v38.37c0,15.93-2.29,17.06-17.06,17.06
			c-13.68,0-17.06-2.23-17.06-17.06v-17.15l-6.99,0v26.81c0,1.86,0.36,3.62,1.02,5.2c0.69,1.66,1.71,3.16,2.97,4.42
			c1.27,1.27,2.76,2.28,4.42,2.97c1.58,0.66,3.33,1.02,5.2,1.02v0.01l20.75,0v-0.01c1.86,0,3.62-0.36,5.2-1.02
			c1.66-0.69,3.15-1.71,4.42-2.97c1.27-1.27,2.28-2.76,2.97-4.42c0.66-1.58,1.02-3.33,1.02-5.2v-41.38c0-18.76,1.28-20.2,21.37-20.2
			h8.32v177.21c0,2.44,0.49,4.77,1.39,6.91c0.94,2.23,2.32,4.25,4.04,5.97c3.36,3.36,7.91,5.43,12.88,5.43h14.1
			c1.43,0,2.78-0.28,4-0.78c1.26-0.52,2.41-1.31,3.4-2.3c0.99-0.99,1.77-2.14,2.3-3.4c0.51-1.22,0.78-2.57,0.78-4v-24.54
			c0-3.62,0.73-7.12,2.06-10.32c1.37-3.33,3.37-6.32,5.83-8.77c2.46-2.46,5.44-4.45,8.77-5.83c3.21-1.32,6.7-2.06,10.32-2.06
			c3.62,0,7.12,0.73,10.32,2.06c3.33,1.37,6.32,3.37,8.77,5.83c2.46,2.46,4.45,5.44,5.83,8.77c1.32,3.21,2.06,6.7,2.06,10.32v24.54
			c0,1.43,0.28,2.78,0.78,4c0.52,1.26,1.31,2.41,2.3,3.4c0.99,0.99,2.14,1.77,3.4,2.3c1.22,0.51,2.57,0.78,4,0.78h18.14
			c2.44,0,4.77-0.49,6.91-1.39c2.23-0.94,4.25-2.32,5.97-4.04c1.72-1.72,3.1-3.75,4.04-5.97c0.9-2.14,1.39-4.47,1.39-6.91V400.27
			l-8.52,0v0.01c-7.48,0-14.6-1.49-21.11-4.19c-6.76-2.81-12.83-6.92-17.96-12.04c-5.12-5.12-9.24-11.2-12.04-17.96
			c-2.71-6.51-4.19-13.63-4.19-21.11c0-2.27,0.95-4.34,2.45-5.85v-0.01c1.51-1.51,3.59-2.45,5.87-2.45c2.26,0,4.34,0.95,5.86,2.46
			l0.01-0.01c1.51,1.51,2.45,3.59,2.45,5.87c0,5.2,1.06,10.19,2.96,14.75c1.98,4.74,4.88,9.03,8.47,12.62
			c3.6,3.6,7.88,6.51,12.61,8.49c4.53,1.89,9.51,2.94,14.75,2.94v0.01l27.67,0v-0.01c2.53,0,4.94-0.5,7.15-1.42
			c2.27-0.95,4.34-2.35,6.12-4.13c1.75-1.75,3.17-3.82,4.13-6.13c0.91-2.19,1.43-4.6,1.43-7.14v-82.88c0-2.53-0.5-4.95-1.42-7.15
			c-0.95-2.27-2.35-4.34-4.13-6.12c-1.75-1.75-3.82-3.17-6.13-4.13c-2.19-0.91-4.6-1.43-7.14-1.43v-0.01l-27.67,0v0.01
			c-5.2,0-10.19,1.06-14.75,2.96c-4.74,1.98-9.03,4.88-12.62,8.47c-3.6,3.6-6.51,7.88-8.49,12.61c-1.89,4.53-2.94,9.51-2.94,14.75
			c0,2.27-0.95,4.36-2.45,5.87c-1.51,1.51-3.59,2.45-5.87,2.45c-2.27,0-4.36-0.95-5.87-2.45s-2.45-3.59-2.45-5.87
			c0-7.48,1.49-14.6,4.19-21.11c2.81-6.76,6.92-12.83,12.04-17.96l0.1-0.09c2.98-2.77,6.16-5.3,9.56-7.46
			C419.27,254.47,420.81,253.59,422.4,252.79z"/>
	</g>
</svg>
