<svg xmlns="http://www.w3.org/2000/svg"
	 viewBox="0 0 768 768"
	 width="48"
	 height="48"
>
	<style type="text/css">
		.container{
			width: 50%;
			max-width: 300px;
			display: block;
			animation: 5s infinite both i-animation;
			animation-delay: 0.5s;
		}
		@keyframes i-animation {
			0% {transform: translateY(-48px);}
			50% {transform: translateY(48px);}
			100% {transform: translateY(-48px);}
		}
	</style>
	<g class="container">
		<path fill="#FFFFFF" d="M206.4,416c0-9.6,8-22.4,20.8-22.4c12.8,0,20.8,9.6,20.8,19.2c0,16-11.2,16-11.2,25.6c0,9.6,8,14.4,27.2,14.4
			c19.2,0,30.4-9.6,30.4-25.6c0-28.8-44.8-33.6-44.8-81.6c0-32,30.4-57.6,67.2-57.6c30.4,0,52.8,17.6,76.8,43.2
			c19.2-64,59.2-115.2,115.2-115.2c24,0,46.4,14.4,46.4,32c0,16-8,25.6-22.4,25.6c-12.8,0-22.4-6.4-22.4-19.2c0-9.6,8-11.2,8-17.6
			c0-8-6.4-11.2-14.4-11.2c-22.4,0-54.4,32-65.6,126.4c20.8,6.4,57.6-3.2,57.6-16c0-8-9.6-3.2-9.6-17.6c0-8,8-16,19.2-16
			c12.8,0,17.6,8,17.6,19.2c0,28.8-48,51.2-86.4,40c-14.4,144-78.4,220.8-144,220.8c-27.2,0-43.2-17.6-43.2-35.2
			c0-17.6,11.2-27.2,27.2-27.2c17.6,0,25.6,11.2,25.6,22.4c0,17.6-16,11.2-16,19.2c0,4.8,3.2,9.6,12.8,8c56-16,59.2-136,89.6-228.8
			c-20.8-19.2-43.2-41.6-67.2-41.6c-19.2,0-27.2,14.4-27.2,27.2c0,24,44.8,36.8,44.8,83.2c0,36.8-33.6,56-65.6,56
			C241.6,468.8,206.4,448,206.4,416L206.4,416L206.4,416z M384,112c-150.4,0-270.4,121.6-270.4,272c0,150.4,121.6,270.4,272,270.4
			c150.4,0,270.4-121.6,270.4-272C656,233.6,534.4,112,384,112z"/>
	</g>
</svg>
