<svg xmlns="http://www.w3.org/2000/svg"
	 viewBox="0 0 768 768"
	 width="64"
	 height="64"
>
	<style type="text/css">
		.container{
			width: 50%;
			max-width: 300px;
			display: block;
			animation: 5s infinite both i-animation;
			animation-delay: 0.5s;
		}
		@keyframes i-animation {
			0% {transform: translateY(-64px);}
			50% {transform: translateY(64px);}
			100% {transform: translateY(-64px);}
		}
		.st0{fill:#FFFFFF;}
		.st1{fill:#000000;}
	</style>
	<g class="container">
		<ellipse transform="matrix(0.7071 -0.7071 0.7071 0.7071 -159.0581 383.9999)" class="st0" cx="384" cy="384" rx="208.4" ry="208.4"/>
		<path class="st1" d="M384,192c-106.1,0-192,85.9-192,192s85.9,192,192,192s192-85.9,192-192S490.1,192,384,192L384,192z
			 M487.5,303.1c-8.9,0.3-15-5-15.3-13.1c-0.2-7.1,5.2-10.4,5.1-14.6c-0.2-5.1-7.9-5.3-10-5.2c-30.8,1-37.6,44.1-45.6,88.1
			c16.6,2.4,28.4-0.6,34.9-4.8c9.3-6-2.6-12.2-1.1-19c3.1-14.1,25.2-14.7,24.8,4.1c-0.3,13.8-20.1,32.4-60.1,27.6
			c-8.3,46.1-14.2,89-45.1,125.2c-22.5,26.7-45.2,30.8-55.4,31.2c-19.1,0.7-31.7-9.5-32.2-23.1c-0.4-13.2,11.2-20.3,18.8-20.6
			c16.9-0.6,23.3,19.9,11.5,26.3c-9.4,7.5,0.1,9.8,1.6,9.7c8.1-0.3,13.4-4.3,17.2-7c18.6-15.5,25.7-42.5,35.1-91.6
			c6.3-38.4,13.2-60.4,14.1-63.5c-13.1-9.9-21-22.1-38.6-26.9c-12.1-3.3-19.4-0.5-24.6,6.1c-6.1,7.7-4.1,17.8,1.8,23.8l9.8,10.8
			c12,13.9,18.6,24.7,16.1,39.2c-3.9,23.2-31.5,41-64.2,30.9c-27.9-8.6-33.1-28.3-29.7-39.2c5.8-18.7,32.8-9.1,26.8,10.5
			c-2.2,6.7-3.8,6.7-4.9,10.1c-3.5,11.4,32.4,22,39.5-1.1c3.5-11.2-4.1-16.8-17.2-30.9c-22-24.6-12.4-50.7,2.3-61.7
			c40.9-30.5,77.8,13.6,85.6,20c28.8-84.4,77.8-81.6,79.3-81.7c19.5-0.6,34.2,8.2,34.7,22.2C502.8,291.2,499.4,302.7,487.5,303.1z"/>
	</g>
</svg>
