<svg xmlns="http://www.w3.org/2000/svg"
	 viewBox="0 0 768 768"
	 width="48"
	 height="48"
>
	<style type="text/css">
		.container{
			width: 50%;
			max-width: 300px;
			display: block;
			animation: 5s infinite both i-animation;
			animation-delay: 1.5s;
		}
		@keyframes i-animation {
			0% {transform: translateY(-5px);}
			50% {transform: translateY(5px);}
			100% {transform: translateY(-5px);}
		}
		.st0{fill:none;}
		.st1{fill:#666666;}
		.st2{fill:#EB9B54;}
		.st3{fill:#9ACA55;}
		.st4{fill:#3678BF;}
	</style>
	<g class="container">
		<path class="st0" d="M370.5,401.7c-10.1-3.4-19.2-5.6-29.3-9c-97-27.1-135.3-51.9-135.3-160.1c25.9-12.4,45.1-18,75.6-18
			c29.3,0,56.4,7.9,81.2,22.6c16.9,9,31.6,21.4,45.1,36.1c3.4-16.9,12.4-32.7,23.7-44c21.4-23.7,51.9-37.2,65.4-37.2
			c13.5,0,36.1,16.9,49.6,42.9c10.1,16.9,16.9,38.3,16.9,60.9c0,64.3-48.5,111.6-88,156.7c-2.3,27.1-14.7,50.7-32.7,69.9
			c5.6,0,10.1,0,14.7,1.1c29.3,2.3,47.4,10.1,47.4,24.8c0,14.7-21.4,22.6-56.4,24.8c-24.8,1.1-57.5,2.3-93.6,2.3
			c-36.1,0-68.8-1.1-93.6-2.3c-35-2.3-56.4-10.1-56.4-24.8c0-14.7,19.2-22.6,50.7-24.8c15.8-1.1,37.2-2.3,62-2.3
			C318.6,471.7,342.3,439,370.5,401.7z"/>
		<g>
			<path class="st2" d="M281.2,234.6c-19.2,0-39.5,3.4-56.5,11.3c0,115.2,88.1,115.2,159.2,141.2c33.9,11.3,61,26,76.8,64.4
				C459.6,347.6,381.7,234.6,281.2,234.6z"/>
			<path class="st3" d="M426.9,299c0-3.4-1.1-6.8-1.1-10.2c0-47.4,54.2-76.8,71.2-76.8c13.6,0,47.4,40.7,47.4,83.6
				c0,52-38.4,93.7-71.2,129.9c-1.1-19.2-5.6-38.4-11.3-56.5c-7.9-22.6-19.2-45.2-35-67.8L426.9,299z"/>
			<path class="st4" d="M391.8,406.3c-28.2,39.5-66.6,89.2-50.8,142.3c44,0,98.3-30.5,112.9-82.4C434.8,435.7,425.7,421,391.8,406.3z
				"/>
			<path class="st1" d="M417.8,540.7c40.7,1.1,67.8,3.4,67.8,6.8c0,3.4-40.7,6.8-94.9,7.9C400.9,550.9,408.8,546.4,417.8,540.7
				L417.8,540.7L417.8,540.7z M325.2,555.4c-57.6-1.1-100.5-3.4-100.5-7.9c0-3.4,40.7-6.8,97.1-7.9
				C321.8,545.2,322.9,550.9,325.2,555.4z"/>
		</g>
	</g>
</svg>
