<svg xmlns="http://www.w3.org/2000/svg"
	 viewBox="0 0 768 768"
	 width="48"
	 height="48"
>
	<style type="text/css">
		.container{
			width: 50%;
			max-width: 300px;
			display: block;
			animation: 5s infinite both i-animation;
			animation-delay: 1.5s;
		}
		@keyframes i-animation {
			0% {transform: translateY(-48px);}
			50% {transform: translateY(48px);}
			100% {transform: translateY(-48px);}
		}
	</style>
	<g class="container">
		<path fill="#333333" d="M432,606.4c57.6,1.6,96,4.8,96,9.6c0,4.8-57.6,9.6-134.4,11.2C408,620.8,419.2,614.4,432,606.4L432,606.4
			L432,606.4z M300.8,627.2c-81.6-1.6-142.4-4.8-142.4-11.2c0-4.8,57.6-9.6,137.6-11.2C296,612.8,297.6,620.8,300.8,627.2
			L300.8,627.2z M395.2,416c-40,56-94.4,126.4-72,201.6c62.4,0,139.2-43.2,160-116.8C456,457.6,443.2,436.8,395.2,416L395.2,416z
			 M238.4,172.8c142.4,0,252.8,160,254.4,307.2c-22.4-54.4-60.8-75.2-108.8-91.2C283.2,352,158.4,352,158.4,188.8
			C182.4,177.6,211.2,172.8,238.4,172.8L238.4,172.8z M444.8,264c0-4.8-1.6-9.6-1.6-14.4c0-67.2,76.8-108.8,100.8-108.8
			c19.2,0,67.2,57.6,67.2,118.4c0,73.6-54.4,132.8-100.8,184c-1.6-27.2-8-54.4-16-80c-11.2-32-27.2-64-49.6-96L444.8,264z"/>
	</g>
</svg>
