<svg xmlns="http://www.w3.org/2000/svg"
	 viewBox="0 0 768 768"
	 width="48"
	 height="48"
>
	<style type="text/css">
		.container{
			width: 50%;
			max-width: 300px;
			display: block;
			animation: 5s infinite both i-animation;
			animation-delay: 0.5s;
		}
		@keyframes i-animation {
			0% {transform: translateY(-48px);}
			50% {transform: translateY(48px);}
			100% {transform: translateY(-48px);}
		}
	</style>
	<g class="container">
		<path fill="#333333" d="M344.2,97.43L344.2,97.43l192.92,184.08l0,0c32.2,31.65,55,73.52,62.74,121.34l2.76,34.69
			c0,117.33-92.59,213.79-209.92,218.49c-117.19,4.7-217.25-84.02-226.64-201.08c-8.43-106.14,60.39-201.08,160.17-228.3L270.54,174
			v-0.14c-9.26-8.98-14.93-21.01-15.89-33.86c-2.21-28.47,18.24-53.48,46.57-56.94C317.53,81.27,333.15,86.93,344.2,97.43
			L344.2,97.43L344.2,97.43L344.2,97.43z M381.93,297.82L381.93,297.82c-6.63-7.05-16.03-11.06-25.7-11.06
			c-1.38,0-2.9,0.14-4.28,0.28c-18.93,2.21-32.61,19.07-31.09,37.87c0.69,9.12,4.98,17.69,11.89,23.77l54.45,54.45
			c-39.66,0-79.19,0.14-118.85,0h-0.41c-1.11,0-2.35,0.14-3.45,0.28c-16.86,2.07-29.16,17-27.92,34
			c1.38,16.72,15.34,29.44,32.06,29.16l0,0H388.7l-57.9,57.9l0,0c-6.77,6.63-10.64,15.75-10.64,25.29c0,0.97,0,1.93,0.14,2.9
			c1.52,18.93,17.83,33.44,36.9,32.61c8.98-0.41,17.55-4.15,23.91-10.5l114.15-115.12c6.91-5.94,10.78-14.65,10.78-23.77l0,0
			l-0.41-4.98c-1.11-7.32-4.84-13.96-10.36-18.79L381.93,297.82z"/>
	</g>
</svg>
