<svg xmlns="http://www.w3.org/2000/svg"
	 viewBox="0 0 768 768"
	 width="48"
	 height="48"
>
	<style type="text/css">
		.container{
			width: 50%;
			max-width: 300px;
			display: block;
			animation: 5s infinite both i-animation;
			animation-delay: 1s;
		}
		@keyframes i-animation {
			0% {transform: translateY(-48px);}
			50% {transform: translateY(48px);}
			100% {transform: translateY(-48px);}
		}
	</style>
	<g class="container">
		<path fill="#FFFFFF" d="M639.03,487.71V471.4c-11.21,9.94-27.29,18.73-47.32,26.11c1.22,1.28,2.3,2.63,3.22,4.01l0.09,0.09
			c0.77,1.16,1.48,2.4,2.1,3.71l24.66-14.01l1.13-0.66c4.12-2.06,8.86-3.09,13.31-3.09C637.15,487.57,638.09,487.61,639.03,487.71
			L639.03,487.71z M128.97,471.4v87.55c0,45,114.18,81.48,255.03,81.48c32.26,0,63.12-1.92,91.53-5.41c-0.38-1.8-0.59-3.62-0.59-5.43
			V521.81c-28.38,2.98-59.02,4.6-90.94,4.6c-72,0-137.5-8.28-185.21-21.65C168.15,496.17,144.11,484.83,128.97,471.4L128.97,471.4z
			 M128.97,330.76c15.14,13.43,39.18,24.77,69.82,33.36C246.5,377.49,312,385.77,384,385.77c72,0,137.5-8.28,185.21-21.65
			c30.64-8.59,54.68-19.93,69.82-33.36v87.55c0,23.32-30.67,44.35-79.83,59.21l-7.3-4.15l-1.13-0.56c-4.25-2.12-8.97-3.19-13.31-3.19
			c-4.33,0-9.06,1.06-13.31,3.19l-1.13,0.56l-28.7,16.3l-5.11,2.88c-32.08,4.65-67.71,7.24-105.23,7.24
			c-140.85,0-255.03-36.48-255.03-81.48V330.76L128.97,330.76z M384,127.57c-140.85,0-255.03,32.02-255.03,71.52v78.56
			c0,45,114.18,81.48,255.03,81.48c140.85,0,255.03-36.48,255.03-81.48v-78.56C639.03,159.59,524.85,127.57,384,127.57L384,127.57z
			 M384,149.43c114.91,0,208.06,20.93,208.06,46.74S498.91,242.91,384,242.91c-114.91,0-208.06-20.93-208.06-46.74
			S269.09,149.43,384,149.43z"/>
		<path fill="#FFFFFF" class="st1" d="M674.76,536.07v37.41c0,2.24-0.75,3.74-2.99,4.49l-29.93,17.21v34.42c0,2.24-0.75,3.74-2.99,4.49l-65.84,37.41
			c-1.5,0.75-3.74,0.75-5.24,0l-65.84-37.41c-1.5-0.75-2.99-2.99-2.99-4.49V517.36c0-2.24,0.75-3.74,2.99-4.49l32.92-18.7
			c1.5-0.75,3.74-0.75,5.24,0l32.92,18.7c1.5,0.75,2.99,2.99,2.99,4.49v65.09l21.7-12.72v-34.42c0-2.24,0.75-3.74,2.99-4.49
			l32.92-18.7c1.5-0.75,3.74-0.75,5.24,0l32.92,18.7C674.01,532.33,674.76,533.82,674.76,536.07L674.76,536.07L674.76,536.07
			L674.76,536.07z M665.03,545.79L665.03,545.79L665.03,545.79l-22.45,11.97v24.69l22.45-11.97V545.79L665.03,545.79z M631.36,601.91
			L631.36,601.91L631.36,601.91l-54.62,31.42v24.69l54.62-31.42V601.91L631.36,601.91z M510.91,527.09L510.91,527.09L510.91,527.09
			v100.25l54.62,31.42v-24.69l-29.93-17.21c-0.75-0.75-1.5-1.5-2.24-2.24c-0.75-0.75-0.75-2.24-0.75-2.99v-71.82L510.91,527.09
			L510.91,527.09z M516.89,517.36l21.7,12.72l21.7-12.72l-21.7-11.97L516.89,517.36L516.89,517.36L516.89,517.36L516.89,517.36z
			 M565.53,589.19L565.53,589.19L565.53,589.19v-62.1l-21.7,12.72v62.1L565.53,589.19L565.53,589.19z M636.6,523.35l-21.7,12.72
			l21.7,12.72l21.7-12.72L636.6,523.35L636.6,523.35L636.6,523.35L636.6,523.35z M631.36,558.51L631.36,558.51L631.36,558.51
			l-21.7-13.47v24.69l21.7,12.72V558.51L631.36,558.51z M570.76,623.6l54.62-31.42l-21.7-12.72l-54.62,31.42L570.76,623.6
			L570.76,623.6L570.76,623.6z"/>
	</g>
</svg>
