<svg xmlns="http://www.w3.org/2000/svg"
	 viewBox="0 0 768 768"
	 width="48"
	 height="48"
>
	<style type="text/css">
		.container{
			width: 50%;
			max-width: 300px;
			display: block;
			animation: 5s infinite both i-animation;
			animation-delay: 1.5s;
		}
		@keyframes i-animation {
			0% {transform: translateY(-48px);}
			50% {transform: translateY(48px);}
			100% {transform: translateY(-48px);}
		}
	</style>
	<g class="container">
		<path fill="#FFFFFF" d="M606.21,526.51L419.19,129.37v-0.01c-4.73-9.96-14.56-16.52-25.57-17.09c-11.38-0.66-21.58,4.83-27.33,14.17
			L163.46,454.96c-3.02,4.86-4.62,10.48-4.62,16.21c0,5.95,1.73,11.78,4.98,16.77l99.15,153.59c5.91,9.17,16.15,14.47,26.79,14.47
			c3.02,0,6.05-0.42,9.03-1.31l287.8-85.12c8.77-2.56,15.99-8.81,19.8-17.11c1.83-4.01,2.78-8.38,2.78-12.79
			C609.16,535.12,608.15,530.61,606.21,526.51L606.21,526.51L606.21,526.51z M564.34,543.54l-244.19,72.22
			c-7.46,2.21-14.61-4.24-13.04-11.77l87.24-417.78c1.63-7.81,12.43-9.05,15.84-1.81L571.7,527.4
			C574.75,533.87,571.27,541.5,564.34,543.54L564.34,543.54z"/>
	</g>
</svg>
