<svg xmlns="http://www.w3.org/2000/svg"
	 viewBox="0 0 768 768"
	 width="48"
	 height="48"
>
	<style type="text/css">
		.container{
			width: 50%;
			max-width: 300px;
			display: block;
			animation: 5s infinite both i-animation;
			animation-delay: 2s;
		}
		@keyframes i-animation {
			0% {transform: translateY(-48px);}
			50% {transform: translateY(48px);}
			100% {transform: translateY(-48px);}
		}
	</style>
	<g class="container">
		<path fill="#FFFFFF" d="M384,127.57c-140.85,0-255.03,32.02-255.03,71.52v78.56c0,45,114.18,81.48,255.03,81.48
			c140.85,0,255.03-36.48,255.03-81.48v-78.56C639.03,159.59,524.85,127.57,384,127.57L384,127.57z M384,149.43
			c114.91,0,208.06,20.93,208.06,46.74S498.91,242.91,384,242.91c-114.91,0-208.06-20.93-208.06-46.74S269.09,149.43,384,149.43
			L384,149.43z M128.97,330.76c15.14,13.43,39.18,24.77,69.82,33.36C246.5,377.49,312,385.77,384,385.77
			c72,0,137.5-8.28,185.21-21.65c30.64-8.59,54.68-19.93,69.82-33.36v87.54c0,6.59-2.46,13-7.09,19.13
			c-10.05,4.83-20.86,12.06-29.47,21.36c-0.87,0.94-1.73,1.91-2.57,2.89c-6.71,3.4-14.17,6.63-22.33,9.66
			c-21.7-15.57-46.95-24.95-74.37-24.95c-8.57,0-17.45,0.8-26.11,2.53c-8.09,1.62-16.22,4.18-24.02,7.81l-13.88,6.47v15.18
			c0,6.92,0.34,13.37,0.99,19.4c-18.08,1.3-36.88,1.99-56.19,1.99c-140.85,0-255.03-36.48-255.03-81.48V330.76L128.97,330.76z
			 M128.97,471.4v87.55c0,45,114.18,81.48,255.03,81.48c55.02,0,105.97-5.57,147.63-15.03c5.33-10.67,11.8-20.73,18.36-30.21
			c-2.81-0.82-5.66-1.64-8.51-2.46c-40.53-11.64-80.37-23.08-95.7-68.4c-19.84,1.36-40.53,2.08-61.79,2.08
			c-72,0-137.5-8.28-185.21-21.65C168.15,496.17,144.11,484.83,128.97,471.4z"/>
		<path fill="#FFFFFF" d="M600,687.2c28.8,0.8,48,2.4,48,4.8c0,2.4-28.8,4.8-67.2,5.6C588,694.4,593.6,691.2,600,687.2L600,687.2
			L600,687.2z M534.4,697.6c-40.8-0.8-71.2-2.4-71.2-5.6c0-2.4,28.8-4.8,68.8-5.6C532,690.4,532.8,694.4,534.4,697.6L534.4,697.6z
			 M581.6,592c-20,28-47.2,63.2-36,100.8c31.2,0,69.6-21.6,80-58.4C612,612.8,605.6,602.4,581.6,592L581.6,592z M503.2,470.4
			c71.2,0,126.4,80,127.2,153.6c-11.2-27.2-30.4-37.6-54.4-45.6c-50.4-18.4-112.8-18.4-112.8-100
			C475.2,472.8,489.6,470.4,503.2,470.4L503.2,470.4z M606.4,516c0-2.4-0.8-4.8-0.8-7.2c0-33.6,38.4-54.4,50.4-54.4
			c9.6,0,33.6,28.8,33.6,59.2c0,36.8-27.2,66.4-50.4,92c-0.8-13.6-4-27.2-8-40c-5.6-16-13.6-32-24.8-48L606.4,516z"/>
	</g>
</svg>
