<svg xmlns="http://www.w3.org/2000/svg"
	 viewBox="0 0 768 768"
	 width="48"
	 height="48"
>
	<style type="text/css">
		.container{
			width: 50%;
			max-width: 300px;
			display: block;
			animation: 5s infinite both i-animation;
			animation-delay: 0.5s;
		}
		@keyframes i-animation {
			0% {transform: translateY(-48px);}
			50% {transform: translateY(48px);}
			100% {transform: translateY(-48px);}
		}
	</style>
	<g class="container">
		<path fill="#FFFFFF" d="M478.69,128.21c-24.4,14.4-71.6,83.2-83.3,101.2c-37.6,57.6-75,126.7-89,195.9l6.7,17.1l-7.2-14.3
			c-2.4,12.5-4.3,24.4-5.2,37.1c0,0.4-0.1,0.8-0.1,1.2c-5.9-9.5-21.8-18.7-21.7-18.6c11.3,16.4,20,32.8,21.2,48.8
			c-6.1,1.2-14.4-0.6-24-4.1c10,9.2,17.6,11.8,20.5,12.4c-9.2,0.6-18.8,6.9-28.5,14.2c14.1-5.8,25.5-8,33.7-6.2
			c-13,36.7-26,77.2-39,120.2c4-1.2,6.4-3.8,7.7-7.5c18.8-63.3,40.7-124.6,64.2-186.2c36.5-94.1,86.2-214.2,152.5-285.3
			c0.8-0.9,1.2-1.3,1.2-1.3c-17.8,19.3-31.6,42-45,64.4c-41.6,70.3-75.4,148.7-104.2,224.9c-9.6,24.5-18.4,49.9-26.9,74.8
			c5.6,2.5,10,9.2,14.2,16.8c-0.5-7.8-3.7-15.2-9.9-20.9c27.4,1.2,51-5.7,63.2-25.7c1.1-1.8,2.1-3.7,3-5.7c-5.5,7-12.4,10-25.4,9.3
			h-0.1h0.1c19.1-8.5,28.6-16.7,37.1-30.3c2-3.2,3.9-6.7,5.9-10.6c-16.7,17.1-36,22-56.3,18.3c16.4-1.7,43.7-18.3,57.3-32.9
			c20.8-22.3,33.5-53.4,42.8-82c-5.7,3-20,5.9-20,5.9c17-6.5,27.7-19.2,35.5-34.6c-7.1,4.8-15.6,8.4-24.1,9.6
			c-0.3,0.1-0.6,0.1-0.9,0.1l0,0l0,0l0,0l0,0l0,0c14.5-6.1,24.4-14.3,31.6-28.7c4-8,9.4-20.4,10.9-29.6c-8,7-16.4,9.4-25.3,8.9
			c0.1,0,0.2-0.1,0.3-0.2h0.1c14-6.4,20.2-12.2,26.3-20.6c1.6-2.3,3.2-4.7,4.8-7.2c4.9-7.7,9.8-16.1,14.1-24.6
			c4.2-8.1,7.8-16.2,10.7-23.4c1.8-4.6,3.2-8.9,4.2-12.7c0.9-3.3,1.6-6.5,2.1-9.5l0,0c5.5-31.1-5.4-45.3-5.4-45.3
			S494.99,118.51,478.69,128.21z"/>
	</g>
</svg>
