<svg xmlns="http://www.w3.org/2000/svg"
	 viewBox="0 0 768 768"
	 width="48"
	 height="48"
>
	<style type="text/css">
		.container{
			width: 50%;
			max-width: 300px;
			display: block;
			animation: 5s infinite both i-animation;
			animation-delay: 2s;
		}
		@keyframes i-animation {
			0% {transform: translateY(-48px);}
			50% {transform: translateY(48px);}
			100% {transform: translateY(-48px);}
		}
	</style>
	<g class="container">
		<path fill="#FFFFFF" d="M384,112c150.25,0,272.04,121.79,272.04,272.04c0,69.44-31.46,131.84-45.03,149.99v-32.89
			c0-33.03-24.02-60.31-55.48-65.66l0.13-87.33c0-53.78-16.58-94.9-48.69-122.18c-30.02-25.58-72.58-38.38-125.58-39.03
			c-109-1.44-174.79,54.56-174.79,159.64l0,0v88.37c-33.29,3.66-59.26,31.85-59.26,66.18v16.97
			c-22.45-39.55-35.24-85.37-35.24-134.06C111.96,233.79,233.75,112,384,112L384,112L384,112z M376.17,655.94
			C378.65,656.07,377.34,655.94,376.17,655.94L376.17,655.94L376.17,655.94z M225.92,346.44L225.92,346.44v87.98h42.42v-59.79v0.13
			c0-0.52,0-1.17,0-1.96c0-0.39,0-2.09,0-2.22c-0.26-9.01-0.13-15.01,0.39-22.32c0.78-10.18,2.35-19.71,5.22-28.85
			c5.74-18.8,16.19-34.46,32.11-45.95c18.54-13.31,43.6-20.36,75.97-20.36c32.11,0,57.04,7.05,75.19,20.23
			c15.66,11.49,25.72,27.02,31.46,45.82c2.48,8.35,4.18,17.1,4.96,26.5c0.65,6.53,0.78,10.7,1.04,21.15
			c0.13,3.26,0.13,5.09,0.26,6.53v0.39v0.39v60.31h41.25l0.13-86.41c0-48.04-14.36-83.41-41.64-106.65
			c-26.11-22.32-64.62-33.81-113.57-34.46c-48.17-0.65-86.81,10.7-113.3,33.16C240.41,263.42,225.92,298.93,225.92,346.44
			L225.92,346.44L225.92,346.44z M287.66,434.42h187.97v-60.31v0.65c-0.13-1.83-0.13-3.79-0.26-7.44
			c-0.26-9.92-0.39-13.71-1.04-19.71c-0.78-8.09-2.09-15.53-4.18-22.45c-4.44-14.75-12.14-26.63-24.15-35.38
			c-14.62-10.7-35.64-16.58-64.09-16.58c-28.72,0-50,6-65.01,16.71c-12.27,8.88-20.23,20.76-24.67,35.64
			c-2.35,7.57-3.66,15.53-4.31,24.28c-0.52,6.4-0.52,11.88-0.39,20.36c0,0.13,0,1.83,0,2.22c0,0.78,0,1.44,0,2.09v0.13v59.79H287.66
			L287.66,434.42z M588.94,502.3c0-28.07-22.71-50.78-50.78-50.78l-318.77,0c-28.07,0-50.78,22.84-50.78,50.78v47.91
			c5.74,7.44,11.88,14.62,18.41,21.54v-55.22c0-25.72,20.89-46.73,46.73-46.73l290.18,0c25.72,0,46.73,20.89,46.73,46.73v65.66
			c6.4-6.14,12.66-12.4,18.41-19.19v-60.7H588.94L588.94,502.3z M214.7,596.94c159.78,127.27,329.6,7.05,328.17,7.96v-83.67
			c0-15.01-12.27-27.28-27.28-27.28l0,0l-273.6,0c-15.01,0-27.28,12.27-27.28,27.28V596.94z"/>
	</g>
</svg>
