<svg xmlns="http://www.w3.org/2000/svg"
	 viewBox="0 0 768 768"
	 width="48"
	 height="48"
>
	<style type="text/css">
		.container{
			width: 50%;
			max-width: 300px;
			display: block;
			animation: 5s infinite both i-animation;
			animation-delay: 1.5s;
		}
		@keyframes i-animation {
			0% {transform: translateY(-48px);}
			50% {transform: translateY(48px);}
			100% {transform: translateY(-48px);}
		}
	</style>
	<g class="container">
		<path fill="#FFFFFF" fill-rule="evenodd" d="M328.95,490.46l-6.11-43.28l-43.28-6.11v20.21h-20.21l5.74,42.53l43.78,6.86v-20.08h20.08V490.46
			L328.95,490.46z M369.49,124.12v7.23l16.47,19.46l16.46-19.33v-7.23h15.34v15.34h-5.74l15.09,28.07l27.19-25.07v-7.23l15.34,0
			v15.34h-5.86l8.98,20.71l25.82-9.11v-6.86l15.34,0v15.34l-6.61,0l-3.24,23.57h14.09v12.85l19.21-18.09v-7.23l15.34,0v15.34l-6.24,0
			l4.62,20.21l24.07,6.24v-6.24h15.34v15.34h-7.11l-22.08,20.71h12.47v14.34l29.81-2.74v-6.61h15.34v15.34h-6.99l-15.34,24.7
			l24.57,10.48v-5.86h15.34v15.34h-15.34v-4.62l-30.81,32.81l41.41,11.35v-6.11l15.34,0v15.34h-13.72l-24.7,16.84l24.57,16.84h13.85
			v15.34h-15.34v-6.11l-41.41,11.35l30.81,33.05v-4.62h15.34v15.34l-15.34,0v-5.86l-24.57,10.35l15.22,24.7h6.98v15.34h-15.34v-6.61
			l-29.81-2.74v14.22l-12.6,0l22.08,20.71h7.23v15.34h-15.34v-6.11l-24.07,6.24l-4.49,20.08h6.11v15.34l-15.34,0v-7.11l-19.08-17.96
			v12.72l-14.22,0l3.24,23.57l6.61,0v15.34h-15.34v-6.74l-25.7-9.11l-8.98,20.58l5.86,0v15.34l-15.34,0v-7.11l-27.19-25.2
			l-15.09,28.07h5.61v15.34H402.3v-7.23l-16.34-19.33l-16.47,19.33v7.23h-15.34v-15.34h5.61L344.8,600.6l-27.19,25.07v7.11l-15.34,0
			v-15.34h5.86l-8.98-20.58l-25.7,9.11v6.86l-15.34,0v-15.34h6.61l3.24-23.57l-14.22,0v-12.72l-19.21,18.09v7.11h-15.34v-15.34
			l6.11,0l-4.49-20.08l-24.07-6.24v6.11h-15.34v-15.34h7.23l22.08-20.71h-12.47v-14.22l-29.81,2.74v6.61l-15.34,0v-15.34h6.99
			l15.22-24.7l-24.57-10.48v5.86l-15.34,0v-15.34l15.34,0v4.62l30.81-33.05l-41.41-11.35v6.11h-15.34V400.9h7.36l27.32-16.84
			L132,367.1h-7.36v-15.34l15.34,0v6.11l41.41-11.35l-30.81-33.05v4.62h-15.34v-15.34h15.34v5.86l24.57-10.35l-15.34-24.7h-6.98
			v-15.34h15.34v6.61l29.81,2.74v-14.34h12.47l-22.08-20.71h-6.98v-15.34l15.34,0v6.24l24.07-6.24l4.62-20.21h-6.24v-15.34h15.34
			v7.23l19.21,18.09v-12.85h14.22l-3.24-23.57h-6.61v-15.34h15.34v6.86l25.7,9.11l8.98-20.71h-5.86v-15.34h15.34v7.23l27.19,25.07
			l15.09-28.07h-5.74v-15.34l15.34,0V124.12L369.49,124.12z M369.49,135.09v4.37h-6.99l-15.34,28.81h13.47v12.35l23.7-27.94
			L369.49,135.09L369.49,135.09L369.49,135.09z M409.28,139.46h-6.86v-4.37l-14.84,17.59l23.7,27.94v-12.35h1.25h12.35L409.28,139.46
			L409.28,139.46L409.28,139.46z M317.6,145.7v4.86h-6.86l-9.35,21.45l28.19,9.98v-13.72h12.47L317.6,145.7L317.6,145.7L317.6,145.7z
			 M461.17,150.56h-6.86v-4.86l-24.45,22.45h12.47v13.85l28.19-9.98L461.17,150.56L461.17,150.56L461.17,150.56z M504.83,170.64
			h-6.24v-5.99l-24.82,8.86l13.35,30.56v-9.85l14.47,0L504.83,170.64L504.83,170.64L504.83,170.64z M273.32,164.66v5.86h-6.36
			l3.24,23.57h14.47v9.85l13.35-30.56L273.32,164.66L273.32,164.66L273.32,164.66z M234.53,192.35v4.86h-6.74l-4.37,19.58l29.19-7.48
			L234.53,192.35L234.53,192.35L234.53,192.35z M544.12,197.09h-6.74v-4.86l-17.96,16.96l29.19,7.48L544.12,197.09L544.12,197.09
			L544.12,197.09z M196.74,226.02v6.74H192l20.96,19.71l7.36-32.43L196.74,226.02L196.74,226.02L196.74,226.02z M579.92,232.64h-4.74
			v-6.74l-23.57-5.99l7.36,32.43L579.92,232.64L579.92,232.64L579.92,232.64z M168.3,267.31v6.36h-5.61l14.72,23.82l30.44-12.85
			l-9.73,0v-14.47L168.3,267.31L168.3,267.31L168.3,267.31z M609.23,273.55h-5.49v-6.36l-29.81,2.74v14.47l-9.85,0l30.44,12.85
			L609.23,273.55L609.23,273.55L609.23,273.55z M140.11,360.49v6.74h-3.49l25.07,15.47l32.18-19.96h-11.48v-13.97L140.11,360.49
			L140.11,360.49L140.11,360.49z M631.81,365.35v-4.86l-42.41-11.6v13.97h-11.73l28.94,19.83L631.81,365.35L631.81,365.35
			L631.81,365.35z M402.42,633.03v-4.37h6.99l15.47-28.81h-13.6V587.5l-23.7,27.94L402.42,633.03L402.42,633.03L402.42,633.03z
			 M362.51,628.67h6.99v4.37l14.84-17.59l-23.7-27.94v12.35h-13.6L362.51,628.67L362.51,628.67L362.51,628.67z M454.31,622.43v-4.99
			h6.86l9.35-21.45l-28.19-9.98v13.85h-12.47L454.31,622.43L454.31,622.43L454.31,622.43z M310.74,617.57h6.86v4.99l24.45-22.58
			h-12.47v-13.85l-28.19,9.98L310.74,617.57L310.74,617.57L310.74,617.57z M267.09,597.48h6.24v5.99l24.82-8.86l-13.35-30.56v9.85
			l-14.47,0L267.09,597.48L267.09,597.48L267.09,597.48z M498.59,603.47v-5.99l6.24,0l-3.24-23.57l-14.47,0v-9.85l-13.35,30.56
			L498.59,603.47L498.59,603.47L498.59,603.47z M537.39,575.9v-4.86h6.74l4.37-19.46l-29.19,7.48L537.39,575.9L537.39,575.9
			L537.39,575.9z M227.8,571.04h6.74v4.86l18.09-16.96l-29.19-7.48L227.8,571.04L227.8,571.04L227.8,571.04z M575.18,542.23v-6.74
			h4.62l-20.83-19.58l-7.36,32.43L575.18,542.23L575.18,542.23L575.18,542.23z M192,535.49h4.62v6.74l23.57,5.99l-7.36-32.43
			L192,535.49L192,535.49L192,535.49z M603.62,500.81v-6.36h5.49l-14.72-23.7l-30.31,12.85l9.73,0v14.47L603.62,500.81L603.62,500.81
			L603.62,500.81z M162.81,494.58h5.49v6.36l29.81-2.74v-14.47l9.73,0l-30.31-12.85L162.81,494.58L162.81,494.58L162.81,494.58z
			 M631.81,407.76v-4.99l-25.2-17.34l-28.94,19.83l11.72,0v13.97L631.81,407.76L631.81,407.76L631.81,407.76z M136.74,400.9h3.37
			v6.74l42.41,11.6v-13.97h11.35l-32.06-19.83L136.74,400.9L136.74,400.9L136.74,400.9z M279.56,438.57v-19.33v-1.25l-21.08,0
			l-35.3-33.93l35.42-34.05h20.96v-20.46l43.03-5.99l-3.99,28.31l-31.31,0v64.61h31.31l3.99,28.31L279.56,438.57L279.56,438.57
			L279.56,438.57z M320.97,416.37h30.93v-64.61l-30.93,0l3.99-28.56l28.69-3.99v30.81h64.61V319.2l30.93,4.37l5.36,28.31l-34.55,0
			v64.61h34.55l-5.36,28.31l-30.93,4.37v-30.93h-64.61v30.93l-28.69-3.99L320.97,416.37L320.97,416.37L320.97,416.37z M353.65,451.42
			v31.31h64.61v-31.31l30.56-4.24l-8.23,43.28l-20.58,0v20.96l-34.05,25.94l-34.05-25.94v-20.96h-20.46l-5.99-43.03L353.65,451.42
			L353.65,451.42L353.65,451.42z M556.84,253.34l-7.73-34.18l-30.93-7.98v13.97h-14.22l4.99,37.05l33.8,5.24v-14.22h14.09V253.34
			L556.84,253.34z M553.85,284.52h-11.1v-14.47l-33.55-5.24l5.61,41.54L553.85,284.52L553.85,284.52L553.85,284.52z M457.06,351.76
			h27.57v64.61l-27.57,0l-5.24,27.94l40.66-5.74v-20.46l21.08,0l35.3-34.05l-35.42-34.05h-20.96v-20.46l-40.66-5.74L457.06,351.76
			L457.06,351.76L457.06,351.76z M418.26,285.4v31.31l30.56,4.24l-8.23-43.41l-20.58,0v-20.71l-34.05-26.07l-34.05,26.07v20.83
			h-20.46l-6.11,43.03l28.31-3.99V285.4H418.26L418.26,285.4L418.26,285.4z M442.96,277.66l8.23,43.66l41.16,5.74v-20.21h20.21
			l-5.74-42.53l-43.78-6.86v20.08h-20.08V277.66L442.96,277.66z M420.01,253.72v-19.21l19.71,0l-13.6-34.55l-38.29,29.19
			L420.01,253.72L420.01,253.72L420.01,253.72z M442.34,234.63h20.71v19.08l36.17-28.44h-12.1v-15.22l-15.59-35.8l-29.19,10.35v14.59
			h-13.85L442.34,234.63L442.34,234.63L442.34,234.63z M328.95,277.66h-20.21v-20.08l-43.78,6.86l-5.74,42.53l20.21,0v20.21
			l43.28-6.11L328.95,277.66L328.95,277.66L328.95,277.66z M308.87,253.72v-19.08h20.71l13.85-35.3h-13.85v-14.59l-29.19-10.35
			l-15.59,35.8v15.22l-12.1,0L308.87,253.72L308.87,253.72L308.87,253.72z M332.07,234.63h19.71v19.21l32.06-24.45l-38.29-29.19
			L332.07,234.63L332.07,234.63L332.07,234.63z M442.34,533.49l-13.85,35.3h13.85v14.72l29.19,10.35l15.59-35.8v-15.34l12.1,0
			l-36.05-28.31v19.08L442.34,533.49L442.34,533.49L442.34,533.49z M439.84,533.49h-19.83v-19.08l-32.06,24.45l38.29,29.19
			L439.84,533.49L439.84,533.49L439.84,533.49z M442.96,490.46h20.08v20.08l43.78-6.86l5.74-42.53l-20.21,0v-20.21l-41.16,5.74
			L442.96,490.46L442.96,490.46L442.96,490.46z M332.07,533.49l13.6,34.55l38.29-29.19l-32.06-24.45v19.08H332.07L332.07,533.49
			L332.07,533.49z M329.58,533.49h-20.71v-19.08l-36.05,28.31l12.1,0v15.34l15.59,35.8l29.19-10.35v-14.72l13.85,0L329.58,533.49
			L329.58,533.49L329.58,533.49z M255.11,350.01h-18.59v-19.08l-22.95,16.96v14.84h-12.6l20.46,19.58L255.11,350.01L255.11,350.01
			L255.11,350.01z M236.53,327.93v-20.96h16.84l-39.79-22.33l-34.8,14.72l19.96,32.31h14.97v13.22L236.53,327.93L236.53,327.93
			L236.53,327.93z M253.49,461.15h-16.96v-20.96l-22.95-16.96v13.22h-14.84l-19.96,32.31l34.8,14.72L253.49,461.15L253.49,461.15
			L253.49,461.15z M236.53,437.32v-19.21h18.59l-33.68-32.43l-20.33,19.58h12.47v14.97L236.53,437.32L236.53,437.32L236.53,437.32z
			 M535.39,327.93l22.95,16.96v-13.22h14.97l19.96-32.31l-34.8-14.72l-39.79,22.33h16.84v20.96H535.39L535.39,327.93z M535.39,330.93
			v19.08H516.8l33.68,32.43l20.46-19.58h-12.6v-14.97L535.39,330.93L535.39,330.93L535.39,330.93z M535.39,419.36v17.96l22.83-16.96
			v-14.97h12.47l-20.33-19.58l-33.68,32.43h18.59v1.12H535.39L535.39,419.36z M535.39,440.32v20.96l-16.96,0l39.91,22.33l34.8-14.72
			l-19.96-32.31h-14.84v-13.22L535.39,440.32L535.39,440.32L535.39,440.32z M423.38,199.33h-12.1v-15.09l-25.32-29.81l-25.32,29.81
			v15.09h-12.1l37.42,28.44L423.38,199.33L423.38,199.33L423.38,199.33z M267.96,225.28h-14.22v-13.97l-30.93,7.98l-7.73,34.18h14.1
			v14.22l33.8-5.24L267.96,225.28L267.96,225.28L267.96,225.28z M229.17,270.06v14.47h-11.1l39.04,21.83l5.61-41.54L229.17,270.06
			L229.17,270.06L229.17,270.06z M195.86,331.67l-19.33-31.31l-24.95,10.6l31.06,33.3l0-12.6H195.86L195.86,331.67L195.86,331.67z
			 M576.05,331.67h13.35v12.6l31.06-33.3l-24.95-10.6L576.05,331.67L576.05,331.67L576.05,331.67z M215.07,514.78h14.1v-14.1
			l33.8,5.24l4.99,36.92h-14.22v13.97l-30.93-7.98L215.07,514.78L215.07,514.78L215.07,514.78z M218.19,483.6l38.92-21.7l5.61,41.54
			l-33.43-5.24v-14.47l-11.1,0V483.6L218.19,483.6z M348.66,568.79h11.97v15.09l25.32,29.81l25.32-29.81v-15.09h11.97l-37.3-28.44
			L348.66,568.79L348.66,568.79L348.66,568.79z M503.96,542.85h14.22v13.97l30.93-7.98l7.73-34.18h-14.1v-14.1l-33.8,5.24
			L503.96,542.85L503.96,542.85L503.96,542.85z M542.75,498.19v-14.47l10.98,0l-38.92-21.7l-5.61,41.54L542.75,498.19L542.75,498.19
			L542.75,498.19z M575.93,436.45l19.46,31.43l24.95-10.6l-31.06-33.3v12.47H575.93L575.93,436.45L575.93,436.45z M195.86,436.45
			h-13.35v-12.47l-31.06,33.18l24.95,10.6L195.86,436.45L195.86,436.45L195.86,436.45z M573.93,405.02l30.56-20.96l-30.56-20.96
			l-21.7,20.96L573.93,405.02L573.93,405.02L573.93,405.02z M219.69,384.06l-21.83-20.96l-33.8,20.96l33.93,20.96L219.69,384.06
			L219.69,384.06L219.69,384.06z M464.79,255.46l41.66,6.49l-4.74-35.55L464.79,255.46L464.79,255.46L464.79,255.46z M270.2,226.4
			l-4.74,35.55l41.66-6.49L270.2,226.4L270.2,226.4L270.2,226.4z M464.79,512.79l36.92,29.06l4.74-35.55L464.79,512.79L464.79,512.79
			L464.79,512.79z M270.2,541.73l-4.74-35.55l41.66,6.49L270.2,541.73z"/>
	</g>
</svg>
