<svg xmlns="http://www.w3.org/2000/svg"
	 viewBox="0 0 768 768"
	 width="48"
	 height="48"
>
	<style type="text/css">
		.container{
			width: 50%;
			max-width: 300px;
			display: block;
			animation: 5s infinite both i-animation;
			animation-delay: 1s;
		}
		@keyframes i-animation {
			0% {transform: translateY(-48px);}
			50% {transform: translateY(48px);}
			100% {transform: translateY(-48px);}
		}
	</style>
	<g class="container">
		<path fill="#FFFFFF" fill-rule="evenodd" d="M461.26,291.55L461.26,291.55c11.61,0,21.14,9.53,21.14,21.14v141.86c0,11.61-9.14,19.97-21.14,21.14
			c-8.48,0.91-20.75-0.78-28.32-9.92l-94.09-113.02v101.79c0,11.61-9.53,21.14-21.14,21.14l0,0c-11.61,0-21.14-9.53-21.14-21.14
			V312.69c0-11.61,10.44-19.71,21.14-21.14c11.22-1.57,20.75,2.87,26.75,9.92l95.79,113.15V312.69
			C440.12,301.07,449.65,291.55,461.26,291.55L461.26,291.55z M589.19,313.11l15.6-0.06l-0.13-27.9h0.03c0-7.8-2.06-15.5-5.98-22.26
			c-3.77-6.51-9.25-12.13-16.27-16.11l-0.01,0.01c-13.56-7.82-50.55-29.19-87.54-50.56c-18.97-10.96-37.75-21.81-82.86-47.82l0,0.01
			c-6.76-4-14.54-6.17-22.43-6.22c-7.64-0.05-15.38,1.85-22.43,5.96l0.01,0.01l-83.96,48.46c-75.08,43.34-59.01,34.05-83.63,48.27
			c-7.66,3.55-14.12,9.23-18.64,16.26c-4.47,6.94-7.05,15.19-7.05,23.99h0.03l0.13,197.45h-0.03c0,7.8,2.06,15.5,5.98,22.27
			c3.77,6.51,9.25,12.13,16.27,16.11l0.01-0.01c13.58,7.83,50.69,29.27,87.65,50.62c18.95,10.95,38.09,22.01,82.75,47.76l0-0.01
			c6.76,4,14.54,6.17,22.43,6.22c7.64,0.05,15.38-1.85,22.43-5.95l-0.01-0.01l83.96-48.46c78.25-45.18,55.08-31.79,83.63-48.27
			c7.66-3.55,14.12-9.23,18.64-16.26c4.47-6.94,7.05-15.19,7.05-23.99v-59.17c0-13.61-4.6-24.27-12.06-31.73
			c-7.79-7.79-18.79-11.81-31.8-11.81h-27.39v15h27.39c8.97,0,16.31,2.52,21.2,7.41c4.67,4.67,7.01,11.74,7.01,21.12v59.17
			c0,5.74-1.67,11.08-4.54,15.55c-2.97,4.61-7.21,8.32-12.24,10.6l-0.7,0.37c-85.12,49.16-61.33,35.44-83.94,48.49l-83.98,48.48
			h-0.03c-4.58,2.67-9.6,3.91-14.53,3.88c-5.16-0.04-10.23-1.45-14.64-4.07l-0.09-0.06c-10.51-6.06-46.5-26.85-82.69-47.76
			c-21.48-12.41-42.8-24.73-87.75-50.64l-0.03-0.03c-4.51-2.55-8.03-6.17-10.46-10.36c-2.51-4.34-3.84-9.34-3.84-14.44h-0.03
			l-0.13-197.45h0.03c0-5.74,1.67-11.08,4.54-15.55c2.97-4.61,7.21-8.32,12.24-10.6l0.7-0.37c81.15-46.87,64.47-37.25,83.94-48.49
			l83.98-48.48H375c4.58-2.67,9.6-3.91,14.53-3.87c5.16,0.04,10.23,1.45,14.64,4.07l0.09,0.06c10.13,5.84,46.56,26.89,82.8,47.82
			c21.37,12.35,42.75,24.69,87.64,50.58l0.03,0.03c4.51,2.55,8.03,6.17,10.46,10.36c2.51,4.34,3.84,9.34,3.84,14.43l0.03,0.03
			L589.19,313.11L589.19,313.11z M411.15,117.98c-12.79-7.57-29.23-8.22-42.93-0.39l-99.31,57.42v0.13l-95.79,55.33
			c-14.75,6.79-24.93,21.53-24.93,38.76v229.43l0.13,0c0,14.75,7.7,28.97,21.27,36.8l96.96,55.99c0.78,0.39,1.44,0.91,2.22,1.3
			l98.92,57.29c12.79,7.57,29.23,8.22,43.07,0.26l99.31-57.42v-0.13l95.66-55.33c14.75-6.79,24.93-21.53,24.93-38.76V269.23l-0.13,0
			c0-14.75-7.7-28.97-21.27-36.8l-96.96-55.99c-0.78-0.39-1.44-0.91-2.22-1.31L411.15,117.98z"/>
	</g>
</svg>
