<svg xmlns="http://www.w3.org/2000/svg"
	 viewBox="0 0 768 768"
	 width="48"
	 height="48"
>
	<style type="text/css">
		.container{
			width: 50%;
			max-width: 300px;
			display: block;
			animation: 5s infinite both i-animation;
			animation-delay: 1.5s;
		}
		@keyframes i-animation {
			0% {transform: translateY(-48px);}
			50% {transform: translateY(48px);}
			100% {transform: translateY(-48px);}
		}
	</style>
	<g class="container">
		<path fill="#FFFFFF" d="M384,112c-29.01,0-68.35,32.5-68.35,172.68S365.17,618.05,384,618.05s68.35-193.19,68.35-333.37
			C452.35,144.5,413.01,112,384,112L384,112L384,112L384,112z M346.34,113.67c-42.68,15.34-85.5,65-85.5,171.01
			c0,119.68,56.49,239.35,99.17,319.7c-58.16-66.67-143.67-201.69-143.67-324.86C216.48,165,281.48,124,346.34,113.67L346.34,113.67
			L346.34,113.67L346.34,113.67z M260.84,139.34C223.17,171.84,189,212.85,189,284.68c0,111.17,82.02,236.01,152.18,318.02
			c-68.35-66.67-169.33-206.85-169.33-318.02C173.66,207.83,212.99,163.33,260.84,139.34L260.84,139.34L260.84,139.34L260.84,139.34z
			 M421.66,113.67c63.33,12,130,51.33,130,165.85c0,123.16-85.5,258.18-143.67,324.86c42.68-80.34,99.17-200.02,99.17-319.7
			C507.16,178.67,466.02,129.16,421.66,113.67L421.66,113.67L421.66,113.67L421.66,113.67z M507.16,139.34
			c47.84,23.99,87.18,68.35,87.18,145.34c0,111.17-100.85,251.35-169.33,318.02c70.16-82.02,152.18-206.85,152.18-318.02
			C577.18,212.85,543.01,171.84,507.16,139.34L507.16,139.34z M341.32,642.04h85.36l-10.18,51.33h-65L341.32,642.04z"/>
	</g>
</svg>
