<svg xmlns="http://www.w3.org/2000/svg"
	 viewBox="0 0 768 768"
	 width="48"
	 height="48"
>
	<style type="text/css">
		.container{
			width: 50%;
			max-width: 300px;
			display: block;
			animation: 5s infinite both i-animation;
			animation-delay: 2s;
		}
		@keyframes i-animation {
			0% {transform: translateY(-48px);}
			50% {transform: translateY(48px);}
			100% {transform: translateY(-48px);}
		}
	</style>
	<g class="container">
		<path fill="#FFFFFF" d="M292.37,461.91H372v79.63c0,43.8-35.84,79.63-79.63,79.63l0,0c-43.8,0-79.63-35.84-79.63-79.63l0,0
		C212.73,497.74,248.57,461.91,292.37,461.91L292.37,461.91z M463.49,119.37h-79.63v159.27h79.63c43.8,0,79.63-35.84,79.63-79.63
		l0,0C543.13,155.2,507.29,119.37,463.49,119.37L463.49,119.37z M292.37,119.37H372v159.27h-79.63c-43.8,0-79.63-35.84-79.63-79.63
		l0,0C212.73,155.2,248.57,119.37,292.37,119.37L292.37,119.37z M292.37,290.64H372v159.27h-79.63c-43.8,0-79.63-35.83-79.63-79.63
		l0,0C212.73,326.47,248.57,290.64,292.37,290.64L292.37,290.64z M462.63,290.64c44.46,0,80.5,36.04,80.5,80.5
		c0,44.46-36.04,80.5-80.5,80.5c-44.46,0-80.5-36.04-80.5-80.5C382.13,326.68,418.17,290.64,462.63,290.64z"/>
	</g>
</svg>
