<svg xmlns="http://www.w3.org/2000/svg"
	 viewBox="0 0 768 768"
	 width="48"
	 height="48"
>
	<style type="text/css">
		.container{
			width: 50%;
			max-width: 300px;
			display: block;
			animation: 5s infinite both i-animation;
			animation-delay: 1s;
		}
		@keyframes i-animation {
			0% {transform: translateY(-48px);}
			50% {transform: translateY(48px);}
			100% {transform: translateY(-48px);}
		}
	</style>
	<g class="container">
		<path fill="#333333" d="M128.95,129.62v508.77h508.77V129.62H128.95L128.95,129.62z M169.06,169.73h428.68v428.68l-428.68,0V169.73
			L169.06,169.73L169.06,169.73z"/>
		<path fill="#333333" d="M313.47,423.9L298,482.98c0,1.45-1.45,1.45-2.78,1.45l-29.48,0c-1.45,0-2.78,0-1.45-2.78l56.3-196.93
			c1.45-4.23,1.45-7.01,1.45-16.91c0-1.45,0-1.45,1.45-1.45h42.17c1.45,0,1.45,0,2.78,1.45l63.31,213.73c0,1.45,0,2.78-1.45,2.78
			h-32.38c-1.45,0-2.78,0-2.78-1.45l-16.91-59.08l-64.76,0V423.9L313.47,423.9z M368.32,391.52L368.32,391.52L368.32,391.52
			c-5.56-22.47-18.24-70.2-23.92-92.79l0,0c-4.23,22.47-14.01,61.86-22.47,92.79H368.32L368.32,391.52z M458.33,281.93
			c0-12.69,8.46-19.69,19.69-19.69c12.69,0,19.69,8.46,19.69,19.69c0,12.69-8.46,19.69-21.14,19.69
			C466.78,301.63,458.33,294.5,458.33,281.93L458.33,281.93L458.33,281.93L458.33,281.93z M459.78,326.88c0-1.45,0-2.78,2.78-2.78
			h30.93c1.45,0,2.78,0,2.78,2.78v156.1c0,1.45,0,2.78-2.78,2.78l-30.93,0c-1.45,0-2.78-1.45-2.78-2.78V326.88L459.78,326.88
			L459.78,326.88L459.78,326.88z"/>
	</g>
</svg>
