<svg xmlns="http://www.w3.org/2000/svg"
	 viewBox="0 0 768 768"
	 width="48"
	 height="48"
>
	<style type="text/css">
		.container{
			width: 50%;
			max-width: 300px;
			display: block;
			animation: 5s infinite both i-animation;
			animation-delay: 0.5s;
		}
		@keyframes i-animation {
			0% {transform: translateY(-48px);}
			50% {transform: translateY(48px);}
			100% {transform: translateY(-48px);}
		}
	</style>
	<g class="container">
		<path fill="#333333" d="M128.95,129.62v508.77h508.77V129.62H128.95L128.95,129.62z M169.06,169.73h428.68v428.68l-428.68,0V169.73
			L169.06,169.73L169.06,169.73z"/>
		<path fill="#333333" d="M449.69,448.9c13.86,0,19.99-4.66,19.99-12.39c0-7.73-4.66-16.92-21.59-23.19
			c-30.78-10.79-43.17-23.19-43.17-41.58c0-29.32,24.65-50.9,61.7-50.9c16.92,0,32.38,6.13,41.58,10.79v35.45
			c-6.13-3.07-26.25-12.39-40.11-12.39c-10.79,0-18.52,4.66-18.52,12.39c0,7.73,6.13,10.79,24.65,18.52
			c29.32,10.79,41.58,24.65,41.58,47.84c0,29.32-21.59,52.37-66.36,50.9c-15.46,0-30.78-6.13-43.17-12.39V436.5
			C417.31,441.17,437.3,448.9,449.69,448.9L449.69,448.9L449.69,448.9L449.69,448.9z M295.38,377.87
			c26.25,3.06,52.37-4.66,52.37-35.45c0-33.98-24.65-37.05-52.37-35.45V377.87L295.38,377.87L295.38,377.87L295.38,377.87z
			 M252.21,273c0,0,32.38-1.6,58.63-1.6c43.17,0,78.62,18.52,78.62,66.36c0,47.84-33.98,72.49-78.62,75.56c-7.73,0-15.46,0-15.46,0
			v66.36h-43.17V273L252.21,273L252.21,273z"/>
	</g>
</svg>
